 0
SECTION
 2
ENTITIES
  0
LINE
 8
Layer0
10
-159.062275871113
20
84.853020653742
30
9.02389274415327e-014
11
-159.358936374636
21
84.5727612042194
31
9.02389274415327e-014
  0
LINE
 8
Layer0
10
-133.451848852695
20
87.1063808934631
30
9.02389274415327e-014
11
-133.092760327596
21
87.3003093455769
31
9.02389274415327e-014
  0
LINE
 8
Layer0
10
-132.695715070484
20
87.3946908967524
30
9.02389274415327e-014
11
-132.287771059483
21
87.3830936002498
31
9.02389274415327e-014
  0
LINE
 8
Layer0
10
-160.026979944242
20
87.3830936002498
30
9.02389274415327e-014
11
-159.635937889543
21
87.2663077926603
31
9.02389274415327e-014
  0
LINE
 8
Layer0
10
-161.818519607453
20
86.0875881606446
30
9.02389274415327e-014
11
-161.701733799864
21
86.4786302153435
31
9.02389274415327e-014
  0
LINE
 8
Layer0
10
-133.174847337789
20
84.4128343050221
30
9.02389274415327e-014
11
-133.522338566386
21
84.626849863909
31
9.02389274415327e-014
  0
LINE
 8
Layer0
10
-160.434923955242
20
87.3946908967524
30
9.02389274415327e-014
11
-160.026979944242
21
87.3830936002498
31
9.02389274415327e-014
  0
LINE
 8
Layer0
10
-161.735735352781
20
85.282598892532
30
9.02389274415327e-014
11
-161.830116903956
21
85.679644149644
31
9.02389274415327e-014
  0
LINE
 8
Layer0
10
-133.962524915105
20
86.4786302153435
30
9.02389274415327e-014
11
-133.748509356219
21
86.8261214439405
31
9.02389274415327e-014
  0
LINE
 8
Layer0
10
-174.972408123488
20
37.0830936002498
30
9.02389274415327e-014
11
-174.581366068789
21
36.9663077926603
31
9.02389274415327e-014
  0
LINE
 8
Layer0
10
-133.522338566386
20
84.626849863909
30
9.02389274415327e-014
11
-133.802598015908
21
84.9235103674324
31
9.02389274415327e-014
  0
LINE
 8
Layer0
10
-176.775545083202
20
35.379644149644
30
9.02389274415327e-014
11
-176.7639477867
21
35.7875881606446
31
9.02389274415327e-014
  0
LINE
 8
Layer0
10
-159.288446660946
20
87.0522922337735
30
9.02389274415327e-014
11
-159.008187211423
21
86.7556317302501
31
9.02389274415327e-014
  0
LINE
 8
Layer0
10
-130.992265619878
20
85.5915539370378
30
9.02389274415327e-014
11
-131.109051427467
21
85.2005118823389
31
9.02389274415327e-014
  0
LINE
 8
Layer0
10
-175.380352134488
20
37.0946908967524
30
9.02389274415327e-014
11
-174.972408123488
21
37.0830936002498
31
9.02389274415327e-014
  0
LINE
 8
Layer0
10
-174.233874840192
20
36.7522922337735
30
9.02389274415327e-014
11
-173.953615390669
21
36.4556317302501
31
9.02389274415327e-014
  0
LINE
 8
Layer0
10
-176.681163532027
20
34.982598892532
30
9.02389274415327e-014
11
-176.775545083202
21
35.379644149644
31
9.02389274415327e-014
  0
LINE
 8
Layer0
10
-176.64716197911
20
36.1786302153435
30
9.02389274415327e-014
11
-176.433146420223
21
36.5261214439405
31
9.02389274415327e-014
  0
LINE
 8
Layer0
10
-173.759686938555
20
36.0965432051505
30
9.02389274415327e-014
11
-173.66530538738
21
35.6994979480385
31
9.02389274415327e-014
  0
LINE
 8
Layer0
10
-174.581366068789
20
36.9663077926603
30
9.02389274415327e-014
11
-174.233874840192
21
36.7522922337735
31
9.02389274415327e-014
  0
LINE
 8
Layer0
10
-176.433146420223
20
36.5261214439405
30
9.02389274415327e-014
11
-176.1364859167
21
36.8063808934631
31
9.02389274415327e-014
  0
LINE
 8
Layer0
10
-131.896729004784
20
87.2663077926603
30
9.02389274415327e-014
11
-131.549237776187
21
87.0522922337735
31
9.02389274415327e-014
  0
LINE
 8
Layer0
10
-132.287771059483
20
87.3830936002498
30
9.02389274415327e-014
11
-131.896729004784
21
87.2663077926603
31
9.02389274415327e-014
  0
LINE
 8
Layer0
10
-175.859484401793
20
34.1128343050222
30
9.02389274415327e-014
11
-176.20697563039
21
34.326849863909
31
9.02389274415327e-014
  0
LINE
 8
Layer0
10
-174.304364553882
20
34.2727612042194
30
9.02389274415327e-014
11
-174.663453078982
21
34.0788327521056
31
9.02389274415327e-014
  0
LINE
 8
Layer0
10
-173.953615390669
20
36.4556317302501
30
9.02389274415327e-014
11
-173.759686938555
21
36.0965432051505
31
9.02389274415327e-014
  0
LINE
 8
Layer0
10
-176.20697563039
20
34.326849863909
30
9.02389274415327e-014
11
-176.487235079913
21
34.6235103674324
31
9.02389274415327e-014
  0
LINE
 8
Layer0
10
-160.831969212354
20
87.3003093455769
30
9.02389274415327e-014
11
-160.434923955242
21
87.3946908967524
31
9.02389274415327e-014
  0
LINE
 8
Layer0
10
-131.549237776187
20
87.0522922337735
30
9.02389274415327e-014
11
-131.268978326664
21
86.7556317302501
31
9.02389274415327e-014
  0
LINE
 8
Layer0
10
-160.115070156848
20
84.2844512009301
30
9.02389274415327e-014
11
-160.523014167848
21
84.2960484974327
31
9.02389274415327e-014
  0
LINE
 8
Layer0
10
-175.060498336094
20
33.9844512009301
30
9.02389274415327e-014
11
-175.468442347095
21
33.9960484974327
31
9.02389274415327e-014
  0
LINE
 8
Layer0
10
-134.079310722695
20
86.0875881606446
30
9.02389274415327e-014
11
-133.962524915105
21
86.4786302153435
31
9.02389274415327e-014
  0
LINE
 8
Layer0
10
-159.358936374636
20
84.5727612042194
30
9.02389274415327e-014
11
-159.718024899736
21
84.3788327521056
31
9.02389274415327e-014
  0
LINE
 8
Layer0
10
-159.718024899736
20
84.3788327521056
30
9.02389274415327e-014
11
-160.115070156848
21
84.2844512009301
31
9.02389274415327e-014
  0
LINE
 8
Layer0
10
-133.748509356219
20
86.8261214439405
30
9.02389274415327e-014
11
-133.451848852695
21
87.1063808934631
31
9.02389274415327e-014
  0
LINE
 8
Layer0
10
-161.541806900667
20
84.9235103674324
30
9.02389274415327e-014
11
-161.735735352781
21
85.282598892532
31
9.02389274415327e-014
  0
LINE
 8
Layer0
10
-175.468442347095
20
33.9960484974327
30
9.02389274415327e-014
11
-175.859484401793
21
34.1128343050222
31
9.02389274415327e-014
  0
LINE
 8
Layer0
10
-161.261547451144
20
84.626849863909
30
9.02389274415327e-014
11
-161.541806900667
21
84.9235103674324
31
9.02389274415327e-014
  0
LINE
 8
Layer0
10
-173.793688491472
20
34.9005118823389
30
9.02389274415327e-014
11
-174.007704050359
21
34.553020653742
31
9.02389274415327e-014
  0
LINE
 8
Layer0
10
-161.487718240977
20
86.8261214439405
30
9.02389274415327e-014
11
-161.191057737454
21
87.1063808934631
31
9.02389274415327e-014
  0
LINE
 8
Layer0
10
-161.191057737454
20
87.1063808934631
30
9.02389274415327e-014
11
-160.831969212354
21
87.3003093455769
31
9.02389274415327e-014
  0
LINE
 8
Layer0
10
-158.731474504636
20
85.5915539370378
30
9.02389274415327e-014
11
-158.848260312226
21
85.2005118823389
31
9.02389274415327e-014
  0
LINE
 8
Layer0
10
-131.619727489877
20
84.5727612042194
30
9.02389274415327e-014
11
-131.323066986354
21
84.853020653742
31
9.02389274415327e-014
  0
LINE
 8
Layer0
10
-131.323066986354
20
84.853020653742
30
9.02389274415327e-014
11
-131.109051427467
21
85.2005118823389
31
9.02389274415327e-014
  0
LINE
 8
Layer0
10
-161.261547451144
20
84.626849863909
30
9.02389274415327e-014
11
-160.914056222547
21
84.4128343050221
31
9.02389274415327e-014
  0
LINE
 8
Layer0
10
-160.914056222547
20
84.4128343050221
30
9.02389274415327e-014
11
-160.523014167848
21
84.2960484974327
31
9.02389274415327e-014
  0
LINE
 8
Layer0
10
-159.062275871113
20
84.853020653742
30
9.02389274415327e-014
11
-158.848260312226
21
85.2005118823389
31
9.02389274415327e-014
  0
LINE
 8
Layer0
10
-158.731474504636
20
85.5915539370378
30
9.02389274415327e-014
11
-158.719877208134
21
85.9994979480385
31
9.02389274415327e-014
  0
LINE
 8
Layer0
10
-158.719877208134
20
85.9994979480385
30
9.02389274415327e-014
11
-158.814258759309
21
86.3965432051505
31
9.02389274415327e-014
  0
LINE
 8
Layer0
10
-158.814258759309
20
86.3965432051505
30
9.02389274415327e-014
11
-159.008187211423
21
86.7556317302501
31
9.02389274415327e-014
  0
LINE
 8
Layer0
10
-159.288446660946
20
87.0522922337735
30
9.02389274415327e-014
11
-159.635937889543
21
87.2663077926603
31
9.02389274415327e-014
  0
LINE
 8
Layer0
10
-161.487718240977
20
86.8261214439405
30
9.02389274415327e-014
11
-161.701733799864
21
86.4786302153435
31
9.02389274415327e-014
  0
LINE
 8
Layer0
10
-161.818519607453
20
86.0875881606446
30
9.02389274415327e-014
11
-161.830116903956
21
85.679644149644
31
9.02389274415327e-014
  0
LINE
 8
Layer0
10
-133.174847337789
20
84.4128343050221
30
9.02389274415327e-014
11
-132.78380528309
21
84.2960484974327
31
9.02389274415327e-014
  0
LINE
 8
Layer0
10
-132.78380528309
20
84.2960484974327
30
9.02389274415327e-014
11
-132.375861272089
21
84.2844512009301
31
9.02389274415327e-014
  0
LINE
 8
Layer0
10
-132.375861272089
20
84.2844512009301
30
9.02389274415327e-014
11
-131.978816014977
21
84.3788327521056
31
9.02389274415327e-014
  0
LINE
 8
Layer0
10
-131.978816014977
20
84.3788327521056
30
9.02389274415327e-014
11
-131.619727489877
21
84.5727612042194
31
9.02389274415327e-014
  0
LINE
 8
Layer0
10
-175.380352134488
20
37.0946908967524
30
9.02389274415327e-014
11
-175.7773973916
21
37.0003093455769
31
9.02389274415327e-014
  0
LINE
 8
Layer0
10
-175.7773973916
20
37.0003093455769
30
9.02389274415327e-014
11
-176.1364859167
21
36.8063808934631
31
9.02389274415327e-014
  0
LINE
 8
Layer0
10
-176.64716197911
20
36.1786302153435
30
9.02389274415327e-014
11
-176.7639477867
21
35.7875881606446
31
9.02389274415327e-014
  0
LINE
 8
Layer0
10
-176.681163532027
20
34.982598892532
30
9.02389274415327e-014
11
-176.487235079913
21
34.6235103674324
31
9.02389274415327e-014
  0
LINE
 8
Layer0
10
-175.060498336094
20
33.9844512009301
30
9.02389274415327e-014
11
-174.663453078982
21
34.0788327521056
31
9.02389274415327e-014
  0
LINE
 8
Layer0
10
-174.304364553882
20
34.2727612042194
30
9.02389274415327e-014
11
-174.007704050359
21
34.553020653742
31
9.02389274415327e-014
  0
LINE
 8
Layer0
10
-173.793688491472
20
34.9005118823389
30
9.02389274415327e-014
11
-173.676902683883
21
35.2915539370378
31
9.02389274415327e-014
  0
LINE
 8
Layer0
10
-173.676902683883
20
35.2915539370378
30
9.02389274415327e-014
11
-173.66530538738
21
35.6994979480385
31
9.02389274415327e-014
  0
LINE
 8
Layer0
10
-130.992265619878
20
85.5915539370378
30
9.02389274415327e-014
11
-130.980668323375
21
85.9994979480385
31
9.02389274415327e-014
  0
LINE
 8
Layer0
10
-130.980668323375
20
85.9994979480385
30
9.02389274415327e-014
11
-131.075049874551
21
86.3965432051505
31
9.02389274415327e-014
  0
LINE
 8
Layer0
10
-131.075049874551
20
86.3965432051505
30
9.02389274415327e-014
11
-131.268978326664
21
86.7556317302501
31
9.02389274415327e-014
  0
LINE
 8
Layer0
10
-132.695715070484
20
87.3946908967524
30
9.02389274415327e-014
11
-133.092760327596
21
87.3003093455769
31
9.02389274415327e-014
  0
LINE
 8
Layer0
10
-134.079310722695
20
86.0875881606446
30
9.02389274415327e-014
11
-134.090908019197
21
85.679644149644
31
9.02389274415327e-014
  0
LINE
 8
Layer0
10
-134.090908019197
20
85.679644149644
30
9.02389274415327e-014
11
-133.996526468022
21
85.282598892532
31
9.02389274415327e-014
  0
LINE
 8
Layer0
10
-133.996526468022
20
85.282598892532
30
9.02389274415327e-014
11
-133.802598015908
21
84.9235103674324
31
9.02389274415327e-014
  0
LINE
 8
Layer0
10
-186.879502785271
20
98.4817522204824
30
9.02389274415327e-014
11
-186.155959920578
21
98.7814534879963
31
9.02389274415327e-014
  0
LINE
 8
Layer0
10
-185.379502785271
20
98.8836760091291
30
9.02389274415327e-014
11
-186.155959920578
21
98.7814534879963
31
9.02389274415327e-014
  0
LINE
 8
Layer0
10
-185.379502785271
20
98.8836760091291
30
9.02389274415327e-014
11
-117.315629078382
21
98.883676009129
31
9.02389274415327e-014
  0
LINE
 8
Layer0
10
-116.539171943074
20
98.7814534879961
30
9.02389274415327e-014
11
-117.315629078382
21
98.883676009129
31
9.02389274415327e-014
  0
LINE
 8
Layer0
10
-115.815629078382
20
98.4817522204823
30
9.02389274415327e-014
11
-116.539171943074
21
98.7814534879961
31
9.02389274415327e-014
  0
LINE
 8
Layer0
10
-115.194308734822
20
98.0049963526887
30
9.02389274415327e-014
11
-115.815629078382
21
98.4817522204823
31
9.02389274415327e-014
  0
LINE
 8
Layer0
10
-114.717552867028
20
97.3836760091289
30
9.02389274415327e-014
11
-115.194308734822
21
98.0049963526887
31
9.02389274415327e-014
  0
LINE
 8
Layer0
10
-114.417851599514
20
96.6601331444366
30
9.02389274415327e-014
11
-114.717552867028
21
97.3836760091289
31
9.02389274415327e-014
  0
LINE
 8
Layer0
10
-114.315629078382
20
95.883676009129
30
9.02389274415327e-014
11
-114.417851599514
21
96.6601331444366
31
9.02389274415327e-014
  0
LINE
 8
Layer0
10
-114.315629078382
20
95.883676009129
30
9.02389274415327e-014
11
-114.315629078382
21
13.383676009129
31
9.02389274415327e-014
  0
LINE
 8
Layer0
10
-114.417851599514
20
12.6072188738215
30
9.02389274415327e-014
11
-114.315629078382
21
13.383676009129
31
9.02389274415327e-014
  0
LINE
 8
Layer0
10
-114.717552867028
20
11.8836760091291
30
9.02389274415327e-014
11
-114.417851599514
21
12.6072188738215
31
9.02389274415327e-014
  0
LINE
 8
Layer0
10
-115.194308734822
20
11.2623556655694
30
9.02389274415327e-014
11
-114.717552867028
21
11.8836760091291
31
9.02389274415327e-014
  0
LINE
 8
Layer0
10
-115.815629078382
20
10.7855997977757
30
9.02389274415327e-014
11
-115.194308734822
21
11.2623556655694
31
9.02389274415327e-014
  0
LINE
 8
Layer0
10
-116.539171943074
20
10.4858985302618
30
9.02389274415327e-014
11
-115.815629078382
21
10.7855997977757
31
9.02389274415327e-014
  0
LINE
 8
Layer0
10
-117.315629078382
20
10.3836760091291
30
9.02389274415327e-014
11
-116.539171943074
21
10.4858985302618
31
9.02389274415327e-014
  0
LINE
 8
Layer0
10
-117.315629078382
20
10.3836760091291
30
9.02389274415327e-014
11
-185.379502785271
21
10.3836760091291
31
9.02389274415327e-014
  0
LINE
 8
Layer0
10
-186.155959920578
20
10.485898530262
30
9.02389274415327e-014
11
-185.379502785271
21
10.3836760091291
31
9.02389274415327e-014
  0
LINE
 8
Layer0
10
-186.879502785271
20
10.7855997977757
30
9.02389274415327e-014
11
-186.155959920578
21
10.485898530262
31
9.02389274415327e-014
  0
LINE
 8
Layer0
10
-187.50082312883
20
11.2623556655693
30
9.02389274415327e-014
11
-186.879502785271
21
10.7855997977757
31
9.02389274415327e-014
  0
LINE
 8
Layer0
10
-187.977578996624
20
11.8836760091291
30
9.02389274415327e-014
11
-187.50082312883
21
11.2623556655693
31
9.02389274415327e-014
  0
LINE
 8
Layer0
10
-188.277280264138
20
12.6072188738215
30
9.02389274415327e-014
11
-187.977578996624
21
11.8836760091291
31
9.02389274415327e-014
  0
LINE
 8
Layer0
10
-188.379502785271
20
13.3836760091291
30
9.02389274415327e-014
11
-188.277280264138
21
12.6072188738215
31
9.02389274415327e-014
  0
LINE
 8
Layer0
10
-188.379502785271
20
13.3836760091291
30
9.02389274415327e-014
11
-188.379502785271
21
95.8836760091291
31
9.02389274415327e-014
  0
LINE
 8
Layer0
10
-188.277280264138
20
96.6601331444367
30
9.02389274415327e-014
11
-188.379502785271
21
95.8836760091291
31
9.02389274415327e-014
  0
LINE
 8
Layer0
10
-187.977578996624
20
97.3836760091291
30
9.02389274415327e-014
11
-188.277280264138
21
96.6601331444367
31
9.02389274415327e-014
  0
LINE
 8
Layer0
10
-187.50082312883
20
98.0049963526888
30
9.02389274415327e-014
11
-187.977578996624
21
97.3836760091291
31
9.02389274415327e-014
  0
LINE
 8
Layer0
10
-186.879502785271
20
98.4817522204824
30
9.02389274415327e-014
11
-187.50082312883
21
98.0049963526888
31
9.02389274415327e-014
  0
LINE
 8
Layer0
10
-195.730697867463
20
11.1962038670297
30
0.0
11
-263.794571574352
21
11.1962038670297
31
0.0
  0
LINE
 8
Layer0
10
-263.794571574352
20
11.1962038670297
30
0.0
11
-264.57102870966
21
11.2984263881626
31
0.0
  0
LINE
 8
Layer0
10
-264.57102870966
20
11.2984263881626
30
0.0
11
-265.294571574352
21
11.5981276556764
31
0.0
  0
LINE
 8
Layer0
10
-265.294571574352
20
11.5981276556764
30
0.0
11
-265.915891917912
21
12.0748835234699
31
0.0
  0
LINE
 8
Layer0
10
-265.915891917912
20
12.0748835234699
30
0.0
11
-266.392647785706
21
12.6962038670298
31
0.0
  0
LINE
 8
Layer0
10
-266.392647785706
20
12.6962038670298
30
0.0
11
-266.69234905322
21
13.4197467317221
31
0.0
  0
LINE
 8
Layer0
10
-266.69234905322
20
13.4197467317221
30
0.0
11
-266.794571574352
21
14.1962038670297
31
0.0
  0
LINE
 8
Layer0
10
-266.794571574352
20
14.1962038670297
30
0.0
11
-266.794571574352
21
96.6962038670297
31
0.0
  0
LINE
 8
Layer0
10
-266.794571574352
20
96.6962038670297
30
0.0
11
-266.692349053219
21
97.4726610023373
31
0.0
  0
LINE
 8
Layer0
10
-266.692349053219
20
97.4726610023373
30
0.0
11
-266.392647785705
21
98.1962038670297
31
0.0
  0
LINE
 8
Layer0
10
-266.392647785705
20
98.1962038670297
30
0.0
11
-265.915891917912
21
98.8175242105894
31
0.0
  0
LINE
 8
Layer0
10
-265.915891917912
20
98.8175242105894
30
0.0
11
-265.294571574352
21
99.294280078383
31
0.0
  0
LINE
 8
Layer0
10
-265.294571574352
20
99.294280078383
30
0.0
11
-264.57102870966
21
99.5939813458969
31
0.0
  0
LINE
 8
Layer0
10
-264.57102870966
20
99.5939813458969
30
0.0
11
-263.794571574352
21
99.6962038670297
31
0.0
  0
LINE
 8
Layer0
10
-263.794571574352
20
99.6962038670297
30
0.0
11
-195.730697867463
21
99.6962038670296
31
0.0
  0
LINE
 8
Layer0
10
-195.730697867463
20
99.6962038670296
30
0.0
11
-194.954240732156
21
99.5939813458968
31
0.0
  0
LINE
 8
Layer0
10
-194.954240732156
20
99.5939813458968
30
0.0
11
-194.230697867463
21
99.2942800783829
31
0.0
  0
LINE
 8
Layer0
10
-194.230697867463
20
99.2942800783829
30
0.0
11
-193.609377523904
21
98.8175242105894
31
0.0
  0
LINE
 8
Layer0
10
-193.609377523904
20
98.8175242105894
30
0.0
11
-193.13262165611
21
98.1962038670296
31
0.0
  0
LINE
 8
Layer0
10
-193.13262165611
20
98.1962038670296
30
0.0
11
-192.832920388596
21
97.4726610023372
31
0.0
  0
LINE
 8
Layer0
10
-192.832920388596
20
97.4726610023372
30
0.0
11
-192.730697867463
21
96.6962038670297
31
0.0
  0
LINE
 8
Layer0
10
-192.730697867463
20
96.6962038670297
30
0.0
11
-192.730697867463
21
14.1962038670297
31
0.0
  0
LINE
 8
Layer0
10
-192.730697867463
20
14.1962038670297
30
0.0
11
-192.832920388596
21
13.4197467317221
31
0.0
  0
LINE
 8
Layer0
10
-192.832920388596
20
13.4197467317221
30
0.0
11
-193.13262165611
21
12.6962038670297
31
0.0
  0
LINE
 8
Layer0
10
-193.13262165611
20
12.6962038670297
30
0.0
11
-193.609377523904
21
12.07488352347
31
0.0
  0
LINE
 8
Layer0
10
-193.609377523904
20
12.07488352347
30
0.0
11
-194.230697867463
21
11.5981276556764
31
0.0
  0
LINE
 8
Layer0
10
-194.230697867463
20
11.5981276556764
30
0.0
11
-194.954240732156
21
11.2984263881625
31
0.0
  0
LINE
 8
Layer0
10
-194.954240732156
20
11.2984263881625
30
0.0
11
-195.730697867463
21
11.1962038670297
31
0.0
  0
LINE
 8
Layer0
10
-138.478896796357
20
108.399034195713
30
-1.87136022215773e-015
11
-138.478896796357
21
105.399034195713
31
-1.57448140504178e-015
  0
LINE
 8
Layer0
10
-174.978896796357
20
105.399034195713
30
-1.86361086673529e-014
11
-138.478896796357
21
105.399034195713
31
-1.57448140504178e-015
  0
LINE
 8
Layer0
10
-174.978896796357
20
108.399034195713
30
-1.89329874844688e-014
11
-174.978896796357
21
105.399034195713
31
-1.86361086673529e-014
  0
LINE
 8
Layer0
10
-191.978896796357
20
108.399034195713
30
-2.68794988121206e-014
11
-174.978896796357
21
108.399034195713
31
-1.89329874844688e-014
  0
LINE
 8
Layer0
10
-191.978896796357
20
146.494217730586
30
-2.72627969529566e-014
11
-191.978896796357
21
136.494217730586
31
-2.48632176546296e-014
  0
LINE
 8
Layer0
10
-138.478896796357
20
146.494217730586
30
-2.25465836299381e-015
11
-138.478896796357
21
149.494217730585
31
-2.19904136979125e-015
  0
LINE
 8
Layer0
10
-138.478896796357
20
146.494217730586
30
-2.25465836299381e-015
11
-118.478896796357
21
146.494217730586
31
7.09417849306707e-015
  0
LINE
 8
Layer0
10
-118.478896796357
20
146.494217730586
30
7.09417849306707e-015
11
-118.478896796357
21
136.394217730586
31
7.28903294875154e-015
  0
LINE
 8
Layer0
10
-118.478896796357
20
118.499034195713
30
5.42954218267539e-015
11
-118.478896796357
21
108.399034195713
31
7.47747663390314e-015
  0
LINE
 8
Layer0
10
-191.978896796357
20
108.399034195713
30
-2.68794988121206e-014
11
-191.978896796357
21
118.399034195713
31
-2.89265823001291e-014
  0
LINE
 8
Layer0
10
-191.978896796357
20
146.494217730586
30
-2.72627969529566e-014
11
-174.978896796357
21
146.494217730585
31
-1.93162856253049e-014
  0
LINE
 8
Layer0
10
-174.978896796357
20
146.494217730585
30
-1.93162856253049e-014
11
-174.978896796357
21
149.494217730586
31
-1.92606686321023e-014
  0
LINE
 8
Layer0
10
-174.978896796357
20
149.494217730586
30
-1.92606686321023e-014
11
-138.478896796357
21
149.494217730585
31
-2.19904136979125e-015
  0
LINE
 8
Layer0
10
-118.478896796357
20
108.399034195713
30
7.47747663390314e-015
11
-138.478896796357
21
108.399034195713
31
-1.87136022215773e-015
  0
LINE
 8
Layer0
10
-212.759821004382
20
194.171442184875
30
-1.36874456884836e-014
11
-200.695947297493
21
194.171442184875
31
-1.36874456884836e-014
  0
LINE
 8
Layer0
10
-212.759821004382
20
156.076258650003
30
-9.99200722162641e-016
11
-200.695947297493
21
156.076258650003
31
-9.99200722162641e-016
  0
LINE
 8
Layer0
10
-200.695947297493
20
156.076258650003
30
-9.99200722162641e-016
11
-200.695947297493
21
166.076258650003
31
-2.66453525910038e-015
  0
LINE
 8
Layer0
10
-212.759821004382
20
197.171442184875
30
-1.46866464106462e-014
11
-244.759821004382
21
197.171442184875
31
-1.46866464106462e-014
  0
LINE
 8
Layer0
10
-233.759821004382
20
160.176258650003
30
-2.36477504245158e-015
11
-233.759821004382
21
172.176258650003
31
-6.36157793110215e-015
  0
LINE
 8
Layer0
10
-256.759821004382
20
194.171442184875
30
-1.36874456884836e-014
11
-244.759821004382
21
194.171442184875
31
-1.36874456884836e-014
  0
LINE
 8
Layer0
10
-256.759821004382
20
156.076258650003
30
-9.99200722162641e-016
11
-256.759821004382
21
161.076258650003
31
-2.66453525910038e-015
  0
LINE
 8
Layer0
10
-246.759821004382
20
172.176258650003
30
-6.36157793110215e-015
11
-246.759821004382
21
160.176258650003
31
-2.36477504245158e-015
  0
LINE
 8
Layer0
10
-212.759821004382
20
194.171442184875
30
-1.36874456884836e-014
11
-212.759821004382
21
197.171442184875
31
-1.46866464106462e-014
  0
LINE
 8
Layer0
10
-256.759821004382
20
156.076258650003
30
-9.99200722162641e-016
11
-244.759821004382
21
156.076258650003
31
-9.99200722162641e-016
  0
LINE
 8
Layer0
10
-244.759821004382
20
194.171442184875
30
-1.36874456884836e-014
11
-244.759821004382
21
197.171442184875
31
-1.46866464106462e-014
  0
LINE
 8
Layer0
10
-233.759821004382
20
172.176258650003
30
-6.36157793110215e-015
11
-246.759821004382
21
172.176258650003
31
-6.36157793110215e-015
  0
LINE
 8
Layer0
10
-212.759821004382
20
156.076258650003
30
-9.99200722162641e-016
11
-212.759821004382
21
153.076258650003
31
0.0
  0
LINE
 8
Layer0
10
-200.695947297493
20
194.171442184875
30
-1.36874456884836e-014
11
-200.695947297493
21
184.171442184875
31
-1.36874456884836e-014
  0
LINE
 8
Layer0
10
-256.759821004382
20
194.171442184875
30
-1.36874456884836e-014
11
-256.759821004382
21
184.171442184875
31
-1.03567766146081e-014
  0
LINE
 8
Layer0
10
-246.759821004382
20
160.176258650003
30
-2.36477504245158e-015
11
-233.759821004382
21
160.176258650003
31
-2.36477504245158e-015
  0
LINE
 8
Layer0
10
-244.759821004382
20
153.076258650003
30
0.0
11
-244.759821004382
21
156.076258650003
31
-9.99200722162641e-016
  0
LINE
 8
Layer0
10
-212.759821004382
20
153.076258650003
30
0.0
11
-244.759821004382
21
153.076258650003
31
0.0
  0
LINE
 8
Layer0
10
-244.967433420778
20
108.546086013227
30
0.0
11
-259.967433420778
21
108.546086013227
31
0.0
  0
LINE
 8
Layer0
10
-259.967433420778
20
136.541269548099
30
0.0
11
-259.967433420778
21
146.641269548099
31
0.0
  0
LINE
 8
Layer0
10
-259.967433420778
20
146.641269548099
30
0.0
11
-244.967433420778
21
146.641269548099
31
0.0
  0
LINE
 8
Layer0
10
-244.967433420778
20
146.641269548099
30
0.0
11
-244.967433420778
21
149.641269548099
31
0.0
  0
LINE
 8
Layer0
10
-197.967433420778
20
146.641269548099
30
0.0
11
-212.967433420778
21
146.641269548099
31
0.0
  0
LINE
 8
Layer0
10
-197.967433420778
20
136.541269548099
30
0.0
11
-197.967433420778
21
146.641269548099
31
0.0
  0
LINE
 8
Layer0
10
-197.967433420778
20
108.546086013227
30
0.0
11
-212.967433420778
21
108.546086013227
31
0.0
  0
LINE
 8
Layer0
10
-212.967433420778
20
108.546086013227
30
0.0
11
-212.967433420778
21
105.546086013227
31
0.0
  0
LINE
 8
Layer0
10
-244.967433420778
20
105.546086013227
30
0.0
11
-212.967433420778
21
105.546086013227
31
0.0
  0
LINE
 8
Layer0
10
-244.967433420778
20
108.546086013227
30
0.0
11
-244.967433420778
21
105.546086013227
31
0.0
  0
LINE
 8
Layer0
10
-197.967433420778
20
108.546086013227
30
0.0
11
-197.967433420778
21
118.646086013227
31
0.0
  0
LINE
 8
Layer0
10
-259.967433420778
20
108.546086013227
30
0.0
11
-259.967433420778
21
118.646086013227
31
0.0
  0
LINE
 8
Layer0
10
-244.967433420778
20
149.641269548099
30
0.0
11
-212.967433420778
21
149.641269548099
31
0.0
  0
LINE
 8
Layer0
10
-212.967433420778
20
149.641269548099
30
0.0
11
-212.967433420778
21
146.641269548099
31
0.0
  0
LINE
 8
Layer0
10
-182.379502785271
20
94.3836760091291
30
9.02389274415327e-014
11
-182.430614045837
21
94.7719045767828
31
9.02389274415327e-014
  0
LINE
 8
Layer0
10
-182.430614045837
20
94.7719045767828
30
9.02389274415327e-014
11
-182.580464679594
21
95.133676009129
31
9.02389274415327e-014
  0
LINE
 8
Layer0
10
-182.580464679594
20
95.133676009129
30
9.02389274415327e-014
11
-182.818842613491
21
95.4443361809089
31
9.02389274415327e-014
  0
LINE
 8
Layer0
10
-182.818842613491
20
95.4443361809089
30
9.02389274415327e-014
11
-183.129502785271
21
95.6827141148057
31
9.02389274415327e-014
  0
LINE
 8
Layer0
10
-183.129502785271
20
95.6827141148057
30
9.02389274415327e-014
11
-183.491274217617
21
95.8325647485627
31
9.02389274415327e-014
  0
LINE
 8
Layer0
10
-183.491274217617
20
95.8325647485627
30
9.02389274415327e-014
11
-183.879502785271
21
95.8836760091291
31
9.02389274415327e-014
  0
LINE
 8
Layer0
10
-183.879502785271
20
95.8836760091291
30
9.02389274415327e-014
11
-184.267731352925
21
95.8325647485627
31
9.02389274415327e-014
  0
LINE
 8
Layer0
10
-184.267731352925
20
95.8325647485627
30
9.02389274415327e-014
11
-184.629502785271
21
95.6827141148057
31
9.02389274415327e-014
  0
LINE
 8
Layer0
10
-184.629502785271
20
95.6827141148057
30
9.02389274415327e-014
11
-184.940162957051
21
95.4443361809089
31
9.02389274415327e-014
  0
LINE
 8
Layer0
10
-184.940162957051
20
95.4443361809089
30
9.02389274415327e-014
11
-185.178540890947
21
95.1336760091291
31
9.02389274415327e-014
  0
LINE
 8
Layer0
10
-185.178540890947
20
95.1336760091291
30
9.02389274415327e-014
11
-185.328391524704
21
94.7719045767828
31
9.02389274415327e-014
  0
LINE
 8
Layer0
10
-185.328391524704
20
94.7719045767828
30
9.02389274415327e-014
11
-185.379502785271
21
94.3836760091291
31
9.02389274415327e-014
  0
LINE
 8
Layer0
10
-185.379502785271
20
94.3836760091291
30
9.02389274415327e-014
11
-185.328391524704
21
93.9954474414753
31
9.02389274415327e-014
  0
LINE
 8
Layer0
10
-185.328391524704
20
93.9954474414753
30
9.02389274415327e-014
11
-185.178540890947
21
93.633676009129
31
9.02389274415327e-014
  0
LINE
 8
Layer0
10
-185.178540890947
20
93.633676009129
30
9.02389274415327e-014
11
-184.940162957051
21
93.3230158373492
31
9.02389274415327e-014
  0
LINE
 8
Layer0
10
-184.940162957051
20
93.3230158373492
30
9.02389274415327e-014
11
-184.629502785271
21
93.0846379034524
31
9.02389274415327e-014
  0
LINE
 8
Layer0
10
-184.629502785271
20
93.0846379034524
30
9.02389274415327e-014
11
-184.267731352925
21
92.9347872696955
31
9.02389274415327e-014
  0
LINE
 8
Layer0
10
-184.267731352925
20
92.9347872696955
30
9.02389274415327e-014
11
-183.879502785271
21
92.883676009129
31
9.02389274415327e-014
  0
LINE
 8
Layer0
10
-183.879502785271
20
92.883676009129
30
9.02389274415327e-014
11
-183.491274217617
21
92.9347872696955
31
9.02389274415327e-014
  0
LINE
 8
Layer0
10
-183.491274217617
20
92.9347872696955
30
9.02389274415327e-014
11
-183.129502785271
21
93.0846379034524
31
9.02389274415327e-014
  0
LINE
 8
Layer0
10
-183.129502785271
20
93.0846379034524
30
9.02389274415327e-014
11
-182.818842613491
21
93.3230158373492
31
9.02389274415327e-014
  0
LINE
 8
Layer0
10
-182.818842613491
20
93.3230158373492
30
9.02389274415327e-014
11
-182.580464679594
21
93.633676009129
31
9.02389274415327e-014
  0
LINE
 8
Layer0
10
-182.580464679594
20
93.633676009129
30
9.02389274415327e-014
11
-182.430614045837
21
93.9954474414753
31
9.02389274415327e-014
  0
LINE
 8
Layer0
10
-182.430614045837
20
93.9954474414753
30
9.02389274415327e-014
11
-182.379502785271
21
94.3836760091291
31
9.02389274415327e-014
  0
LINE
 8
Layer0
10
-120.315629078382
20
94.383676009129
30
9.02389274415327e-014
11
-120.264517817815
21
93.9954474414752
31
9.02389274415327e-014
  0
LINE
 8
Layer0
10
-120.264517817815
20
93.9954474414752
30
9.02389274415327e-014
11
-120.114667184058
21
93.633676009129
31
9.02389274415327e-014
  0
LINE
 8
Layer0
10
-120.114667184058
20
93.633676009129
30
9.02389274415327e-014
11
-119.876289250161
21
93.3230158373492
31
9.02389274415327e-014
  0
LINE
 8
Layer0
10
-119.876289250161
20
93.3230158373492
30
9.02389274415327e-014
11
-119.565629078382
21
93.0846379034523
31
9.02389274415327e-014
  0
LINE
 8
Layer0
10
-119.565629078382
20
93.0846379034523
30
9.02389274415327e-014
11
-119.203857646035
21
92.9347872696954
31
9.02389274415327e-014
  0
LINE
 8
Layer0
10
-119.203857646035
20
92.9347872696954
30
9.02389274415327e-014
11
-118.815629078382
21
92.883676009129
31
9.02389274415327e-014
  0
LINE
 8
Layer0
10
-118.815629078382
20
92.883676009129
30
9.02389274415327e-014
11
-118.427400510728
21
92.9347872696954
31
9.02389274415327e-014
  0
LINE
 8
Layer0
10
-118.427400510728
20
92.9347872696954
30
9.02389274415327e-014
11
-118.065629078382
21
93.0846379034523
31
9.02389274415327e-014
  0
LINE
 8
Layer0
10
-118.065629078382
20
93.0846379034523
30
9.02389274415327e-014
11
-117.754968906602
21
93.3230158373492
31
9.02389274415327e-014
  0
LINE
 8
Layer0
10
-117.754968906602
20
93.3230158373492
30
9.02389274415327e-014
11
-117.516590972705
21
93.633676009129
31
9.02389274415327e-014
  0
LINE
 8
Layer0
10
-117.516590972705
20
93.633676009129
30
9.02389274415327e-014
11
-117.366740338948
21
93.9954474414752
31
9.02389274415327e-014
  0
LINE
 8
Layer0
10
-117.366740338948
20
93.9954474414752
30
9.02389274415327e-014
11
-117.315629078382
21
94.383676009129
31
9.02389274415327e-014
  0
LINE
 8
Layer0
10
-117.315629078382
20
94.383676009129
30
9.02389274415327e-014
11
-117.366740338948
21
94.7719045767828
31
9.02389274415327e-014
  0
LINE
 8
Layer0
10
-117.366740338948
20
94.7719045767828
30
9.02389274415327e-014
11
-117.516590972705
21
95.133676009129
31
9.02389274415327e-014
  0
LINE
 8
Layer0
10
-117.516590972705
20
95.133676009129
30
9.02389274415327e-014
11
-117.754968906602
21
95.4443361809089
31
9.02389274415327e-014
  0
LINE
 8
Layer0
10
-117.754968906602
20
95.4443361809089
30
9.02389274415327e-014
11
-118.065629078382
21
95.6827141148057
31
9.02389274415327e-014
  0
LINE
 8
Layer0
10
-118.065629078382
20
95.6827141148057
30
9.02389274415327e-014
11
-118.427400510728
21
95.8325647485626
31
9.02389274415327e-014
  0
LINE
 8
Layer0
10
-118.427400510728
20
95.8325647485626
30
9.02389274415327e-014
11
-118.815629078382
21
95.883676009129
31
9.02389274415327e-014
  0
LINE
 8
Layer0
10
-118.815629078382
20
95.883676009129
30
9.02389274415327e-014
11
-119.203857646035
21
95.8325647485626
31
9.02389274415327e-014
  0
LINE
 8
Layer0
10
-119.203857646035
20
95.8325647485626
30
9.02389274415327e-014
11
-119.565629078382
21
95.6827141148057
31
9.02389274415327e-014
  0
LINE
 8
Layer0
10
-119.565629078382
20
95.6827141148057
30
9.02389274415327e-014
11
-119.876289250161
21
95.4443361809089
31
9.02389274415327e-014
  0
LINE
 8
Layer0
10
-119.876289250161
20
95.4443361809089
30
9.02389274415327e-014
11
-120.114667184058
21
95.133676009129
31
9.02389274415327e-014
  0
LINE
 8
Layer0
10
-120.114667184058
20
95.133676009129
30
9.02389274415327e-014
11
-120.264517817815
21
94.7719045767828
31
9.02389274415327e-014
  0
LINE
 8
Layer0
10
-120.264517817815
20
94.7719045767828
30
9.02389274415327e-014
11
-120.315629078382
21
94.383676009129
31
9.02389274415327e-014
  0
LINE
 8
Layer0
10
-120.315629078382
20
14.8836760091291
30
9.02389274415327e-014
11
-120.264517817815
21
14.4954474414753
31
9.02389274415327e-014
  0
LINE
 8
Layer0
10
-120.264517817815
20
14.4954474414753
30
9.02389274415327e-014
11
-120.114667184058
21
14.1336760091291
31
9.02389274415327e-014
  0
LINE
 8
Layer0
10
-120.114667184058
20
14.1336760091291
30
9.02389274415327e-014
11
-119.876289250161
21
13.8230158373492
31
9.02389274415327e-014
  0
LINE
 8
Layer0
10
-119.876289250161
20
13.8230158373492
30
9.02389274415327e-014
11
-119.565629078382
21
13.5846379034524
31
9.02389274415327e-014
  0
LINE
 8
Layer0
10
-119.565629078382
20
13.5846379034524
30
9.02389274415327e-014
11
-119.203857646035
21
13.4347872696955
31
9.02389274415327e-014
  0
LINE
 8
Layer0
10
-119.203857646035
20
13.4347872696955
30
9.02389274415327e-014
11
-118.815629078382
21
13.3836760091291
31
9.02389274415327e-014
  0
LINE
 8
Layer0
10
-118.815629078382
20
13.3836760091291
30
9.02389274415327e-014
11
-118.427400510728
21
13.4347872696955
31
9.02389274415327e-014
  0
LINE
 8
Layer0
10
-118.427400510728
20
13.4347872696955
30
9.02389274415327e-014
11
-118.065629078382
21
13.5846379034524
31
9.02389274415327e-014
  0
LINE
 8
Layer0
10
-118.065629078382
20
13.5846379034524
30
9.02389274415327e-014
11
-117.754968906602
21
13.8230158373492
31
9.02389274415327e-014
  0
LINE
 8
Layer0
10
-117.754968906602
20
13.8230158373492
30
9.02389274415327e-014
11
-117.516590972705
21
14.1336760091291
31
9.02389274415327e-014
  0
LINE
 8
Layer0
10
-117.516590972705
20
14.1336760091291
30
9.02389274415327e-014
11
-117.366740338948
21
14.4954474414753
31
9.02389274415327e-014
  0
LINE
 8
Layer0
10
-117.366740338948
20
14.4954474414753
30
9.02389274415327e-014
11
-117.315629078382
21
14.8836760091291
31
9.02389274415327e-014
  0
LINE
 8
Layer0
10
-117.315629078382
20
14.8836760091291
30
9.02389274415327e-014
11
-117.366740338948
21
15.2719045767828
31
9.02389274415327e-014
  0
LINE
 8
Layer0
10
-117.366740338948
20
15.2719045767828
30
9.02389274415327e-014
11
-117.516590972705
21
15.6336760091291
31
9.02389274415327e-014
  0
LINE
 8
Layer0
10
-117.516590972705
20
15.6336760091291
30
9.02389274415327e-014
11
-117.754968906602
21
15.9443361809089
31
9.02389274415327e-014
  0
LINE
 8
Layer0
10
-117.754968906602
20
15.9443361809089
30
9.02389274415327e-014
11
-118.065629078382
21
16.1827141148057
31
9.02389274415327e-014
  0
LINE
 8
Layer0
10
-118.065629078382
20
16.1827141148057
30
9.02389274415327e-014
11
-118.427400510728
21
16.3325647485627
31
9.02389274415327e-014
  0
LINE
 8
Layer0
10
-118.427400510728
20
16.3325647485627
30
9.02389274415327e-014
11
-118.815629078382
21
16.3836760091291
31
9.02389274415327e-014
  0
LINE
 8
Layer0
10
-118.815629078382
20
16.3836760091291
30
9.02389274415327e-014
11
-119.203857646035
21
16.3325647485627
31
9.02389274415327e-014
  0
LINE
 8
Layer0
10
-119.203857646035
20
16.3325647485627
30
9.02389274415327e-014
11
-119.565629078382
21
16.1827141148057
31
9.02389274415327e-014
  0
LINE
 8
Layer0
10
-119.565629078382
20
16.1827141148057
30
9.02389274415327e-014
11
-119.876289250161
21
15.9443361809089
31
9.02389274415327e-014
  0
LINE
 8
Layer0
10
-119.876289250161
20
15.9443361809089
30
9.02389274415327e-014
11
-120.114667184058
21
15.6336760091291
31
9.02389274415327e-014
  0
LINE
 8
Layer0
10
-120.114667184058
20
15.6336760091291
30
9.02389274415327e-014
11
-120.264517817815
21
15.2719045767828
31
9.02389274415327e-014
  0
LINE
 8
Layer0
10
-120.264517817815
20
15.2719045767828
30
9.02389274415327e-014
11
-120.315629078382
21
14.8836760091291
31
9.02389274415327e-014
  0
LINE
 8
Layer0
10
-183.879502785271
20
16.3836760091291
30
9.02389274415327e-014
11
-184.267731352925
21
16.3325647485627
31
9.02389274415327e-014
  0
LINE
 8
Layer0
10
-184.267731352925
20
16.3325647485627
30
9.02389274415327e-014
11
-184.629502785271
21
16.1827141148058
31
9.02389274415327e-014
  0
LINE
 8
Layer0
10
-184.629502785271
20
16.1827141148058
30
9.02389274415327e-014
11
-184.940162957051
21
15.9443361809089
31
9.02389274415327e-014
  0
LINE
 8
Layer0
10
-184.940162957051
20
15.9443361809089
30
9.02389274415327e-014
11
-185.178540890948
21
15.6336760091291
31
9.02389274415327e-014
  0
LINE
 8
Layer0
10
-185.178540890948
20
15.6336760091291
30
9.02389274415327e-014
11
-185.328391524705
21
15.2719045767829
31
9.02389274415327e-014
  0
LINE
 8
Layer0
10
-185.328391524705
20
15.2719045767829
30
9.02389274415327e-014
11
-185.379502785271
21
14.8836760091291
31
9.02389274415327e-014
  0
LINE
 8
Layer0
10
-185.379502785271
20
14.8836760091291
30
9.02389274415327e-014
11
-185.328391524705
21
14.4954474414753
31
9.02389274415327e-014
  0
LINE
 8
Layer0
10
-185.328391524705
20
14.4954474414753
30
9.02389274415327e-014
11
-185.178540890948
21
14.1336760091291
31
9.02389274415327e-014
  0
LINE
 8
Layer0
10
-185.178540890948
20
14.1336760091291
30
9.02389274415327e-014
11
-184.940162957051
21
13.8230158373493
31
9.02389274415327e-014
  0
LINE
 8
Layer0
10
-184.940162957051
20
13.8230158373493
30
9.02389274415327e-014
11
-184.629502785271
21
13.5846379034524
31
9.02389274415327e-014
  0
LINE
 8
Layer0
10
-184.629502785271
20
13.5846379034524
30
9.02389274415327e-014
11
-184.267731352925
21
13.4347872696955
31
9.02389274415327e-014
  0
LINE
 8
Layer0
10
-184.267731352925
20
13.4347872696955
30
9.02389274415327e-014
11
-183.879502785271
21
13.3836760091291
31
9.02389274415327e-014
  0
LINE
 8
Layer0
10
-183.879502785271
20
13.3836760091291
30
9.02389274415327e-014
11
-183.491274217617
21
13.4347872696955
31
9.02389274415327e-014
  0
LINE
 8
Layer0
10
-183.491274217617
20
13.4347872696955
30
9.02389274415327e-014
11
-183.129502785271
21
13.5846379034524
31
9.02389274415327e-014
  0
LINE
 8
Layer0
10
-183.129502785271
20
13.5846379034524
30
9.02389274415327e-014
11
-182.818842613491
21
13.8230158373493
31
9.02389274415327e-014
  0
LINE
 8
Layer0
10
-182.818842613491
20
13.8230158373493
30
9.02389274415327e-014
11
-182.580464679594
21
14.1336760091291
31
9.02389274415327e-014
  0
LINE
 8
Layer0
10
-182.580464679594
20
14.1336760091291
30
9.02389274415327e-014
11
-182.430614045837
21
14.4954474414753
31
9.02389274415327e-014
  0
LINE
 8
Layer0
10
-182.430614045837
20
14.4954474414753
30
9.02389274415327e-014
11
-182.379502785271
21
14.8836760091291
31
9.02389274415327e-014
  0
LINE
 8
Layer0
10
-182.379502785271
20
14.8836760091291
30
9.02389274415327e-014
11
-182.430614045837
21
15.2719045767829
31
9.02389274415327e-014
  0
LINE
 8
Layer0
10
-182.430614045837
20
15.2719045767829
30
9.02389274415327e-014
11
-182.580464679594
21
15.6336760091291
31
9.02389274415327e-014
  0
LINE
 8
Layer0
10
-182.580464679594
20
15.6336760091291
30
9.02389274415327e-014
11
-182.818842613491
21
15.9443361809089
31
9.02389274415327e-014
  0
LINE
 8
Layer0
10
-182.818842613491
20
15.9443361809089
30
9.02389274415327e-014
11
-183.129502785271
21
16.1827141148058
31
9.02389274415327e-014
  0
LINE
 8
Layer0
10
-183.129502785271
20
16.1827141148058
30
9.02389274415327e-014
11
-183.491274217617
21
16.3325647485627
31
9.02389274415327e-014
  0
LINE
 8
Layer0
10
-183.491274217617
20
16.3325647485627
30
9.02389274415327e-014
11
-183.879502785271
21
16.3836760091291
31
9.02389274415327e-014
  0
LINE
 8
Layer0
10
-198.730697867463
20
15.6962038670297
30
0.0
11
-198.679586606897
21
15.3079752993759
31
0.0
  0
LINE
 8
Layer0
10
-198.679586606897
20
15.3079752993759
30
0.0
11
-198.52973597314
21
14.9462038670297
31
0.0
  0
LINE
 8
Layer0
10
-198.52973597314
20
14.9462038670297
30
0.0
11
-198.291358039243
21
14.6355436952499
31
0.0
  0
LINE
 8
Layer0
10
-198.291358039243
20
14.6355436952499
30
0.0
11
-197.980697867463
21
14.397165761353
31
0.0
  0
LINE
 8
Layer0
10
-197.980697867463
20
14.397165761353
30
0.0
11
-197.618926435117
21
14.2473151275961
31
0.0
  0
LINE
 8
Layer0
10
-197.618926435117
20
14.2473151275961
30
0.0
11
-197.230697867463
21
14.1962038670297
31
0.0
  0
LINE
 8
Layer0
10
-197.230697867463
20
14.1962038670297
30
0.0
11
-196.842469299809
21
14.2473151275961
31
0.0
  0
LINE
 8
Layer0
10
-196.842469299809
20
14.2473151275961
30
0.0
11
-196.480697867463
21
14.397165761353
31
0.0
  0
LINE
 8
Layer0
10
-196.480697867463
20
14.397165761353
30
0.0
11
-196.170037695683
21
14.6355436952499
31
0.0
  0
LINE
 8
Layer0
10
-196.170037695683
20
14.6355436952499
30
0.0
11
-195.931659761787
21
14.9462038670297
31
0.0
  0
LINE
 8
Layer0
10
-195.931659761787
20
14.9462038670297
30
0.0
11
-195.78180912803
21
15.3079752993759
31
0.0
  0
LINE
 8
Layer0
10
-195.78180912803
20
15.3079752993759
30
0.0
11
-195.730697867463
21
15.6962038670297
31
0.0
  0
LINE
 8
Layer0
10
-195.730697867463
20
15.6962038670297
30
0.0
11
-195.78180912803
21
16.0844324346835
31
0.0
  0
LINE
 8
Layer0
10
-195.78180912803
20
16.0844324346835
30
0.0
11
-195.931659761787
21
16.4462038670297
31
0.0
  0
LINE
 8
Layer0
10
-195.931659761787
20
16.4462038670297
30
0.0
11
-196.170037695683
21
16.7568640388095
31
0.0
  0
LINE
 8
Layer0
10
-196.170037695683
20
16.7568640388095
30
0.0
11
-196.480697867463
21
16.9952419727063
31
0.0
  0
LINE
 8
Layer0
10
-196.480697867463
20
16.9952419727063
30
0.0
11
-196.842469299809
21
17.1450926064633
31
0.0
  0
LINE
 8
Layer0
10
-196.842469299809
20
17.1450926064633
30
0.0
11
-197.230697867463
21
17.1962038670297
31
0.0
  0
LINE
 8
Layer0
10
-197.230697867463
20
17.1962038670297
30
0.0
11
-197.618926435117
21
17.1450926064633
31
0.0
  0
LINE
 8
Layer0
10
-197.618926435117
20
17.1450926064633
30
0.0
11
-197.980697867463
21
16.9952419727063
31
0.0
  0
LINE
 8
Layer0
10
-197.980697867463
20
16.9952419727063
30
0.0
11
-198.291358039243
21
16.7568640388095
31
0.0
  0
LINE
 8
Layer0
10
-198.291358039243
20
16.7568640388095
30
0.0
11
-198.52973597314
21
16.4462038670297
31
0.0
  0
LINE
 8
Layer0
10
-198.52973597314
20
16.4462038670297
30
0.0
11
-198.679586606897
21
16.0844324346835
31
0.0
  0
LINE
 8
Layer0
10
-198.679586606897
20
16.0844324346835
30
0.0
11
-198.730697867463
21
15.6962038670297
31
0.0
  0
LINE
 8
Layer0
10
-198.730697867463
20
95.1962038670297
30
0.0
11
-198.679586606897
21
94.807975299376
31
0.0
  0
LINE
 8
Layer0
10
-198.679586606897
20
94.807975299376
30
0.0
11
-198.52973597314
21
94.4462038670297
31
0.0
  0
LINE
 8
Layer0
10
-198.52973597314
20
94.4462038670297
30
0.0
11
-198.291358039243
21
94.1355436952499
31
0.0
  0
LINE
 8
Layer0
10
-198.291358039243
20
94.1355436952499
30
0.0
11
-197.980697867463
21
93.8971657613531
31
0.0
  0
LINE
 8
Layer0
10
-197.980697867463
20
93.8971657613531
30
0.0
11
-197.618926435117
21
93.7473151275961
31
0.0
  0
LINE
 8
Layer0
10
-197.618926435117
20
93.7473151275961
30
0.0
11
-197.230697867463
21
93.6962038670297
31
0.0
  0
LINE
 8
Layer0
10
-197.230697867463
20
93.6962038670297
30
0.0
11
-196.842469299809
21
93.7473151275961
31
0.0
  0
LINE
 8
Layer0
10
-196.842469299809
20
93.7473151275961
30
0.0
11
-196.480697867463
21
93.8971657613531
31
0.0
  0
LINE
 8
Layer0
10
-196.480697867463
20
93.8971657613531
30
0.0
11
-196.170037695683
21
94.1355436952499
31
0.0
  0
LINE
 8
Layer0
10
-196.170037695683
20
94.1355436952499
30
0.0
11
-195.931659761787
21
94.4462038670297
31
0.0
  0
LINE
 8
Layer0
10
-195.931659761787
20
94.4462038670297
30
0.0
11
-195.78180912803
21
94.807975299376
31
0.0
  0
LINE
 8
Layer0
10
-195.78180912803
20
94.807975299376
30
0.0
11
-195.730697867463
21
95.1962038670297
31
0.0
  0
LINE
 8
Layer0
10
-195.730697867463
20
95.1962038670297
30
0.0
11
-195.78180912803
21
95.5844324346835
31
0.0
  0
LINE
 8
Layer0
10
-195.78180912803
20
95.5844324346835
30
0.0
11
-195.931659761787
21
95.9462038670297
31
0.0
  0
LINE
 8
Layer0
10
-195.931659761787
20
95.9462038670297
30
0.0
11
-196.170037695683
21
96.2568640388096
31
0.0
  0
LINE
 8
Layer0
10
-196.170037695683
20
96.2568640388096
30
0.0
11
-196.480697867463
21
96.4952419727064
31
0.0
  0
LINE
 8
Layer0
10
-196.480697867463
20
96.4952419727064
30
0.0
11
-196.842469299809
21
96.6450926064633
31
0.0
  0
LINE
 8
Layer0
10
-196.842469299809
20
96.6450926064633
30
0.0
11
-197.230697867463
21
96.6962038670297
31
0.0
  0
LINE
 8
Layer0
10
-197.230697867463
20
96.6962038670297
30
0.0
11
-197.618926435117
21
96.6450926064633
31
0.0
  0
LINE
 8
Layer0
10
-197.618926435117
20
96.6450926064633
30
0.0
11
-197.980697867463
21
96.4952419727064
31
0.0
  0
LINE
 8
Layer0
10
-197.980697867463
20
96.4952419727064
30
0.0
11
-198.291358039243
21
96.2568640388096
31
0.0
  0
LINE
 8
Layer0
10
-198.291358039243
20
96.2568640388096
30
0.0
11
-198.52973597314
21
95.9462038670297
31
0.0
  0
LINE
 8
Layer0
10
-198.52973597314
20
95.9462038670297
30
0.0
11
-198.679586606897
21
95.5844324346835
31
0.0
  0
LINE
 8
Layer0
10
-198.679586606897
20
95.5844324346835
30
0.0
11
-198.730697867463
21
95.1962038670297
31
0.0
  0
LINE
 8
Layer0
10
-260.794571574352
20
15.6962038670298
30
0.0
11
-260.845682834919
21
16.0844324346836
31
0.0
  0
LINE
 8
Layer0
10
-260.845682834919
20
16.0844324346836
30
0.0
11
-260.995533468676
21
16.4462038670298
31
0.0
  0
LINE
 8
Layer0
10
-260.995533468676
20
16.4462038670298
30
0.0
11
-261.233911402573
21
16.7568640388096
31
0.0
  0
LINE
 8
Layer0
10
-261.233911402573
20
16.7568640388096
30
0.0
11
-261.544571574352
21
16.9952419727065
31
0.0
  0
LINE
 8
Layer0
10
-261.544571574352
20
16.9952419727065
30
0.0
11
-261.906343006699
21
17.1450926064634
31
0.0
  0
LINE
 8
Layer0
10
-261.906343006699
20
17.1450926064634
30
0.0
11
-262.294571574352
21
17.1962038670298
31
0.0
  0
LINE
 8
Layer0
10
-262.294571574352
20
17.1962038670298
30
0.0
11
-262.682800142006
21
17.1450926064634
31
0.0
  0
LINE
 8
Layer0
10
-262.682800142006
20
17.1450926064634
30
0.0
11
-263.044571574352
21
16.9952419727065
31
0.0
  0
LINE
 8
Layer0
10
-263.044571574352
20
16.9952419727065
30
0.0
11
-263.355231746132
21
16.7568640388096
31
0.0
  0
LINE
 8
Layer0
10
-263.355231746132
20
16.7568640388096
30
0.0
11
-263.593609680029
21
16.4462038670298
31
0.0
  0
LINE
 8
Layer0
10
-263.593609680029
20
16.4462038670298
30
0.0
11
-263.743460313786
21
16.0844324346836
31
0.0
  0
LINE
 8
Layer0
10
-263.743460313786
20
16.0844324346836
30
0.0
11
-263.794571574352
21
15.6962038670298
31
0.0
  0
LINE
 8
Layer0
10
-263.794571574352
20
15.6962038670298
30
0.0
11
-263.743460313786
21
15.307975299376
31
0.0
  0
LINE
 8
Layer0
10
-263.743460313786
20
15.307975299376
30
0.0
11
-263.593609680029
21
14.9462038670298
31
0.0
  0
LINE
 8
Layer0
10
-263.593609680029
20
14.9462038670298
30
0.0
11
-263.355231746132
21
14.63554369525
31
0.0
  0
LINE
 8
Layer0
10
-263.355231746132
20
14.63554369525
30
0.0
11
-263.044571574352
21
14.3971657613531
31
0.0
  0
LINE
 8
Layer0
10
-263.044571574352
20
14.3971657613531
30
0.0
11
-262.682800142006
21
14.2473151275962
31
0.0
  0
LINE
 8
Layer0
10
-262.682800142006
20
14.2473151275962
30
0.0
11
-262.294571574352
21
14.1962038670298
31
0.0
  0
LINE
 8
Layer0
10
-262.294571574352
20
14.1962038670298
30
0.0
11
-261.906343006699
21
14.2473151275962
31
0.0
  0
LINE
 8
Layer0
10
-261.906343006699
20
14.2473151275962
30
0.0
11
-261.544571574352
21
14.3971657613531
31
0.0
  0
LINE
 8
Layer0
10
-261.544571574352
20
14.3971657613531
30
0.0
11
-261.233911402573
21
14.63554369525
31
0.0
  0
LINE
 8
Layer0
10
-261.233911402573
20
14.63554369525
30
0.0
11
-260.995533468676
21
14.9462038670298
31
0.0
  0
LINE
 8
Layer0
10
-260.995533468676
20
14.9462038670298
30
0.0
11
-260.845682834919
21
15.307975299376
31
0.0
  0
LINE
 8
Layer0
10
-260.845682834919
20
15.307975299376
30
0.0
11
-260.794571574352
21
15.6962038670298
31
0.0
  0
LINE
 8
Layer0
10
-262.294571574352
20
93.6962038670297
30
0.0
11
-261.906343006699
21
93.7473151275961
31
0.0
  0
LINE
 8
Layer0
10
-261.906343006699
20
93.7473151275961
30
0.0
11
-261.544571574352
21
93.8971657613531
31
0.0
  0
LINE
 8
Layer0
10
-261.544571574352
20
93.8971657613531
30
0.0
11
-261.233911402573
21
94.1355436952499
31
0.0
  0
LINE
 8
Layer0
10
-261.233911402573
20
94.1355436952499
30
0.0
11
-260.995533468676
21
94.4462038670297
31
0.0
  0
LINE
 8
Layer0
10
-260.995533468676
20
94.4462038670297
30
0.0
11
-260.845682834919
21
94.807975299376
31
0.0
  0
LINE
 8
Layer0
10
-260.845682834919
20
94.807975299376
30
0.0
11
-260.794571574352
21
95.1962038670297
31
0.0
  0
LINE
 8
Layer0
10
-260.794571574352
20
95.1962038670297
30
0.0
11
-260.845682834919
21
95.5844324346835
31
0.0
  0
LINE
 8
Layer0
10
-260.845682834919
20
95.5844324346835
30
0.0
11
-260.995533468676
21
95.9462038670297
31
0.0
  0
LINE
 8
Layer0
10
-260.995533468676
20
95.9462038670297
30
0.0
11
-261.233911402573
21
96.2568640388096
31
0.0
  0
LINE
 8
Layer0
10
-261.233911402573
20
96.2568640388096
30
0.0
11
-261.544571574352
21
96.4952419727064
31
0.0
  0
LINE
 8
Layer0
10
-261.544571574352
20
96.4952419727064
30
0.0
11
-261.906343006699
21
96.6450926064633
31
0.0
  0
LINE
 8
Layer0
10
-261.906343006699
20
96.6450926064633
30
0.0
11
-262.294571574352
21
96.6962038670297
31
0.0
  0
LINE
 8
Layer0
10
-262.294571574352
20
96.6962038670297
30
0.0
11
-262.682800142006
21
96.6450926064633
31
0.0
  0
LINE
 8
Layer0
10
-262.682800142006
20
96.6450926064633
30
0.0
11
-263.044571574352
21
96.4952419727064
31
0.0
  0
LINE
 8
Layer0
10
-263.044571574352
20
96.4952419727064
30
0.0
11
-263.355231746132
21
96.2568640388096
31
0.0
  0
LINE
 8
Layer0
10
-263.355231746132
20
96.2568640388096
30
0.0
11
-263.593609680029
21
95.9462038670297
31
0.0
  0
LINE
 8
Layer0
10
-263.593609680029
20
95.9462038670297
30
0.0
11
-263.743460313786
21
95.5844324346835
31
0.0
  0
LINE
 8
Layer0
10
-263.743460313786
20
95.5844324346835
30
0.0
11
-263.794571574352
21
95.1962038670297
31
0.0
  0
LINE
 8
Layer0
10
-263.794571574352
20
95.1962038670297
30
0.0
11
-263.743460313786
21
94.807975299376
31
0.0
  0
LINE
 8
Layer0
10
-263.743460313786
20
94.807975299376
30
0.0
11
-263.593609680029
21
94.4462038670297
31
0.0
  0
LINE
 8
Layer0
10
-263.593609680029
20
94.4462038670297
30
0.0
11
-263.355231746132
21
94.1355436952499
31
0.0
  0
LINE
 8
Layer0
10
-263.355231746132
20
94.1355436952499
30
0.0
11
-263.044571574352
21
93.8971657613531
31
0.0
  0
LINE
 8
Layer0
10
-263.044571574352
20
93.8971657613531
30
0.0
11
-262.682800142006
21
93.7473151275961
31
0.0
  0
LINE
 8
Layer0
10
-262.682800142006
20
93.7473151275961
30
0.0
11
-262.294571574352
21
93.6962038670297
31
0.0
  0
LINE
 8
Layer0
10
-245.694571574352
20
93.9042038670298
30
0.0
11
-245.694571574352
21
90.7962038670297
31
0.0
  0
LINE
 8
Layer0
10
-245.694571574352
20
90.7962038670297
30
0.0
11
-213.894571574352
21
90.7962038670297
31
0.0
  0
LINE
 8
Layer0
10
-213.894571574352
20
90.7962038670297
30
0.0
11
-213.894571574352
21
93.9042038670298
31
0.0
  0
LINE
 8
Layer0
10
-213.894571574352
20
93.9042038670298
30
0.0
11
-245.694571574352
21
93.9042038670298
31
0.0
  0
LINE
 8
Layer0
10
-261.030571574352
20
37.2962038670297
30
0.0
11
-257.894571574352
21
37.2962038670297
31
0.0
  0
LINE
 8
Layer0
10
-257.894571574352
20
37.2962038670297
30
0.0
11
-257.894571574352
21
73.5962038670297
31
0.0
  0
LINE
 8
Layer0
10
-257.894571574352
20
73.5962038670297
30
0.0
11
-261.030571574352
21
73.5962038670297
31
0.0
  0
LINE
 8
Layer0
10
-261.030571574352
20
73.5962038670297
30
0.0
11
-261.030571574352
21
37.2962038670297
31
0.0
  0
LINE
 8
Layer0
10
-198.298697867463
20
37.2962038670297
30
0.0
11
-198.298697867463
21
73.5962038670297
31
0.0
  0
LINE
 8
Layer0
10
-198.298697867463
20
73.5962038670297
30
0.0
11
-201.630697867463
21
73.5962038670297
31
0.0
  0
LINE
 8
Layer0
10
-201.630697867463
20
73.5962038670297
30
0.0
11
-201.630697867463
21
37.2962038670297
31
0.0
  0
LINE
 8
Layer0
10
-201.630697867463
20
37.2962038670297
30
0.0
11
-198.298697867463
21
37.2962038670297
31
0.0
  0
LINE
 8
Layer0
10
-213.894571574352
20
17.0162038670297
30
0.0
11
-213.894571574352
21
20.0962038670297
31
0.0
  0
LINE
 8
Layer0
10
-213.894571574352
20
20.0962038670297
30
0.0
11
-245.694571574352
21
20.0962038670297
31
0.0
  0
LINE
 8
Layer0
10
-245.694571574352
20
20.0962038670297
30
0.0
11
-245.694571574352
21
17.0162038670297
31
0.0
  0
LINE
 8
Layer0
10
-245.694571574352
20
17.0162038670297
30
0.0
11
-213.894571574352
21
17.0162038670297
31
0.0
  0
LINE
 8
Layer0
10
-179.479502785271
20
72.7836760091291
30
9.02389274415327e-014
11
-182.615502785271
21
72.7836760091291
31
9.02389274415327e-014
  0
LINE
 8
Layer0
10
-182.615502785271
20
72.7836760091291
30
9.02389274415327e-014
11
-182.615502785271
21
36.4836760091291
31
9.02389274415327e-014
  0
LINE
 8
Layer0
10
-182.615502785271
20
36.4836760091291
30
9.02389274415327e-014
11
-179.479502785271
21
36.4836760091291
31
9.02389274415327e-014
  0
LINE
 8
Layer0
10
-179.479502785271
20
36.4836760091291
30
9.02389274415327e-014
11
-179.479502785271
21
72.7836760091291
31
9.02389274415327e-014
  0
LINE
 8
Layer0
10
-135.479502785271
20
19.2836760091291
30
9.02389274415327e-014
11
-167.279502785271
21
19.2836760091291
31
9.02389274415327e-014
  0
LINE
 8
Layer0
10
-167.279502785271
20
19.2836760091291
30
9.02389274415327e-014
11
-167.279502785271
21
16.2036760091291
31
9.02389274415327e-014
  0
LINE
 8
Layer0
10
-167.279502785271
20
16.2036760091291
30
9.02389274415327e-014
11
-135.479502785271
21
16.2036760091291
31
9.02389274415327e-014
  0
LINE
 8
Layer0
10
-135.479502785271
20
16.2036760091291
30
9.02389274415327e-014
11
-135.479502785271
21
19.2836760091291
31
9.02389274415327e-014
  0
LINE
 8
Layer0
10
-123.215629078382
20
72.7836760091291
30
9.02389274415327e-014
11
-123.215629078382
21
36.4836760091291
31
9.02389274415327e-014
  0
LINE
 8
Layer0
10
-123.215629078382
20
36.4836760091291
30
9.02389274415327e-014
11
-120.135629078382
21
36.4836760091291
31
9.02389274415327e-014
  0
LINE
 8
Layer0
10
-120.135629078382
20
36.4836760091291
30
9.02389274415327e-014
11
-120.135629078382
21
72.7836760091291
31
9.02389274415327e-014
  0
LINE
 8
Layer0
10
-120.135629078382
20
72.7836760091291
30
9.02389274415327e-014
11
-123.215629078382
21
72.7836760091291
31
9.02389274415327e-014
  0
LINE
 8
Layer0
10
-167.279502785271
20
89.9836760091291
30
9.02389274415327e-014
11
-135.479502785271
21
89.9836760091291
31
9.02389274415327e-014
  0
LINE
 8
Layer0
10
-135.479502785271
20
89.9836760091291
30
9.02389274415327e-014
11
-135.479502785271
21
93.0636760091291
31
9.02389274415327e-014
  0
LINE
 8
Layer0
10
-135.479502785271
20
93.0636760091291
30
9.02389274415327e-014
11
-167.279502785271
21
93.0636760091291
31
9.02389274415327e-014
  0
LINE
 8
Layer0
10
-167.279502785271
20
93.0636760091291
30
9.02389274415327e-014
11
-167.279502785271
21
89.9836760091291
31
9.02389274415327e-014
  0
LINE
 8
Layer0
10
-259.967433420778
20
118.646086013227
30
0.0
11
-256.967433420778
21
118.646086013227
31
0.0
  0
LINE
 8
Layer0
10
-259.967433420778
20
136.541269548099
30
0.0
11
-256.967433420778
21
136.541269548099
31
0.0
  0
LINE
 8
Layer0
10
-256.967433420778
20
136.541269548099
30
0.0
11
-256.967433420778
21
118.646086013227
31
0.0
  0
LINE
 8
Layer0
10
-197.967433420778
20
118.646086013227
30
0.0
11
-200.967433420778
21
118.646086013227
31
0.0
  0
LINE
 8
Layer0
10
-200.967433420778
20
118.646086013227
30
0.0
11
-200.967433420778
21
136.541269548099
31
0.0
  0
LINE
 8
Layer0
10
-197.967433420778
20
136.541269548099
30
0.0
11
-200.967433420778
21
136.541269548099
31
0.0
  0
LINE
 8
Layer0
10
-118.478896796357
20
118.499034195713
30
5.42954218267539e-015
11
-121.478896796357
21
118.499034195713
31
4.02721610963011e-015
  0
LINE
 8
Layer0
10
-121.478896796357
20
118.499034195713
30
4.02721610963011e-015
11
-121.478896796357
21
136.394217730586
31
5.9155952199141e-015
  0
LINE
 8
Layer0
10
-118.478896796357
20
136.394217730586
30
7.28903294875154e-015
11
-121.478896796357
21
136.394217730586
31
5.9155952199141e-015
  0
LINE
 8
Layer0
10
-194.978896796357
20
118.399034195713
30
-3.03062539269838e-014
11
-191.978896796357
21
118.399034195713
31
-2.89265823001291e-014
  0
LINE
 8
Layer0
10
-194.978896796357
20
136.494217730585
30
-2.62781253715599e-014
11
-191.978896796357
21
136.494217730586
31
-2.48632176546296e-014
  0
LINE
 8
Layer0
10
-194.978896796357
20
136.494217730585
30
-2.62781253715599e-014
11
-194.978896796357
21
118.399034195713
31
-3.03062539269838e-014
  0
LINE
 8
Layer0
10
-259.759821004382
20
166.076258650003
30
-2.66453525910038e-015
11
-256.759821004382
21
166.076258650003
31
-2.66453525910038e-015
  0
LINE
 8
Layer0
10
-259.759821004382
20
166.076258650003
30
-2.66453525910038e-015
11
-259.759821004382
21
184.171442184875
31
-5.3607730037949e-015
  0
LINE
 8
Layer0
10
-259.759821004382
20
184.171442184875
30
-5.3607730037949e-015
11
-256.759821004382
21
184.171442184875
31
-1.03567766146081e-014
  0
LINE
 8
Layer0
10
-197.759821004382
20
166.076258650003
30
-2.68399915902235e-015
11
-200.695947297493
21
166.076258650003
31
-2.66453525910038e-015
  0
LINE
 8
Layer0
10
-197.759821004382
20
166.076258650003
30
-2.68399915902235e-015
11
-197.759821004382
21
184.171442184875
31
-5.3607730037949e-015
  0
LINE
 8
Layer0
10
-197.759821004382
20
184.171442184875
30
-5.3607730037949e-015
11
-200.695947297493
21
184.171442184875
31
-1.36874456884836e-014
  0
LINE
 8
Layer0
10
-256.759821004382
20
161.076258650003
30
-2.66453525910038e-015
11
-256.759821004382
21
166.076258650003
31
-2.66453525910038e-015
  0
LINE
 8
Layer0
10
-213.959821004382
20
173.376258650003
30
-1.73228456919413e-015
11
-213.959821004382
21
187.876258650003
31
-6.36157793110215e-015
  0
LINE
 8
Layer0
10
-230.459821004382
20
187.876258650003
30
-6.36157793110215e-015
11
-230.459821004382
21
173.376258650003
31
-6.36157793110215e-015
  0
LINE
 8
Layer0
10
-230.459821004382
20
173.376258650003
30
-6.36157793110215e-015
11
-213.959821004382
21
173.376258650003
31
-1.73228456919413e-015
  0
LINE
 8
Layer0
10
-230.459821004382
20
187.876258650003
30
-6.36157793110215e-015
11
-213.959821004382
21
187.876258650003
31
-6.36157793110215e-015
  0
LINE
 8
Layer0
10
-138.300011527885
20
193.873293462646
30
2.805159556399e-014
11
-118.300011527885
21
193.873293462646
31
3.74004324200509e-014
  0
LINE
 8
Layer0
10
-138.300011527885
20
193.873293462646
30
2.805159556399e-014
11
-138.300011527885
21
196.873293462646
31
2.81072125571926e-014
  0
LINE
 8
Layer0
10
-174.800011527885
20
196.873293462646
30
1.10455852948815e-014
11
-138.300011527885
21
196.873293462646
31
2.81072125571926e-014
  0
LINE
 8
Layer0
10
-174.800011527885
20
193.873293462646
30
1.0989968301679e-014
11
-174.800011527885
21
196.873293462646
31
1.10455852948815e-014
  0
LINE
 8
Layer0
10
-191.800011527885
20
193.873293462646
30
3.04345697402722e-015
11
-174.800011527885
21
193.873293462646
31
1.0989968301679e-014
  0
LINE
 8
Layer0
10
-191.800011527885
20
193.873293462646
30
3.04345697402722e-015
11
-191.800011527885
21
183.873293462646
31
5.44303627235427e-015
  0
LINE
 8
Layer0
10
-194.800011527885
20
183.873293462646
30
4.02812855542398e-015
11
-191.800011527885
21
183.873293462646
31
5.44303627235427e-015
  0
LINE
 8
Layer0
10
-194.800011527885
20
183.873293462646
30
4.02812855542398e-015
11
-194.800011527885
21
165.778109927774
31
0.0
  0
LINE
 8
Layer0
10
-194.800011527885
20
165.778109927774
30
0.0
11
-191.800011527885
21
165.778109927774
31
1.37967162685473e-015
  0
LINE
 8
Layer0
10
-191.800011527885
20
155.778109927774
30
3.42675511486327e-015
11
-191.800011527885
21
165.778109927774
31
1.37967162685473e-015
  0
LINE
 8
Layer0
10
-191.800011527885
20
155.778109927774
30
3.42675511486327e-015
11
-174.800011527885
21
155.778109927774
31
1.1373266442515e-014
  0
LINE
 8
Layer0
10
-174.800011527885
20
155.778109927774
30
1.1373266442515e-014
11
-174.800011527885
21
152.778109927774
31
1.16701452596309e-014
  0
LINE
 8
Layer0
10
-174.800011527885
20
152.778109927774
30
1.16701452596309e-014
11
-138.300011527885
21
152.778109927774
31
2.87317725219421e-014
  0
LINE
 8
Layer0
10
-138.300011527885
20
155.778109927774
30
2.84348937048261e-014
11
-138.300011527885
21
152.778109927774
31
2.87317725219421e-014
  0
LINE
 8
Layer0
10
-118.300011527885
20
155.778109927774
30
3.7783730560887e-014
11
-138.300011527885
21
155.778109927774
31
2.84348937048261e-014
  0
LINE
 8
Layer0
10
-118.300011527885
20
165.878109927774
30
3.57357961096592e-014
11
-118.300011527885
21
155.778109927774
31
3.7783730560887e-014
  0
LINE
 8
Layer0
10
-118.300011527885
20
165.878109927774
30
3.57357961096592e-014
11
-121.300011527885
21
165.878109927774
31
3.43334700366139e-014
  0
LINE
 8
Layer0
10
-121.300011527885
20
165.878109927774
30
3.43334700366139e-014
11
-121.300011527885
21
183.773293462646
31
3.62218491468979e-014
  0
LINE
 8
Layer0
10
-118.300011527885
20
183.773293462646
30
3.75952868757354e-014
11
-121.300011527885
21
183.773293462646
31
3.62218491468979e-014
  0
LINE
 8
Layer0
10
-118.300011527885
20
193.873293462646
30
3.74004324200509e-014
11
-118.300011527885
21
183.773293462646
31
3.75952868757354e-014
  0
LINE
 8
Layer0
10
-241.795722308765
20
182.77135824801
30
0.0
11
-241.710536874488
21
182.124310635254
31
0.0
  0
LINE
 8
Layer0
10
-241.710536874488
20
182.124310635254
30
0.0
11
-241.460785818226
21
181.52135824801
31
0.0
  0
LINE
 8
Layer0
10
-241.460785818226
20
181.52135824801
30
0.0
11
-241.063489261731
21
181.003591295044
31
0.0
  0
LINE
 8
Layer0
10
-241.063489261731
20
181.003591295044
30
0.0
11
-240.545722308765
21
180.606294738549
31
0.0
  0
LINE
 8
Layer0
10
-240.545722308765
20
180.606294738549
30
0.0
11
-239.942769921521
21
180.356543682288
31
0.0
  0
LINE
 8
Layer0
10
-239.942769921521
20
180.356543682288
30
0.0
11
-239.295722308765
21
180.27135824801
31
0.0
  0
LINE
 8
Layer0
10
-239.295722308765
20
180.27135824801
30
0.0
11
-238.648674696009
21
180.356543682288
31
0.0
  0
LINE
 8
Layer0
10
-238.648674696009
20
180.356543682288
30
0.0
11
-238.045722308765
21
180.606294738549
31
0.0
  0
LINE
 8
Layer0
10
-238.045722308765
20
180.606294738549
30
0.0
11
-237.527955355798
21
181.003591295044
31
0.0
  0
LINE
 8
Layer0
10
-237.527955355798
20
181.003591295044
30
0.0
11
-237.130658799304
21
181.52135824801
31
0.0
  0
LINE
 8
Layer0
10
-237.130658799304
20
181.52135824801
30
0.0
11
-236.880907743042
21
182.124310635254
31
0.0
  0
LINE
 8
Layer0
10
-236.880907743042
20
182.124310635254
30
0.0
11
-236.795722308765
21
182.77135824801
31
0.0
  0
LINE
 8
Layer0
10
-236.795722308765
20
182.77135824801
30
0.0
11
-236.880907743042
21
183.418405860767
31
0.0
  0
LINE
 8
Layer0
10
-236.880907743042
20
183.418405860767
30
0.0
11
-237.130658799304
21
184.02135824801
31
0.0
  0
LINE
 8
Layer0
10
-237.130658799304
20
184.02135824801
30
0.0
11
-237.527955355798
21
184.539125200977
31
0.0
  0
LINE
 8
Layer0
10
-237.527955355798
20
184.539125200977
30
0.0
11
-238.045722308765
21
184.936421757471
31
0.0
  0
LINE
 8
Layer0
10
-238.045722308765
20
184.936421757471
30
0.0
11
-238.648674696009
21
185.186172813733
31
0.0
  0
LINE
 8
Layer0
10
-238.648674696009
20
185.186172813733
30
0.0
11
-239.295722308765
21
185.27135824801
31
0.0
  0
LINE
 8
Layer0
10
-239.295722308765
20
185.27135824801
30
0.0
11
-239.942769921521
21
185.186172813733
31
0.0
  0
LINE
 8
Layer0
10
-239.942769921521
20
185.186172813733
30
0.0
11
-240.545722308765
21
184.936421757471
31
0.0
  0
LINE
 8
Layer0
10
-240.545722308765
20
184.936421757471
30
0.0
11
-241.063489261731
21
184.539125200977
31
0.0
  0
LINE
 8
Layer0
10
-241.063489261731
20
184.539125200977
30
0.0
11
-241.460785818226
21
184.02135824801
31
0.0
  0
LINE
 8
Layer0
10
-241.460785818226
20
184.02135824801
30
0.0
11
-241.710536874488
21
183.418405860767
31
0.0
  0
LINE
 8
Layer0
10
-241.710536874488
20
183.418405860767
30
0.0
11
-241.795722308765
21
182.77135824801
31
0.0
 0
ENDSEC
 0
EOF
