999
DXF created by Inkscape
  0
SECTION
  2
HEADER
  9
$ACADVER
  1
AC1014
  9
$HANDSEED
  5
FFFF
  9
$MEASUREMENT
 70
     1
  0
ENDSEC
  0
SECTION
  2
TABLES
  0
TABLE
  2
VPORT
  5
8
330
0
100
AcDbSymbolTable
 70
     4
  0
VPORT
  5
2E
330
8
100
AcDbSymbolTableRecord
100
AcDbViewportTableRecord
  2
*ACTIVE
 70
     0
 10
0.0
 20
0.0
 11
1.0
 21
1.0
 12
210.0
 22
148.5
 13
0.0
 23
0.0
 14
10.0
 24
10.0
 15
10.0
 25
10.0
 16
0.0
 26
0.0
 36
1.0
 17
0.0
 27
0.0
 37
0.0
 40
341.0
 41
1.24
 42
50.0
 43
0.0
 44
0.0
 50
0.0
 51
0.0
 71
     0
 72
   100
 73
     1
 74
     3
 75
     0
 76
     0
 77
     0
 78
     0
  0
ENDTAB
  0
TABLE
  2
LTYPE
  5
5
330
0
100
AcDbSymbolTable
 70
     1
  0
LTYPE
  5
14
330
5
100
AcDbSymbolTableRecord
100
AcDbLinetypeTableRecord
  2
BYBLOCK
 70
     0
  3

 72
    65
 73
     0
 40
0.0
  0
LTYPE
  5
15
330
5
100
AcDbSymbolTableRecord
100
AcDbLinetypeTableRecord
  2
BYLAYER
 70
     0
  3

 72
    65
 73
     0
 40
0.0
  0
LTYPE
  5
16
330
5
100
AcDbSymbolTableRecord
100
AcDbLinetypeTableRecord
  2
CONTINUOUS
 70
     0
  3
Solid line
 72
    65
 73
     0
 40
0.0
  0
ENDTAB
  0
TABLE
  2
LAYER
  5
2
330
0
100
AcDbSymbolTable
 70
1
  0
LAYER
  5
10
330
2
100
AcDbSymbolTableRecord
100
AcDbLayerTableRecord
  2
0
 70
     0
 62
     7
  6
CONTINUOUS
  0
ENDTAB
  0
TABLE
  2
STYLE
  5
3
330
0
100
AcDbSymbolTable
 70
     1
  0
STYLE
  5
11
330
3
100
AcDbSymbolTableRecord
100
AcDbTextStyleTableRecord
  2
STANDARD
 70
     0
 40
0.0
 41
1.0
 50
0.0
 71
     0
 42
2.5
  3
txt
  4

  0
ENDTAB
  0
TABLE
  2
VIEW
  5
6
330
0
100
AcDbSymbolTable
 70
     0
  0
ENDTAB
  0
TABLE
  2
UCS
  5
7
330
0
100
AcDbSymbolTable
 70
     0
  0
ENDTAB
  0
TABLE
  2
APPID
  5
9
330
0
100
AcDbSymbolTable
 70
     2
  0
APPID
  5
12
330
9
100
AcDbSymbolTableRecord
100
AcDbRegAppTableRecord
  2
ACAD
 70
     0
  0
ENDTAB
  0
TABLE
  2
DIMSTYLE
  5
A
330
0
100
AcDbSymbolTable
 70
     1
  0
DIMSTYLE
105
27
330
A
100
AcDbSymbolTableRecord
100
AcDbDimStyleTableRecord
  2
ISO-25
 70
     0
  3

  4

  5

  6

  7

 40
1.0
 41
2.5
 42
0.625
 43
3.75
 44
1.25
 45
0.0
 46
0.0
 47
0.0
 48
0.0
140
2.5
141
2.5
142
0.0
143
0.03937007874016
144
1.0
145
0.0
146
1.0
147
0.625
 71
     0
 72
     0
 73
     0
 74
     0
 75
     0
 76
     0
 77
     1
 78
     8
170
     0
171
     3
172
     1
173
     0
174
     0
175
     0
176
     0
177
     0
178
     0
270
     2
271
     2
272
     2
273
     2
274
     3
340
11
275
     0
280
     0
281
     0
282
     0
283
     0
284
     8
285
     0
286
     0
287
     3
288
     0
  0
ENDTAB
  0
TABLE
  2
BLOCK_RECORD
  5
1
330
0
100
AcDbSymbolTable
 70
     1
  0
BLOCK_RECORD
  5
1F
330
1
100
AcDbSymbolTableRecord
100
AcDbBlockTableRecord
  2
*MODEL_SPACE
  0
BLOCK_RECORD
  5
1B
330
1
100
AcDbSymbolTableRecord
100
AcDbBlockTableRecord
  2
*PAPER_SPACE
  0
ENDTAB
  0
ENDSEC
  0
SECTION
  2
BLOCKS
  0
BLOCK
  5
20
330
1F
100
AcDbEntity
  8
0
100
AcDbBlockBegin
  2
*MODEL_SPACE
 70
     0
 10
0.0
 20
0.0
 30
0.0
  3
*MODEL_SPACE
  1

  0
ENDBLK
  5
21
330
1F
100
AcDbEntity
  8
0
100
AcDbBlockEnd
  0
BLOCK
  5
1C
330
1B
100
AcDbEntity
 67
     1
  8
0
100
AcDbBlockBegin
  2
*PAPER_SPACE
  1

  0
ENDBLK
  5
1D
330
1B
100
AcDbEntity
 67
     1
  8
0
100
AcDbBlockEnd
  0
ENDSEC
  0
SECTION
  2
ENTITIES
  0
SPLINE
  5
100
100
AcDbEntity
  8
0
 62
7
100
AcDbSpline
 70
0
 71
3
 72
52
 73
48
 74
46
 40
0.000000
 40
0.000000
 40
0.000000
 40
0.000000
 40
0.907315
 40
1.997349
 40
3.049483
 40
4.283910
 40
5.344850
 40
6.708548
 40
8.069288
 40
9.125547
 40
10.344002
 40
14.920068
 40
19.325519
 40
23.968262
 40
25.669447
 40
27.533526
 40
29.132218
 40
30.536167
 40
32.270928
 40
33.773674
 40
35.533636
 40
37.071468
 40
38.572201
 40
39.394745
 40
39.555914
 40
40.034791
 40
42.998933
 40
45.928354
 40
48.765148
 40
51.137923
 40
53.640424
 40
56.033801
 40
57.817299
 40
59.750668
 40
61.526179
 40
62.350503
 40
63.333164
 40
64.273503
 40
68.673491
 40
72.885735
 40
77.457266
 40
77.914086
 40
78.100853
 40
78.957494
 40
79.935482
 40
80.738040
 40
81.672047
 40
81.672047
 40
81.672047
 40
81.672047
 10
82.965276
 20
207.888511
 30
0.0
 10
82.736185
 20
208.086627
 30
0.0
 10
82.231868
 20
208.522757
 30
0.0
 10
81.588367
 20
209.316427
 30
0.0
 10
80.972093
 20
210.258038
 30
0.0
 10
80.461219
 20
211.258199
 30
0.0
 10
80.176429
 20
212.456513
 30
0.0
 10
80.174353
 20
213.721923
 30
0.0
 10
80.176301
 20
214.985481
 30
0.0
 10
80.458796
 20
216.176821
 30
0.0
 10
81.483816
 20
218.223864
 30
0.0
 10
84.114437
 20
220.759882
 30
0.0
 10
88.930613
 20
221.218709
 30
0.0
 10
92.310012
 20
219.321351
 30
0.0
 10
93.803375
 20
216.999259
 30
0.0
 10
94.443449
 20
215.402483
 30
0.0
 10
94.820097
 20
213.786611
 30
0.0
 10
94.466214
 20
212.218735
 30
0.0
 10
93.960063
 20
210.761917
 30
0.0
 10
93.192937
 20
209.265836
 30
0.0
 10
92.076480
 20
208.094985
 30
0.0
 10
90.686971
 20
207.226070
 30
0.0
 10
89.340259
 20
207.161684
 30
0.0
 10
88.584115
 20
207.041194
 30
0.0
 10
88.015746
 20
207.273423
 30
0.0
 10
90.109810
 20
207.515247
 30
0.0
 10
91.141157
 20
208.520456
 30
0.0
 10
93.383152
 20
210.810009
 30
0.0
 10
94.073701
 20
213.537260
 30
0.0
 10
93.451931
 20
216.108330
 30
0.0
 10
92.107748
 20
218.161024
 30
0.0
 10
90.314254
 20
219.599438
 30
0.0
 10
88.291746
 20
220.067762
 30
0.0
 10
86.457661
 20
220.063164
 30
0.0
 10
84.946264
 20
219.740070
 30
0.0
 10
83.922277
 20
219.112650
 30
0.0
 10
83.196938
 20
218.550975
 30
0.0
 10
81.665341
 20
217.108351
 30
0.0
 10
80.217961
 20
213.860942
 30
0.0
 10
82.288721
 20
209.362677
 30
0.0
 10
83.773281
 20
207.678950
 30
0.0
 10
86.698563
 20
207.262404
 30
0.0
 10
86.081991
 20
207.052380
 30
0.0
 10
85.492069
 20
207.152527
 30
0.0
 10
84.576026
 20
207.105296
 30
0.0
 10
83.700261
 20
207.377692
 30
0.0
 10
83.222330
 20
207.709863
 30
0.0
 10
82.965276
 20
207.888520
 30
0.0
 11
82.965276
 21
207.888511
 31
0.0
 11
82.295097
 21
208.500132
 31
0.0
 11
81.596181
 21
209.336608
 31
0.0
 11
81.019839
 21
210.216844
 31
0.0
 11
80.484388
 21
211.329095
 31
0.0
 11
80.235870
 21
212.360517
 31
0.0
 11
80.175077
 21
213.722860
 31
0.0
 11
80.235592
 21
215.082253
 31
0.0
 11
80.481465
 21
216.109497
 31
0.0
 11
81.009191
 21
217.207740
 31
0.0
 11
84.381320
 21
220.301141
 31
0.0
 11
88.762822
 21
220.759878
 31
0.0
 11
92.784780
 21
218.440631
 31
0.0
 11
93.726667
 21
217.023986
 31
0.0
 11
94.429624
 21
215.297532
 31
0.0
 11
94.705709
 21
213.722860
 31
0.0
 11
94.469354
 21
212.338950
 31
0.0
 11
93.893441
 21
210.702575
 31
0.0
 11
93.177696
 21
209.381230
 31
0.0
 11
91.971281
 21
208.099812
 31
0.0
 11
90.630138
 21
207.347308
 31
0.0
 11
89.146792
 21
207.119526
 31
0.0
 11
88.324877
 21
207.151680
 31
0.0
 11
88.178559
 21
207.219257
 31
0.0
 11
88.637931
 21
207.354535
 31
0.0
 11
91.288342
 21
208.681735
 31
0.0
 11
93.151022
 21
210.942694
 31
0.0
 11
93.857468
 21
213.690117
 31
0.0
 11
93.341936
 21
216.006210
 31
0.0
 11
91.980653
 21
218.106072
 31
0.0
 11
90.064793
 21
219.540552
 31
0.0
 11
88.338846
 21
219.989966
 31
0.0
 11
86.405479
 21
219.992045
 31
0.0
 11
84.686820
 21
219.546338
 31
0.0
 11
83.975738
 21
219.129359
 31
0.0
 11
83.196706
 21
218.530416
 31
0.0
 11
82.518380
 21
217.879178
 31
0.0
 11
80.883202
 21
213.794317
 31
0.0
 11
82.239535
 21
209.806416
 31
0.0
 11
86.097931
 21
207.354544
 31
0.0
 11
86.534899
 21
207.221340
 31
0.0
 11
86.361283
 21
207.152495
 31
0.0
 11
85.505276
 21
207.119535
 31
0.0
 11
84.528377
 21
207.165678
 31
0.0
 11
83.760250
 21
207.398230
 31
0.0
 11
82.965276
 21
207.888520
 31
0.0
  0
LWPOLYLINE
  5
101
100
AcDbEntity
  8
0
 62
7
100
AcDbPolyline
 90
2
 70
0
 10
82.965276
 20
207.888520
 30
0.0
 10
82.965276
 20
207.888511
 30
0.0
  0
SPLINE
  5
102
100
AcDbEntity
  8
0
 62
7
100
AcDbSpline
 70
0
 71
3
 72
43
 73
39
 74
37
 40
0.000000
 40
0.000000
 40
0.000000
 40
0.000000
 40
4.068641
 40
8.198731
 40
12.336228
 40
14.374218
 40
16.196319
 40
18.347540
 40
20.553108
 40
22.433429
 40
24.487284
 40
26.184612
 40
27.870235
 40
29.846628
 40
31.820700
 40
33.649159
 40
35.691904
 40
36.923470
 40
37.752215
 40
38.685822
 40
39.432929
 40
39.626446
 40
39.985167
 40
42.974050
 40
45.746964
 40
48.626868
 40
49.823204
 40
50.783287
 40
51.888471
 40
54.017953
 40
55.948603
 40
57.912200
 40
59.794631
 40
61.453603
 40
63.232327
 40
67.764490
 40
72.018325
 40
76.522235
 40
76.522235
 40
76.522235
 40
76.522235
 10
131.497843
 20
207.632109
 30
0.0
 10
130.487728
 20
208.593407
 30
0.0
 10
128.452241
 20
210.530519
 30
0.0
 10
128.042720
 20
214.965663
 30
0.0
 10
129.619984
 20
218.194204
 30
0.0
 10
131.677746
 20
219.948453
 30
0.0
 10
133.571409
 20
220.714264
 30
0.0
 10
135.646801
 20
220.808140
 30
0.0
 10
137.738132
 20
220.678789
 30
0.0
 10
139.662323
 20
219.848308
 30
0.0
 10
141.022903
 20
218.518915
 30
0.0
 10
142.078215
 20
217.025886
 30
0.0
 10
142.611850
 20
215.292118
 30
0.0
 10
142.727571
 20
213.410424
 30
0.0
 10
142.552072
 20
211.470789
 30
0.0
 10
141.707022
 20
209.665049
 30
0.0
 10
140.495308
 20
208.448791
 30
0.0
 10
139.465213
 20
207.547162
 30
0.0
 10
138.553655
 20
207.091780
 30
0.0
 10
137.663283
 20
207.144548
 30
0.0
 10
137.132723
 20
207.062619
 30
0.0
 10
136.571962
 20
207.243859
 30
0.0
 10
138.447171
 20
207.670957
 30
0.0
 10
139.539771
 20
208.504453
 30
0.0
 10
141.660066
 20
210.906214
 30
0.0
 10
141.987044
 20
213.217018
 30
0.0
 10
141.928815
 20
214.898530
 30
0.0
 10
141.648265
 20
215.961765
 30
0.0
 10
140.947232
 20
217.179712
 30
0.0
 10
139.890209
 20
218.560482
 30
0.0
 10
138.170686
 20
219.690395
 30
0.0
 10
136.255410
 20
220.083048
 30
0.0
 10
134.404105
 20
220.058476
 30
0.0
 10
132.685343
 20
219.508214
 30
0.0
 10
130.516822
 20
217.926198
 30
0.0
 10
128.645170
 20
214.633527
 30
0.0
 10
129.612395
 20
209.755956
 30
0.0
 10
132.280322
 20
208.282209
 30
0.0
 10
133.652376
 20
207.524295
 30
0.0
 11
131.497843
 21
207.632109
 31
0.0
 11
128.901742
 21
210.764856
 31
0.0
 11
128.427228
 21
214.867596
 31
0.0
 11
130.230296
 21
218.591549
 31
0.0
 11
131.795398
 21
219.896868
 31
0.0
 11
133.485167
 21
220.578581
 31
0.0
 11
135.627931
 21
220.769147
 31
0.0
 11
137.821109
 21
220.535695
 31
0.0
 11
139.543414
 21
219.781192
 31
0.0
 11
141.055629
 21
218.391400
 31
0.0
 11
141.999982
 21
216.981038
 31
0.0
 11
142.521573
 21
215.378144
 31
0.0
 11
142.677289
 21
213.407894
 31
0.0
 11
142.430613
 21
211.449295
 31
0.0
 11
141.657778
 21
209.792194
 31
0.0
 11
140.285360
 21
208.279157
 31
0.0
 11
139.324760
 21
207.508441
 31
0.0
 11
138.565965
 21
207.175201
 31
0.0
 11
137.634308
 21
207.114895
 31
0.0
 11
136.887897
 21
207.147131
 31
0.0
 11
136.708436
 21
207.219536
 31
0.0
 11
137.040868
 21
207.354329
 31
0.0
 11
139.681960
 21
208.753636
 31
0.0
 11
141.365014
 21
210.957355
 31
0.0
 11
141.946757
 21
213.777891
 31
0.0
 11
141.876668
 21
214.972172
 31
0.0
 11
141.624547
 21
215.898560
 31
0.0
 11
141.104247
 21
216.873609
 31
0.0
 11
139.759254
 21
218.524574
 31
0.0
 11
138.135971
 21
219.569734
 31
0.0
 11
136.223745
 21
220.015947
 31
0.0
 11
134.342192
 21
219.958452
 31
0.0
 11
132.764844
 21
219.444488
 31
0.0
 11
131.313597
 21
218.416021
 31
0.0
 11
129.180187
 21
214.417388
 31
0.0
 11
130.073255
 21
210.258357
 31
0.0
 11
133.652376
 21
207.524295
 31
0.0
  0
LWPOLYLINE
  5
103
100
AcDbEntity
  8
0
 62
7
100
AcDbPolyline
 90
3
 70
0
 10
133.652376
 20
207.524295
 30
0.0
 10
134.922376
 20
207.129951
 30
0.0
 10
133.652376
 20
207.111353
 30
0.0
  0
SPLINE
  5
104
100
AcDbEntity
  8
0
 62
7
100
AcDbSpline
 70
0
 71
3
 72
10
 73
6
 74
4
 40
0.000000
 40
0.000000
 40
0.000000
 40
0.000000
 40
0.787105
 40
1.551049
 40
2.239730
 40
2.239730
 40
2.239730
 40
2.239730
 10
133.652376
 20
207.111353
 30
0.0
 10
133.390020
 20
207.121763
 30
0.0
 10
132.873028
 20
207.142277
 30
0.0
 10
132.137508
 20
207.311447
 30
0.0
 10
131.703571
 20
207.528981
 30
0.0
 10
131.497843
 20
207.632112
 30
0.0
 11
133.652376
 21
207.111353
 31
0.0
 11
132.867274
 21
207.167470
 31
0.0
 11
132.124713
 21
207.346951
 31
0.0
 11
131.497843
 21
207.632112
 31
0.0
  0
LWPOLYLINE
  5
105
100
AcDbEntity
  8
0
 62
7
100
AcDbPolyline
 90
2
 70
0
 10
131.497843
 20
207.632112
 30
0.0
 10
131.497843
 20
207.632109
 30
0.0
  0
SPLINE
  5
106
100
AcDbEntity
  8
0
 62
7
100
AcDbSpline
 70
0
 71
3
 72
19
 73
15
 74
13
 40
0.000000
 40
0.000000
 40
0.000000
 40
0.000000
 40
3.630029
 40
7.124914
 40
10.779595
 40
13.213982
 40
15.570994
 40
17.936169
 40
19.486340
 40
21.085023
 40
22.568267
 40
23.707387
 40
24.572743
 40
25.755670
 40
25.755670
 40
25.755670
 40
25.755670
 10
133.728762
 20
209.902649
 30
0.0
 10
132.756114
 20
210.758982
 30
0.0
 10
130.847030
 20
212.439767
 30
0.0
 10
131.819675
 20
216.587007
 30
0.0
 10
135.085110
 20
218.213318
 30
0.0
 10
137.925639
 20
217.311791
 30
0.0
 10
139.586701
 20
215.450846
 30
0.0
 10
139.941343
 20
213.233905
 30
0.0
 10
139.211886
 20
211.503138
 30
0.0
 10
138.198716
 20
210.295496
 30
0.0
 10
136.930006
 20
209.628636
 30
0.0
 10
135.788520
 20
209.347013
 30
0.0
 10
134.708745
 20
209.434767
 30
0.0
 10
134.087528
 20
209.731360
 30
0.0
 10
133.728762
 20
209.902649
 30
0.0
 11
133.728762
 21
209.902649
 31
0.0
 11
131.473243
 21
212.746897
 31
0.0
 11
132.233188
 21
216.158159
 31
0.0
 11
135.491223
 21
217.814027
 31
0.0
 11
137.822769
 21
217.113930
 31
0.0
 11
139.378263
 21
215.343071
 31
0.0
 11
139.717630
 21
213.002369
 31
0.0
 11
139.152340
 21
211.558944
 31
0.0
 11
138.105598
 21
210.350590
 31
0.0
 11
136.804157
 21
209.639068
 31
0.0
 11
135.691491
 21
209.395001
 31
0.0
 11
134.829296
 21
209.468897
 31
0.0
 11
133.728762
 21
209.902649
 31
0.0
  0
LWPOLYLINE
  5
107
100
AcDbEntity
  8
0
 62
7
100
AcDbPolyline
 90
2
 70
0
 10
133.728762
 20
209.902649
 30
0.0
 10
133.728762
 20
209.902649
 30
0.0
  0
SPLINE
  5
108
100
AcDbEntity
  8
0
 62
7
100
AcDbSpline
 70
0
 71
3
 72
19
 73
15
 74
13
 40
0.000000
 40
0.000000
 40
0.000000
 40
0.000000
 40
1.212640
 40
2.505856
 40
3.610718
 40
5.696539
 40
7.763607
 40
9.793435
 40
12.489234
 40
15.057861
 40
17.716262
 40
18.795194
 40
19.870322
 40
20.994981
 40
20.994981
 40
20.994981
 40
20.994981
 10
137.065537
 20
210.632118
 30
0.0
 10
137.395786
 20
210.870233
 30
0.0
 10
138.078228
 20
211.362284
 30
0.0
 10
138.749709
 20
212.389208
 30
0.0
 10
139.202764
 20
213.855191
 30
0.0
 10
138.495733
 20
215.637738
 30
0.0
 10
136.834463
 20
216.986339
 30
0.0
 10
134.411190
 20
217.210262
 30
0.0
 10
132.307312
 20
215.467290
 30
0.0
 10
131.923397
 20
212.609838
 30
0.0
 10
133.370080
 20
210.727625
 30
0.0
 10
134.911979
 20
210.210858
 30
0.0
 10
136.033660
 20
210.202874
 30
0.0
 10
136.716454
 20
210.486897
 30
0.0
 10
137.065537
 20
210.632106
 30
0.0
 11
137.065537
 21
210.632118
 31
0.0
 11
138.005601
 21
211.398132
 31
0.0
 11
138.725509
 21
212.472440
 31
0.0
 11
139.013542
 21
213.539097
 31
0.0
 11
138.352597
 21
215.517430
 31
0.0
 11
136.732626
 21
216.801354
 31
0.0
 11
134.708338
 21
216.951228
 31
0.0
 11
132.601905
 21
215.268888
 31
0.0
 11
132.278493
 21
212.720702
 31
0.0
 11
133.904476
 21
210.617544
 31
0.0
 11
134.924931
 21
210.267165
 31
0.0
 11
136.000048
 21
210.272119
 31
0.0
 11
137.065537
 21
210.632106
 31
0.0
  0
LWPOLYLINE
  5
109
100
AcDbEntity
  8
0
 62
7
100
AcDbPolyline
 90
2
 70
0
 10
137.065537
 20
210.632106
 30
0.0
 10
137.065537
 20
210.632118
 30
0.0
  0
SPLINE
  5
10a
100
AcDbEntity
  8
0
 62
7
100
AcDbSpline
 70
0
 71
3
 72
25
 73
21
 74
19
 40
0.000000
 40
0.000000
 40
0.000000
 40
0.000000
 40
2.615815
 40
4.937743
 40
7.540981
 40
8.306126
 40
9.110202
 40
10.406996
 40
11.740816
 40
12.558839
 40
13.442678
 40
15.687274
 40
17.812703
 40
20.072758
 40
21.069458
 40
21.897416
 40
23.164148
 40
24.420163
 40
25.203806
 40
26.073682
 40
26.073682
 40
26.073682
 40
26.073682
 10
84.874250
 20
210.340528
 30
0.0
 10
84.256736
 20
210.994111
 30
0.0
 10
83.091088
 20
212.227846
 30
0.0
 10
83.042395
 20
214.970740
 30
0.0
 10
84.194094
 20
216.581050
 30
0.0
 10
85.280451
 20
217.486410
 30
0.0
 10
86.242771
 20
217.683588
 30
0.0
 10
87.383447
 20
217.663521
 30
0.0
 10
88.534073
 20
217.698580
 30
0.0
 10
89.543002
 20
217.444421
 30
0.0
 10
90.533622
 20
216.541413
 30
0.0
 10
91.555117
 20
215.049965
 30
0.0
 10
91.623689
 20
212.699373
 30
0.0
 10
90.658483
 20
211.120451
 30
0.0
 10
89.713259
 20
210.112704
 30
0.0
 10
88.726377
 20
209.729132
 30
0.0
 10
87.602465
 20
209.704155
 30
0.0
 10
86.507315
 20
209.593774
 30
0.0
 10
85.525175
 20
209.786004
 30
0.0
 10
85.098639
 20
210.149370
 30
0.0
 10
84.874250
 20
210.340528
 30
0.0
 11
84.874250
 21
210.340528
 31
0.0
 11
83.339895
 21
212.459077
 31
0.0
 11
83.272834
 21
214.780036
 31
0.0
 11
84.682742
 21
216.968416
 31
0.0
 11
85.298448
 21
217.422677
 31
0.0
 11
86.076204
 21
217.626719
 31
0.0
 11
87.372136
 21
217.673971
 31
0.0
 11
88.705101
 21
217.626199
 31
0.0
 11
89.489145
 21
217.392882
 31
0.0
 11
90.177922
 21
216.839025
 31
0.0
 11
91.366055
 21
214.934674
 31
0.0
 11
91.426913
 21
212.810117
 31
0.0
 11
90.350253
 21
210.822996
 31
0.0
 11
89.626393
 21
210.137840
 31
0.0
 11
88.861151
 21
209.821740
 31
0.0
 11
87.601544
 21
209.687582
 31
0.0
 11
86.345953
 21
209.654926
 31
0.0
 11
85.583847
 21
209.837383
 31
0.0
 11
84.874250
 21
210.340528
 31
0.0
  0
LWPOLYLINE
  5
10b
100
AcDbEntity
  8
0
 62
7
100
AcDbPolyline
 90
2
 70
0
 10
84.874250
 20
210.340528
 30
0.0
 10
84.874250
 20
210.340528
 30
0.0
  0
SPLINE
  5
10c
100
AcDbEntity
  8
0
 62
7
100
AcDbSpline
 70
0
 71
3
 72
22
 73
18
 74
16
 40
0.000000
 40
0.000000
 40
0.000000
 40
0.000000
 40
1.489517
 40
2.809522
 40
4.250599
 40
5.673555
 40
6.954161
 40
8.337627
 40
10.378680
 40
12.406049
 40
14.484912
 40
15.716570
 40
16.861312
 40
18.179441
 40
19.202722
 40
20.052719
 40
21.153438
 40
21.153438
 40
21.153438
 40
21.153438
 10
88.599611
 20
210.584216
 30
0.0
 10
89.048962
 20
210.813333
 30
0.0
 10
89.896525
 20
211.245494
 30
0.0
 10
90.677136
 20
212.519174
 30
0.0
 10
90.748977
 20
213.944075
 30
0.0
 10
90.434310
 20
215.318343
 30
0.0
 10
89.568760
 20
216.427106
 30
0.0
 10
88.144910
 20
217.178673
 30
0.0
 10
86.205376
 20
217.156758
 30
0.0
 10
84.456886
 20
215.846369
 30
0.0
 10
83.868802
 20
214.049335
 30
0.0
 10
84.080326
 20
212.549047
 30
0.0
 10
84.728909
 20
211.458482
 30
0.0
 10
85.681478
 20
210.771563
 30
0.0
 10
86.622528
 20
210.241364
 30
0.0
 10
87.649997
 20
210.192966
 30
0.0
 10
88.257065
 20
210.443084
 30
0.0
 10
88.599611
 20
210.584216
 30
0.0
 11
88.599611
 21
210.584216
 31
0.0
 11
89.854457
 21
211.386727
 31
0.0
 11
90.549844
 21
212.508712
 31
0.0
 11
90.681787
 21
213.943736
 31
0.0
 11
90.321752
 21
215.320391
 31
0.0
 11
89.534626
 21
216.330531
 31
0.0
 11
88.314208
 21
216.982112
 31
0.0
 11
86.273539
 21
216.942546
 31
0.0
 11
84.645963
 21
215.733735
 31
0.0
 11
83.981265
 21
213.764002
 31
0.0
 11
84.166210
 21
212.546309
 31
0.0
 11
84.750450
 21
211.561882
 31
0.0
 11
85.778092
 21
210.736401
 31
0.0
 11
86.701916
 21
210.296343
 31
0.0
 11
87.550679
 21
210.250562
 31
0.0
 11
88.599611
 21
210.584216
 31
0.0
  0
LWPOLYLINE
  5
10d
100
AcDbEntity
  8
0
 62
7
100
AcDbPolyline
 90
2
 70
0
 10
88.599611
 20
210.584216
 30
0.0
 10
88.599611
 20
210.584216
 30
0.0
  0
SPLINE
  5
10e
100
AcDbEntity
  8
0
 62
7
100
AcDbSpline
 70
0
 71
3
 72
28
 73
24
 74
22
 40
0.000000
 40
0.000000
 40
0.000000
 40
0.000000
 40
2.073837
 40
4.162687
 40
6.086619
 40
10.372782
 40
14.615544
 40
18.904566
 40
20.714761
 40
22.750586
 40
24.118647
 40
25.411494
 40
30.043998
 40
39.248450
 40
48.437970
 40
53.112384
 40
54.475614
 40
58.839297
 40
62.762514
 40
66.685448
 40
70.256909
 40
73.731912
 40
77.163379
 40
77.163379
 40
77.163379
 40
77.163379
 10
144.266753
 20
215.915620
 30
0.0
 10
144.027290
 20
216.566337
 30
0.0
 10
143.546629
 20
217.872484
 30
0.0
 10
142.393698
 20
219.566317
 30
0.0
 10
140.414025
 20
221.525488
 30
0.0
 10
136.993897
 20
222.845320
 30
0.0
 10
132.638843
 20
222.453321
 30
0.0
 10
129.472362
 20
220.643245
 30
0.0
 10
127.978138
 20
218.346022
 30
0.0
 10
126.935790
 20
217.002033
 30
0.0
 10
126.870494
 20
215.076700
 30
0.0
 10
123.970723
 20
215.195317
 30
0.0
 10
119.360063
 20
214.889490
 30
0.0
 10
111.454516
 20
215.028067
 30
0.0
 10
103.733340
 20
214.990118
 30
0.0
 10
98.830442
 20
215.065491
 30
0.0
 10
95.085195
 20
215.258889
 30
0.0
 10
95.018402
 20
219.677160
 30
0.0
 10
91.416548
 20
221.983936
 30
0.0
 10
87.664224
 20
222.986124
 30
0.0
 10
83.986372
 20
222.244312
 30
0.0
 10
80.884576
 20
220.380028
 30
0.0
 10
79.719787
 20
218.355484
 30
0.0
 10
79.141063
 20
217.349593
 30
0.0
 11
144.266753
 21
215.915620
 31
0.0
 11
143.471957
 21
217.831109
 31
0.0
 11
142.309044
 21
219.566310
 31
0.0
 11
140.924684
 21
220.902373
 31
0.0
 11
136.952628
 21
222.512953
 31
0.0
 11
132.725420
 21
222.149984
 31
0.0
 11
129.082871
 21
219.885577
 31
0.0
 11
128.005751
 21
218.430717
 31
0.0
 11
127.028781
 21
216.644629
 31
0.0
 11
126.599577
 21
215.345638
 31
0.0
 11
125.324720
 21
215.130713
 31
0.0
 11
120.693479
 21
215.022589
 31
0.0
 11
111.489075
 21
214.992860
 31
0.0
 11
102.299603
 21
215.022861
 31
0.0
 11
97.626447
 21
215.131257
 31
0.0
 11
96.280179
 21
215.345638
 31
0.0
 11
94.353412
 21
219.260903
 31
0.0
 11
91.350459
 21
221.785562
 31
0.0
 11
87.535080
 21
222.697865
 31
0.0
 11
84.025083
 21
222.038128
 31
0.0
 11
81.094405
 21
220.170838
 31
0.0
 11
79.141063
 21
217.349593
 31
0.0
  0
LWPOLYLINE
  5
10f
100
AcDbEntity
  8
0
 62
7
100
AcDbPolyline
 90
3
 70
0
 10
79.141063
 20
217.349593
 30
0.0
 10
78.485114
 20
215.766993
 30
0.0
 10
72.554854
 20
215.948778
 30
0.0
  0
SPLINE
  5
110
100
AcDbEntity
  8
0
 62
7
100
AcDbSpline
 70
0
 71
3
 72
46
 73
42
 74
40
 40
0.000000
 40
0.000000
 40
0.000000
 40
0.000000
 40
8.846457
 40
12.631681
 40
13.538455
 40
13.845525
 40
14.094273
 40
14.600858
 40
16.086105
 40
19.207485
 40
23.291420
 40
27.366607
 40
30.464639
 40
31.915583
 40
32.415803
 40
32.843659
 40
33.668537
 40
34.610744
 40
35.798149
 40
37.298876
 40
40.187935
 40
42.687385
 40
45.503894
 40
47.937494
 40
50.073982
 40
52.375866
 40
54.418533
 40
56.667871
 40
58.203820
 40
59.448762
 40
63.906145
 40
72.758531
 40
82.594540
 40
86.562846
 40
87.373587
 40
88.645855
 40
90.418064
 40
92.359895
 40
99.116221
 40
105.577530
 40
112.283725
 40
112.283725
 40
112.283725
 40
112.283725
 10
72.554854
 20
215.948778
 30
0.0
 10
69.508327
 20
216.074525
 30
0.0
 10
65.158251
 20
216.254076
 30
0.0
 10
61.148170
 20
216.295535
 30
0.0
 10
59.085079
 20
216.711466
 30
0.0
 10
59.146770
 20
217.319915
 30
0.0
 10
59.539200
 20
217.410966
 30
0.0
 10
60.234888
 20
217.125367
 30
0.0
 10
61.975462
 20
217.148848
 30
0.0
 10
64.842608
 20
216.926963
 30
0.0
 10
68.616030
 20
216.850243
 30
0.0
 10
72.349976
 20
216.769833
 30
0.0
 10
75.257748
 20
216.601052
 30
0.0
 10
76.887002
 20
216.613801
 30
0.0
 10
77.735115
 20
216.406014
 30
0.0
 10
78.159838
 20
216.905385
 30
0.0
 10
78.290374
 20
217.620406
 30
0.0
 10
78.715903
 20
218.523971
 30
0.0
 10
79.442784
 20
219.495853
 30
0.0
 10
80.714281
 20
220.851170
 30
0.0
 10
82.452981
 20
222.391432
 30
0.0
 10
85.056816
 20
223.419725
 30
0.0
 10
87.667523
 20
223.455383
 30
0.0
 10
90.130264
 20
223.188323
 30
0.0
 10
92.273796
 20
222.311226
 30
0.0
 10
94.041639
 20
221.012728
 30
0.0
 10
95.350296
 20
219.223020
 30
0.0
 10
96.590239
 20
217.764780
 30
0.0
 10
96.636228
 20
215.671969
 30
0.0
 10
99.470071
 20
215.725181
 30
0.0
 10
103.944771
 20
215.492413
 30
0.0
 10
111.867360
 20
215.500030
 30
0.0
 10
119.445625
 20
215.818698
 30
0.0
 10
124.179038
 20
215.359106
 30
0.0
 10
126.319308
 20
216.008368
 30
0.0
 10
126.247327
 20
217.550192
 30
0.0
 10
127.295248
 20
218.859813
 30
0.0
 10
129.327124
 20
221.699850
 30
0.0
 10
134.270681
 20
224.134816
 30
0.0
 10
141.491426
 20
222.644346
 30
0.0
 10
143.732185
 20
218.650229
 30
0.0
 10
144.873401
 20
216.616030
 30
0.0
 11
72.554854
 21
215.948778
 31
0.0
 11
63.713766
 21
216.256925
 31
0.0
 11
59.939833
 21
216.549071
 31
0.0
 11
59.145709
 21
216.986800
 31
0.0
 11
59.204738
 21
217.288143
 31
0.0
 11
59.439137
 21
217.371406
 31
0.0
 11
59.934873
 21
217.267128
 31
0.0
 11
61.413487
 21
217.126909
 31
0.0
 11
64.531258
 21
216.976866
 31
0.0
 11
68.613206
 21
216.849484
 31
0.0
 11
72.686758
 21
216.734081
 31
0.0
 11
75.782518
 21
216.615437
 31
0.0
 11
77.230269
 21
216.519239
 31
0.0
 11
77.730121
 21
216.500048
 31
0.0
 11
78.036929
 21
216.798259
 31
0.0
 11
78.315955
 21
217.574510
 31
0.0
 11
78.704014
 21
218.433094
 31
0.0
 11
79.394609
 21
219.399018
 31
0.0
 11
80.410284
 21
220.503819
 31
0.0
 11
82.651943
 21
222.326351
 31
0.0
 11
84.979159
 21
223.238116
 31
0.0
 11
87.791265
 21
223.395564
 31
0.0
 11
90.201483
 21
223.059033
 31
0.0
 11
92.181939
 21
222.257549
 31
0.0
 11
94.021721
 21
220.874120
 31
0.0
 11
95.323174
 21
219.299728
 31
0.0
 11
96.469860
 21
217.364624
 31
0.0
 11
96.963264
 21
215.910082
 31
0.0
 11
98.189525
 21
215.695220
 31
0.0
 11
102.645595
 21
215.587065
 31
0.0
 11
111.497931
 21
215.557305
 31
0.0
 11
121.333909
 21
215.582262
 31
0.0
 11
125.299927
 21
215.716972
 31
0.0
 11
126.038573
 21
216.051193
 31
0.0
 11
126.378324
 21
217.277257
 31
0.0
 11
127.245985
 21
218.822537
 31
0.0
 11
128.450066
 21
220.345986
 31
0.0
 11
134.492299
 21
223.369124
 31
0.0
 11
140.793151
 21
221.938117
 31
0.0
 11
144.873401
 21
216.616030
 31
0.0
  0
LWPOLYLINE
  5
111
100
AcDbEntity
  8
0
 62
7
100
AcDbPolyline
 90
3
 70
0
 10
144.873401
 20
216.616030
 30
0.0
 10
145.364598
 20
214.993642
 30
0.0
 10
147.128487
 20
214.993360
 30
0.0
  0
SPLINE
  5
112
100
AcDbEntity
  8
0
 62
7
100
AcDbSpline
 70
0
 71
3
 72
13
 73
9
 74
7
 40
0.000000
 40
0.000000
 40
0.000000
 40
0.000000
 40
0.897018
 40
1.534882
 40
1.812644
 40
2.123577
 40
2.870948
 40
3.952759
 40
3.952759
 40
3.952759
 40
3.952759
 10
147.128487
 20
214.993360
 30
0.0
 10
147.438348
 20
214.979291
 30
0.0
 10
147.968549
 20
214.955217
 30
0.0
 10
148.479277
 20
214.940446
 30
0.0
 10
149.028526
 20
214.700461
 30
0.0
 10
148.390240
 20
214.477730
 30
0.0
 10
147.809738
 20
214.465888
 30
0.0
 10
147.172569
 20
214.442409
 30
0.0
 10
146.795736
 20
214.428523
 30
0.0
 11
147.128487
 21
214.993360
 31
0.0
 11
148.024688
 21
214.955103
 31
0.0
 11
148.654520
 21
214.854190
 31
0.0
 11
148.892376
 21
214.710745
 31
0.0
 11
148.617605
 21
214.565211
 31
0.0
 11
147.876915
 21
214.465509
 31
0.0
 11
146.795736
 21
214.428523
 31
0.0
  0
LWPOLYLINE
  5
113
100
AcDbEntity
  8
0
 62
7
100
AcDbPolyline
 90
4
 70
0
 10
146.795736
 20
214.428523
 30
0.0
 10
144.699095
 20
214.428523
 30
0.0
 10
144.266753
 20
215.915727
 30
0.0
 10
144.266753
 20
215.915620
 30
0.0
  0
SPLINE
  5
114
100
AcDbEntity
  8
0
 62
7
100
AcDbSpline
 70
0
 71
3
 72
28
 73
24
 74
22
 40
0.000000
 40
0.000000
 40
0.000000
 40
0.000000
 40
1.065840
 40
5.080292
 40
15.501707
 40
25.054824
 40
29.423783
 40
30.624264
 40
34.035943
 40
39.876020
 40
43.360475
 40
44.301207
 40
48.391276
 40
58.806272
 40
67.954902
 40
72.672928
 40
74.124020
 40
75.128476
 40
77.404176
 40
80.462369
 40
84.600354
 40
86.359300
 40
87.148766
 40
87.148766
 40
87.148766
 40
87.148766
 10
100.084458
 20
217.798555
 30
0.0
 10
99.932245
 20
218.122681
 30
0.0
 10
99.206725
 20
219.667615
 30
0.0
 10
99.886227
 20
225.032810
 30
0.0
 10
99.421311
 20
232.845039
 30
0.0
 10
99.676101
 20
241.158077
 30
0.0
 10
99.638123
 20
245.949147
 30
0.0
 10
100.035294
 20
249.266865
 30
0.0
 10
104.860229
 20
248.148715
 30
0.0
 10
108.024006
 20
248.151790
 30
0.0
 10
112.543874
 20
249.231030
 30
0.0
 10
113.570113
 20
246.360660
 30
0.0
 10
113.031898
 20
241.232006
 30
0.0
 10
113.359620
 20
233.449887
 30
0.0
 10
113.499894
 20
224.968210
 30
0.0
 10
113.021265
 20
220.509749
 30
0.0
 10
113.342019
 20
217.420713
 30
0.0
 10
111.443762
 20
217.544388
 30
0.0
 10
109.508938
 20
217.317801
 30
0.0
 10
106.254465
 20
217.275973
 30
0.0
 10
103.369967
 20
217.351049
 30
0.0
 10
101.013435
 20
217.149440
 30
0.0
 10
100.304177
 20
217.645017
 30
0.0
 10
100.084458
 20
217.798541
 30
0.0
 11
100.084458
 21
217.798555
 31
0.0
 11
99.669554
 21
218.780324
 31
0.0
 11
99.534813
 21
222.792514
 31
0.0
 11
99.566767
 21
233.213880
 31
0.0
 11
99.645289
 21
242.766674
 31
0.0
 11
99.790335
 21
247.133225
 31
0.0
 11
100.067931
 21
248.301170
 31
0.0
 11
103.471001
 21
248.543389
 31
0.0
 11
109.311074
 21
248.536031
 31
0.0
 11
112.786485
 21
248.285140
 31
0.0
 11
113.163232
 21
247.423143
 31
0.0
 11
113.308459
 21
243.335653
 31
0.0
 11
113.332376
 21
232.920685
 31
0.0
 11
113.302019
 21
223.772106
 31
0.0
 11
113.193267
 21
219.055333
 31
0.0
 11
112.979598
 21
217.620058
 31
0.0
 11
111.983323
 21
217.492121
 31
0.0
 11
109.710577
 21
217.376196
 31
0.0
 11
106.653401
 21
217.297377
 31
0.0
 11
102.515593
 21
217.259098
 31
0.0
 11
100.761744
 21
217.392904
 31
0.0
 11
100.084458
 21
217.798541
 31
0.0
  0
LWPOLYLINE
  5
115
100
AcDbEntity
  8
0
 62
7
100
AcDbPolyline
 90
2
 70
0
 10
100.084458
 20
217.798541
 30
0.0
 10
100.084458
 20
217.798555
 30
0.0
  0
SPLINE
  5
116
100
AcDbEntity
  8
0
 62
7
100
AcDbSpline
 70
0
 71
3
 72
10
 73
6
 74
4
 40
0.000000
 40
0.000000
 40
0.000000
 40
0.000000
 40
2.254590
 40
7.552337
 40
14.747198
 40
14.747198
 40
14.747198
 40
14.747198
 10
112.629069
 20
218.732305
 30
0.0
 10
112.654149
 20
219.483452
 30
0.0
 10
112.738158
 20
221.999616
 30
0.0
 10
112.719787
 20
226.916233
 30
0.0
 10
112.710405
 20
231.080241
 30
0.0
 10
112.705001
 20
233.478416
 30
0.0
 11
112.629069
 21
218.732305
 31
0.0
 11
112.695982
 21
220.985901
 31
0.0
 11
112.723262
 21
226.283578
 31
0.0
 11
112.705001
 21
233.478416
 31
0.0
  0
LWPOLYLINE
  5
117
100
AcDbEntity
  8
0
 62
7
100
AcDbPolyline
 90
5
 70
0
 10
112.705001
 20
233.478416
 30
0.0
 10
112.626820
 20
247.589527
 30
0.0
 10
106.559042
 20
247.589527
 30
0.0
 10
100.491265
 20
247.589527
 30
0.0
 10
100.417853
 20
233.196193
 30
0.0
  0
SPLINE
  5
118
100
AcDbEntity
  8
0
 62
7
100
AcDbSpline
 70
0
 71
3
 72
16
 73
12
 74
10
 40
0.000000
 40
0.000000
 40
0.000000
 40
0.000000
 40
7.298342
 40
12.596066
 40
14.746963
 40
15.402942
 40
17.307337
 40
20.850104
 40
25.022729
 40
26.611945
 40
27.167575
 40
27.167575
 40
27.167575
 40
27.167575
 10
100.417853
 20
233.196193
 30
0.0
 10
100.310495
 20
230.691172
 30
0.0
 10
100.125209
 20
226.367804
 30
0.0
 10
100.967063
 20
222.062039
 30
0.0
 10
99.869972
 20
218.527633
 30
0.0
 10
101.553075
 20
218.114860
 30
0.0
 10
103.512889
 20
218.155008
 30
0.0
 10
106.824526
 20
218.005303
 30
0.0
 10
109.667961
 20
218.330656
 30
0.0
 10
112.141968
 20
217.924664
 30
0.0
 10
112.528847
 20
218.566130
 30
0.0
 10
112.629069
 20
218.732305
 30
0.0
 11
100.417853
 21
233.196193
 31
0.0
 11
100.399390
 21
225.897874
 31
0.0
 11
100.421555
 21
220.600198
 31
0.0
 11
100.479552
 21
218.450082
 31
0.0
 11
101.101005
 21
218.240069
 31
0.0
 11
103.002187
 21
218.129489
 31
0.0
 11
106.544807
 21
218.097305
 31
0.0
 11
110.717364
 21
218.121137
 31
0.0
 11
112.297997
 21
218.286080
 31
0.0
 11
112.629069
 21
218.732305
 31
0.0
  0
LWPOLYLINE
  5
119
100
AcDbEntity
  8
0
 62
7
100
AcDbPolyline
 90
2
 70
0
 10
112.629069
 20
218.732305
 30
0.0
 10
112.629069
 20
218.732305
 30
0.0
  0
SPLINE
  5
11a
100
AcDbEntity
  8
0
 62
7
100
AcDbSpline
 70
0
 71
3
 72
10
 73
6
 74
4
 40
0.000000
 40
0.000000
 40
0.000000
 40
0.000000
 40
0.567629
 40
1.779843
 40
4.755640
 40
4.755640
 40
4.755640
 40
4.755640
 10
147.834042
 20
218.106099
 30
0.0
 10
147.667807
 20
218.214344
 30
0.0
 10
147.146562
 20
218.553754
 30
0.0
 10
147.298416
 20
220.353478
 30
0.0
 10
147.240322
 20
221.690778
 30
0.0
 10
147.199042
 20
222.640998
 30
0.0
 11
147.834042
 21
218.106099
 31
0.0
 11
147.394132
 21
218.464821
 31
0.0
 11
147.226032
 21
219.665323
 31
0.0
 11
147.199042
 21
222.640998
 31
0.0
  0
LWPOLYLINE
  5
11b
100
AcDbEntity
  8
0
 62
7
100
AcDbPolyline
 90
3
 70
0
 10
147.199042
 20
222.640998
 30
0.0
 10
147.199042
 20
226.920658
 30
0.0
 10
146.235279
 20
227.829602
 30
0.0
  0
SPLINE
  5
11c
100
AcDbEntity
  8
0
 62
7
100
AcDbSpline
 70
0
 71
3
 72
28
 73
24
 74
22
 40
0.000000
 40
0.000000
 40
0.000000
 40
0.000000
 40
1.853714
 40
4.245527
 40
5.938316
 40
9.603471
 40
16.177865
 40
20.050746
 40
20.474386
 40
22.000797
 40
25.938663
 40
29.347733
 40
31.341485
 40
32.209998
 40
32.754150
 40
34.154166
 40
37.449652
 40
39.947874
 40
41.805024
 40
42.621000
 40
46.932693
 40
58.014291
 40
73.467669
 40
73.467669
 40
73.467669
 40
73.467669
 10
146.235279
 20
227.829602
 30
0.0
 10
145.718377
 20
228.167656
 30
0.0
 10
144.534525
 20
228.941893
 30
0.0
 10
142.750105
 20
229.835788
 30
0.0
 10
140.104260
 20
230.180358
 30
0.0
 10
137.605666
 20
233.838840
 30
0.0
 10
135.456219
 20
237.201787
 30
0.0
 10
131.149286
 20
239.856196
 30
0.0
 10
132.086543
 20
241.747507
 30
0.0
 10
134.474457
 20
241.226484
 30
0.0
 10
137.127456
 20
241.624328
 30
0.0
 10
140.377107
 20
241.484236
 30
0.0
 10
142.349589
 20
241.662582
 30
0.0
 10
143.628643
 20
241.701381
 30
0.0
 10
144.055394
 20
242.658563
 30
0.0
 10
143.278595
 20
244.348620
 30
0.0
 10
142.688363
 20
246.608000
 30
0.0
 10
141.825409
 20
249.044948
 30
0.0
 10
141.232321
 20
250.616896
 30
0.0
 10
140.416477
 20
252.947034
 30
0.0
 10
133.346073
 20
250.664098
 30
0.0
 10
124.362194
 20
252.676284
 30
0.0
 10
115.248711
 20
252.369075
 30
0.0
 10
109.941222
 20
252.190164
 30
0.0
 11
146.235279
 21
227.829602
 31
0.0
 11
144.667052
 21
228.817995
 31
0.0
 11
142.482745
 21
229.792456
 31
0.0
 11
140.848249
 21
230.232860
 31
0.0
 11
138.289746
 21
232.857250
 31
0.0
 11
134.035771
 21
237.869870
 31
0.0
 11
131.727747
 21
240.979891
 31
0.0
 11
131.931553
 21
241.351285
 31
0.0
 11
133.451020
 21
241.496724
 31
0.0
 11
137.388806
 21
241.521749
 31
0.0
 11
140.797700
 21
241.556443
 31
0.0
 11
142.788163
 21
241.670906
 31
0.0
 11
143.630955
 21
241.880707
 31
0.0
 11
143.879851
 21
242.364600
 31
0.0
 11
143.587242
 21
243.733697
 31
0.0
 11
142.565320
 21
246.866730
 31
0.0
 11
141.750385
 21
249.228296
 31
0.0
 11
141.110182
 21
250.971612
 31
0.0
 11
140.783313
 21
251.719256
 31
0.0
 11
136.474134
 21
251.866459
 31
0.0
 11
125.393827
 21
252.035637
 31
0.0
 11
109.941222
 21
252.190164
 31
0.0
  0
LWPOLYLINE
  5
11d
100
AcDbEntity
  8
0
 62
7
100
AcDbPolyline
 90
3
 70
0
 10
109.941222
 20
252.190164
 30
0.0
 10
79.324598
 20
252.435604
 30
0.0
 10
110.263932
 20
252.482010
 30
0.0
  0
SPLINE
  5
11e
100
AcDbEntity
  8
0
 62
7
100
AcDbSpline
 70
0
 71
3
 72
16
 73
12
 74
10
 40
0.000000
 40
0.000000
 40
0.000000
 40
0.000000
 40
18.915383
 40
28.462478
 40
31.226838
 40
34.033023
 40
38.686472
 40
41.558976
 40
42.560569
 40
44.328863
 40
48.718868
 40
48.718868
 40
48.718868
 40
48.718868
 10
110.263932
 20
252.482010
 30
0.0
 10
116.711114
 20
252.643220
 30
0.0
 10
126.412360
 20
252.885796
 30
0.0
 10
135.997182
 20
251.947687
 30
0.0
 10
141.958297
 20
252.807022
 30
0.0
 10
142.564392
 20
248.700224
 30
0.0
 10
143.625922
 20
245.710727
 30
0.0
 10
144.869505
 20
243.059043
 30
0.0
 10
144.411991
 20
240.978020
 30
0.0
 10
141.526923
 20
241.067141
 30
0.0
 10
139.608079
 20
241.003016
 30
0.0
 10
138.240211
 20
240.957305
 30
0.0
 11
110.263932
 21
252.482010
 31
0.0
 11
129.179315
 21
252.480859
 31
0.0
 11
138.725950
 21
252.387168
 31
0.0
 11
141.482205
 21
252.175638
 31
0.0
 11
142.500760
 21
249.560831
 31
0.0
 11
143.932883
 21
245.133234
 31
0.0
 11
144.659042
 21
242.354031
 31
0.0
 11
144.357588
 21
241.398880
 31
0.0
 11
142.629726
 21
241.022900
 31
0.0
 11
138.240211
 21
240.957305
 31
0.0
  0
LWPOLYLINE
  5
11f
100
AcDbEntity
  8
0
 62
7
100
AcDbPolyline
 90
3
 70
0
 10
138.240211
 20
240.957305
 30
0.0
 10
132.498713
 20
240.957305
 30
0.0
 10
136.654007
 20
236.015647
 30
0.0
  0
SPLINE
  5
120
100
AcDbEntity
  8
0
 62
7
100
AcDbSpline
 70
0
 71
3
 72
13
 73
9
 74
7
 40
0.000000
 40
0.000000
 40
0.000000
 40
0.000000
 40
4.236831
 40
6.378019
 40
7.502365
 40
9.561863
 40
11.607539
 40
13.150311
 40
13.150311
 40
13.150311
 40
13.150311
 10
136.654007
 20
236.015647
 30
0.0
 10
137.573091
 20
234.953395
 30
0.0
 10
138.956658
 20
233.354308
 30
0.0
 10
140.591277
 20
231.399171
 30
0.0
 10
142.205976
 20
230.608901
 30
0.0
 10
143.889261
 20
230.156533
 30
0.0
 10
145.603950
 20
229.338846
 30
0.0
 10
146.571430
 20
228.633518
 30
0.0
 10
146.987376
 20
228.330279
 30
0.0
 11
136.654007
 21
236.015647
 31
0.0
 11
139.413943
 21
232.801072
 31
0.0
 11
140.932651
 21
231.291698
 31
0.0
 11
141.929818
 21
230.772263
 31
0.0
 11
143.874816
 21
230.095129
 31
0.0
 11
145.716996
 21
229.205653
 31
0.0
 11
146.987376
 21
228.330279
 31
0.0
  0
LWPOLYLINE
  5
121
100
AcDbEntity
  8
0
 62
7
100
AcDbPolyline
 90
3
 70
0
 10
146.987376
 20
228.330279
 30
0.0
 10
147.763487
 20
227.587258
 30
0.0
 10
147.763487
 20
223.284634
 30
0.0
  0
SPLINE
  5
122
100
AcDbEntity
  8
0
 62
7
100
AcDbSpline
 70
0
 71
3
 72
16
 73
12
 74
10
 40
0.000000
 40
0.000000
 40
0.000000
 40
0.000000
 40
2.926676
 40
4.155623
 40
4.664875
 40
4.984322
 40
5.275970
 40
5.516927
 40
5.838921
 40
6.150326
 40
6.863735
 40
6.863735
 40
6.863735
 40
6.863735
 10
147.763487
 20
223.284634
 30
0.0
 10
147.808062
 20
222.339607
 30
0.0
 10
147.871355
 20
220.997753
 30
0.0
 10
147.703421
 20
219.284462
 30
0.0
 10
148.263220
 20
218.809698
 30
0.0
 10
148.614820
 20
218.683503
 30
0.0
 10
148.824562
 20
218.469379
 30
0.0
 10
148.917129
 20
218.206250
 30
0.0
 10
148.876400
 20
217.836965
 30
0.0
 10
148.336597
 20
217.874005
 30
0.0
 10
148.040303
 20
218.010842
 30
0.0
 10
147.834042
 20
218.106099
 30
0.0
 11
147.763487
 21
223.284634
 31
0.0
 11
147.791618
 21
220.358093
 31
0.0
 11
147.945182
 21
219.138778
 31
0.0
 11
148.327931
 21
218.802860
 31
0.0
 11
148.612244
 21
218.657216
 31
0.0
 11
148.815026
 21
218.447602
 31
0.0
 11
148.892376
 21
218.219397
 31
0.0
 11
148.817925
 21
217.906128
 31
0.0
 11
148.508289
 21
217.872981
 31
0.0
 11
147.834042
 21
218.106099
 31
0.0
  0
LWPOLYLINE
  5
123
100
AcDbEntity
  8
0
 62
7
100
AcDbPolyline
 90
2
 70
0
 10
147.834042
 20
218.106099
 30
0.0
 10
147.834042
 20
218.106099
 30
0.0
  0
SPLINE
  5
124
100
AcDbEntity
  8
0
 62
7
100
AcDbSpline
 70
0
 71
3
 72
34
 73
30
 74
28
 40
0.000000
 40
0.000000
 40
0.000000
 40
0.000000
 40
0.232663
 40
0.446045
 40
0.622459
 40
1.522153
 40
3.807970
 40
7.100105
 40
18.795449
 40
28.042311
 40
31.902934
 40
32.032924
 40
32.165483
 40
32.307616
 40
34.347884
 40
39.514495
 40
46.690623
 40
54.063608
 40
59.746008
 40
62.507868
 40
63.325836
 40
63.915669
 40
64.172842
 40
64.365980
 40
64.626821
 40
64.901119
 40
65.148087
 40
65.322874
 40
65.543364
 40
65.543364
 40
65.543364
 40
65.543364
 10
59.145709
 20
220.724703
 30
0.0
 10
59.154133
 20
220.801562
 30
0.0
 10
59.170282
 20
220.948911
 30
0.0
 10
59.259646
 20
221.148955
 30
0.0
 10
59.659651
 20
221.360661
 30
0.0
 10
59.529897
 20
222.711557
 30
0.0
 10
59.920490
 20
224.677711
 30
0.0
 10
60.097980
 20
230.547598
 30
0.0
 10
60.085613
 20
238.812396
 30
0.0
 10
62.051692
 20
246.227908
 30
0.0
 10
60.440090
 20
251.736411
 30
0.0
 10
61.621783
 20
252.523696
 30
0.0
 10
61.766169
 20
252.513101
 30
0.0
 10
62.418156
 20
252.055310
 30
0.0
 10
61.261413
 20
249.045644
 30
0.0
 10
61.944345
 20
244.710977
 30
0.0
 10
61.208232
 20
237.943028
 30
0.0
 10
60.964641
 20
231.274055
 30
0.0
 10
60.680235
 20
225.981225
 30
0.0
 10
60.560748
 20
222.921079
 30
0.0
 10
60.528904
 20
221.506788
 30
0.0
 10
60.478427
 20
220.988600
 30
0.0
 10
60.341823
 20
220.600631
 30
0.0
 10
60.075410
 20
220.628653
 30
0.0
 10
59.848688
 20
220.549709
 30
0.0
 10
59.602876
 20
220.471881
 30
0.0
 10
59.373691
 20
220.387419
 30
0.0
 10
59.157960
 20
220.505571
 30
0.0
 10
59.150096
 20
220.646245
 30
0.0
 10
59.145709
 20
220.724714
 30
0.0
 11
59.145709
 21
220.724703
 31
0.0
 11
59.184009
 21
220.954192
 31
0.0
 11
59.284419
 21
221.142473
 31
0.0
 11
59.425199
 21
221.248787
 31
0.0
 11
59.608524
 21
222.129605
 31
0.0
 11
59.812953
 21
224.406263
 31
0.0
 11
60.003834
 21
227.692860
 31
0.0
 11
60.605427
 21
239.372721
 31
0.0
 11
61.167371
 21
248.602492
 31
0.0
 11
61.511011
 21
252.447790
 31
0.0
 11
61.625564
 21
252.509232
 31
0.0
 11
61.757946
 21
252.502376
 31
0.0
 11
61.879500
 21
252.428712
 31
0.0
 11
61.871844
 21
250.388459
 31
0.0
 11
61.665492
 21
245.225970
 31
0.0
 11
61.305118
 21
238.058896
 31
0.0
 11
60.919550
 21
230.696000
 31
0.0
 11
60.647148
 21
225.020134
 31
0.0
 11
60.546886
 21
222.260094
 31
0.0
 11
60.516383
 21
221.442694
 31
0.0
 11
60.426851
 21
220.859696
 31
0.0
 11
60.297681
 21
220.637316
 31
0.0
 11
60.105975
 21
220.613841
 31
0.0
 11
59.852498
 21
220.552298
 31
0.0
 11
59.592125
 21
220.466010
 31
0.0
 11
59.348965
 21
220.422813
 31
0.0
 11
59.197735
 21
220.510451
 31
0.0
 11
59.145709
 21
220.724714
 31
0.0
  0
LWPOLYLINE
  5
125
100
AcDbEntity
  8
0
 62
7
100
AcDbPolyline
 90
2
 70
0
 10
59.145709
 20
220.724714
 30
0.0
 10
59.145709
 20
220.724703
 30
0.0
  0
SPLINE
  5
126
100
AcDbEntity
  8
0
 62
7
100
AcDbSpline
 70
0
 71
3
 72
28
 73
24
 74
22
 40
0.000000
 40
0.000000
 40
0.000000
 40
0.000000
 40
1.010398
 40
3.081979
 40
6.127181
 40
8.571136
 40
10.121756
 40
13.249274
 40
15.241944
 40
16.670192
 40
17.448469
 40
20.454277
 40
25.272306
 40
28.024326
 40
28.278605
 40
28.611321
 40
28.964866
 40
29.790101
 40
31.996435
 40
36.582623
 40
40.755957
 40
43.148095
 40
44.065334
 40
44.065334
 40
44.065334
 40
44.065334
 10
121.573265
 20
230.007082
 30
0.0
 10
121.471493
 20
230.329627
 30
0.0
 10
121.161061
 20
231.313471
 30
0.0
 10
121.287152
 20
233.405532
 30
0.0
 10
121.565900
 20
235.810147
 30
0.0
 10
121.428976
 20
238.423738
 30
0.0
 10
123.634426
 20
239.853598
 30
0.0
 10
125.919354
 20
239.482301
 30
0.0
 10
128.092830
 20
239.519077
 30
0.0
 10
129.485679
 20
239.426021
 30
0.0
 10
131.224809
 20
239.073826
 30
0.0
 10
132.868433
 20
236.293378
 30
0.0
 10
134.653999
 20
233.741636
 30
0.0
 10
137.240835
 20
231.758056
 30
0.0
 10
136.982803
 20
230.646604
 30
0.0
 10
136.819636
 20
230.378853
 30
0.0
 10
136.517028
 20
229.959369
 30
0.0
 10
135.331315
 20
229.710459
 30
0.0
 10
132.851419
 20
229.697796
 30
0.0
 10
129.157956
 20
229.637602
 30
0.0
 10
125.462723
 20
229.730019
 30
0.0
 10
122.944568
 20
229.670403
 30
0.0
 10
121.870858
 20
229.934018
 30
0.0
 10
121.573265
 20
230.007082
 30
0.0
 11
121.573265
 21
230.007082
 31
0.0
 11
121.308130
 21
230.982074
 31
0.0
 11
121.280778
 21
233.053474
 31
0.0
 11
121.492924
 21
236.091277
 31
0.0
 11
121.903710
 21
238.500463
 31
0.0
 11
123.163009
 21
239.405219
 31
0.0
 11
126.287784
 21
239.536194
 31
0.0
 11
128.279918
 21
239.490006
 31
0.0
 11
129.703085
 21
239.369638
 31
0.0
 11
130.458755
 21
239.183417
 31
0.0
 11
132.496488
 21
236.973773
 31
0.0
 11
135.498908
 21
233.205633
 31
0.0
 11
137.039042
 21
230.924931
 31
0.0
 11
136.978268
 21
230.678022
 31
0.0
 11
136.818939
 21
230.385935
 31
0.0
 11
136.595550
 21
230.111908
 31
0.0
 11
135.820632
 21
229.828157
 31
0.0
 11
133.618081
 21
229.699009
 31
0.0
 11
129.031994
 21
229.668416
 31
0.0
 11
124.858793
 21
229.701661
 31
0.0
 11
122.469117
 21
229.810165
 31
0.0
 11
121.573265
 21
230.007082
 31
0.0
  0
LWPOLYLINE
  5
127
100
AcDbEntity
  8
0
 62
7
100
AcDbPolyline
 90
2
 70
0
 10
121.573265
 20
230.007082
 30
0.0
 10
121.573265
 20
230.007082
 30
0.0
  0
SPLINE
  5
128
100
AcDbEntity
  8
0
 62
7
100
AcDbSpline
 70
0
 71
3
 72
19
 73
15
 74
13
 40
0.000000
 40
0.000000
 40
0.000000
 40
0.000000
 40
2.388267
 40
6.857909
 40
9.712030
 40
11.824927
 40
15.212902
 40
17.179068
 40
19.270941
 40
22.771250
 40
24.823367
 40
28.523738
 40
35.208875
 40
38.910271
 40
38.910271
 40
38.910271
 40
38.910271
 10
136.039843
 20
230.778822
 30
0.0
 10
135.616754
 20
231.459362
 30
0.0
 10
134.401855
 20
233.413532
 30
0.0
 10
132.250817
 20
235.688658
 30
0.0
 10
130.594280
 20
238.803699
 30
0.0
 10
127.511637
 20
238.684147
 30
0.0
 10
125.337928
 20
238.563354
 30
0.0
 10
122.245899
 20
238.783930
 30
0.0
 10
122.402877
 20
235.568704
 30
0.0
 10
122.115659
 20
233.517218
 30
0.0
 10
121.448564
 20
229.686639
 30
0.0
 10
127.327003
 20
231.099046
 30
0.0
 10
131.249724
 20
230.350749
 30
0.0
 10
134.781310
 20
230.666354
 30
0.0
 10
136.039843
 20
230.778825
 30
0.0
 11
136.039843
 21
230.778822
 31
0.0
 11
134.733708
 21
232.778280
 31
0.0
 11
132.018321
 21
236.328543
 31
0.0
 11
130.146958
 21
238.483539
 31
0.0
 11
128.045269
 21
238.700876
 31
0.0
 11
124.657867
 21
238.638541
 31
0.0
 11
122.713473
 21
238.346749
 31
0.0
 11
122.327972
 21
236.290704
 31
0.0
 11
121.985065
 21
232.807232
 31
0.0
 11
121.966174
 21
230.755203
 31
0.0
 11
125.660303
 21
230.540341
 31
0.0
 11
132.345431
 21
230.551561
 31
0.0
 11
136.039843
 21
230.778825
 31
0.0
  0
LWPOLYLINE
  5
129
100
AcDbEntity
  8
0
 62
7
100
AcDbPolyline
 90
2
 70
0
 10
136.039843
 20
230.778825
 30
0.0
 10
136.039843
 20
230.778822
 30
0.0
  0
LWPOLYLINE
  5
12a
100
AcDbEntity
  8
0
 62
7
100
AcDbPolyline
 90
2
 70
0
 10
67.236080
 20
232.678787
 30
0.0
 10
67.236080
 20
232.678787
 30
0.0
  0
SPLINE
  5
12b
100
AcDbEntity
  8
0
 62
7
100
AcDbSpline
 70
0
 71
3
 72
22
 73
18
 74
16
 40
0.000000
 40
0.000000
 40
0.000000
 40
0.000000
 40
3.239679
 40
8.940481
 40
12.192056
 40
18.571745
 40
29.987110
 40
36.366800
 40
39.430444
 40
44.891289
 40
48.300042
 40
49.201580
 40
52.672724
 40
60.580755
 40
66.680415
 40
71.080593
 40
72.830368
 40
72.830368
 40
72.830368
 40
72.830368
 10
67.236080
 20
232.678787
 30
0.0
 10
67.145935
 20
233.767843
 30
0.0
 10
66.897163
 20
236.773289
 30
0.0
 10
67.277189
 20
240.521372
 30
0.0
 10
66.707053
 20
246.663408
 30
0.0
 10
76.722805
 20
244.390478
 30
0.0
 10
82.219558
 20
244.339948
 30
0.0
 10
92.114700
 20
246.709279
 30
0.0
 10
91.774512
 20
240.676983
 30
0.0
 10
91.432331
 20
237.513383
 30
0.0
 10
92.680813
 20
233.095833
 30
0.0
 10
89.954379
 20
232.391436
 30
0.0
 10
85.959369
 20
232.643146
 30
0.0
 10
80.072189
 20
232.437690
 30
0.0
 10
73.952306
 20
232.527272
 30
0.0
 10
69.864760
 20
232.520783
 30
0.0
 10
67.818328
 20
232.643789
 30
0.0
 10
67.236080
 20
232.678787
 30
0.0
 11
67.236080
 21
232.678787
 31
0.0
 11
67.034901
 21
235.912214
 31
0.0
 11
67.105384
 21
241.612580
 31
0.0
 11
67.386598
 21
244.851971
 31
0.0
 11
73.758027
 21
245.176529
 31
0.0
 11
85.173392
 21
245.176529
 31
0.0
 11
91.544820
 21
244.851971
 31
0.0
 11
91.822787
 21
241.800963
 31
0.0
 11
91.899485
 21
236.340657
 31
0.0
 11
91.712181
 21
232.937054
 31
0.0
 11
90.859369
 21
232.644679
 31
0.0
 11
87.390535
 21
232.518057
 31
0.0
 11
79.482552
 21
232.490638
 31
0.0
 11
73.382946
 21
232.516421
 31
0.0
 11
68.983287
 21
232.584015
 31
0.0
 11
67.236080
 21
232.678787
 31
0.0
  0
LWPOLYLINE
  5
12c
100
AcDbEntity
  8
0
 62
7
100
AcDbPolyline
 90
5
 70
0
 10
90.972242
 20
238.773218
 30
0.0
 10
91.048772
 20
244.350242
 30
0.0
 10
79.401131
 20
244.276551
 30
0.0
 10
67.753487
 20
244.202860
 30
0.0
 10
67.673096
 20
239.263971
 30
0.0
  0
SPLINE
  5
12d
100
AcDbEntity
  8
0
 62
7
100
AcDbSpline
 70
0
 71
3
 72
10
 73
6
 74
4
 40
0.000000
 40
0.000000
 40
0.000000
 40
0.000000
 40
2.575258
 40
4.579055
 40
5.579631
 40
5.579631
 40
5.579631
 40
5.579631
 10
67.673096
 20
239.263971
 30
0.0
 10
67.665993
 20
238.405751
 30
0.0
 10
67.653364
 20
236.879753
 30
0.0
 10
67.647016
 20
235.018277
 30
0.0
 10
67.724137
 20
234.019541
 30
0.0
 10
67.749821
 20
233.686921
 30
0.0
 11
67.673096
 21
239.263971
 31
0.0
 11
67.654135
 21
236.688783
 31
0.0
 11
67.681701
 21
234.685176
 31
0.0
 11
67.749821
 21
233.686921
 31
0.0
  0
LWPOLYLINE
  5
12e
100
AcDbEntity
  8
0
 62
7
100
AcDbPolyline
 90
6
 70
0
 10
67.749821
 20
233.686921
 30
0.0
 10
67.906940
 20
233.048761
 30
0.0
 10
79.401323
 20
233.122477
 30
0.0
 10
90.895709
 20
233.196193
 30
0.0
 10
90.972242
 20
238.773218
 30
0.0
 10
90.972242
 20
238.773218
 30
0.0
  0
LWPOLYLINE
  5
12f
100
AcDbEntity
  8
0
 62
7
100
AcDbPolyline
 90
2
 70
0
 10
130.195153
 20
244.084355
 30
0.0
 10
130.195153
 20
244.084355
 30
0.0
  0
SPLINE
  5
130
100
AcDbEntity
  8
0
 62
7
100
AcDbSpline
 70
0
 71
3
 72
25
 73
21
 74
19
 40
0.000000
 40
0.000000
 40
0.000000
 40
0.000000
 40
0.465152
 40
1.222511
 40
2.606044
 40
3.804947
 40
4.688978
 40
5.174775
 40
7.830835
 40
12.321452
 40
14.977512
 40
15.449067
 40
16.289133
 40
17.399991
 40
19.476803
 40
21.008096
 40
24.662070
 40
26.898601
 40
28.611958
 40
29.456258
 40
29.456258
 40
29.456258
 40
29.456258
 10
130.195153
 20
244.084355
 30
0.0
 10
130.079093
 20
244.193671
 30
0.0
 10
129.774064
 20
244.480976
 30
0.0
 10
129.726965
 20
245.407223
 30
0.0
 10
129.684567
 20
246.490344
 30
0.0
 10
129.729612
 20
247.657137
 30
0.0
 10
129.799380
 20
248.500787
 30
0.0
 10
130.266896
 20
249.837827
 30
0.0
 10
133.699842
 20
249.145944
 30
0.0
 10
136.146396
 20
249.146643
 30
0.0
 10
139.568923
 20
249.835728
 30
0.0
 10
140.040059
 20
248.527019
 30
0.0
 10
140.122352
 20
247.723739
 30
0.0
 10
140.116479
 20
246.422255
 30
0.0
 10
140.421654
 20
244.558411
 30
0.0
 10
137.866316
 20
243.482392
 30
0.0
 10
135.455334
 20
243.833280
 30
0.0
 10
132.911055
 20
243.816427
 30
0.0
 10
131.309410
 20
243.867229
 30
0.0
 10
130.471691
 20
244.030469
 30
0.0
 10
130.195153
 20
244.084355
 30
0.0
 11
130.195153
 21
244.084355
 31
0.0
 11
129.887933
 21
244.433615
 31
0.0
 11
129.739722
 21
245.176330
 31
0.0
 11
129.701265
 21
246.559328
 31
0.0
 11
129.743479
 21
247.757488
 31
0.0
 11
129.860953
 21
248.633679
 31
0.0
 11
130.039931
 21
249.085305
 31
0.0
 11
132.677068
 21
249.401800
 31
0.0
 11
137.167684
 21
249.401800
 31
0.0
 11
139.804820
 21
249.085305
 31
0.0
 11
139.981929
 21
248.648273
 31
0.0
 11
140.100338
 21
247.816594
 31
0.0
 11
140.143487
 21
246.706575
 31
0.0
 11
139.958994
 21
244.637973
 31
0.0
 11
138.625453
 21
243.885293
 31
0.0
 11
134.972772
 21
243.788109
 31
0.0
 11
132.736662
 21
243.831493
 31
0.0
 11
131.026589
 21
243.937531
 31
0.0
 11
130.195153
 21
244.084355
 31
0.0
  0
LWPOLYLINE
  5
131
100
AcDbEntity
  8
0
 62
7
100
AcDbPolyline
 90
10
 70
0
 10
139.296820
 20
246.601749
 30
0.0
 10
139.296820
 20
248.577305
 30
0.0
 10
134.922376
 20
248.577305
 30
0.0
 10
130.547931
 20
248.577305
 30
0.0
 10
130.547931
 20
246.601749
 30
0.0
 10
130.547931
 20
244.626193
 30
0.0
 10
134.922376
 20
244.626193
 30
0.0
 10
139.296820
 20
244.626193
 30
0.0
 10
139.296820
 20
246.601749
 30
0.0
 10
139.296820
 20
246.601749
 30
0.0
  0
ENDSEC
  0
SECTION
  2
OBJECTS
  0
DICTIONARY
  5
C
330
0
100
AcDbDictionary
  3
ACAD_GROUP
350
D
  3
ACAD_MLINESTYLE
350
17
  0
DICTIONARY
  5
D
330
C
100
AcDbDictionary
  0
DICTIONARY
  5
1A
330
C
100
AcDbDictionary
  0
DICTIONARY
  5
17
330
C
100
AcDbDictionary
  3
STANDARD
350
18
  0
DICTIONARY
  5
19
330
C
100
AcDbDictionary
  0
ENDSEC
  0
EOF
