  0
SECTION
  2
HEADER
  9
$ACADVER
  1
AC1014
  9
$HANDSEED
  5
FFFF
  9
$MEASUREMENT
 70
     1
  0
ENDSEC
  0
SECTION
  2
TABLES
  0
TABLE
  2
VPORT
  5
8
330
0
100
AcDbSymbolTable
 70
     4
  0
VPORT
  5
2E
330
8
100
AcDbSymbolTableRecord
100
AcDbViewportTableRecord
  2
*ACTIVE
 70
     0
 10
0.0
 20
0.0
 11
1.0
 21
1.0
 12
210.0
 22
148.5
 13
0.0
 23
0.0
 14
10.0
 24
10.0
 15
10.0
 25
10.0
 16
0.0
 26
0.0
 36
1.0
 17
0.0
 27
0.0
 37
0.0
 40
341.0
 41
1.24
 42
50.0
 43
0.0
 44
0.0
 50
0.0
 51
0.0
 71
     0
 72
   100
 73
     1
 74
     3
 75
     0
 76
     0
 77
     0
 78
     0
  0
ENDTAB
  0
TABLE
  2
LTYPE
  5
5
330
0
100
AcDbSymbolTable
 70
     1
  0
LTYPE
  5
14
330
5
100
AcDbSymbolTableRecord
100
AcDbLinetypeTableRecord
  2
BYBLOCK
 70
     0
  3

 72
    65
 73
     0
 40
0.0
  0
LTYPE
  5
15
330
5
100
AcDbSymbolTableRecord
100
AcDbLinetypeTableRecord
  2
BYLAYER
 70
     0
  3

 72
    65
 73
     0
 40
0.0
  0
LTYPE
  5
16
330
5
100
AcDbSymbolTableRecord
100
AcDbLinetypeTableRecord
  2
CONTINUOUS
 70
     0
  3
Solid line
 72
    65
 73
     0
 40
0.0
  0
ENDTAB
  0
TABLE
  2
LAYER
  5
2
100
AcDbSymbolTable
 70
3
  0
LAYER
  5
50
100
AcDbSymbolTableRecord
100
AcDbLayerTableRecord
  2
0
 70
0
  6
CONTINUOUS
  0
LAYER
  5
51
100
AcDbSymbolTableRecord
100
AcDbLayerTableRecord
  2
Templates
 70
0
  6
CONTINUOUS
  0
LAYER
  5
52
100
AcDbSymbolTableRecord
100
AcDbLayerTableRecord
  2
Cut
 70
0
  6
CONTINUOUS
  0
ENDTAB
  0
TABLE
  2
STYLE
  5
3
330
0
100
AcDbSymbolTable
 70
     1
  0
STYLE
  5
11
330
3
100
AcDbSymbolTableRecord
100
AcDbTextStyleTableRecord
  2
STANDARD
 70
     0
 40
0.0
 41
1.0
 50
0.0
 71
     0
 42
2.5
  3
txt
  4

  0
ENDTAB
  0
TABLE
  2
VIEW
  5
6
330
0
100
AcDbSymbolTable
 70
     0
  0
ENDTAB
  0
TABLE
  2
UCS
  5
7
330
0
100
AcDbSymbolTable
 70
     0
  0
ENDTAB
  0
TABLE
  2
APPID
  5
9
330
0
100
AcDbSymbolTable
 70
     2
  0
APPID
  5
12
330
9
100
AcDbSymbolTableRecord
100
AcDbRegAppTableRecord
  2
ACAD
 70
     0
  0
ENDTAB
  0
TABLE
  2
DIMSTYLE
  5
A
330
0
100
AcDbSymbolTable
 70
     1
  0
DIMSTYLE
105
27
330
A
100
AcDbSymbolTableRecord
100
AcDbDimStyleTableRecord
  2
ISO-25
 70
     0
  3

  4

  5

  6

  7

 40
1.0
 41
2.5
 42
0.625
 43
3.75
 44
1.25
 45
0.0
 46
0.0
 47
0.0
 48
0.0
140
2.5
141
2.5
142
0.0
143
0.03937007874016
144
1.0
145
0.0
146
1.0
147
0.625
 71
     0
 72
     0
 73
     0
 74
     0
 75
     0
 76
     0
 77
     1
 78
     8
170
     0
171
     3
172
     1
173
     0
174
     0
175
     0
176
     0
177
     0
178
     0
270
     2
271
     2
272
     2
273
     2
274
     3
340
11
275
     0
280
     0
281
     0
282
     0
283
     0
284
     8
285
     0
286
     0
287
     3
288
     0
  0
ENDTAB
  0
TABLE
  2
BLOCK_RECORD
  5
1
330
0
100
AcDbSymbolTable
 70
     1
  0
BLOCK_RECORD
  5
1F
330
1
100
AcDbSymbolTableRecord
100
AcDbBlockTableRecord
  2
*MODEL_SPACE
  0
BLOCK_RECORD
  5
1B
330
1
100
AcDbSymbolTableRecord
100
AcDbBlockTableRecord
  2
*PAPER_SPACE
  0
ENDTAB
  0
ENDSEC
  0
SECTION
  2
BLOCKS
  0
BLOCK
  5
20
330
1F
100
AcDbEntity
  8
0
100
AcDbBlockBegin
  2
*MODEL_SPACE
 70
     0
 10
0.0
 20
0.0
 30
0.0
  3
*MODEL_SPACE
  1

  0
ENDBLK
  5
21
330
1F
100
AcDbEntity
  8
0
100
AcDbBlockEnd
  0
BLOCK
  5
1C
330
1B
100
AcDbEntity
 67
     1
  8
0
100
AcDbBlockBegin
  2
*PAPER_SPACE
  1

  0
ENDBLK
  5
1D
330
1B
100
AcDbEntity
 67
     1
  8
0
100
AcDbBlockEnd
  0
ENDSEC
  0
SECTION
  2
ENTITIES
  0
SPLINE
  5
100
100
AcDbEntity
  8
Templates
 62
7
100
AcDbSpline
 70
8
 71
3
 72
8
 73
4
 74
0
 40
0
 40
0
 40
0
 40
0
 40
1
 40
1
 40
1
 40
1
 10
47.500007
 20
298.500056
 30
0.0
 10
47.500007
 20
290.215736
 30
0.0
 10
40.784280
 20
283.500056
 30
0.0
 10
32.500008
 20
283.500056
 30
0.0
  0
SPLINE
  5
101
100
AcDbEntity
  8
Templates
 62
7
100
AcDbSpline
 70
8
 71
3
 72
8
 73
4
 74
0
 40
0
 40
0
 40
0
 40
0
 40
1
 40
1
 40
1
 40
1
 10
32.500008
 20
283.500056
 30
0.0
 10
24.215736
 20
283.500056
 30
0.0
 10
17.500007
 20
290.215736
 30
0.0
 10
17.500007
 20
298.500056
 30
0.0
  0
SPLINE
  5
102
100
AcDbEntity
  8
Templates
 62
7
100
AcDbSpline
 70
8
 71
3
 72
8
 73
4
 74
0
 40
0
 40
0
 40
0
 40
0
 40
1
 40
1
 40
1
 40
1
 10
17.500007
 20
298.500056
 30
0.0
 10
17.500007
 20
306.784256
 30
0.0
 10
24.215736
 20
313.500056
 30
0.0
 10
32.500008
 20
313.500056
 30
0.0
  0
SPLINE
  5
103
100
AcDbEntity
  8
Templates
 62
7
100
AcDbSpline
 70
8
 71
3
 72
8
 73
4
 74
0
 40
0
 40
0
 40
0
 40
0
 40
1
 40
1
 40
1
 40
1
 10
32.500008
 20
313.500056
 30
0.0
 10
40.784280
 20
313.500056
 30
0.0
 10
47.500007
 20
306.784256
 30
0.0
 10
47.500007
 20
298.500056
 30
0.0
  0
SPLINE
  5
104
100
AcDbEntity
  8
Templates
 62
7
100
AcDbSpline
 70
8
 71
3
 72
8
 73
4
 74
0
 40
0
 40
0
 40
0
 40
0
 40
1
 40
1
 40
1
 40
1
 10
82.499987
 20
298.500015
 30
0.0
 10
82.499987
 20
288.000017
 30
0.0
 10
42.989240
 20
277.500018
 30
0.0
 10
31.785712
 20
277.500018
 30
0.0
  0
SPLINE
  5
105
100
AcDbEntity
  8
Templates
 62
7
100
AcDbSpline
 70
8
 71
3
 72
8
 73
4
 74
0
 40
0
 40
0
 40
0
 40
0
 40
1
 40
1
 40
1
 40
1
 10
31.785712
 20
277.500018
 30
0.0
 10
20.582187
 20
277.500018
 30
0.0
 10
11.500002
 20
286.901018
 30
0.0
 10
11.500002
 20
298.500015
 30
0.0
  0
SPLINE
  5
106
100
AcDbEntity
  8
Templates
 62
7
100
AcDbSpline
 70
8
 71
3
 72
8
 73
4
 74
0
 40
0
 40
0
 40
0
 40
0
 40
1
 40
1
 40
1
 40
1
 10
11.500002
 20
298.500015
 30
0.0
 10
11.500002
 20
310.097616
 30
0.0
 10
20.582187
 20
319.500016
 30
0.0
 10
31.785712
 20
319.500016
 30
0.0
  0
SPLINE
  5
107
100
AcDbEntity
  8
Templates
 62
7
100
AcDbSpline
 70
8
 71
3
 72
8
 73
4
 74
0
 40
0
 40
0
 40
0
 40
0
 40
1
 40
1
 40
1
 40
1
 10
31.785712
 20
319.500016
 30
0.0
 10
42.989240
 20
319.500016
 30
0.0
 10
82.499987
 20
309.000017
 30
0.0
 10
82.499987
 20
298.500015
 30
0.0
  0
LWPOLYLINE
  5
108
100
AcDbEntity
  8
Templates
 62
7
100
AcDbPolyline
 90
2
 70
0
 10
47.500007
 20
298.500056
 30
0.0
 10
47.500007
 20
298.500056
 30
0.0
  0
SPLINE
  5
109
100
AcDbEntity
  8
Templates
 62
7
100
AcDbSpline
 70
8
 71
3
 72
8
 73
4
 74
0
 40
0
 40
0
 40
0
 40
0
 40
1
 40
1
 40
1
 40
1
 10
74.500001
 20
298.499996
 30
0.0
 10
74.500001
 20
297.671575
 30
0.0
 10
73.828430
 20
296.999999
 30
0.0
 10
73.000001
 20
296.999999
 30
0.0
  0
SPLINE
  5
10a
100
AcDbEntity
  8
Templates
 62
7
100
AcDbSpline
 70
8
 71
3
 72
8
 73
4
 74
0
 40
0
 40
0
 40
0
 40
0
 40
1
 40
1
 40
1
 40
1
 10
73.000001
 20
296.999999
 30
0.0
 10
72.171574
 20
296.999999
 30
0.0
 10
71.499998
 20
297.671575
 30
0.0
 10
71.499998
 20
298.499996
 30
0.0
  0
SPLINE
  5
10b
100
AcDbEntity
  8
Templates
 62
7
100
AcDbSpline
 70
8
 71
3
 72
8
 73
4
 74
0
 40
0
 40
0
 40
0
 40
0
 40
1
 40
1
 40
1
 40
1
 10
71.499998
 20
298.499996
 30
0.0
 10
71.499998
 20
299.328417
 30
0.0
 10
72.171574
 20
299.999993
 30
0.0
 10
73.000001
 20
299.999993
 30
0.0
  0
SPLINE
  5
10c
100
AcDbEntity
  8
Templates
 62
7
100
AcDbSpline
 70
8
 71
3
 72
8
 73
4
 74
0
 40
0
 40
0
 40
0
 40
0
 40
1
 40
1
 40
1
 40
1
 10
73.000001
 20
299.999993
 30
0.0
 10
73.828430
 20
299.999993
 30
0.0
 10
74.500001
 20
299.328417
 30
0.0
 10
74.500001
 20
298.499996
 30
0.0
  0
LWPOLYLINE
  5
10d
100
AcDbEntity
  8
Templates
 62
7
100
AcDbPolyline
 90
2
 70
0
 10
82.499987
 20
298.500015
 30
0.0
 10
82.499987
 20
298.500015
 30
0.0
  0
SPLINE
  5
10e
100
AcDbEntity
  8
Templates
 62
7
100
AcDbSpline
 70
8
 71
3
 72
8
 73
4
 74
0
 40
0
 40
0
 40
0
 40
0
 40
1
 40
1
 40
1
 40
1
 10
61.500001
 20
298.499996
 30
0.0
 10
61.500001
 20
297.671575
 30
0.0
 10
60.828431
 20
296.999999
 30
0.0
 10
60.000001
 20
296.999999
 30
0.0
  0
SPLINE
  5
10f
100
AcDbEntity
  8
Templates
 62
7
100
AcDbSpline
 70
8
 71
3
 72
8
 73
4
 74
0
 40
0
 40
0
 40
0
 40
0
 40
1
 40
1
 40
1
 40
1
 10
60.000001
 20
296.999999
 30
0.0
 10
59.171575
 20
296.999999
 30
0.0
 10
58.499999
 20
297.671575
 30
0.0
 10
58.499999
 20
298.499996
 30
0.0
  0
SPLINE
  5
110
100
AcDbEntity
  8
Templates
 62
7
100
AcDbSpline
 70
8
 71
3
 72
8
 73
4
 74
0
 40
0
 40
0
 40
0
 40
0
 40
1
 40
1
 40
1
 40
1
 10
58.499999
 20
298.499996
 30
0.0
 10
58.499999
 20
299.328417
 30
0.0
 10
59.171575
 20
299.999993
 30
0.0
 10
60.000001
 20
299.999993
 30
0.0
  0
SPLINE
  5
111
100
AcDbEntity
  8
Templates
 62
7
100
AcDbSpline
 70
8
 71
3
 72
8
 73
4
 74
0
 40
0
 40
0
 40
0
 40
0
 40
1
 40
1
 40
1
 40
1
 10
60.000001
 20
299.999993
 30
0.0
 10
60.828431
 20
299.999993
 30
0.0
 10
61.500001
 20
299.328417
 30
0.0
 10
61.500001
 20
298.499996
 30
0.0
  0
LWPOLYLINE
  5
112
100
AcDbEntity
  8
Templates
 62
7
100
AcDbPolyline
 90
2
 70
0
 10
74.500001
 20
298.499996
 30
0.0
 10
74.500001
 20
298.499996
 30
0.0
  0
SPLINE
  5
113
100
AcDbEntity
  8
Templates
 62
7
100
AcDbSpline
 70
8
 71
3
 72
8
 73
4
 74
0
 40
0
 40
0
 40
0
 40
0
 40
1
 40
1
 40
1
 40
1
 10
16.000002
 20
298.499996
 30
0.0
 10
16.000002
 20
297.671585
 30
0.0
 10
15.328426
 20
297.000017
 30
0.0
 10
14.500002
 20
297.000017
 30
0.0
  0
SPLINE
  5
114
100
AcDbEntity
  8
Templates
 62
7
100
AcDbSpline
 70
8
 71
3
 72
8
 73
4
 74
0
 40
0
 40
0
 40
0
 40
0
 40
1
 40
1
 40
1
 40
1
 10
14.500002
 20
297.000017
 30
0.0
 10
13.671573
 20
297.000017
 30
0.0
 10
13.000002
 20
297.671585
 30
0.0
 10
13.000002
 20
298.499996
 30
0.0
  0
SPLINE
  5
115
100
AcDbEntity
  8
Templates
 62
7
100
AcDbSpline
 70
8
 71
3
 72
8
 73
4
 74
0
 40
0
 40
0
 40
0
 40
0
 40
1
 40
1
 40
1
 40
1
 10
13.000002
 20
298.499996
 30
0.0
 10
13.000002
 20
299.328449
 30
0.0
 10
13.671573
 20
300.000017
 30
0.0
 10
14.500002
 20
300.000017
 30
0.0
  0
SPLINE
  5
116
100
AcDbEntity
  8
Templates
 62
7
100
AcDbSpline
 70
8
 71
3
 72
8
 73
4
 74
0
 40
0
 40
0
 40
0
 40
0
 40
1
 40
1
 40
1
 40
1
 10
14.500002
 20
300.000017
 30
0.0
 10
15.328426
 20
300.000017
 30
0.0
 10
16.000002
 20
299.328449
 30
0.0
 10
16.000002
 20
298.499996
 30
0.0
  0
LWPOLYLINE
  5
117
100
AcDbEntity
  8
Templates
 62
7
100
AcDbPolyline
 90
2
 70
0
 10
61.500001
 20
298.499996
 30
0.0
 10
61.500001
 20
298.499996
 30
0.0
  0
SPLINE
  5
118
100
AcDbEntity
  8
Templates
 62
7
100
AcDbSpline
 70
8
 71
3
 72
8
 73
4
 74
0
 40
0
 40
0
 40
0
 40
0
 40
1
 40
1
 40
1
 40
1
 10
34.000003
 20
316.499995
 30
0.0
 10
34.000003
 20
315.671584
 30
0.0
 10
33.328427
 20
315.000017
 30
0.0
 10
32.500003
 20
315.000017
 30
0.0
  0
SPLINE
  5
119
100
AcDbEntity
  8
Templates
 62
7
100
AcDbSpline
 70
8
 71
3
 72
8
 73
4
 74
0
 40
0
 40
0
 40
0
 40
0
 40
1
 40
1
 40
1
 40
1
 10
32.500003
 20
315.000017
 30
0.0
 10
31.671573
 20
315.000017
 30
0.0
 10
31.000003
 20
315.671584
 30
0.0
 10
31.000003
 20
316.499995
 30
0.0
  0
SPLINE
  5
11a
100
AcDbEntity
  8
Templates
 62
7
100
AcDbSpline
 70
8
 71
3
 72
8
 73
4
 74
0
 40
0
 40
0
 40
0
 40
0
 40
1
 40
1
 40
1
 40
1
 10
31.000003
 20
316.499995
 30
0.0
 10
31.000003
 20
317.328449
 30
0.0
 10
31.671573
 20
318.000017
 30
0.0
 10
32.500003
 20
318.000017
 30
0.0
  0
SPLINE
  5
11b
100
AcDbEntity
  8
Templates
 62
7
100
AcDbSpline
 70
8
 71
3
 72
8
 73
4
 74
0
 40
0
 40
0
 40
0
 40
0
 40
1
 40
1
 40
1
 40
1
 10
32.500003
 20
318.000017
 30
0.0
 10
33.328427
 20
318.000017
 30
0.0
 10
34.000003
 20
317.328449
 30
0.0
 10
34.000003
 20
316.499995
 30
0.0
  0
LWPOLYLINE
  5
11c
100
AcDbEntity
  8
Templates
 62
7
100
AcDbPolyline
 90
2
 70
0
 10
16.000002
 20
298.499996
 30
0.0
 10
16.000002
 20
298.499996
 30
0.0
  0
SPLINE
  5
11d
100
AcDbEntity
  8
Templates
 62
7
100
AcDbSpline
 70
8
 71
3
 72
8
 73
4
 74
0
 40
0
 40
0
 40
0
 40
0
 40
1
 40
1
 40
1
 40
1
 10
34.000003
 20
280.499996
 30
0.0
 10
34.000003
 20
279.671584
 30
0.0
 10
33.328427
 20
279.000017
 30
0.0
 10
32.500003
 20
279.000017
 30
0.0
  0
SPLINE
  5
11e
100
AcDbEntity
  8
Templates
 62
7
100
AcDbSpline
 70
8
 71
3
 72
8
 73
4
 74
0
 40
0
 40
0
 40
0
 40
0
 40
1
 40
1
 40
1
 40
1
 10
32.500003
 20
279.000017
 30
0.0
 10
31.671573
 20
279.000017
 30
0.0
 10
31.000003
 20
279.671584
 30
0.0
 10
31.000003
 20
280.499996
 30
0.0
  0
SPLINE
  5
11f
100
AcDbEntity
  8
Templates
 62
7
100
AcDbSpline
 70
8
 71
3
 72
8
 73
4
 74
0
 40
0
 40
0
 40
0
 40
0
 40
1
 40
1
 40
1
 40
1
 10
31.000003
 20
280.499996
 30
0.0
 10
31.000003
 20
281.328449
 30
0.0
 10
31.671573
 20
282.000017
 30
0.0
 10
32.500003
 20
282.000017
 30
0.0
  0
SPLINE
  5
120
100
AcDbEntity
  8
Templates
 62
7
100
AcDbSpline
 70
8
 71
3
 72
8
 73
4
 74
0
 40
0
 40
0
 40
0
 40
0
 40
1
 40
1
 40
1
 40
1
 10
32.500003
 20
282.000017
 30
0.0
 10
33.328427
 20
282.000017
 30
0.0
 10
34.000003
 20
281.328449
 30
0.0
 10
34.000003
 20
280.499996
 30
0.0
  0
LWPOLYLINE
  5
121
100
AcDbEntity
  8
Templates
 62
7
100
AcDbPolyline
 90
2
 70
0
 10
34.000003
 20
316.499995
 30
0.0
 10
34.000003
 20
316.499995
 30
0.0
  0
SPLINE
  5
122
100
AcDbEntity
  8
Cut
 62
7
100
AcDbSpline
 70
8
 71
3
 72
8
 73
4
 74
0
 40
0
 40
0
 40
0
 40
0
 40
1
 40
1
 40
1
 40
1
 10
202.003194
 20
259.996241
 30
0.0
 10
190.799666
 20
259.996241
 30
0.0
 10
151.000347
 20
248.500540
 30
0.0
 10
151.000347
 20
238.000547
 30
0.0
  0
SPLINE
  5
123
100
AcDbEntity
  8
Cut
 62
7
100
AcDbSpline
 70
8
 71
3
 72
8
 73
4
 74
0
 40
0
 40
0
 40
0
 40
0
 40
1
 40
1
 40
1
 40
1
 10
151.000347
 20
238.000547
 30
0.0
 10
151.000347
 20
227.500526
 30
0.0
 10
190.799666
 20
215.996019
 30
0.0
 10
202.003194
 20
215.996019
 30
0.0
  0
SPLINE
  5
124
100
AcDbEntity
  8
Cut
 62
7
100
AcDbSpline
 70
8
 71
3
 72
8
 73
4
 74
0
 40
0
 40
0
 40
0
 40
0
 40
1
 40
1
 40
1
 40
1
 10
202.003194
 20
215.996019
 30
0.0
 10
213.206720
 20
215.996019
 30
0.0
 10
223.002292
 20
226.401524
 30
0.0
 10
223.002292
 20
238.000547
 30
0.0
  0
SPLINE
  5
125
100
AcDbEntity
  8
Cut
 62
7
100
AcDbSpline
 70
8
 71
3
 72
8
 73
4
 74
0
 40
0
 40
0
 40
0
 40
0
 40
1
 40
1
 40
1
 40
1
 10
223.002292
 20
238.000547
 30
0.0
 10
223.002292
 20
249.598130
 30
0.0
 10
213.206720
 20
259.996241
 30
0.0
 10
202.003194
 20
259.996241
 30
0.0
  0
LWPOLYLINE
  5
126
100
AcDbEntity
  8
Templates
 62
7
100
AcDbPolyline
 90
2
 70
0
 10
34.000003
 20
280.499996
 30
0.0
 10
34.000003
 20
280.499996
 30
0.0
  0
SPLINE
  5
127
100
AcDbEntity
  8
Cut
 62
7
100
AcDbSpline
 70
8
 71
3
 72
8
 73
4
 74
0
 40
0
 40
0
 40
0
 40
0
 40
1
 40
1
 40
1
 40
1
 10
201.006597
 20
257.738464
 30
0.0
 10
201.696258
 20
257.738464
 30
0.0
 10
202.250139
 20
257.184631
 30
0.0
 10
202.250139
 20
256.494908
 30
0.0
  0
SPLINE
  5
128
100
AcDbEntity
  8
Cut
 62
7
100
AcDbSpline
 70
8
 71
3
 72
8
 73
4
 74
0
 40
0
 40
0
 40
0
 40
0
 40
1
 40
1
 40
1
 40
1
 10
202.250139
 20
256.494908
 30
0.0
 10
202.250139
 20
255.805241
 30
0.0
 10
201.696258
 20
255.251380
 30
0.0
 10
201.006597
 20
255.251380
 30
0.0
  0
SPLINE
  5
129
100
AcDbEntity
  8
Cut
 62
7
100
AcDbSpline
 70
8
 71
3
 72
8
 73
4
 74
0
 40
0
 40
0
 40
0
 40
0
 40
1
 40
1
 40
1
 40
1
 10
201.006597
 20
255.251380
 30
0.0
 10
200.316936
 20
255.251380
 30
0.0
 10
199.745417
 20
255.805241
 30
0.0
 10
199.745417
 20
256.494908
 30
0.0
  0
SPLINE
  5
12a
100
AcDbEntity
  8
Cut
 62
7
100
AcDbSpline
 70
8
 71
3
 72
8
 73
4
 74
0
 40
0
 40
0
 40
0
 40
0
 40
1
 40
1
 40
1
 40
1
 10
199.745417
 20
256.494908
 30
0.0
 10
199.745417
 20
257.184631
 30
0.0
 10
200.316936
 20
257.738464
 30
0.0
 10
201.006597
 20
257.738464
 30
0.0
  0
LWPOLYLINE
  5
12b
100
AcDbEntity
  8
Cut
 62
7
100
AcDbPolyline
 90
2
 70
0
 10
202.003194
 20
259.996241
 30
0.0
 10
202.003194
 20
259.996241
 30
0.0
  0
SPLINE
  5
12c
100
AcDbEntity
  8
Cut
 62
7
100
AcDbSpline
 70
8
 71
3
 72
8
 73
4
 74
0
 40
0
 40
0
 40
0
 40
0
 40
1
 40
1
 40
1
 40
1
 10
200.997792
 20
247.499074
 30
0.0
 10
201.826219
 20
247.499074
 30
0.0
 10
202.497097
 20
246.828204
 30
0.0
 10
202.497097
 20
245.999797
 30
0.0
  0
SPLINE
  5
12d
100
AcDbEntity
  8
Cut
 62
7
100
AcDbSpline
 70
8
 71
3
 72
8
 73
4
 74
0
 40
0
 40
0
 40
0
 40
0
 40
1
 40
1
 40
1
 40
1
 10
202.497097
 20
245.999797
 30
0.0
 10
202.497097
 20
245.171334
 30
0.0
 10
201.826219
 20
244.500463
 30
0.0
 10
200.997792
 20
244.500463
 30
0.0
  0
SPLINE
  5
12e
100
AcDbEntity
  8
Cut
 62
7
100
AcDbSpline
 70
8
 71
3
 72
8
 73
4
 74
0
 40
0
 40
0
 40
0
 40
0
 40
1
 40
1
 40
1
 40
1
 10
200.997792
 20
244.500463
 30
0.0
 10
200.169365
 20
244.500463
 30
0.0
 10
199.498486
 20
245.171334
 30
0.0
 10
199.498486
 20
245.999797
 30
0.0
  0
SPLINE
  5
12f
100
AcDbEntity
  8
Cut
 62
7
100
AcDbSpline
 70
8
 71
3
 72
8
 73
4
 74
0
 40
0
 40
0
 40
0
 40
0
 40
1
 40
1
 40
1
 40
1
 10
199.498486
 20
245.999797
 30
0.0
 10
199.498486
 20
246.828204
 30
0.0
 10
200.169365
 20
247.499074
 30
0.0
 10
200.997792
 20
247.499074
 30
0.0
  0
LWPOLYLINE
  5
130
100
AcDbEntity
  8
Cut
 62
7
100
AcDbPolyline
 90
2
 70
0
 10
201.006597
 20
257.738464
 30
0.0
 10
201.006597
 20
257.738464
 30
0.0
  0
SPLINE
  5
131
100
AcDbEntity
  8
Cut
 62
7
100
AcDbSpline
 70
8
 71
3
 72
8
 73
4
 74
0
 40
0
 40
0
 40
0
 40
0
 40
1
 40
1
 40
1
 40
1
 10
200.997792
 20
242.004575
 30
0.0
 10
203.206931
 20
242.004575
 30
0.0
 10
204.993000
 20
240.209670
 30
0.0
 10
204.993000
 20
238.000547
 30
0.0
  0
SPLINE
  5
132
100
AcDbEntity
  8
Cut
 62
7
100
AcDbSpline
 70
8
 71
3
 72
8
 73
4
 74
0
 40
0
 40
0
 40
0
 40
0
 40
1
 40
1
 40
1
 40
1
 10
204.993000
 20
238.000547
 30
0.0
 10
204.993000
 20
235.791340
 30
0.0
 10
203.206931
 20
233.996519
 30
0.0
 10
200.997792
 20
233.996519
 30
0.0
  0
SPLINE
  5
133
100
AcDbEntity
  8
Cut
 62
7
100
AcDbSpline
 70
8
 71
3
 72
8
 73
4
 74
0
 40
0
 40
0
 40
0
 40
0
 40
1
 40
1
 40
1
 40
1
 10
200.997792
 20
233.996519
 30
0.0
 10
198.788652
 20
233.996519
 30
0.0
 10
196.993764
 20
235.791340
 30
0.0
 10
196.993764
 20
238.000547
 30
0.0
  0
SPLINE
  5
134
100
AcDbEntity
  8
Cut
 62
7
100
AcDbSpline
 70
8
 71
3
 72
8
 73
4
 74
0
 40
0
 40
0
 40
0
 40
0
 40
1
 40
1
 40
1
 40
1
 10
196.993764
 20
238.000547
 30
0.0
 10
196.993764
 20
240.209670
 30
0.0
 10
198.788652
 20
242.004575
 30
0.0
 10
200.997792
 20
242.004575
 30
0.0
  0
LWPOLYLINE
  5
135
100
AcDbEntity
  8
Cut
 62
7
100
AcDbPolyline
 90
2
 70
0
 10
200.997792
 20
247.499074
 30
0.0
 10
200.997792
 20
247.499074
 30
0.0
  0
SPLINE
  5
136
100
AcDbEntity
  8
Cut
 62
7
100
AcDbSpline
 70
8
 71
3
 72
8
 73
4
 74
0
 40
0
 40
0
 40
0
 40
0
 40
1
 40
1
 40
1
 40
1
 10
160.498903
 20
239.499852
 30
0.0
 10
161.327330
 20
239.499852
 30
0.0
 10
161.998209
 20
238.828954
 30
0.0
 10
161.998209
 20
238.000547
 30
0.0
  0
SPLINE
  5
137
100
AcDbEntity
  8
Cut
 62
7
100
AcDbSpline
 70
8
 71
3
 72
8
 73
4
 74
0
 40
0
 40
0
 40
0
 40
0
 40
1
 40
1
 40
1
 40
1
 10
161.998209
 20
238.000547
 30
0.0
 10
161.998209
 20
237.172112
 30
0.0
 10
161.327330
 20
236.501241
 30
0.0
 10
160.498903
 20
236.501241
 30
0.0
  0
SPLINE
  5
138
100
AcDbEntity
  8
Cut
 62
7
100
AcDbSpline
 70
8
 71
3
 72
8
 73
4
 74
0
 40
0
 40
0
 40
0
 40
0
 40
1
 40
1
 40
1
 40
1
 10
160.498903
 20
236.501241
 30
0.0
 10
159.670474
 20
236.501241
 30
0.0
 10
158.999597
 20
237.172112
 30
0.0
 10
158.999597
 20
238.000547
 30
0.0
  0
SPLINE
  5
139
100
AcDbEntity
  8
Cut
 62
7
100
AcDbSpline
 70
8
 71
3
 72
8
 73
4
 74
0
 40
0
 40
0
 40
0
 40
0
 40
1
 40
1
 40
1
 40
1
 10
158.999597
 20
238.000547
 30
0.0
 10
158.999597
 20
238.828954
 30
0.0
 10
159.670474
 20
239.499852
 30
0.0
 10
160.498903
 20
239.499852
 30
0.0
  0
LWPOLYLINE
  5
13a
100
AcDbEntity
  8
Cut
 62
7
100
AcDbPolyline
 90
2
 70
0
 10
200.997792
 20
242.004575
 30
0.0
 10
200.997792
 20
242.004575
 30
0.0
  0
SPLINE
  5
13b
100
AcDbEntity
  8
Cut
 62
7
100
AcDbSpline
 70
8
 71
3
 72
8
 73
4
 74
0
 40
0
 40
0
 40
0
 40
0
 40
1
 40
1
 40
1
 40
1
 10
173.498764
 20
239.499852
 30
0.0
 10
174.327191
 20
239.499852
 30
0.0
 10
174.998070
 20
238.828954
 30
0.0
 10
174.998070
 20
238.000547
 30
0.0
  0
SPLINE
  5
13c
100
AcDbEntity
  8
Cut
 62
7
100
AcDbSpline
 70
8
 71
3
 72
8
 73
4
 74
0
 40
0
 40
0
 40
0
 40
0
 40
1
 40
1
 40
1
 40
1
 10
174.998070
 20
238.000547
 30
0.0
 10
174.998070
 20
237.172112
 30
0.0
 10
174.327191
 20
236.501241
 30
0.0
 10
173.498764
 20
236.501241
 30
0.0
  0
SPLINE
  5
13d
100
AcDbEntity
  8
Cut
 62
7
100
AcDbSpline
 70
8
 71
3
 72
8
 73
4
 74
0
 40
0
 40
0
 40
0
 40
0
 40
1
 40
1
 40
1
 40
1
 10
173.498764
 20
236.501241
 30
0.0
 10
172.670335
 20
236.501241
 30
0.0
 10
171.999459
 20
237.172112
 30
0.0
 10
171.999459
 20
238.000547
 30
0.0
  0
SPLINE
  5
13e
100
AcDbEntity
  8
Cut
 62
7
100
AcDbSpline
 70
8
 71
3
 72
8
 73
4
 74
0
 40
0
 40
0
 40
0
 40
0
 40
1
 40
1
 40
1
 40
1
 10
171.999459
 20
238.000547
 30
0.0
 10
171.999459
 20
238.828954
 30
0.0
 10
172.670335
 20
239.499852
 30
0.0
 10
173.498764
 20
239.499852
 30
0.0
  0
LWPOLYLINE
  5
13f
100
AcDbEntity
  8
Cut
 62
7
100
AcDbPolyline
 90
2
 70
0
 10
160.498903
 20
239.499852
 30
0.0
 10
160.498903
 20
239.499852
 30
0.0
  0
SPLINE
  5
140
100
AcDbEntity
  8
Cut
 62
7
100
AcDbSpline
 70
8
 71
3
 72
8
 73
4
 74
0
 40
0
 40
0
 40
0
 40
0
 40
1
 40
1
 40
1
 40
1
 10
191.499250
 20
239.499852
 30
0.0
 10
192.327677
 20
239.499852
 30
0.0
 10
192.998556
 20
238.828954
 30
0.0
 10
192.998556
 20
238.000547
 30
0.0
  0
SPLINE
  5
141
100
AcDbEntity
  8
Cut
 62
7
100
AcDbSpline
 70
8
 71
3
 72
8
 73
4
 74
0
 40
0
 40
0
 40
0
 40
0
 40
1
 40
1
 40
1
 40
1
 10
192.998556
 20
238.000547
 30
0.0
 10
192.998556
 20
237.172112
 30
0.0
 10
192.327677
 20
236.501241
 30
0.0
 10
191.499250
 20
236.501241
 30
0.0
  0
SPLINE
  5
142
100
AcDbEntity
  8
Cut
 62
7
100
AcDbSpline
 70
8
 71
3
 72
8
 73
4
 74
0
 40
0
 40
0
 40
0
 40
0
 40
1
 40
1
 40
1
 40
1
 10
191.499250
 20
236.501241
 30
0.0
 10
190.670824
 20
236.501241
 30
0.0
 10
189.999945
 20
237.172112
 30
0.0
 10
189.999945
 20
238.000547
 30
0.0
  0
SPLINE
  5
143
100
AcDbEntity
  8
Cut
 62
7
100
AcDbSpline
 70
8
 71
3
 72
8
 73
4
 74
0
 40
0
 40
0
 40
0
 40
0
 40
1
 40
1
 40
1
 40
1
 10
189.999945
 20
238.000547
 30
0.0
 10
189.999945
 20
238.828954
 30
0.0
 10
190.670824
 20
239.499852
 30
0.0
 10
191.499250
 20
239.499852
 30
0.0
  0
LWPOLYLINE
  5
144
100
AcDbEntity
  8
Cut
 62
7
100
AcDbPolyline
 90
2
 70
0
 10
173.498764
 20
239.499852
 30
0.0
 10
173.498764
 20
239.499852
 30
0.0
  0
SPLINE
  5
145
100
AcDbEntity
  8
Cut
 62
7
100
AcDbSpline
 70
8
 71
3
 72
8
 73
4
 74
0
 40
0
 40
0
 40
0
 40
0
 40
1
 40
1
 40
1
 40
1
 10
210.496334
 20
239.499852
 30
0.0
 10
211.324760
 20
239.499852
 30
0.0
 10
211.995639
 20
238.828954
 30
0.0
 10
211.995639
 20
238.000547
 30
0.0
  0
SPLINE
  5
146
100
AcDbEntity
  8
Cut
 62
7
100
AcDbSpline
 70
8
 71
3
 72
8
 73
4
 74
0
 40
0
 40
0
 40
0
 40
0
 40
1
 40
1
 40
1
 40
1
 10
211.995639
 20
238.000547
 30
0.0
 10
211.995639
 20
237.172112
 30
0.0
 10
211.324760
 20
236.501241
 30
0.0
 10
210.496334
 20
236.501241
 30
0.0
  0
SPLINE
  5
147
100
AcDbEntity
  8
Cut
 62
7
100
AcDbSpline
 70
8
 71
3
 72
8
 73
4
 74
0
 40
0
 40
0
 40
0
 40
0
 40
1
 40
1
 40
1
 40
1
 10
210.496334
 20
236.501241
 30
0.0
 10
209.667907
 20
236.501241
 30
0.0
 10
208.997028
 20
237.172112
 30
0.0
 10
208.997028
 20
238.000547
 30
0.0
  0
SPLINE
  5
148
100
AcDbEntity
  8
Cut
 62
7
100
AcDbSpline
 70
8
 71
3
 72
8
 73
4
 74
0
 40
0
 40
0
 40
0
 40
0
 40
1
 40
1
 40
1
 40
1
 10
208.997028
 20
238.000547
 30
0.0
 10
208.997028
 20
238.828954
 30
0.0
 10
209.667907
 20
239.499852
 30
0.0
 10
210.496334
 20
239.499852
 30
0.0
  0
LWPOLYLINE
  5
149
100
AcDbEntity
  8
Cut
 62
7
100
AcDbPolyline
 90
2
 70
0
 10
191.499250
 20
239.499852
 30
0.0
 10
191.499250
 20
239.499852
 30
0.0
  0
SPLINE
  5
14a
100
AcDbEntity
  8
Cut
 62
7
100
AcDbSpline
 70
8
 71
3
 72
8
 73
4
 74
0
 40
0
 40
0
 40
0
 40
0
 40
1
 40
1
 40
1
 40
1
 10
219.509806
 20
239.235269
 30
0.0
 10
220.199467
 20
239.235269
 30
0.0
 10
220.753347
 20
238.681380
 30
0.0
 10
220.753347
 20
237.991742
 30
0.0
  0
SPLINE
  5
14b
100
AcDbEntity
  8
Cut
 62
7
100
AcDbSpline
 70
8
 71
3
 72
8
 73
4
 74
0
 40
0
 40
0
 40
0
 40
0
 40
1
 40
1
 40
1
 40
1
 10
220.753347
 20
237.991742
 30
0.0
 10
220.753347
 20
237.302019
 30
0.0
 10
220.199467
 20
236.748186
 30
0.0
 10
219.509806
 20
236.748186
 30
0.0
  0
SPLINE
  5
14c
100
AcDbEntity
  8
Cut
 62
7
100
AcDbSpline
 70
8
 71
3
 72
8
 73
4
 74
0
 40
0
 40
0
 40
0
 40
0
 40
1
 40
1
 40
1
 40
1
 10
219.509806
 20
236.748186
 30
0.0
 10
218.820145
 20
236.748186
 30
0.0
 10
218.248625
 20
237.302019
 30
0.0
 10
218.248625
 20
237.991742
 30
0.0
  0
SPLINE
  5
14d
100
AcDbEntity
  8
Cut
 62
7
100
AcDbSpline
 70
8
 71
3
 72
8
 73
4
 74
0
 40
0
 40
0
 40
0
 40
0
 40
1
 40
1
 40
1
 40
1
 10
218.248625
 20
237.991742
 30
0.0
 10
218.248625
 20
238.681380
 30
0.0
 10
218.820145
 20
239.235269
 30
0.0
 10
219.509806
 20
239.235269
 30
0.0
  0
LWPOLYLINE
  5
14e
100
AcDbEntity
  8
Cut
 62
7
100
AcDbPolyline
 90
2
 70
0
 10
210.496334
 20
239.499852
 30
0.0
 10
210.496334
 20
239.499852
 30
0.0
  0
SPLINE
  5
14f
100
AcDbEntity
  8
Cut
 62
7
100
AcDbSpline
 70
8
 71
3
 72
8
 73
4
 74
0
 40
0
 40
0
 40
0
 40
0
 40
1
 40
1
 40
1
 40
1
 10
200.997792
 20
231.500630
 30
0.0
 10
201.826219
 20
231.500630
 30
0.0
 10
202.497097
 20
230.829760
 30
0.0
 10
202.497097
 20
230.001297
 30
0.0
  0
SPLINE
  5
150
100
AcDbEntity
  8
Cut
 62
7
100
AcDbSpline
 70
8
 71
3
 72
8
 73
4
 74
0
 40
0
 40
0
 40
0
 40
0
 40
1
 40
1
 40
1
 40
1
 10
202.497097
 20
230.001297
 30
0.0
 10
202.497097
 20
229.172890
 30
0.0
 10
201.826219
 20
228.502019
 30
0.0
 10
200.997792
 20
228.502019
 30
0.0
  0
SPLINE
  5
151
100
AcDbEntity
  8
Cut
 62
7
100
AcDbSpline
 70
8
 71
3
 72
8
 73
4
 74
0
 40
0
 40
0
 40
0
 40
0
 40
1
 40
1
 40
1
 40
1
 10
200.997792
 20
228.502019
 30
0.0
 10
200.169365
 20
228.502019
 30
0.0
 10
199.498486
 20
229.172890
 30
0.0
 10
199.498486
 20
230.001297
 30
0.0
  0
SPLINE
  5
152
100
AcDbEntity
  8
Cut
 62
7
100
AcDbSpline
 70
8
 71
3
 72
8
 73
4
 74
0
 40
0
 40
0
 40
0
 40
0
 40
1
 40
1
 40
1
 40
1
 10
199.498486
 20
230.001297
 30
0.0
 10
199.498486
 20
230.829760
 30
0.0
 10
200.169365
 20
231.500630
 30
0.0
 10
200.997792
 20
231.500630
 30
0.0
  0
LWPOLYLINE
  5
153
100
AcDbEntity
  8
Cut
 62
7
100
AcDbPolyline
 90
2
 70
0
 10
219.509806
 20
239.235269
 30
0.0
 10
219.509806
 20
239.235269
 30
0.0
  0
SPLINE
  5
154
100
AcDbEntity
  8
Cut
 62
7
100
AcDbSpline
 70
8
 71
3
 72
8
 73
4
 74
0
 40
0
 40
0
 40
0
 40
0
 40
1
 40
1
 40
1
 40
1
 10
201.006597
 20
220.732075
 30
0.0
 10
201.696258
 20
220.732075
 30
0.0
 10
202.250139
 20
220.178242
 30
0.0
 10
202.250139
 20
219.488519
 30
0.0
  0
SPLINE
  5
155
100
AcDbEntity
  8
Cut
 62
7
100
AcDbSpline
 70
8
 71
3
 72
8
 73
4
 74
0
 40
0
 40
0
 40
0
 40
0
 40
1
 40
1
 40
1
 40
1
 10
202.250139
 20
219.488519
 30
0.0
 10
202.250139
 20
218.798881
 30
0.0
 10
201.696258
 20
218.244991
 30
0.0
 10
201.006597
 20
218.244991
 30
0.0
  0
SPLINE
  5
156
100
AcDbEntity
  8
Cut
 62
7
100
AcDbSpline
 70
8
 71
3
 72
8
 73
4
 74
0
 40
0
 40
0
 40
0
 40
0
 40
1
 40
1
 40
1
 40
1
 10
201.006597
 20
218.244991
 30
0.0
 10
200.316936
 20
218.244991
 30
0.0
 10
199.745417
 20
218.798881
 30
0.0
 10
199.745417
 20
219.488519
 30
0.0
  0
SPLINE
  5
157
100
AcDbEntity
  8
Cut
 62
7
100
AcDbSpline
 70
8
 71
3
 72
8
 73
4
 74
0
 40
0
 40
0
 40
0
 40
0
 40
1
 40
1
 40
1
 40
1
 10
199.745417
 20
219.488519
 30
0.0
 10
199.745417
 20
220.178242
 30
0.0
 10
200.316936
 20
220.732075
 30
0.0
 10
201.006597
 20
220.732075
 30
0.0
  0
LWPOLYLINE
  5
158
100
AcDbEntity
  8
Cut
 62
7
100
AcDbPolyline
 90
2
 70
0
 10
200.997792
 20
231.500630
 30
0.0
 10
200.997792
 20
231.500630
 30
0.0
  0
SPLINE
  5
159
100
AcDbEntity
  8
Cut
 62
7
100
AcDbSpline
 70
8
 71
3
 72
8
 73
4
 74
0
 40
0
 40
0
 40
0
 40
0
 40
1
 40
1
 40
1
 40
1
 10
140.999097
 20
289.999991
 30
0.0
 10
129.795572
 20
289.999991
 30
0.0
 10
120.000000
 20
279.593075
 30
0.0
 10
120.000000
 20
267.995463
 30
0.0
  0
SPLINE
  5
15a
100
AcDbEntity
  8
Cut
 62
7
100
AcDbSpline
 70
8
 71
3
 72
8
 73
4
 74
0
 40
0
 40
0
 40
0
 40
0
 40
1
 40
1
 40
1
 40
1
 10
120.000000
 20
267.995463
 30
0.0
 10
120.000000
 20
256.396469
 30
0.0
 10
129.795572
 20
245.999797
 30
0.0
 10
140.999097
 20
245.999797
 30
0.0
  0
SPLINE
  5
15b
100
AcDbEntity
  8
Cut
 62
7
100
AcDbSpline
 70
8
 71
3
 72
8
 73
4
 74
0
 40
0
 40
0
 40
0
 40
0
 40
1
 40
1
 40
1
 40
1
 10
140.999097
 20
245.999797
 30
0.0
 10
152.202625
 20
245.999797
 30
0.0
 10
192.001944
 20
257.495470
 30
0.0
 10
192.001944
 20
267.995463
 30
0.0
  0
SPLINE
  5
15c
100
AcDbEntity
  8
Cut
 62
7
100
AcDbSpline
 70
8
 71
3
 72
8
 73
4
 74
0
 40
0
 40
0
 40
0
 40
0
 40
1
 40
1
 40
1
 40
1
 10
192.001944
 20
267.995463
 30
0.0
 10
192.001944
 20
278.495485
 30
0.0
 10
152.202625
 20
289.999991
 30
0.0
 10
140.999097
 20
289.999991
 30
0.0
  0
LWPOLYLINE
  5
15d
100
AcDbEntity
  8
Cut
 62
7
100
AcDbPolyline
 90
2
 70
0
 10
201.006597
 20
220.732075
 30
0.0
 10
201.006597
 20
220.732075
 30
0.0
  0
SPLINE
  5
15e
100
AcDbEntity
  8
Cut
 62
7
100
AcDbSpline
 70
8
 71
3
 72
8
 73
4
 74
0
 40
0
 40
0
 40
0
 40
0
 40
1
 40
1
 40
1
 40
1
 10
141.845764
 20
287.997963
 30
0.0
 10
141.896189
 20
288.003043
 30
0.0
 10
141.943918
 20
287.997963
 30
0.0
 10
141.995694
 20
287.997963
 30
0.0
  0
SPLINE
  5
15f
100
AcDbEntity
  8
Cut
 62
7
100
AcDbSpline
 70
8
 71
3
 72
8
 73
4
 74
0
 40
0
 40
0
 40
0
 40
0
 40
1
 40
1
 40
1
 40
1
 10
141.995694
 20
287.997963
 30
0.0
 10
142.824118
 20
287.997963
 30
0.0
 10
143.495000
 20
287.327121
 30
0.0
 10
143.495000
 20
286.498686
 30
0.0
  0
SPLINE
  5
160
100
AcDbEntity
  8
Cut
 62
7
100
AcDbSpline
 70
8
 71
3
 72
8
 73
4
 74
0
 40
0
 40
0
 40
0
 40
0
 40
1
 40
1
 40
1
 40
1
 10
143.495000
 20
286.498686
 30
0.0
 10
143.495000
 20
285.670251
 30
0.0
 10
142.824118
 20
284.999352
 30
0.0
 10
141.995694
 20
284.999352
 30
0.0
  0
SPLINE
  5
161
100
AcDbEntity
  8
Cut
 62
7
100
AcDbSpline
 70
8
 71
3
 72
8
 73
4
 74
0
 40
0
 40
0
 40
0
 40
0
 40
1
 40
1
 40
1
 40
1
 10
141.995694
 20
284.999352
 30
0.0
 10
141.167265
 20
284.999352
 30
0.0
 10
140.496389
 20
285.670251
 30
0.0
 10
140.496389
 20
286.498686
 30
0.0
  0
SPLINE
  5
162
100
AcDbEntity
  8
Cut
 62
7
100
AcDbSpline
 70
8
 71
3
 72
8
 73
4
 74
0
 40
0
 40
0
 40
0
 40
0
 40
1
 40
1
 40
1
 40
1
 10
140.496389
 20
286.498686
 30
0.0
 10
140.496389
 20
287.275333
 30
0.0
 10
141.089377
 20
287.921171
 30
0.0
 10
141.845764
 20
287.997963
 30
0.0
  0
LWPOLYLINE
  5
163
100
AcDbEntity
  8
Cut
 62
7
100
AcDbPolyline
 90
2
 70
0
 10
140.999097
 20
289.999991
 30
0.0
 10
140.999097
 20
289.999991
 30
0.0
  0
SPLINE
  5
164
100
AcDbEntity
  8
Cut
 62
7
100
AcDbSpline
 70
8
 71
3
 72
8
 73
4
 74
0
 40
0
 40
0
 40
0
 40
0
 40
1
 40
1
 40
1
 40
1
 10
141.995694
 20
282.997352
 30
0.0
 10
150.279967
 20
282.997352
 30
0.0
 10
156.997569
 20
276.279673
 30
0.0
 10
156.997569
 20
267.995463
 30
0.0
  0
SPLINE
  5
165
100
AcDbEntity
  8
Cut
 62
7
100
AcDbSpline
 70
8
 71
3
 72
8
 73
4
 74
0
 40
0
 40
0
 40
0
 40
0
 40
1
 40
1
 40
1
 40
1
 10
156.997569
 20
267.995463
 30
0.0
 10
156.997569
 20
259.711169
 30
0.0
 10
150.279967
 20
253.002408
 30
0.0
 10
141.995694
 20
253.002408
 30
0.0
  0
SPLINE
  5
166
100
AcDbEntity
  8
Cut
 62
7
100
AcDbSpline
 70
8
 71
3
 72
8
 73
4
 74
0
 40
0
 40
0
 40
0
 40
0
 40
1
 40
1
 40
1
 40
1
 10
141.995694
 20
253.002408
 30
0.0
 10
133.711422
 20
253.002408
 30
0.0
 10
126.993819
 20
259.711169
 30
0.0
 10
126.993819
 20
267.995463
 30
0.0
  0
SPLINE
  5
167
100
AcDbEntity
  8
Cut
 62
7
100
AcDbSpline
 70
8
 71
3
 72
8
 73
4
 74
0
 40
0
 40
0
 40
0
 40
0
 40
1
 40
1
 40
1
 40
1
 10
126.993819
 20
267.995463
 30
0.0
 10
126.993819
 20
276.279673
 30
0.0
 10
133.711422
 20
282.997352
 30
0.0
 10
141.995694
 20
282.997352
 30
0.0
  0
LWPOLYLINE
  5
168
100
AcDbEntity
  8
Cut
 62
7
100
AcDbPolyline
 90
2
 70
0
 10
141.845764
 20
287.997963
 30
0.0
 10
141.845764
 20
287.997963
 30
0.0
  0
SPLINE
  5
169
100
AcDbEntity
  8
Cut
 62
7
100
AcDbSpline
 70
8
 71
3
 72
8
 73
4
 74
0
 40
0
 40
0
 40
0
 40
0
 40
1
 40
1
 40
1
 40
1
 10
123.351389
 20
269.494797
 30
0.0
 10
123.401814
 20
269.499877
 30
0.0
 10
123.449543
 20
269.494797
 30
0.0
 10
123.501319
 20
269.494797
 30
0.0
  0
SPLINE
  5
16a
100
AcDbEntity
  8
Cut
 62
7
100
AcDbSpline
 70
8
 71
3
 72
8
 73
4
 74
0
 40
0
 40
0
 40
0
 40
0
 40
1
 40
1
 40
1
 40
1
 10
123.501319
 20
269.494797
 30
0.0
 10
124.329743
 20
269.494797
 30
0.0
 10
125.000625
 20
268.823927
 30
0.0
 10
125.000625
 20
267.995463
 30
0.0
  0
SPLINE
  5
16b
100
AcDbEntity
  8
Cut
 62
7
100
AcDbSpline
 70
8
 71
3
 72
8
 73
4
 74
0
 40
0
 40
0
 40
0
 40
0
 40
1
 40
1
 40
1
 40
1
 10
125.000625
 20
267.995463
 30
0.0
 10
125.000625
 20
267.167056
 30
0.0
 10
124.329743
 20
266.496186
 30
0.0
 10
123.501319
 20
266.496186
 30
0.0
  0
SPLINE
  5
16c
100
AcDbEntity
  8
Cut
 62
7
100
AcDbSpline
 70
8
 71
3
 72
8
 73
4
 74
0
 40
0
 40
0
 40
0
 40
0
 40
1
 40
1
 40
1
 40
1
 10
123.501319
 20
266.496186
 30
0.0
 10
122.672890
 20
266.496186
 30
0.0
 10
122.002014
 20
267.167056
 30
0.0
 10
122.002014
 20
267.995463
 30
0.0
  0
SPLINE
  5
16d
100
AcDbEntity
  8
Cut
 62
7
100
AcDbSpline
 70
8
 71
3
 72
8
 73
4
 74
0
 40
0
 40
0
 40
0
 40
0
 40
1
 40
1
 40
1
 40
1
 10
122.002014
 20
267.995463
 30
0.0
 10
122.002014
 20
268.772139
 30
0.0
 10
122.595002
 20
269.417976
 30
0.0
 10
123.351389
 20
269.494797
 30
0.0
  0
LWPOLYLINE
  5
16e
100
AcDbEntity
  8
Cut
 62
7
100
AcDbPolyline
 90
2
 70
0
 10
141.995694
 20
282.997352
 30
0.0
 10
141.995694
 20
282.997352
 30
0.0
  0
SPLINE
  5
16f
100
AcDbEntity
  8
Cut
 62
7
100
AcDbSpline
 70
8
 71
3
 72
8
 73
4
 74
0
 40
0
 40
0
 40
0
 40
0
 40
1
 40
1
 40
1
 40
1
 10
169.344792
 20
269.494797
 30
0.0
 10
169.395216
 20
269.499877
 30
0.0
 10
169.442946
 20
269.494797
 30
0.0
 10
169.494722
 20
269.494797
 30
0.0
  0
SPLINE
  5
170
100
AcDbEntity
  8
Cut
 62
7
100
AcDbSpline
 70
8
 71
3
 72
8
 73
4
 74
0
 40
0
 40
0
 40
0
 40
0
 40
1
 40
1
 40
1
 40
1
 10
169.494722
 20
269.494797
 30
0.0
 10
170.323152
 20
269.494797
 30
0.0
 10
170.994028
 20
268.823898
 30
0.0
 10
170.994028
 20
267.995463
 30
0.0
  0
SPLINE
  5
171
100
AcDbEntity
  8
Cut
 62
7
100
AcDbSpline
 70
8
 71
3
 72
8
 73
4
 74
0
 40
0
 40
0
 40
0
 40
0
 40
1
 40
1
 40
1
 40
1
 10
170.994028
 20
267.995463
 30
0.0
 10
170.994028
 20
267.167056
 30
0.0
 10
170.323152
 20
266.496186
 30
0.0
 10
169.494722
 20
266.496186
 30
0.0
  0
SPLINE
  5
172
100
AcDbEntity
  8
Cut
 62
7
100
AcDbSpline
 70
8
 71
3
 72
8
 73
4
 74
0
 40
0
 40
0
 40
0
 40
0
 40
1
 40
1
 40
1
 40
1
 10
169.494722
 20
266.496186
 30
0.0
 10
168.666296
 20
266.496186
 30
0.0
 10
167.995417
 20
267.167056
 30
0.0
 10
167.995417
 20
267.995463
 30
0.0
  0
SPLINE
  5
173
100
AcDbEntity
  8
Cut
 62
7
100
AcDbSpline
 70
8
 71
3
 72
8
 73
4
 74
0
 40
0
 40
0
 40
0
 40
0
 40
1
 40
1
 40
1
 40
1
 10
167.995417
 20
267.995463
 30
0.0
 10
167.995417
 20
268.772111
 30
0.0
 10
168.588408
 20
269.417976
 30
0.0
 10
169.344792
 20
269.494797
 30
0.0
  0
LWPOLYLINE
  5
174
100
AcDbEntity
  8
Cut
 62
7
100
AcDbPolyline
 90
2
 70
0
 10
123.351389
 20
269.494797
 30
0.0
 10
123.351389
 20
269.494797
 30
0.0
  0
SPLINE
  5
175
100
AcDbEntity
  8
Cut
 62
7
100
AcDbSpline
 70
8
 71
3
 72
8
 73
4
 74
0
 40
0
 40
0
 40
0
 40
0
 40
1
 40
1
 40
1
 40
1
 10
182.344653
 20
269.494797
 30
0.0
 10
182.395077
 20
269.499877
 30
0.0
 10
182.442807
 20
269.494797
 30
0.0
 10
182.494583
 20
269.494797
 30
0.0
  0
SPLINE
  5
176
100
AcDbEntity
  8
Cut
 62
7
100
AcDbSpline
 70
8
 71
3
 72
8
 73
4
 74
0
 40
0
 40
0
 40
0
 40
0
 40
1
 40
1
 40
1
 40
1
 10
182.494583
 20
269.494797
 30
0.0
 10
183.323013
 20
269.494797
 30
0.0
 10
183.993889
 20
268.823898
 30
0.0
 10
183.993889
 20
267.995463
 30
0.0
  0
SPLINE
  5
177
100
AcDbEntity
  8
Cut
 62
7
100
AcDbSpline
 70
8
 71
3
 72
8
 73
4
 74
0
 40
0
 40
0
 40
0
 40
0
 40
1
 40
1
 40
1
 40
1
 10
183.993889
 20
267.995463
 30
0.0
 10
183.993889
 20
267.167056
 30
0.0
 10
183.323013
 20
266.496186
 30
0.0
 10
182.494583
 20
266.496186
 30
0.0
  0
SPLINE
  5
178
100
AcDbEntity
  8
Cut
 62
7
100
AcDbSpline
 70
8
 71
3
 72
8
 73
4
 74
0
 40
0
 40
0
 40
0
 40
0
 40
1
 40
1
 40
1
 40
1
 10
182.494583
 20
266.496186
 30
0.0
 10
181.666157
 20
266.496186
 30
0.0
 10
180.995278
 20
267.167056
 30
0.0
 10
180.995278
 20
267.995463
 30
0.0
  0
SPLINE
  5
179
100
AcDbEntity
  8
Cut
 62
7
100
AcDbSpline
 70
8
 71
3
 72
8
 73
4
 74
0
 40
0
 40
0
 40
0
 40
0
 40
1
 40
1
 40
1
 40
1
 10
180.995278
 20
267.995463
 30
0.0
 10
180.995278
 20
268.772111
 30
0.0
 10
181.588269
 20
269.417976
 30
0.0
 10
182.344653
 20
269.494797
 30
0.0
  0
LWPOLYLINE
  5
17a
100
AcDbEntity
  8
Cut
 62
7
100
AcDbPolyline
 90
2
 70
0
 10
169.344792
 20
269.494797
 30
0.0
 10
169.344792
 20
269.494797
 30
0.0
  0
SPLINE
  5
17b
100
AcDbEntity
  8
Cut
 62
7
100
AcDbSpline
 70
8
 71
3
 72
8
 73
4
 74
0
 40
0
 40
0
 40
0
 40
0
 40
1
 40
1
 40
1
 40
1
 10
141.845764
 20
251.000408
 30
0.0
 10
141.896189
 20
251.005488
 30
0.0
 10
141.943918
 20
251.000408
 30
0.0
 10
141.995694
 20
251.000408
 30
0.0
  0
SPLINE
  5
17c
100
AcDbEntity
  8
Cut
 62
7
100
AcDbSpline
 70
8
 71
3
 72
8
 73
4
 74
0
 40
0
 40
0
 40
0
 40
0
 40
1
 40
1
 40
1
 40
1
 10
141.995694
 20
251.000408
 30
0.0
 10
142.824118
 20
251.000408
 30
0.0
 10
143.495000
 20
250.329566
 30
0.0
 10
143.495000
 20
249.501102
 30
0.0
  0
SPLINE
  5
17d
100
AcDbEntity
  8
Cut
 62
7
100
AcDbSpline
 70
8
 71
3
 72
8
 73
4
 74
0
 40
0
 40
0
 40
0
 40
0
 40
1
 40
1
 40
1
 40
1
 10
143.495000
 20
249.501102
 30
0.0
 10
143.495000
 20
248.672696
 30
0.0
 10
142.824118
 20
248.001797
 30
0.0
 10
141.995694
 20
248.001797
 30
0.0
  0
SPLINE
  5
17e
100
AcDbEntity
  8
Cut
 62
7
100
AcDbSpline
 70
8
 71
3
 72
8
 73
4
 74
0
 40
0
 40
0
 40
0
 40
0
 40
1
 40
1
 40
1
 40
1
 10
141.995694
 20
248.001797
 30
0.0
 10
141.167265
 20
248.001797
 30
0.0
 10
140.496389
 20
248.672696
 30
0.0
 10
140.496389
 20
249.501102
 30
0.0
  0
SPLINE
  5
17f
100
AcDbEntity
  8
Cut
 62
7
100
AcDbSpline
 70
8
 71
3
 72
8
 73
4
 74
0
 40
0
 40
0
 40
0
 40
0
 40
1
 40
1
 40
1
 40
1
 10
140.496389
 20
249.501102
 30
0.0
 10
140.496389
 20
250.277778
 30
0.0
 10
141.089377
 20
250.923587
 30
0.0
 10
141.845764
 20
251.000408
 30
0.0
  0
LWPOLYLINE
  5
180
100
AcDbEntity
  8
Cut
 62
7
100
AcDbPolyline
 90
2
 70
0
 10
182.344653
 20
269.494797
 30
0.0
 10
182.344653
 20
269.494797
 30
0.0
  0
SPLINE
  5
181
100
AcDbEntity
  8
Cut
 62
7
100
AcDbSpline
 70
8
 71
3
 72
8
 73
4
 74
0
 40
0
 40
0
 40
0
 40
0
 40
1
 40
1
 40
1
 40
1
 10
49.999999
 20
349.999991
 30
0.0
 10
40.000007
 20
329.999947
 30
0.0
 10
30.003821
 20
319.994970
 30
0.0
 10
10.003818
 20
309.994990
 30
0.0
  0
LWPOLYLINE
  5
182
100
AcDbEntity
  8
Cut
 62
7
100
AcDbPolyline
 90
2
 70
0
 10
141.845764
 20
251.000408
 30
0.0
 10
141.845764
 20
251.000408
 30
0.0
  0
SPLINE
  5
183
100
AcDbEntity
  8
Cut
 62
7
100
AcDbSpline
 70
8
 71
3
 72
8
 73
4
 74
0
 40
0
 40
0
 40
0
 40
0
 40
1
 40
1
 40
1
 40
1
 10
10.003818
 20
280.000045
 30
0.0
 10
30.003809
 20
270.000066
 30
0.0
 10
39.999965
 20
259.995035
 30
0.0
 10
49.999999
 20
239.995047
 30
0.0
  0
LWPOLYLINE
  5
184
100
AcDbEntity
  8
Cut
 62
7
100
AcDbPolyline
 90
2
 70
0
 10
10.003818
 20
309.994990
 30
0.0
 10
10.003818
 20
280.000045
 30
0.0
  0
SPLINE
  5
185
100
AcDbEntity
  8
Cut
 62
7
100
AcDbSpline
 70
8
 71
3
 72
8
 73
4
 74
0
 40
0
 40
0
 40
0
 40
0
 40
1
 40
1
 40
1
 40
1
 10
80.003749
 20
239.995047
 30
0.0
 10
90.003729
 20
259.995063
 30
0.0
 10
99.999924
 20
270.000010
 30
0.0
 10
119.999929
 20
280.000045
 30
0.0
  0
LWPOLYLINE
  5
186
100
AcDbEntity
  8
Cut
 62
7
100
AcDbPolyline
 90
2
 70
0
 10
49.999999
 20
239.995047
 30
0.0
 10
80.003749
 20
239.995047
 30
0.0
  0
SPLINE
  5
187
100
AcDbEntity
  8
Cut
 62
7
100
AcDbSpline
 70
8
 71
3
 72
8
 73
4
 74
0
 40
0
 40
0
 40
0
 40
0
 40
1
 40
1
 40
1
 40
1
 10
119.999929
 20
309.994990
 30
0.0
 10
99.999899
 20
319.994942
 30
0.0
 10
90.003746
 20
329.999975
 30
0.0
 10
80.003749
 20
349.999991
 30
0.0
  0
LWPOLYLINE
  5
188
100
AcDbEntity
  8
Cut
 62
7
100
AcDbPolyline
 90
2
 70
0
 10
119.999929
 20
280.000045
 30
0.0
 10
119.999929
 20
309.994990
 30
0.0
  0
SPLINE
  5
189
100
AcDbEntity
  8
Cut
 62
7
100
AcDbSpline
 70
8
 71
3
 72
8
 73
4
 74
0
 40
0
 40
0
 40
0
 40
0
 40
1
 40
1
 40
1
 40
1
 10
55.000624
 20
346.242880
 30
0.0
 10
55.690979
 20
346.242880
 30
0.0
 10
56.252985
 20
345.689696
 30
0.0
 10
56.252985
 20
344.999352
 30
0.0
  0
SPLINE
  5
18a
100
AcDbEntity
  8
Cut
 62
7
100
AcDbSpline
 70
8
 71
3
 72
8
 73
4
 74
0
 40
0
 40
0
 40
0
 40
0
 40
1
 40
1
 40
1
 40
1
 10
56.252985
 20
344.999352
 30
0.0
 10
56.252985
 20
344.309009
 30
0.0
 10
55.690979
 20
343.746991
 30
0.0
 10
55.000624
 20
343.746991
 30
0.0
  0
SPLINE
  5
18b
100
AcDbEntity
  8
Cut
 62
7
100
AcDbSpline
 70
8
 71
3
 72
8
 73
4
 74
0
 40
0
 40
0
 40
0
 40
0
 40
1
 40
1
 40
1
 40
1
 10
55.000624
 20
343.746991
 30
0.0
 10
54.310269
 20
343.746991
 30
0.0
 10
53.757082
 20
344.309009
 30
0.0
 10
53.757082
 20
344.999352
 30
0.0
  0
SPLINE
  5
18c
100
AcDbEntity
  8
Cut
 62
7
100
AcDbSpline
 70
8
 71
3
 72
8
 73
4
 74
0
 40
0
 40
0
 40
0
 40
0
 40
1
 40
1
 40
1
 40
1
 10
53.757082
 20
344.999352
 30
0.0
 10
53.757082
 20
345.689696
 30
0.0
 10
54.310269
 20
346.242880
 30
0.0
 10
55.000624
 20
346.242880
 30
0.0
  0
LWPOLYLINE
  5
18d
100
AcDbEntity
  8
Cut
 62
7
100
AcDbPolyline
 90
3
 70
0
 10
80.003749
 20
349.999991
 30
0.0
 10
49.999999
 20
349.999991
 30
0.0
 10
49.999999
 20
349.999991
 30
0.0
  0
SPLINE
  5
18e
100
AcDbEntity
  8
Cut
 62
7
100
AcDbSpline
 70
8
 71
3
 72
8
 73
4
 74
0
 40
0
 40
0
 40
0
 40
0
 40
1
 40
1
 40
1
 40
1
 10
75.003124
 20
346.242880
 30
0.0
 10
75.693479
 20
346.242880
 30
0.0
 10
76.255485
 20
345.689696
 30
0.0
 10
76.255485
 20
344.999352
 30
0.0
  0
SPLINE
  5
18f
100
AcDbEntity
  8
Cut
 62
7
100
AcDbSpline
 70
8
 71
3
 72
8
 73
4
 74
0
 40
0
 40
0
 40
0
 40
0
 40
1
 40
1
 40
1
 40
1
 10
76.255485
 20
344.999352
 30
0.0
 10
76.255485
 20
344.309009
 30
0.0
 10
75.693479
 20
343.746991
 30
0.0
 10
75.003124
 20
343.746991
 30
0.0
  0
SPLINE
  5
190
100
AcDbEntity
  8
Cut
 62
7
100
AcDbSpline
 70
8
 71
3
 72
8
 73
4
 74
0
 40
0
 40
0
 40
0
 40
0
 40
1
 40
1
 40
1
 40
1
 10
75.003124
 20
343.746991
 30
0.0
 10
74.312769
 20
343.746991
 30
0.0
 10
73.750763
 20
344.309009
 30
0.0
 10
73.750763
 20
344.999352
 30
0.0
  0
SPLINE
  5
191
100
AcDbEntity
  8
Cut
 62
7
100
AcDbSpline
 70
8
 71
3
 72
8
 73
4
 74
0
 40
0
 40
0
 40
0
 40
0
 40
1
 40
1
 40
1
 40
1
 10
73.750763
 20
344.999352
 30
0.0
 10
73.750763
 20
345.689696
 30
0.0
 10
74.312769
 20
346.242880
 30
0.0
 10
75.003124
 20
346.242880
 30
0.0
  0
LWPOLYLINE
  5
192
100
AcDbEntity
  8
Cut
 62
7
100
AcDbPolyline
 90
2
 70
0
 10
55.000624
 20
346.242880
 30
0.0
 10
55.000624
 20
346.242880
 30
0.0
  0
SPLINE
  5
193
100
AcDbEntity
  8
Cut
 62
7
100
AcDbSpline
 70
8
 71
3
 72
8
 73
4
 74
0
 40
0
 40
0
 40
0
 40
0
 40
1
 40
1
 40
1
 40
1
 10
65.001874
 20
341.498047
 30
0.0
 10
65.830300
 20
341.498047
 30
0.0
 10
66.501179
 20
340.827148
 30
0.0
 10
66.501179
 20
339.998713
 30
0.0
  0
SPLINE
  5
194
100
AcDbEntity
  8
Cut
 62
7
100
AcDbSpline
 70
8
 71
3
 72
8
 73
4
 74
0
 40
0
 40
0
 40
0
 40
0
 40
1
 40
1
 40
1
 40
1
 10
66.501179
 20
339.998713
 30
0.0
 10
66.501179
 20
339.170306
 30
0.0
 10
65.830300
 20
338.499436
 30
0.0
 10
65.001874
 20
338.499436
 30
0.0
  0
SPLINE
  5
195
100
AcDbEntity
  8
Cut
 62
7
100
AcDbSpline
 70
8
 71
3
 72
8
 73
4
 74
0
 40
0
 40
0
 40
0
 40
0
 40
1
 40
1
 40
1
 40
1
 10
65.001874
 20
338.499436
 30
0.0
 10
64.173447
 20
338.499436
 30
0.0
 10
63.502568
 20
339.170306
 30
0.0
 10
63.502568
 20
339.998713
 30
0.0
  0
SPLINE
  5
196
100
AcDbEntity
  8
Cut
 62
7
100
AcDbSpline
 70
8
 71
3
 72
8
 73
4
 74
0
 40
0
 40
0
 40
0
 40
0
 40
1
 40
1
 40
1
 40
1
 10
63.502568
 20
339.998713
 30
0.0
 10
63.502568
 20
340.827148
 30
0.0
 10
64.173447
 20
341.498047
 30
0.0
 10
65.001874
 20
341.498047
 30
0.0
  0
LWPOLYLINE
  5
197
100
AcDbEntity
  8
Cut
 62
7
100
AcDbPolyline
 90
2
 70
0
 10
75.003124
 20
346.242880
 30
0.0
 10
75.003124
 20
346.242880
 30
0.0
  0
SPLINE
  5
198
100
AcDbEntity
  8
Cut
 62
7
100
AcDbSpline
 70
8
 71
3
 72
8
 73
4
 74
0
 40
0
 40
0
 40
0
 40
0
 40
1
 40
1
 40
1
 40
1
 10
45.008193
 20
324.996851
 30
0.0
 10
50.531039
 20
324.996851
 30
0.0
 10
55.000624
 20
320.518436
 30
0.0
 10
55.000624
 20
314.995601
 30
0.0
  0
SPLINE
  5
199
100
AcDbEntity
  8
Cut
 62
7
100
AcDbSpline
 70
8
 71
3
 72
8
 73
4
 74
0
 40
0
 40
0
 40
0
 40
0
 40
1
 40
1
 40
1
 40
1
 10
55.000624
 20
314.995601
 30
0.0
 10
55.000624
 20
309.472766
 30
0.0
 10
50.531039
 20
304.994351
 30
0.0
 10
45.008193
 20
304.994351
 30
0.0
  0
SPLINE
  5
19a
100
AcDbEntity
  8
Cut
 62
7
100
AcDbSpline
 70
8
 71
3
 72
8
 73
4
 74
0
 40
0
 40
0
 40
0
 40
0
 40
1
 40
1
 40
1
 40
1
 10
45.008193
 20
304.994351
 30
0.0
 10
39.485347
 20
304.994351
 30
0.0
 10
35.006943
 20
309.472766
 30
0.0
 10
35.006943
 20
314.995601
 30
0.0
  0
SPLINE
  5
19b
100
AcDbEntity
  8
Cut
 62
7
100
AcDbSpline
 70
8
 71
3
 72
8
 73
4
 74
0
 40
0
 40
0
 40
0
 40
0
 40
1
 40
1
 40
1
 40
1
 10
35.006943
 20
314.995601
 30
0.0
 10
35.006943
 20
320.518436
 30
0.0
 10
39.485347
 20
324.996851
 30
0.0
 10
45.008193
 20
324.996851
 30
0.0
  0
LWPOLYLINE
  5
19c
100
AcDbEntity
  8
Cut
 62
7
100
AcDbPolyline
 90
2
 70
0
 10
65.001874
 20
341.498047
 30
0.0
 10
65.001874
 20
341.498047
 30
0.0
  0
SPLINE
  5
19d
100
AcDbEntity
  8
Cut
 62
7
100
AcDbSpline
 70
8
 71
3
 72
8
 73
4
 74
0
 40
0
 40
0
 40
0
 40
0
 40
1
 40
1
 40
1
 40
1
 10
85.004374
 20
324.996851
 30
0.0
 10
90.527220
 20
324.996851
 30
0.0
 10
95.005624
 20
320.518436
 30
0.0
 10
95.005624
 20
314.995601
 30
0.0
  0
SPLINE
  5
19e
100
AcDbEntity
  8
Cut
 62
7
100
AcDbSpline
 70
8
 71
3
 72
8
 73
4
 74
0
 40
0
 40
0
 40
0
 40
0
 40
1
 40
1
 40
1
 40
1
 10
95.005624
 20
314.995601
 30
0.0
 10
95.005624
 20
309.472766
 30
0.0
 10
90.527220
 20
304.994351
 30
0.0
 10
85.004374
 20
304.994351
 30
0.0
  0
SPLINE
  5
19f
100
AcDbEntity
  8
Cut
 62
7
100
AcDbSpline
 70
8
 71
3
 72
8
 73
4
 74
0
 40
0
 40
0
 40
0
 40
0
 40
1
 40
1
 40
1
 40
1
 10
85.004374
 20
304.994351
 30
0.0
 10
79.481528
 20
304.994351
 30
0.0
 10
75.003124
 20
309.472766
 30
0.0
 10
75.003124
 20
314.995601
 30
0.0
  0
SPLINE
  5
1a0
100
AcDbEntity
  8
Cut
 62
7
100
AcDbSpline
 70
8
 71
3
 72
8
 73
4
 74
0
 40
0
 40
0
 40
0
 40
0
 40
1
 40
1
 40
1
 40
1
 10
75.003124
 20
314.995601
 30
0.0
 10
75.003124
 20
320.518436
 30
0.0
 10
79.481528
 20
324.996851
 30
0.0
 10
85.004374
 20
324.996851
 30
0.0
  0
LWPOLYLINE
  5
1a1
100
AcDbEntity
  8
Cut
 62
7
100
AcDbPolyline
 90
2
 70
0
 10
45.008193
 20
324.996851
 30
0.0
 10
45.008193
 20
324.996851
 30
0.0
  0
SPLINE
  5
1a2
100
AcDbEntity
  8
Cut
 62
7
100
AcDbSpline
 70
8
 71
3
 72
8
 73
4
 74
0
 40
0
 40
0
 40
0
 40
0
 40
1
 40
1
 40
1
 40
1
 10
65.001874
 20
321.495545
 30
0.0
 10
65.830300
 20
321.495545
 30
0.0
 10
66.501179
 20
320.824647
 30
0.0
 10
66.501179
 20
319.996212
 30
0.0
  0
SPLINE
  5
1a3
100
AcDbEntity
  8
Cut
 62
7
100
AcDbSpline
 70
8
 71
3
 72
8
 73
4
 74
0
 40
0
 40
0
 40
0
 40
0
 40
1
 40
1
 40
1
 40
1
 10
66.501179
 20
319.996212
 30
0.0
 10
66.501179
 20
319.167805
 30
0.0
 10
65.830300
 20
318.496934
 30
0.0
 10
65.001874
 20
318.496934
 30
0.0
  0
SPLINE
  5
1a4
100
AcDbEntity
  8
Cut
 62
7
100
AcDbSpline
 70
8
 71
3
 72
8
 73
4
 74
0
 40
0
 40
0
 40
0
 40
0
 40
1
 40
1
 40
1
 40
1
 10
65.001874
 20
318.496934
 30
0.0
 10
64.173447
 20
318.496934
 30
0.0
 10
63.502568
 20
319.167805
 30
0.0
 10
63.502568
 20
319.996212
 30
0.0
  0
SPLINE
  5
1a5
100
AcDbEntity
  8
Cut
 62
7
100
AcDbSpline
 70
8
 71
3
 72
8
 73
4
 74
0
 40
0
 40
0
 40
0
 40
0
 40
1
 40
1
 40
1
 40
1
 10
63.502568
 20
319.996212
 30
0.0
 10
63.502568
 20
320.824647
 30
0.0
 10
64.173447
 20
321.495545
 30
0.0
 10
65.001874
 20
321.495545
 30
0.0
  0
LWPOLYLINE
  5
1a6
100
AcDbEntity
  8
Cut
 62
7
100
AcDbPolyline
 90
2
 70
0
 10
85.004374
 20
324.996851
 30
0.0
 10
85.004374
 20
324.996851
 30
0.0
  0
SPLINE
  5
1a7
100
AcDbEntity
  8
Cut
 62
7
100
AcDbSpline
 70
8
 71
3
 72
8
 73
4
 74
0
 40
0
 40
0
 40
0
 40
0
 40
1
 40
1
 40
1
 40
1
 10
15.004443
 20
306.246712
 30
0.0
 10
15.694799
 20
306.246712
 30
0.0
 10
16.256804
 20
305.684695
 30
0.0
 10
16.256804
 20
304.994351
 30
0.0
  0
SPLINE
  5
1a8
100
AcDbEntity
  8
Cut
 62
7
100
AcDbSpline
 70
8
 71
3
 72
8
 73
4
 74
0
 40
0
 40
0
 40
0
 40
0
 40
1
 40
1
 40
1
 40
1
 10
16.256804
 20
304.994351
 30
0.0
 10
16.256804
 20
304.304007
 30
0.0
 10
15.694799
 20
303.750823
 30
0.0
 10
15.004443
 20
303.750823
 30
0.0
  0
SPLINE
  5
1a9
100
AcDbEntity
  8
Cut
 62
7
100
AcDbSpline
 70
8
 71
3
 72
8
 73
4
 74
0
 40
0
 40
0
 40
0
 40
0
 40
1
 40
1
 40
1
 40
1
 10
15.004443
 20
303.750823
 30
0.0
 10
14.314087
 20
303.750823
 30
0.0
 10
13.752082
 20
304.304007
 30
0.0
 10
13.752082
 20
304.994351
 30
0.0
  0
SPLINE
  5
1aa
100
AcDbEntity
  8
Cut
 62
7
100
AcDbSpline
 70
8
 71
3
 72
8
 73
4
 74
0
 40
0
 40
0
 40
0
 40
0
 40
1
 40
1
 40
1
 40
1
 10
13.752082
 20
304.994351
 30
0.0
 10
13.752082
 20
305.684695
 30
0.0
 10
14.314087
 20
306.246712
 30
0.0
 10
15.004443
 20
306.246712
 30
0.0
  0
LWPOLYLINE
  5
1ab
100
AcDbEntity
  8
Cut
 62
7
100
AcDbPolyline
 90
2
 70
0
 10
65.001874
 20
321.495545
 30
0.0
 10
65.001874
 20
321.495545
 30
0.0
  0
SPLINE
  5
1ac
100
AcDbEntity
  8
Cut
 62
7
100
AcDbSpline
 70
8
 71
3
 72
8
 73
4
 74
0
 40
0
 40
0
 40
0
 40
0
 40
1
 40
1
 40
1
 40
1
 10
115.008124
 20
306.246712
 30
0.0
 10
115.698479
 20
306.246712
 30
0.0
 10
116.251665
 20
305.684695
 30
0.0
 10
116.251665
 20
304.994351
 30
0.0
  0
SPLINE
  5
1ad
100
AcDbEntity
  8
Cut
 62
7
100
AcDbSpline
 70
8
 71
3
 72
8
 73
4
 74
0
 40
0
 40
0
 40
0
 40
0
 40
1
 40
1
 40
1
 40
1
 10
116.251665
 20
304.994351
 30
0.0
 10
116.251665
 20
304.304007
 30
0.0
 10
115.698479
 20
303.750823
 30
0.0
 10
115.008124
 20
303.750823
 30
0.0
  0
SPLINE
  5
1ae
100
AcDbEntity
  8
Cut
 62
7
100
AcDbSpline
 70
8
 71
3
 72
8
 73
4
 74
0
 40
0
 40
0
 40
0
 40
0
 40
1
 40
1
 40
1
 40
1
 10
115.008124
 20
303.750823
 30
0.0
 10
114.317769
 20
303.750823
 30
0.0
 10
113.755763
 20
304.304007
 30
0.0
 10
113.755763
 20
304.994351
 30
0.0
  0
SPLINE
  5
1af
100
AcDbEntity
  8
Cut
 62
7
100
AcDbSpline
 70
8
 71
3
 72
8
 73
4
 74
0
 40
0
 40
0
 40
0
 40
0
 40
1
 40
1
 40
1
 40
1
 10
113.755763
 20
304.994351
 30
0.0
 10
113.755763
 20
305.684695
 30
0.0
 10
114.317769
 20
306.246712
 30
0.0
 10
115.008124
 20
306.246712
 30
0.0
  0
LWPOLYLINE
  5
1b0
100
AcDbEntity
  8
Cut
 62
7
100
AcDbPolyline
 90
2
 70
0
 10
15.004443
 20
306.246712
 30
0.0
 10
15.004443
 20
306.246712
 30
0.0
  0
SPLINE
  5
1b1
100
AcDbEntity
  8
Cut
 62
7
100
AcDbSpline
 70
8
 71
3
 72
8
 73
4
 74
0
 40
0
 40
0
 40
0
 40
0
 40
1
 40
1
 40
1
 40
1
 10
65.001874
 20
304.994351
 30
0.0
 10
70.524720
 20
304.994351
 30
0.0
 10
75.003124
 20
300.515936
 30
0.0
 10
75.003124
 20
294.993101
 30
0.0
  0
SPLINE
  5
1b2
100
AcDbEntity
  8
Cut
 62
7
100
AcDbSpline
 70
8
 71
3
 72
8
 73
4
 74
0
 40
0
 40
0
 40
0
 40
0
 40
1
 40
1
 40
1
 40
1
 10
75.003124
 20
294.993101
 30
0.0
 10
75.003124
 20
289.470266
 30
0.0
 10
70.524720
 20
285.000656
 30
0.0
 10
65.001874
 20
285.000656
 30
0.0
  0
SPLINE
  5
1b3
100
AcDbEntity
  8
Cut
 62
7
100
AcDbSpline
 70
8
 71
3
 72
8
 73
4
 74
0
 40
0
 40
0
 40
0
 40
0
 40
1
 40
1
 40
1
 40
1
 10
65.001874
 20
285.000656
 30
0.0
 10
59.479028
 20
285.000656
 30
0.0
 10
55.000624
 20
289.470266
 30
0.0
 10
55.000624
 20
294.993101
 30
0.0
  0
SPLINE
  5
1b4
100
AcDbEntity
  8
Cut
 62
7
100
AcDbSpline
 70
8
 71
3
 72
8
 73
4
 74
0
 40
0
 40
0
 40
0
 40
0
 40
1
 40
1
 40
1
 40
1
 10
55.000624
 20
294.993101
 30
0.0
 10
55.000624
 20
300.515936
 30
0.0
 10
59.479028
 20
304.994351
 30
0.0
 10
65.001874
 20
304.994351
 30
0.0
  0
LWPOLYLINE
  5
1b5
100
AcDbEntity
  8
Cut
 62
7
100
AcDbPolyline
 90
2
 70
0
 10
115.008124
 20
306.246712
 30
0.0
 10
115.008124
 20
306.246712
 30
0.0
  0
SPLINE
  5
1b6
100
AcDbEntity
  8
Cut
 62
7
100
AcDbSpline
 70
8
 71
3
 72
8
 73
4
 74
0
 40
0
 40
0
 40
0
 40
0
 40
1
 40
1
 40
1
 40
1
 10
20.005068
 20
296.501212
 30
0.0
 10
20.833495
 20
296.501212
 30
0.0
 10
21.504374
 20
295.821536
 30
0.0
 10
21.504374
 20
294.993101
 30
0.0
  0
SPLINE
  5
1b7
100
AcDbEntity
  8
Cut
 62
7
100
AcDbSpline
 70
8
 71
3
 72
8
 73
4
 74
0
 40
0
 40
0
 40
0
 40
0
 40
1
 40
1
 40
1
 40
1
 10
21.504374
 20
294.993101
 30
0.0
 10
21.504374
 20
294.164666
 30
0.0
 10
20.833495
 20
293.493795
 30
0.0
 10
20.005068
 20
293.493795
 30
0.0
  0
SPLINE
  5
1b8
100
AcDbEntity
  8
Cut
 62
7
100
AcDbSpline
 70
8
 71
3
 72
8
 73
4
 74
0
 40
0
 40
0
 40
0
 40
0
 40
1
 40
1
 40
1
 40
1
 10
20.005068
 20
293.493795
 30
0.0
 10
19.176641
 20
293.493795
 30
0.0
 10
18.505763
 20
294.164666
 30
0.0
 10
18.505763
 20
294.993101
 30
0.0
  0
SPLINE
  5
1b9
100
AcDbEntity
  8
Cut
 62
7
100
AcDbSpline
 70
8
 71
3
 72
8
 73
4
 74
0
 40
0
 40
0
 40
0
 40
0
 40
1
 40
1
 40
1
 40
1
 10
18.505763
 20
294.993101
 30
0.0
 10
18.505763
 20
295.821536
 30
0.0
 10
19.176641
 20
296.501212
 30
0.0
 10
20.005068
 20
296.501212
 30
0.0
  0
LWPOLYLINE
  5
1ba
100
AcDbEntity
  8
Cut
 62
7
100
AcDbPolyline
 90
2
 70
0
 10
65.001874
 20
304.994351
 30
0.0
 10
65.001874
 20
304.994351
 30
0.0
  0
SPLINE
  5
1bb
100
AcDbEntity
  8
Cut
 62
7
100
AcDbSpline
 70
8
 71
3
 72
8
 73
4
 74
0
 40
0
 40
0
 40
0
 40
0
 40
1
 40
1
 40
1
 40
1
 10
40.007568
 20
296.501212
 30
0.0
 10
40.835995
 20
296.501212
 30
0.0
 10
41.506874
 20
295.821536
 30
0.0
 10
41.506874
 20
294.993101
 30
0.0
  0
SPLINE
  5
1bc
100
AcDbEntity
  8
Cut
 62
7
100
AcDbSpline
 70
8
 71
3
 72
8
 73
4
 74
0
 40
0
 40
0
 40
0
 40
0
 40
1
 40
1
 40
1
 40
1
 10
41.506874
 20
294.993101
 30
0.0
 10
41.506874
 20
294.164666
 30
0.0
 10
40.835995
 20
293.493795
 30
0.0
 10
40.007568
 20
293.493795
 30
0.0
  0
SPLINE
  5
1bd
100
AcDbEntity
  8
Cut
 62
7
100
AcDbSpline
 70
8
 71
3
 72
8
 73
4
 74
0
 40
0
 40
0
 40
0
 40
0
 40
1
 40
1
 40
1
 40
1
 10
40.007568
 20
293.493795
 30
0.0
 10
39.179142
 20
293.493795
 30
0.0
 10
38.499443
 20
294.164666
 30
0.0
 10
38.499443
 20
294.993101
 30
0.0
  0
SPLINE
  5
1be
100
AcDbEntity
  8
Cut
 62
7
100
AcDbSpline
 70
8
 71
3
 72
8
 73
4
 74
0
 40
0
 40
0
 40
0
 40
0
 40
1
 40
1
 40
1
 40
1
 10
38.499443
 20
294.993101
 30
0.0
 10
38.499443
 20
295.821536
 30
0.0
 10
39.179142
 20
296.501212
 30
0.0
 10
40.007568
 20
296.501212
 30
0.0
  0
LWPOLYLINE
  5
1bf
100
AcDbEntity
  8
Cut
 62
7
100
AcDbPolyline
 90
2
 70
0
 10
20.005068
 20
296.501212
 30
0.0
 10
20.005068
 20
296.501212
 30
0.0
  0
SPLINE
  5
1c0
100
AcDbEntity
  8
Cut
 62
7
100
AcDbSpline
 70
8
 71
3
 72
8
 73
4
 74
0
 40
0
 40
0
 40
0
 40
0
 40
1
 40
1
 40
1
 40
1
 10
90.004999
 20
296.501212
 30
0.0
 10
90.833425
 20
296.501212
 30
0.0
 10
91.504304
 20
295.821536
 30
0.0
 10
91.504304
 20
294.993101
 30
0.0
  0
SPLINE
  5
1c1
100
AcDbEntity
  8
Cut
 62
7
100
AcDbSpline
 70
8
 71
3
 72
8
 73
4
 74
0
 40
0
 40
0
 40
0
 40
0
 40
1
 40
1
 40
1
 40
1
 10
91.504304
 20
294.993101
 30
0.0
 10
91.504304
 20
294.164666
 30
0.0
 10
90.833425
 20
293.493795
 30
0.0
 10
90.004999
 20
293.493795
 30
0.0
  0
SPLINE
  5
1c2
100
AcDbEntity
  8
Cut
 62
7
100
AcDbSpline
 70
8
 71
3
 72
8
 73
4
 74
0
 40
0
 40
0
 40
0
 40
0
 40
1
 40
1
 40
1
 40
1
 10
90.004999
 20
293.493795
 30
0.0
 10
89.176572
 20
293.493795
 30
0.0
 10
88.505693
 20
294.164666
 30
0.0
 10
88.505693
 20
294.993101
 30
0.0
  0
SPLINE
  5
1c3
100
AcDbEntity
  8
Cut
 62
7
100
AcDbSpline
 70
8
 71
3
 72
8
 73
4
 74
0
 40
0
 40
0
 40
0
 40
0
 40
1
 40
1
 40
1
 40
1
 10
88.505693
 20
294.993101
 30
0.0
 10
88.505693
 20
295.821536
 30
0.0
 10
89.176572
 20
296.501212
 30
0.0
 10
90.004999
 20
296.501212
 30
0.0
  0
LWPOLYLINE
  5
1c4
100
AcDbEntity
  8
Cut
 62
7
100
AcDbPolyline
 90
2
 70
0
 10
40.007568
 20
296.501212
 30
0.0
 10
40.007568
 20
296.501212
 30
0.0
  0
SPLINE
  5
1c5
100
AcDbEntity
  8
Cut
 62
7
100
AcDbSpline
 70
8
 71
3
 72
8
 73
4
 74
0
 40
0
 40
0
 40
0
 40
0
 40
1
 40
1
 40
1
 40
1
 10
110.007499
 20
296.501212
 30
0.0
 10
110.835925
 20
296.501212
 30
0.0
 10
111.506804
 20
295.821536
 30
0.0
 10
111.506804
 20
294.993101
 30
0.0
  0
SPLINE
  5
1c6
100
AcDbEntity
  8
Cut
 62
7
100
AcDbSpline
 70
8
 71
3
 72
8
 73
4
 74
0
 40
0
 40
0
 40
0
 40
0
 40
1
 40
1
 40
1
 40
1
 10
111.506804
 20
294.993101
 30
0.0
 10
111.506804
 20
294.164666
 30
0.0
 10
110.835925
 20
293.493795
 30
0.0
 10
110.007499
 20
293.493795
 30
0.0
  0
SPLINE
  5
1c7
100
AcDbEntity
  8
Cut
 62
7
100
AcDbSpline
 70
8
 71
3
 72
8
 73
4
 74
0
 40
0
 40
0
 40
0
 40
0
 40
1
 40
1
 40
1
 40
1
 10
110.007499
 20
293.493795
 30
0.0
 10
109.179072
 20
293.493795
 30
0.0
 10
108.508193
 20
294.164666
 30
0.0
 10
108.508193
 20
294.993101
 30
0.0
  0
SPLINE
  5
1c8
100
AcDbEntity
  8
Cut
 62
7
100
AcDbSpline
 70
8
 71
3
 72
8
 73
4
 74
0
 40
0
 40
0
 40
0
 40
0
 40
1
 40
1
 40
1
 40
1
 10
108.508193
 20
294.993101
 30
0.0
 10
108.508193
 20
295.821536
 30
0.0
 10
109.179072
 20
296.501212
 30
0.0
 10
110.007499
 20
296.501212
 30
0.0
  0
LWPOLYLINE
  5
1c9
100
AcDbEntity
  8
Cut
 62
7
100
AcDbPolyline
 90
2
 70
0
 10
90.004999
 20
296.501212
 30
0.0
 10
90.004999
 20
296.501212
 30
0.0
  0
SPLINE
  5
1ca
100
AcDbEntity
  8
Cut
 62
7
100
AcDbSpline
 70
8
 71
3
 72
8
 73
4
 74
0
 40
0
 40
0
 40
0
 40
0
 40
1
 40
1
 40
1
 40
1
 10
15.004443
 20
286.244212
 30
0.0
 10
15.694799
 20
286.244212
 30
0.0
 10
16.256804
 20
285.691028
 30
0.0
 10
16.256804
 20
285.000656
 30
0.0
  0
SPLINE
  5
1cb
100
AcDbEntity
  8
Cut
 62
7
100
AcDbSpline
 70
8
 71
3
 72
8
 73
4
 74
0
 40
0
 40
0
 40
0
 40
0
 40
1
 40
1
 40
1
 40
1
 10
16.256804
 20
285.000656
 30
0.0
 10
16.256804
 20
284.310312
 30
0.0
 10
15.694799
 20
283.748323
 30
0.0
 10
15.004443
 20
283.748323
 30
0.0
  0
SPLINE
  5
1cc
100
AcDbEntity
  8
Cut
 62
7
100
AcDbSpline
 70
8
 71
3
 72
8
 73
4
 74
0
 40
0
 40
0
 40
0
 40
0
 40
1
 40
1
 40
1
 40
1
 10
15.004443
 20
283.748323
 30
0.0
 10
14.314087
 20
283.748323
 30
0.0
 10
13.752082
 20
284.310312
 30
0.0
 10
13.752082
 20
285.000656
 30
0.0
  0
SPLINE
  5
1cd
100
AcDbEntity
  8
Cut
 62
7
100
AcDbSpline
 70
8
 71
3
 72
8
 73
4
 74
0
 40
0
 40
0
 40
0
 40
0
 40
1
 40
1
 40
1
 40
1
 10
13.752082
 20
285.000656
 30
0.0
 10
13.752082
 20
285.691028
 30
0.0
 10
14.314087
 20
286.244212
 30
0.0
 10
15.004443
 20
286.244212
 30
0.0
  0
LWPOLYLINE
  5
1ce
100
AcDbEntity
  8
Cut
 62
7
100
AcDbPolyline
 90
2
 70
0
 10
110.007499
 20
296.501212
 30
0.0
 10
110.007499
 20
296.501212
 30
0.0
  0
SPLINE
  5
1cf
100
AcDbEntity
  8
Cut
 62
7
100
AcDbSpline
 70
8
 71
3
 72
8
 73
4
 74
0
 40
0
 40
0
 40
0
 40
0
 40
1
 40
1
 40
1
 40
1
 10
115.008124
 20
286.244212
 30
0.0
 10
115.698479
 20
286.244212
 30
0.0
 10
116.251665
 20
285.691028
 30
0.0
 10
116.251665
 20
285.000656
 30
0.0
  0
SPLINE
  5
1d0
100
AcDbEntity
  8
Cut
 62
7
100
AcDbSpline
 70
8
 71
3
 72
8
 73
4
 74
0
 40
0
 40
0
 40
0
 40
0
 40
1
 40
1
 40
1
 40
1
 10
116.251665
 20
285.000656
 30
0.0
 10
116.251665
 20
284.310312
 30
0.0
 10
115.698479
 20
283.748323
 30
0.0
 10
115.008124
 20
283.748323
 30
0.0
  0
SPLINE
  5
1d1
100
AcDbEntity
  8
Cut
 62
7
100
AcDbSpline
 70
8
 71
3
 72
8
 73
4
 74
0
 40
0
 40
0
 40
0
 40
0
 40
1
 40
1
 40
1
 40
1
 10
115.008124
 20
283.748323
 30
0.0
 10
114.317769
 20
283.748323
 30
0.0
 10
113.755763
 20
284.310312
 30
0.0
 10
113.755763
 20
285.000656
 30
0.0
  0
SPLINE
  5
1d2
100
AcDbEntity
  8
Cut
 62
7
100
AcDbSpline
 70
8
 71
3
 72
8
 73
4
 74
0
 40
0
 40
0
 40
0
 40
0
 40
1
 40
1
 40
1
 40
1
 10
113.755763
 20
285.000656
 30
0.0
 10
113.755763
 20
285.691028
 30
0.0
 10
114.317769
 20
286.244212
 30
0.0
 10
115.008124
 20
286.244212
 30
0.0
  0
LWPOLYLINE
  5
1d3
100
AcDbEntity
  8
Cut
 62
7
100
AcDbPolyline
 90
2
 70
0
 10
15.004443
 20
286.244212
 30
0.0
 10
15.004443
 20
286.244212
 30
0.0
  0
SPLINE
  5
1d4
100
AcDbEntity
  8
Cut
 62
7
100
AcDbSpline
 70
8
 71
3
 72
8
 73
4
 74
0
 40
0
 40
0
 40
0
 40
0
 40
1
 40
1
 40
1
 40
1
 10
45.008193
 20
285.000656
 30
0.0
 10
50.531039
 20
285.000656
 30
0.0
 10
55.000624
 20
280.522269
 30
0.0
 10
55.000624
 20
274.999436
 30
0.0
  0
SPLINE
  5
1d5
100
AcDbEntity
  8
Cut
 62
7
100
AcDbSpline
 70
8
 71
3
 72
8
 73
4
 74
0
 40
0
 40
0
 40
0
 40
0
 40
1
 40
1
 40
1
 40
1
 10
55.000624
 20
274.999436
 30
0.0
 10
55.000624
 20
269.476572
 30
0.0
 10
50.531039
 20
264.998158
 30
0.0
 10
45.008193
 20
264.998158
 30
0.0
  0
SPLINE
  5
1d6
100
AcDbEntity
  8
Cut
 62
7
100
AcDbSpline
 70
8
 71
3
 72
8
 73
4
 74
0
 40
0
 40
0
 40
0
 40
0
 40
1
 40
1
 40
1
 40
1
 10
45.008193
 20
264.998158
 30
0.0
 10
39.485347
 20
264.998158
 30
0.0
 10
35.006943
 20
269.476572
 30
0.0
 10
35.006943
 20
274.999436
 30
0.0
  0
SPLINE
  5
1d7
100
AcDbEntity
  8
Cut
 62
7
100
AcDbSpline
 70
8
 71
3
 72
8
 73
4
 74
0
 40
0
 40
0
 40
0
 40
0
 40
1
 40
1
 40
1
 40
1
 10
35.006943
 20
274.999436
 30
0.0
 10
35.006943
 20
280.522269
 30
0.0
 10
39.485347
 20
285.000656
 30
0.0
 10
45.008193
 20
285.000656
 30
0.0
  0
LWPOLYLINE
  5
1d8
100
AcDbEntity
  8
Cut
 62
7
100
AcDbPolyline
 90
2
 70
0
 10
115.008124
 20
286.244212
 30
0.0
 10
115.008124
 20
286.244212
 30
0.0
  0
SPLINE
  5
1d9
100
AcDbEntity
  8
Cut
 62
7
100
AcDbSpline
 70
8
 71
3
 72
8
 73
4
 74
0
 40
0
 40
0
 40
0
 40
0
 40
1
 40
1
 40
1
 40
1
 10
85.004374
 20
285.000656
 30
0.0
 10
90.527220
 20
285.000656
 30
0.0
 10
95.005624
 20
280.522269
 30
0.0
 10
95.005624
 20
274.999436
 30
0.0
  0
SPLINE
  5
1da
100
AcDbEntity
  8
Cut
 62
7
100
AcDbSpline
 70
8
 71
3
 72
8
 73
4
 74
0
 40
0
 40
0
 40
0
 40
0
 40
1
 40
1
 40
1
 40
1
 10
95.005624
 20
274.999436
 30
0.0
 10
95.005624
 20
269.476572
 30
0.0
 10
90.527220
 20
264.998158
 30
0.0
 10
85.004374
 20
264.998158
 30
0.0
  0
SPLINE
  5
1db
100
AcDbEntity
  8
Cut
 62
7
100
AcDbSpline
 70
8
 71
3
 72
8
 73
4
 74
0
 40
0
 40
0
 40
0
 40
0
 40
1
 40
1
 40
1
 40
1
 10
85.004374
 20
264.998158
 30
0.0
 10
79.481528
 20
264.998158
 30
0.0
 10
75.003124
 20
269.476572
 30
0.0
 10
75.003124
 20
274.999436
 30
0.0
  0
SPLINE
  5
1dc
100
AcDbEntity
  8
Cut
 62
7
100
AcDbSpline
 70
8
 71
3
 72
8
 73
4
 74
0
 40
0
 40
0
 40
0
 40
0
 40
1
 40
1
 40
1
 40
1
 10
75.003124
 20
274.999436
 30
0.0
 10
75.003124
 20
280.522269
 30
0.0
 10
79.481528
 20
285.000656
 30
0.0
 10
85.004374
 20
285.000656
 30
0.0
  0
LWPOLYLINE
  5
1dd
100
AcDbEntity
  8
Cut
 62
7
100
AcDbPolyline
 90
2
 70
0
 10
45.008193
 20
285.000656
 30
0.0
 10
45.008193
 20
285.000656
 30
0.0
  0
SPLINE
  5
1de
100
AcDbEntity
  8
Cut
 62
7
100
AcDbSpline
 70
8
 71
3
 72
8
 73
4
 74
0
 40
0
 40
0
 40
0
 40
0
 40
1
 40
1
 40
1
 40
1
 10
65.001874
 20
271.498102
 30
0.0
 10
65.830300
 20
271.498102
 30
0.0
 10
66.501179
 20
270.827232
 30
0.0
 10
66.501179
 20
269.998796
 30
0.0
  0
SPLINE
  5
1df
100
AcDbEntity
  8
Cut
 62
7
100
AcDbSpline
 70
8
 71
3
 72
8
 73
4
 74
0
 40
0
 40
0
 40
0
 40
0
 40
1
 40
1
 40
1
 40
1
 10
66.501179
 20
269.998796
 30
0.0
 10
66.501179
 20
269.170361
 30
0.0
 10
65.830300
 20
268.499491
 30
0.0
 10
65.001874
 20
268.499491
 30
0.0
  0
SPLINE
  5
1e0
100
AcDbEntity
  8
Cut
 62
7
100
AcDbSpline
 70
8
 71
3
 72
8
 73
4
 74
0
 40
0
 40
0
 40
0
 40
0
 40
1
 40
1
 40
1
 40
1
 10
65.001874
 20
268.499491
 30
0.0
 10
64.173447
 20
268.499491
 30
0.0
 10
63.502568
 20
269.170361
 30
0.0
 10
63.502568
 20
269.998796
 30
0.0
  0
SPLINE
  5
1e1
100
AcDbEntity
  8
Cut
 62
7
100
AcDbSpline
 70
8
 71
3
 72
8
 73
4
 74
0
 40
0
 40
0
 40
0
 40
0
 40
1
 40
1
 40
1
 40
1
 10
63.502568
 20
269.998796
 30
0.0
 10
63.502568
 20
270.827232
 30
0.0
 10
64.173447
 20
271.498102
 30
0.0
 10
65.001874
 20
271.498102
 30
0.0
  0
LWPOLYLINE
  5
1e2
100
AcDbEntity
  8
Cut
 62
7
100
AcDbPolyline
 90
2
 70
0
 10
85.004374
 20
285.000656
 30
0.0
 10
85.004374
 20
285.000656
 30
0.0
  0
SPLINE
  5
1e3
100
AcDbEntity
  8
Cut
 62
7
100
AcDbSpline
 70
8
 71
3
 72
8
 73
4
 74
0
 40
0
 40
0
 40
0
 40
0
 40
1
 40
1
 40
1
 40
1
 10
65.001874
 20
251.495602
 30
0.0
 10
65.830300
 20
251.495602
 30
0.0
 10
66.501179
 20
250.824732
 30
0.0
 10
66.501179
 20
249.996297
 30
0.0
  0
SPLINE
  5
1e4
100
AcDbEntity
  8
Cut
 62
7
100
AcDbSpline
 70
8
 71
3
 72
8
 73
4
 74
0
 40
0
 40
0
 40
0
 40
0
 40
1
 40
1
 40
1
 40
1
 10
66.501179
 20
249.996297
 30
0.0
 10
66.501179
 20
249.167862
 30
0.0
 10
65.830300
 20
248.496991
 30
0.0
 10
65.001874
 20
248.496991
 30
0.0
  0
SPLINE
  5
1e5
100
AcDbEntity
  8
Cut
 62
7
100
AcDbSpline
 70
8
 71
3
 72
8
 73
4
 74
0
 40
0
 40
0
 40
0
 40
0
 40
1
 40
1
 40
1
 40
1
 10
65.001874
 20
248.496991
 30
0.0
 10
64.173447
 20
248.496991
 30
0.0
 10
63.502568
 20
249.167862
 30
0.0
 10
63.502568
 20
249.996297
 30
0.0
  0
SPLINE
  5
1e6
100
AcDbEntity
  8
Cut
 62
7
100
AcDbSpline
 70
8
 71
3
 72
8
 73
4
 74
0
 40
0
 40
0
 40
0
 40
0
 40
1
 40
1
 40
1
 40
1
 10
63.502568
 20
249.996297
 30
0.0
 10
63.502568
 20
250.824732
 30
0.0
 10
64.173447
 20
251.495602
 30
0.0
 10
65.001874
 20
251.495602
 30
0.0
  0
LWPOLYLINE
  5
1e7
100
AcDbEntity
  8
Cut
 62
7
100
AcDbPolyline
 90
2
 70
0
 10
65.001874
 20
271.498102
 30
0.0
 10
65.001874
 20
271.498102
 30
0.0
  0
SPLINE
  5
1e8
100
AcDbEntity
  8
Cut
 62
7
100
AcDbSpline
 70
8
 71
3
 72
8
 73
4
 74
0
 40
0
 40
0
 40
0
 40
0
 40
1
 40
1
 40
1
 40
1
 10
55.000624
 20
246.248047
 30
0.0
 10
55.690979
 20
246.248047
 30
0.0
 10
56.252985
 20
245.686030
 30
0.0
 10
56.252985
 20
244.995658
 30
0.0
  0
SPLINE
  5
1e9
100
AcDbEntity
  8
Cut
 62
7
100
AcDbSpline
 70
8
 71
3
 72
8
 73
4
 74
0
 40
0
 40
0
 40
0
 40
0
 40
1
 40
1
 40
1
 40
1
 10
56.252985
 20
244.995658
 30
0.0
 10
56.252985
 20
244.305314
 30
0.0
 10
55.690979
 20
243.743325
 30
0.0
 10
55.000624
 20
243.743325
 30
0.0
  0
SPLINE
  5
1ea
100
AcDbEntity
  8
Cut
 62
7
100
AcDbSpline
 70
8
 71
3
 72
8
 73
4
 74
0
 40
0
 40
0
 40
0
 40
0
 40
1
 40
1
 40
1
 40
1
 10
55.000624
 20
243.743325
 30
0.0
 10
54.310269
 20
243.743325
 30
0.0
 10
53.757082
 20
244.305314
 30
0.0
 10
53.757082
 20
244.995658
 30
0.0
  0
SPLINE
  5
1eb
100
AcDbEntity
  8
Cut
 62
7
100
AcDbSpline
 70
8
 71
3
 72
8
 73
4
 74
0
 40
0
 40
0
 40
0
 40
0
 40
1
 40
1
 40
1
 40
1
 10
53.757082
 20
244.995658
 30
0.0
 10
53.757082
 20
245.686030
 30
0.0
 10
54.310269
 20
246.248047
 30
0.0
 10
55.000624
 20
246.248047
 30
0.0
  0
LWPOLYLINE
  5
1ec
100
AcDbEntity
  8
Cut
 62
7
100
AcDbPolyline
 90
2
 70
0
 10
65.001874
 20
251.495602
 30
0.0
 10
65.001874
 20
251.495602
 30
0.0
  0
SPLINE
  5
1ed
100
AcDbEntity
  8
Cut
 62
7
100
AcDbSpline
 70
8
 71
3
 72
8
 73
4
 74
0
 40
0
 40
0
 40
0
 40
0
 40
1
 40
1
 40
1
 40
1
 10
75.003124
 20
246.248047
 30
0.0
 10
75.693479
 20
246.248047
 30
0.0
 10
76.255485
 20
245.686030
 30
0.0
 10
76.255485
 20
244.995658
 30
0.0
  0
SPLINE
  5
1ee
100
AcDbEntity
  8
Cut
 62
7
100
AcDbSpline
 70
8
 71
3
 72
8
 73
4
 74
0
 40
0
 40
0
 40
0
 40
0
 40
1
 40
1
 40
1
 40
1
 10
76.255485
 20
244.995658
 30
0.0
 10
76.255485
 20
244.305314
 30
0.0
 10
75.693479
 20
243.743325
 30
0.0
 10
75.003124
 20
243.743325
 30
0.0
  0
SPLINE
  5
1ef
100
AcDbEntity
  8
Cut
 62
7
100
AcDbSpline
 70
8
 71
3
 72
8
 73
4
 74
0
 40
0
 40
0
 40
0
 40
0
 40
1
 40
1
 40
1
 40
1
 10
75.003124
 20
243.743325
 30
0.0
 10
74.312769
 20
243.743325
 30
0.0
 10
73.750763
 20
244.305314
 30
0.0
 10
73.750763
 20
244.995658
 30
0.0
  0
SPLINE
  5
1f0
100
AcDbEntity
  8
Cut
 62
7
100
AcDbSpline
 70
8
 71
3
 72
8
 73
4
 74
0
 40
0
 40
0
 40
0
 40
0
 40
1
 40
1
 40
1
 40
1
 10
73.750763
 20
244.995658
 30
0.0
 10
73.750763
 20
245.686030
 30
0.0
 10
74.312769
 20
246.248047
 30
0.0
 10
75.003124
 20
246.248047
 30
0.0
  0
LWPOLYLINE
  5
1f1
100
AcDbEntity
  8
Cut
 62
7
100
AcDbPolyline
 90
2
 70
0
 10
55.000624
 20
246.248047
 30
0.0
 10
55.000624
 20
246.248047
 30
0.0
  0
SPLINE
  5
1f2
100
AcDbEntity
  8
Cut
 62
7
100
AcDbSpline
 70
8
 71
3
 72
8
 73
4
 74
0
 40
0
 40
0
 40
0
 40
0
 40
1
 40
1
 40
1
 40
1
 10
50.000069
 20
229.999992
 30
0.0
 10
40.000078
 20
209.999947
 30
0.0
 10
29.995074
 20
199.994943
 30
0.0
 10
9.995069
 20
189.994992
 30
0.0
  0
LWPOLYLINE
  5
1f3
100
AcDbEntity
  8
Cut
 62
7
100
AcDbPolyline
 90
2
 70
0
 10
75.003124
 20
246.248047
 30
0.0
 10
75.003124
 20
246.248047
 30
0.0
  0
SPLINE
  5
1f4
100
AcDbEntity
  8
Cut
 62
7
100
AcDbSpline
 70
8
 71
3
 72
8
 73
4
 74
0
 40
0
 40
0
 40
0
 40
0
 40
1
 40
1
 40
1
 40
1
 10
9.995069
 20
160.000047
 30
0.0
 10
29.995060
 20
150.000067
 30
0.0
 10
40.000036
 20
139.995035
 30
0.0
 10
50.000069
 20
119.995047
 30
0.0
  0
LWPOLYLINE
  5
1f5
100
AcDbEntity
  8
Cut
 62
7
100
AcDbPolyline
 90
2
 70
0
 10
9.995069
 20
189.994992
 30
0.0
 10
9.995069
 20
160.000047
 30
0.0
  0
SPLINE
  5
1f6
100
AcDbEntity
  8
Cut
 62
7
100
AcDbSpline
 70
8
 71
3
 72
8
 73
4
 74
0
 40
0
 40
0
 40
0
 40
0
 40
1
 40
1
 40
1
 40
1
 10
79.995000
 20
119.995047
 30
0.0
 10
89.994980
 20
139.995063
 30
0.0
 10
99.999995
 20
150.000010
 30
0.0
 10
120.000000
 20
160.000047
 30
0.0
  0
LWPOLYLINE
  5
1f7
100
AcDbEntity
  8
Cut
 62
7
100
AcDbPolyline
 90
2
 70
0
 10
50.000069
 20
119.995047
 30
0.0
 10
79.995000
 20
119.995047
 30
0.0
  0
SPLINE
  5
1f8
100
AcDbEntity
  8
Cut
 62
7
100
AcDbSpline
 70
8
 71
3
 72
8
 73
4
 74
0
 40
0
 40
0
 40
0
 40
0
 40
1
 40
1
 40
1
 40
1
 10
120.000000
 20
189.994992
 30
0.0
 10
99.999969
 20
199.994943
 30
0.0
 10
89.994997
 20
210.000003
 30
0.0
 10
79.995000
 20
229.999992
 30
0.0
  0
LWPOLYLINE
  5
1f9
100
AcDbEntity
  8
Cut
 62
7
100
AcDbPolyline
 90
2
 70
0
 10
120.000000
 20
160.000047
 30
0.0
 10
120.000000
 20
189.994992
 30
0.0
  0
SPLINE
  5
1fa
100
AcDbEntity
  8
Cut
 62
7
100
AcDbSpline
 70
8
 71
3
 72
8
 73
4
 74
0
 40
0
 40
0
 40
0
 40
0
 40
1
 40
1
 40
1
 40
1
 10
54.991875
 20
226.498658
 30
0.0
 10
55.820302
 20
226.498658
 30
0.0
 10
56.500000
 20
225.827788
 30
0.0
 10
56.500000
 20
224.999352
 30
0.0
  0
SPLINE
  5
1fb
100
AcDbEntity
  8
Cut
 62
7
100
AcDbSpline
 70
8
 71
3
 72
8
 73
4
 74
0
 40
0
 40
0
 40
0
 40
0
 40
1
 40
1
 40
1
 40
1
 10
56.500000
 20
224.999352
 30
0.0
 10
56.500000
 20
224.170917
 30
0.0
 10
55.820302
 20
223.500047
 30
0.0
 10
54.991875
 20
223.500047
 30
0.0
  0
SPLINE
  5
1fc
100
AcDbEntity
  8
Cut
 62
7
100
AcDbSpline
 70
8
 71
3
 72
8
 73
4
 74
0
 40
0
 40
0
 40
0
 40
0
 40
1
 40
1
 40
1
 40
1
 10
54.991875
 20
223.500047
 30
0.0
 10
54.163448
 20
223.500047
 30
0.0
 10
53.492569
 20
224.170917
 30
0.0
 10
53.492569
 20
224.999352
 30
0.0
  0
SPLINE
  5
1fd
100
AcDbEntity
  8
Cut
 62
7
100
AcDbSpline
 70
8
 71
3
 72
8
 73
4
 74
0
 40
0
 40
0
 40
0
 40
0
 40
1
 40
1
 40
1
 40
1
 10
53.492569
 20
224.999352
 30
0.0
 10
53.492569
 20
225.827788
 30
0.0
 10
54.163448
 20
226.498658
 30
0.0
 10
54.991875
 20
226.498658
 30
0.0
  0
LWPOLYLINE
  5
1fe
100
AcDbEntity
  8
Cut
 62
7
100
AcDbPolyline
 90
3
 70
0
 10
79.995000
 20
229.999992
 30
0.0
 10
50.000069
 20
229.999992
 30
0.0
 10
50.000069
 20
229.999992
 30
0.0
  0
SPLINE
  5
1ff
100
AcDbEntity
  8
Cut
 62
7
100
AcDbSpline
 70
8
 71
3
 72
8
 73
4
 74
0
 40
0
 40
0
 40
0
 40
0
 40
1
 40
1
 40
1
 40
1
 10
74.994375
 20
226.498658
 30
0.0
 10
75.822802
 20
226.498658
 30
0.0
 10
76.493680
 20
225.827788
 30
0.0
 10
76.493680
 20
224.999352
 30
0.0
  0
SPLINE
  5
200
100
AcDbEntity
  8
Cut
 62
7
100
AcDbSpline
 70
8
 71
3
 72
8
 73
4
 74
0
 40
0
 40
0
 40
0
 40
0
 40
1
 40
1
 40
1
 40
1
 10
76.493680
 20
224.999352
 30
0.0
 10
76.493680
 20
224.170917
 30
0.0
 10
75.822802
 20
223.500047
 30
0.0
 10
74.994375
 20
223.500047
 30
0.0
  0
SPLINE
  5
201
100
AcDbEntity
  8
Cut
 62
7
100
AcDbSpline
 70
8
 71
3
 72
8
 73
4
 74
0
 40
0
 40
0
 40
0
 40
0
 40
1
 40
1
 40
1
 40
1
 10
74.994375
 20
223.500047
 30
0.0
 10
74.165948
 20
223.500047
 30
0.0
 10
73.495069
 20
224.170917
 30
0.0
 10
73.495069
 20
224.999352
 30
0.0
  0
SPLINE
  5
202
100
AcDbEntity
  8
Cut
 62
7
100
AcDbSpline
 70
8
 71
3
 72
8
 73
4
 74
0
 40
0
 40
0
 40
0
 40
0
 40
1
 40
1
 40
1
 40
1
 10
73.495069
 20
224.999352
 30
0.0
 10
73.495069
 20
225.827788
 30
0.0
 10
74.165948
 20
226.498658
 30
0.0
 10
74.994375
 20
226.498658
 30
0.0
  0
LWPOLYLINE
  5
203
100
AcDbEntity
  8
Cut
 62
7
100
AcDbPolyline
 90
2
 70
0
 10
54.991875
 20
226.498658
 30
0.0
 10
54.991875
 20
226.498658
 30
0.0
  0
SPLINE
  5
204
100
AcDbEntity
  8
Cut
 62
7
100
AcDbSpline
 70
8
 71
3
 72
8
 73
4
 74
0
 40
0
 40
0
 40
0
 40
0
 40
1
 40
1
 40
1
 40
1
 10
64.993125
 20
221.498047
 30
0.0
 10
65.821552
 20
221.498047
 30
0.0
 10
66.492430
 20
220.827148
 30
0.0
 10
66.492430
 20
219.998713
 30
0.0
  0
SPLINE
  5
205
100
AcDbEntity
  8
Cut
 62
7
100
AcDbSpline
 70
8
 71
3
 72
8
 73
4
 74
0
 40
0
 40
0
 40
0
 40
0
 40
1
 40
1
 40
1
 40
1
 10
66.492430
 20
219.998713
 30
0.0
 10
66.492430
 20
219.170306
 30
0.0
 10
65.821552
 20
218.499436
 30
0.0
 10
64.993125
 20
218.499436
 30
0.0
  0
SPLINE
  5
206
100
AcDbEntity
  8
Cut
 62
7
100
AcDbSpline
 70
8
 71
3
 72
8
 73
4
 74
0
 40
0
 40
0
 40
0
 40
0
 40
1
 40
1
 40
1
 40
1
 10
64.993125
 20
218.499436
 30
0.0
 10
64.164698
 20
218.499436
 30
0.0
 10
63.493819
 20
219.170306
 30
0.0
 10
63.493819
 20
219.998713
 30
0.0
  0
SPLINE
  5
207
100
AcDbEntity
  8
Cut
 62
7
100
AcDbSpline
 70
8
 71
3
 72
8
 73
4
 74
0
 40
0
 40
0
 40
0
 40
0
 40
1
 40
1
 40
1
 40
1
 10
63.493819
 20
219.998713
 30
0.0
 10
63.493819
 20
220.827148
 30
0.0
 10
64.164698
 20
221.498047
 30
0.0
 10
64.993125
 20
221.498047
 30
0.0
  0
LWPOLYLINE
  5
208
100
AcDbEntity
  8
Cut
 62
7
100
AcDbPolyline
 90
2
 70
0
 10
74.994375
 20
226.498658
 30
0.0
 10
74.994375
 20
226.498658
 30
0.0
  0
SPLINE
  5
209
100
AcDbEntity
  8
Cut
 62
7
100
AcDbSpline
 70
8
 71
3
 72
8
 73
4
 74
0
 40
0
 40
0
 40
0
 40
0
 40
1
 40
1
 40
1
 40
1
 10
44.999444
 20
204.996852
 30
0.0
 10
50.522291
 20
204.996852
 30
0.0
 10
54.991875
 20
200.518437
 30
0.0
 10
54.991875
 20
194.995602
 30
0.0
  0
SPLINE
  5
20a
100
AcDbEntity
  8
Cut
 62
7
100
AcDbSpline
 70
8
 71
3
 72
8
 73
4
 74
0
 40
0
 40
0
 40
0
 40
0
 40
1
 40
1
 40
1
 40
1
 10
54.991875
 20
194.995602
 30
0.0
 10
54.991875
 20
189.472768
 30
0.0
 10
50.522291
 20
184.994352
 30
0.0
 10
44.999444
 20
184.994352
 30
0.0
  0
SPLINE
  5
20b
100
AcDbEntity
  8
Cut
 62
7
100
AcDbSpline
 70
8
 71
3
 72
8
 73
4
 74
0
 40
0
 40
0
 40
0
 40
0
 40
1
 40
1
 40
1
 40
1
 10
44.999444
 20
184.994352
 30
0.0
 10
39.476598
 20
184.994352
 30
0.0
 10
34.998194
 20
189.472768
 30
0.0
 10
34.998194
 20
194.995602
 30
0.0
  0
SPLINE
  5
20c
100
AcDbEntity
  8
Cut
 62
7
100
AcDbSpline
 70
8
 71
3
 72
8
 73
4
 74
0
 40
0
 40
0
 40
0
 40
0
 40
1
 40
1
 40
1
 40
1
 10
34.998194
 20
194.995602
 30
0.0
 10
34.998194
 20
200.518437
 30
0.0
 10
39.476598
 20
204.996852
 30
0.0
 10
44.999444
 20
204.996852
 30
0.0
  0
LWPOLYLINE
  5
20d
100
AcDbEntity
  8
Cut
 62
7
100
AcDbPolyline
 90
2
 70
0
 10
64.993125
 20
221.498047
 30
0.0
 10
64.993125
 20
221.498047
 30
0.0
  0
SPLINE
  5
20e
100
AcDbEntity
  8
Cut
 62
7
100
AcDbSpline
 70
8
 71
3
 72
8
 73
4
 74
0
 40
0
 40
0
 40
0
 40
0
 40
1
 40
1
 40
1
 40
1
 10
84.995625
 20
204.996852
 30
0.0
 10
90.518471
 20
204.996852
 30
0.0
 10
94.996875
 20
200.518437
 30
0.0
 10
94.996875
 20
194.995602
 30
0.0
  0
SPLINE
  5
20f
100
AcDbEntity
  8
Cut
 62
7
100
AcDbSpline
 70
8
 71
3
 72
8
 73
4
 74
0
 40
0
 40
0
 40
0
 40
0
 40
1
 40
1
 40
1
 40
1
 10
94.996875
 20
194.995602
 30
0.0
 10
94.996875
 20
189.472768
 30
0.0
 10
90.518471
 20
184.994352
 30
0.0
 10
84.995625
 20
184.994352
 30
0.0
  0
SPLINE
  5
210
100
AcDbEntity
  8
Cut
 62
7
100
AcDbSpline
 70
8
 71
3
 72
8
 73
4
 74
0
 40
0
 40
0
 40
0
 40
0
 40
1
 40
1
 40
1
 40
1
 10
84.995625
 20
184.994352
 30
0.0
 10
79.472779
 20
184.994352
 30
0.0
 10
74.994375
 20
189.472768
 30
0.0
 10
74.994375
 20
194.995602
 30
0.0
  0
SPLINE
  5
211
100
AcDbEntity
  8
Cut
 62
7
100
AcDbSpline
 70
8
 71
3
 72
8
 73
4
 74
0
 40
0
 40
0
 40
0
 40
0
 40
1
 40
1
 40
1
 40
1
 10
74.994375
 20
194.995602
 30
0.0
 10
74.994375
 20
200.518437
 30
0.0
 10
79.472779
 20
204.996852
 30
0.0
 10
84.995625
 20
204.996852
 30
0.0
  0
LWPOLYLINE
  5
212
100
AcDbEntity
  8
Cut
 62
7
100
AcDbPolyline
 90
2
 70
0
 10
44.999444
 20
204.996852
 30
0.0
 10
44.999444
 20
204.996852
 30
0.0
  0
SPLINE
  5
213
100
AcDbEntity
  8
Cut
 62
7
100
AcDbSpline
 70
8
 71
3
 72
8
 73
4
 74
0
 40
0
 40
0
 40
0
 40
0
 40
1
 40
1
 40
1
 40
1
 10
64.993125
 20
201.495547
 30
0.0
 10
65.821552
 20
201.495547
 30
0.0
 10
66.492430
 20
200.824648
 30
0.0
 10
66.492430
 20
199.996213
 30
0.0
  0
SPLINE
  5
214
100
AcDbEntity
  8
Cut
 62
7
100
AcDbSpline
 70
8
 71
3
 72
8
 73
4
 74
0
 40
0
 40
0
 40
0
 40
0
 40
1
 40
1
 40
1
 40
1
 10
66.492430
 20
199.996213
 30
0.0
 10
66.492430
 20
199.167806
 30
0.0
 10
65.821552
 20
198.496936
 30
0.0
 10
64.993125
 20
198.496936
 30
0.0
  0
SPLINE
  5
215
100
AcDbEntity
  8
Cut
 62
7
100
AcDbSpline
 70
8
 71
3
 72
8
 73
4
 74
0
 40
0
 40
0
 40
0
 40
0
 40
1
 40
1
 40
1
 40
1
 10
64.993125
 20
198.496936
 30
0.0
 10
64.164698
 20
198.496936
 30
0.0
 10
63.493819
 20
199.167806
 30
0.0
 10
63.493819
 20
199.996213
 30
0.0
  0
SPLINE
  5
216
100
AcDbEntity
  8
Cut
 62
7
100
AcDbSpline
 70
8
 71
3
 72
8
 73
4
 74
0
 40
0
 40
0
 40
0
 40
0
 40
1
 40
1
 40
1
 40
1
 10
63.493819
 20
199.996213
 30
0.0
 10
63.493819
 20
200.824648
 30
0.0
 10
64.164698
 20
201.495547
 30
0.0
 10
64.993125
 20
201.495547
 30
0.0
  0
LWPOLYLINE
  5
217
100
AcDbEntity
  8
Cut
 62
7
100
AcDbPolyline
 90
2
 70
0
 10
84.995625
 20
204.996852
 30
0.0
 10
84.995625
 20
204.996852
 30
0.0
  0
SPLINE
  5
218
100
AcDbEntity
  8
Cut
 62
7
100
AcDbSpline
 70
8
 71
3
 72
8
 73
4
 74
0
 40
0
 40
0
 40
0
 40
0
 40
1
 40
1
 40
1
 40
1
 10
14.845764
 20
186.493658
 30
0.0
 10
14.896188
 20
186.498738
 30
0.0
 10
14.943918
 20
186.493658
 30
0.0
 10
14.995694
 20
186.493658
 30
0.0
  0
SPLINE
  5
219
100
AcDbEntity
  8
Cut
 62
7
100
AcDbSpline
 70
8
 71
3
 72
8
 73
4
 74
0
 40
0
 40
0
 40
0
 40
0
 40
1
 40
1
 40
1
 40
1
 10
14.995694
 20
186.493658
 30
0.0
 10
15.824121
 20
186.493658
 30
0.0
 10
16.495000
 20
185.822788
 30
0.0
 10
16.495000
 20
184.994352
 30
0.0
  0
SPLINE
  5
21a
100
AcDbEntity
  8
Cut
 62
7
100
AcDbSpline
 70
8
 71
3
 72
8
 73
4
 74
0
 40
0
 40
0
 40
0
 40
0
 40
1
 40
1
 40
1
 40
1
 10
16.495000
 20
184.994352
 30
0.0
 10
16.495000
 20
184.165917
 30
0.0
 10
15.824121
 20
183.495047
 30
0.0
 10
14.995694
 20
183.495047
 30
0.0
  0
SPLINE
  5
21b
100
AcDbEntity
  8
Cut
 62
7
100
AcDbSpline
 70
8
 71
3
 72
8
 73
4
 74
0
 40
0
 40
0
 40
0
 40
0
 40
1
 40
1
 40
1
 40
1
 10
14.995694
 20
183.495047
 30
0.0
 10
14.167268
 20
183.495047
 30
0.0
 10
13.496389
 20
184.165917
 30
0.0
 10
13.496389
 20
184.994352
 30
0.0
  0
SPLINE
  5
21c
100
AcDbEntity
  8
Cut
 62
7
100
AcDbSpline
 70
8
 71
3
 72
8
 73
4
 74
0
 40
0
 40
0
 40
0
 40
0
 40
1
 40
1
 40
1
 40
1
 10
13.496389
 20
184.994352
 30
0.0
 10
13.496389
 20
185.771000
 30
0.0
 10
14.089380
 20
186.416837
 30
0.0
 10
14.845764
 20
186.493658
 30
0.0
  0
LWPOLYLINE
  5
21d
100
AcDbEntity
  8
Cut
 62
7
100
AcDbPolyline
 90
2
 70
0
 10
64.993125
 20
201.495547
 30
0.0
 10
64.993125
 20
201.495547
 30
0.0
  0
SPLINE
  5
21e
100
AcDbEntity
  8
Cut
 62
7
100
AcDbSpline
 70
8
 71
3
 72
8
 73
4
 74
0
 40
0
 40
0
 40
0
 40
0
 40
1
 40
1
 40
1
 40
1
 10
114.840625
 20
186.493658
 30
0.0
 10
114.891050
 20
186.498738
 30
0.0
 10
114.947598
 20
186.493658
 30
0.0
 10
114.999375
 20
186.493658
 30
0.0
  0
SPLINE
  5
21f
100
AcDbEntity
  8
Cut
 62
7
100
AcDbSpline
 70
8
 71
3
 72
8
 73
4
 74
0
 40
0
 40
0
 40
0
 40
0
 40
1
 40
1
 40
1
 40
1
 10
114.999375
 20
186.493658
 30
0.0
 10
115.827802
 20
186.493658
 30
0.0
 10
116.498680
 20
185.822788
 30
0.0
 10
116.498680
 20
184.994352
 30
0.0
  0
SPLINE
  5
220
100
AcDbEntity
  8
Cut
 62
7
100
AcDbSpline
 70
8
 71
3
 72
8
 73
4
 74
0
 40
0
 40
0
 40
0
 40
0
 40
1
 40
1
 40
1
 40
1
 10
116.498680
 20
184.994352
 30
0.0
 10
116.498680
 20
184.165917
 30
0.0
 10
115.827802
 20
183.495047
 30
0.0
 10
114.999375
 20
183.495047
 30
0.0
  0
SPLINE
  5
221
100
AcDbEntity
  8
Cut
 62
7
100
AcDbSpline
 70
8
 71
3
 72
8
 73
4
 74
0
 40
0
 40
0
 40
0
 40
0
 40
1
 40
1
 40
1
 40
1
 10
114.999375
 20
183.495047
 30
0.0
 10
114.170948
 20
183.495047
 30
0.0
 10
113.500069
 20
184.165917
 30
0.0
 10
113.500069
 20
184.994352
 30
0.0
  0
SPLINE
  5
222
100
AcDbEntity
  8
Cut
 62
7
100
AcDbSpline
 70
8
 71
3
 72
8
 73
4
 74
0
 40
0
 40
0
 40
0
 40
0
 40
1
 40
1
 40
1
 40
1
 10
113.500069
 20
184.994352
 30
0.0
 10
113.500069
 20
185.771000
 30
0.0
 10
114.084241
 20
186.416837
 30
0.0
 10
114.840625
 20
186.493658
 30
0.0
  0
LWPOLYLINE
  5
223
100
AcDbEntity
  8
Cut
 62
7
100
AcDbPolyline
 90
2
 70
0
 10
14.845764
 20
186.493658
 30
0.0
 10
14.845764
 20
186.493658
 30
0.0
  0
SPLINE
  5
224
100
AcDbEntity
  8
Cut
 62
7
100
AcDbSpline
 70
8
 71
3
 72
8
 73
4
 74
0
 40
0
 40
0
 40
0
 40
0
 40
1
 40
1
 40
1
 40
1
 10
64.993125
 20
184.994352
 30
0.0
 10
70.515971
 20
184.994352
 30
0.0
 10
74.994375
 20
180.515937
 30
0.0
 10
74.994375
 20
174.993102
 30
0.0
  0
SPLINE
  5
225
100
AcDbEntity
  8
Cut
 62
7
100
AcDbSpline
 70
8
 71
3
 72
8
 73
4
 74
0
 40
0
 40
0
 40
0
 40
0
 40
1
 40
1
 40
1
 40
1
 10
74.994375
 20
174.993102
 30
0.0
 10
74.994375
 20
169.470268
 30
0.0
 10
70.515971
 20
165.000658
 30
0.0
 10
64.993125
 20
165.000658
 30
0.0
  0
SPLINE
  5
226
100
AcDbEntity
  8
Cut
 62
7
100
AcDbSpline
 70
8
 71
3
 72
8
 73
4
 74
0
 40
0
 40
0
 40
0
 40
0
 40
1
 40
1
 40
1
 40
1
 10
64.993125
 20
165.000658
 30
0.0
 10
59.470279
 20
165.000658
 30
0.0
 10
54.991875
 20
169.470268
 30
0.0
 10
54.991875
 20
174.993102
 30
0.0
  0
SPLINE
  5
227
100
AcDbEntity
  8
Cut
 62
7
100
AcDbSpline
 70
8
 71
3
 72
8
 73
4
 74
0
 40
0
 40
0
 40
0
 40
0
 40
1
 40
1
 40
1
 40
1
 10
54.991875
 20
174.993102
 30
0.0
 10
54.991875
 20
180.515937
 30
0.0
 10
59.470279
 20
184.994352
 30
0.0
 10
64.993125
 20
184.994352
 30
0.0
  0
LWPOLYLINE
  5
228
100
AcDbEntity
  8
Cut
 62
7
100
AcDbPolyline
 90
2
 70
0
 10
114.840625
 20
186.493658
 30
0.0
 10
114.840625
 20
186.493658
 30
0.0
  0
SPLINE
  5
229
100
AcDbEntity
  8
Cut
 62
7
100
AcDbSpline
 70
8
 71
3
 72
8
 73
4
 74
0
 40
0
 40
0
 40
0
 40
0
 40
1
 40
1
 40
1
 40
1
 10
19.996319
 20
176.501213
 30
0.0
 10
20.824746
 20
176.501213
 30
0.0
 10
21.495625
 20
175.821538
 30
0.0
 10
21.495625
 20
174.993102
 30
0.0
  0
SPLINE
  5
22a
100
AcDbEntity
  8
Cut
 62
7
100
AcDbSpline
 70
8
 71
3
 72
8
 73
4
 74
0
 40
0
 40
0
 40
0
 40
0
 40
1
 40
1
 40
1
 40
1
 10
21.495625
 20
174.993102
 30
0.0
 10
21.495625
 20
174.164667
 30
0.0
 10
20.824746
 20
173.493797
 30
0.0
 10
19.996319
 20
173.493797
 30
0.0
  0
SPLINE
  5
22b
100
AcDbEntity
  8
Cut
 62
7
100
AcDbSpline
 70
8
 71
3
 72
8
 73
4
 74
0
 40
0
 40
0
 40
0
 40
0
 40
1
 40
1
 40
1
 40
1
 10
19.996319
 20
173.493797
 30
0.0
 10
19.167893
 20
173.493797
 30
0.0
 10
18.497014
 20
174.164667
 30
0.0
 10
18.497014
 20
174.993102
 30
0.0
  0
SPLINE
  5
22c
100
AcDbEntity
  8
Cut
 62
7
100
AcDbSpline
 70
8
 71
3
 72
8
 73
4
 74
0
 40
0
 40
0
 40
0
 40
0
 40
1
 40
1
 40
1
 40
1
 10
18.497014
 20
174.993102
 30
0.0
 10
18.497014
 20
175.821538
 30
0.0
 10
19.167893
 20
176.501213
 30
0.0
 10
19.996319
 20
176.501213
 30
0.0
  0
LWPOLYLINE
  5
22d
100
AcDbEntity
  8
Cut
 62
7
100
AcDbPolyline
 90
2
 70
0
 10
64.993125
 20
184.994352
 30
0.0
 10
64.993125
 20
184.994352
 30
0.0
  0
SPLINE
  5
22e
100
AcDbEntity
  8
Cut
 62
7
100
AcDbSpline
 70
8
 71
3
 72
8
 73
4
 74
0
 40
0
 40
0
 40
0
 40
0
 40
1
 40
1
 40
1
 40
1
 10
39.998819
 20
176.501213
 30
0.0
 10
40.827246
 20
176.501213
 30
0.0
 10
41.498125
 20
175.821538
 30
0.0
 10
41.498125
 20
174.993102
 30
0.0
  0
SPLINE
  5
22f
100
AcDbEntity
  8
Cut
 62
7
100
AcDbSpline
 70
8
 71
3
 72
8
 73
4
 74
0
 40
0
 40
0
 40
0
 40
0
 40
1
 40
1
 40
1
 40
1
 10
41.498125
 20
174.993102
 30
0.0
 10
41.498125
 20
174.164667
 30
0.0
 10
40.827246
 20
173.493797
 30
0.0
 10
39.998819
 20
173.493797
 30
0.0
  0
SPLINE
  5
230
100
AcDbEntity
  8
Cut
 62
7
100
AcDbSpline
 70
8
 71
3
 72
8
 73
4
 74
0
 40
0
 40
0
 40
0
 40
0
 40
1
 40
1
 40
1
 40
1
 10
39.998819
 20
173.493797
 30
0.0
 10
39.170393
 20
173.493797
 30
0.0
 10
38.499514
 20
174.164667
 30
0.0
 10
38.499514
 20
174.993102
 30
0.0
  0
SPLINE
  5
231
100
AcDbEntity
  8
Cut
 62
7
100
AcDbSpline
 70
8
 71
3
 72
8
 73
4
 74
0
 40
0
 40
0
 40
0
 40
0
 40
1
 40
1
 40
1
 40
1
 10
38.499514
 20
174.993102
 30
0.0
 10
38.499514
 20
175.821538
 30
0.0
 10
39.170393
 20
176.501213
 30
0.0
 10
39.998819
 20
176.501213
 30
0.0
  0
LWPOLYLINE
  5
232
100
AcDbEntity
  8
Cut
 62
7
100
AcDbPolyline
 90
2
 70
0
 10
19.996319
 20
176.501213
 30
0.0
 10
19.996319
 20
176.501213
 30
0.0
  0
SPLINE
  5
233
100
AcDbEntity
  8
Cut
 62
7
100
AcDbSpline
 70
8
 71
3
 72
8
 73
4
 74
0
 40
0
 40
0
 40
0
 40
0
 40
1
 40
1
 40
1
 40
1
 10
89.996250
 20
176.501213
 30
0.0
 10
90.824677
 20
176.501213
 30
0.0
 10
91.495555
 20
175.821538
 30
0.0
 10
91.495555
 20
174.993102
 30
0.0
  0
SPLINE
  5
234
100
AcDbEntity
  8
Cut
 62
7
100
AcDbSpline
 70
8
 71
3
 72
8
 73
4
 74
0
 40
0
 40
0
 40
0
 40
0
 40
1
 40
1
 40
1
 40
1
 10
91.495555
 20
174.993102
 30
0.0
 10
91.495555
 20
174.164667
 30
0.0
 10
90.824677
 20
173.493797
 30
0.0
 10
89.996250
 20
173.493797
 30
0.0
  0
SPLINE
  5
235
100
AcDbEntity
  8
Cut
 62
7
100
AcDbSpline
 70
8
 71
3
 72
8
 73
4
 74
0
 40
0
 40
0
 40
0
 40
0
 40
1
 40
1
 40
1
 40
1
 10
89.996250
 20
173.493797
 30
0.0
 10
89.167823
 20
173.493797
 30
0.0
 10
88.496944
 20
174.164667
 30
0.0
 10
88.496944
 20
174.993102
 30
0.0
  0
SPLINE
  5
236
100
AcDbEntity
  8
Cut
 62
7
100
AcDbSpline
 70
8
 71
3
 72
8
 73
4
 74
0
 40
0
 40
0
 40
0
 40
0
 40
1
 40
1
 40
1
 40
1
 10
88.496944
 20
174.993102
 30
0.0
 10
88.496944
 20
175.821538
 30
0.0
 10
89.167823
 20
176.501213
 30
0.0
 10
89.996250
 20
176.501213
 30
0.0
  0
LWPOLYLINE
  5
237
100
AcDbEntity
  8
Cut
 62
7
100
AcDbPolyline
 90
2
 70
0
 10
39.998819
 20
176.501213
 30
0.0
 10
39.998819
 20
176.501213
 30
0.0
  0
SPLINE
  5
238
100
AcDbEntity
  8
Cut
 62
7
100
AcDbSpline
 70
8
 71
3
 72
8
 73
4
 74
0
 40
0
 40
0
 40
0
 40
0
 40
1
 40
1
 40
1
 40
1
 10
109.998750
 20
176.501213
 30
0.0
 10
110.827177
 20
176.501213
 30
0.0
 10
111.498055
 20
175.821538
 30
0.0
 10
111.498055
 20
174.993102
 30
0.0
  0
SPLINE
  5
239
100
AcDbEntity
  8
Cut
 62
7
100
AcDbSpline
 70
8
 71
3
 72
8
 73
4
 74
0
 40
0
 40
0
 40
0
 40
0
 40
1
 40
1
 40
1
 40
1
 10
111.498055
 20
174.993102
 30
0.0
 10
111.498055
 20
174.164667
 30
0.0
 10
110.827177
 20
173.493797
 30
0.0
 10
109.998750
 20
173.493797
 30
0.0
  0
SPLINE
  5
23a
100
AcDbEntity
  8
Cut
 62
7
100
AcDbSpline
 70
8
 71
3
 72
8
 73
4
 74
0
 40
0
 40
0
 40
0
 40
0
 40
1
 40
1
 40
1
 40
1
 10
109.998750
 20
173.493797
 30
0.0
 10
109.170323
 20
173.493797
 30
0.0
 10
108.499444
 20
174.164667
 30
0.0
 10
108.499444
 20
174.993102
 30
0.0
  0
SPLINE
  5
23b
100
AcDbEntity
  8
Cut
 62
7
100
AcDbSpline
 70
8
 71
3
 72
8
 73
4
 74
0
 40
0
 40
0
 40
0
 40
0
 40
1
 40
1
 40
1
 40
1
 10
108.499444
 20
174.993102
 30
0.0
 10
108.499444
 20
175.821538
 30
0.0
 10
109.170323
 20
176.501213
 30
0.0
 10
109.998750
 20
176.501213
 30
0.0
  0
LWPOLYLINE
  5
23c
100
AcDbEntity
  8
Cut
 62
7
100
AcDbPolyline
 90
2
 70
0
 10
89.996250
 20
176.501213
 30
0.0
 10
89.996250
 20
176.501213
 30
0.0
  0
SPLINE
  5
23d
100
AcDbEntity
  8
Cut
 62
7
100
AcDbSpline
 70
8
 71
3
 72
8
 73
4
 74
0
 40
0
 40
0
 40
0
 40
0
 40
1
 40
1
 40
1
 40
1
 10
14.995694
 20
166.499992
 30
0.0
 10
15.824121
 20
166.499992
 30
0.0
 10
16.495000
 20
165.829093
 30
0.0
 10
16.495000
 20
165.000658
 30
0.0
  0
SPLINE
  5
23e
100
AcDbEntity
  8
Cut
 62
7
100
AcDbSpline
 70
8
 71
3
 72
8
 73
4
 74
0
 40
0
 40
0
 40
0
 40
0
 40
1
 40
1
 40
1
 40
1
 10
16.495000
 20
165.000658
 30
0.0
 10
16.495000
 20
164.172251
 30
0.0
 10
15.824121
 20
163.501380
 30
0.0
 10
14.995694
 20
163.501380
 30
0.0
  0
SPLINE
  5
23f
100
AcDbEntity
  8
Cut
 62
7
100
AcDbSpline
 70
8
 71
3
 72
8
 73
4
 74
0
 40
0
 40
0
 40
0
 40
0
 40
1
 40
1
 40
1
 40
1
 10
14.995694
 20
163.501380
 30
0.0
 10
14.167268
 20
163.501380
 30
0.0
 10
13.496389
 20
164.172251
 30
0.0
 10
13.496389
 20
165.000658
 30
0.0
  0
SPLINE
  5
240
100
AcDbEntity
  8
Cut
 62
7
100
AcDbSpline
 70
8
 71
3
 72
8
 73
4
 74
0
 40
0
 40
0
 40
0
 40
0
 40
1
 40
1
 40
1
 40
1
 10
13.496389
 20
165.000658
 30
0.0
 10
13.496389
 20
165.829093
 30
0.0
 10
14.167268
 20
166.499992
 30
0.0
 10
14.995694
 20
166.499992
 30
0.0
  0
LWPOLYLINE
  5
241
100
AcDbEntity
  8
Cut
 62
7
100
AcDbPolyline
 90
2
 70
0
 10
109.998750
 20
176.501213
 30
0.0
 10
109.998750
 20
176.501213
 30
0.0
  0
SPLINE
  5
242
100
AcDbEntity
  8
Cut
 62
7
100
AcDbSpline
 70
8
 71
3
 72
8
 73
4
 74
0
 40
0
 40
0
 40
0
 40
0
 40
1
 40
1
 40
1
 40
1
 10
114.999375
 20
166.499992
 30
0.0
 10
115.827802
 20
166.499992
 30
0.0
 10
116.498680
 20
165.829093
 30
0.0
 10
116.498680
 20
165.000658
 30
0.0
  0
SPLINE
  5
243
100
AcDbEntity
  8
Cut
 62
7
100
AcDbSpline
 70
8
 71
3
 72
8
 73
4
 74
0
 40
0
 40
0
 40
0
 40
0
 40
1
 40
1
 40
1
 40
1
 10
116.498680
 20
165.000658
 30
0.0
 10
116.498680
 20
164.172251
 30
0.0
 10
115.827802
 20
163.501380
 30
0.0
 10
114.999375
 20
163.501380
 30
0.0
  0
SPLINE
  5
244
100
AcDbEntity
  8
Cut
 62
7
100
AcDbSpline
 70
8
 71
3
 72
8
 73
4
 74
0
 40
0
 40
0
 40
0
 40
0
 40
1
 40
1
 40
1
 40
1
 10
114.999375
 20
163.501380
 30
0.0
 10
114.170948
 20
163.501380
 30
0.0
 10
113.500069
 20
164.172251
 30
0.0
 10
113.500069
 20
165.000658
 30
0.0
  0
SPLINE
  5
245
100
AcDbEntity
  8
Cut
 62
7
100
AcDbSpline
 70
8
 71
3
 72
8
 73
4
 74
0
 40
0
 40
0
 40
0
 40
0
 40
1
 40
1
 40
1
 40
1
 10
113.500069
 20
165.000658
 30
0.0
 10
113.500069
 20
165.829093
 30
0.0
 10
114.170948
 20
166.499992
 30
0.0
 10
114.999375
 20
166.499992
 30
0.0
  0
LWPOLYLINE
  5
246
100
AcDbEntity
  8
Cut
 62
7
100
AcDbPolyline
 90
2
 70
0
 10
14.995694
 20
166.499992
 30
0.0
 10
14.995694
 20
166.499992
 30
0.0
  0
SPLINE
  5
247
100
AcDbEntity
  8
Cut
 62
7
100
AcDbSpline
 70
8
 71
3
 72
8
 73
4
 74
0
 40
0
 40
0
 40
0
 40
0
 40
1
 40
1
 40
1
 40
1
 10
44.999444
 20
165.000658
 30
0.0
 10
50.522291
 20
165.000658
 30
0.0
 10
54.991875
 20
160.522271
 30
0.0
 10
54.991875
 20
154.999436
 30
0.0
  0
SPLINE
  5
248
100
AcDbEntity
  8
Cut
 62
7
100
AcDbSpline
 70
8
 71
3
 72
8
 73
4
 74
0
 40
0
 40
0
 40
0
 40
0
 40
1
 40
1
 40
1
 40
1
 10
54.991875
 20
154.999436
 30
0.0
 10
54.991875
 20
149.476573
 30
0.0
 10
50.522291
 20
144.998158
 30
0.0
 10
44.999444
 20
144.998158
 30
0.0
  0
SPLINE
  5
249
100
AcDbEntity
  8
Cut
 62
7
100
AcDbSpline
 70
8
 71
3
 72
8
 73
4
 74
0
 40
0
 40
0
 40
0
 40
0
 40
1
 40
1
 40
1
 40
1
 10
44.999444
 20
144.998158
 30
0.0
 10
39.476598
 20
144.998158
 30
0.0
 10
34.998194
 20
149.476573
 30
0.0
 10
34.998194
 20
154.999436
 30
0.0
  0
SPLINE
  5
24a
100
AcDbEntity
  8
Cut
 62
7
100
AcDbSpline
 70
8
 71
3
 72
8
 73
4
 74
0
 40
0
 40
0
 40
0
 40
0
 40
1
 40
1
 40
1
 40
1
 10
34.998194
 20
154.999436
 30
0.0
 10
34.998194
 20
160.522271
 30
0.0
 10
39.476598
 20
165.000658
 30
0.0
 10
44.999444
 20
165.000658
 30
0.0
  0
LWPOLYLINE
  5
24b
100
AcDbEntity
  8
Cut
 62
7
100
AcDbPolyline
 90
2
 70
0
 10
114.999375
 20
166.499992
 30
0.0
 10
114.999375
 20
166.499992
 30
0.0
  0
SPLINE
  5
24c
100
AcDbEntity
  8
Cut
 62
7
100
AcDbSpline
 70
8
 71
3
 72
8
 73
4
 74
0
 40
0
 40
0
 40
0
 40
0
 40
1
 40
1
 40
1
 40
1
 10
84.995625
 20
165.000658
 30
0.0
 10
90.518471
 20
165.000658
 30
0.0
 10
94.996875
 20
160.522271
 30
0.0
 10
94.996875
 20
154.999436
 30
0.0
  0
SPLINE
  5
24d
100
AcDbEntity
  8
Cut
 62
7
100
AcDbSpline
 70
8
 71
3
 72
8
 73
4
 74
0
 40
0
 40
0
 40
0
 40
0
 40
1
 40
1
 40
1
 40
1
 10
94.996875
 20
154.999436
 30
0.0
 10
94.996875
 20
149.476573
 30
0.0
 10
90.518471
 20
144.998158
 30
0.0
 10
84.995625
 20
144.998158
 30
0.0
  0
SPLINE
  5
24e
100
AcDbEntity
  8
Cut
 62
7
100
AcDbSpline
 70
8
 71
3
 72
8
 73
4
 74
0
 40
0
 40
0
 40
0
 40
0
 40
1
 40
1
 40
1
 40
1
 10
84.995625
 20
144.998158
 30
0.0
 10
79.472779
 20
144.998158
 30
0.0
 10
74.994375
 20
149.476573
 30
0.0
 10
74.994375
 20
154.999436
 30
0.0
  0
SPLINE
  5
24f
100
AcDbEntity
  8
Cut
 62
7
100
AcDbSpline
 70
8
 71
3
 72
8
 73
4
 74
0
 40
0
 40
0
 40
0
 40
0
 40
1
 40
1
 40
1
 40
1
 10
74.994375
 20
154.999436
 30
0.0
 10
74.994375
 20
160.522271
 30
0.0
 10
79.472779
 20
165.000658
 30
0.0
 10
84.995625
 20
165.000658
 30
0.0
  0
LWPOLYLINE
  5
250
100
AcDbEntity
  8
Cut
 62
7
100
AcDbPolyline
 90
2
 70
0
 10
44.999444
 20
165.000658
 30
0.0
 10
44.999444
 20
165.000658
 30
0.0
  0
SPLINE
  5
251
100
AcDbEntity
  8
Cut
 62
7
100
AcDbSpline
 70
8
 71
3
 72
8
 73
4
 74
0
 40
0
 40
0
 40
0
 40
0
 40
1
 40
1
 40
1
 40
1
 10
64.993125
 20
151.498102
 30
0.0
 10
65.821552
 20
151.498102
 30
0.0
 10
66.492430
 20
150.827232
 30
0.0
 10
66.492430
 20
149.998797
 30
0.0
  0
SPLINE
  5
252
100
AcDbEntity
  8
Cut
 62
7
100
AcDbSpline
 70
8
 71
3
 72
8
 73
4
 74
0
 40
0
 40
0
 40
0
 40
0
 40
1
 40
1
 40
1
 40
1
 10
66.492430
 20
149.998797
 30
0.0
 10
66.492430
 20
149.170362
 30
0.0
 10
65.821552
 20
148.499491
 30
0.0
 10
64.993125
 20
148.499491
 30
0.0
  0
SPLINE
  5
253
100
AcDbEntity
  8
Cut
 62
7
100
AcDbSpline
 70
8
 71
3
 72
8
 73
4
 74
0
 40
0
 40
0
 40
0
 40
0
 40
1
 40
1
 40
1
 40
1
 10
64.993125
 20
148.499491
 30
0.0
 10
64.164698
 20
148.499491
 30
0.0
 10
63.493819
 20
149.170362
 30
0.0
 10
63.493819
 20
149.998797
 30
0.0
  0
SPLINE
  5
254
100
AcDbEntity
  8
Cut
 62
7
100
AcDbSpline
 70
8
 71
3
 72
8
 73
4
 74
0
 40
0
 40
0
 40
0
 40
0
 40
1
 40
1
 40
1
 40
1
 10
63.493819
 20
149.998797
 30
0.0
 10
63.493819
 20
150.827232
 30
0.0
 10
64.164698
 20
151.498102
 30
0.0
 10
64.993125
 20
151.498102
 30
0.0
  0
LWPOLYLINE
  5
255
100
AcDbEntity
  8
Cut
 62
7
100
AcDbPolyline
 90
2
 70
0
 10
84.995625
 20
165.000658
 30
0.0
 10
84.995625
 20
165.000658
 30
0.0
  0
SPLINE
  5
256
100
AcDbEntity
  8
Cut
 62
7
100
AcDbSpline
 70
8
 71
3
 72
8
 73
4
 74
0
 40
0
 40
0
 40
0
 40
0
 40
1
 40
1
 40
1
 40
1
 10
64.993125
 20
131.495602
 30
0.0
 10
65.821552
 20
131.495602
 30
0.0
 10
66.492430
 20
130.824732
 30
0.0
 10
66.492430
 20
129.996297
 30
0.0
  0
SPLINE
  5
257
100
AcDbEntity
  8
Cut
 62
7
100
AcDbSpline
 70
8
 71
3
 72
8
 73
4
 74
0
 40
0
 40
0
 40
0
 40
0
 40
1
 40
1
 40
1
 40
1
 10
66.492430
 20
129.996297
 30
0.0
 10
66.492430
 20
129.167862
 30
0.0
 10
65.821552
 20
128.496991
 30
0.0
 10
64.993125
 20
128.496991
 30
0.0
  0
SPLINE
  5
258
100
AcDbEntity
  8
Cut
 62
7
100
AcDbSpline
 70
8
 71
3
 72
8
 73
4
 74
0
 40
0
 40
0
 40
0
 40
0
 40
1
 40
1
 40
1
 40
1
 10
64.993125
 20
128.496991
 30
0.0
 10
64.164698
 20
128.496991
 30
0.0
 10
63.493819
 20
129.167862
 30
0.0
 10
63.493819
 20
129.996297
 30
0.0
  0
SPLINE
  5
259
100
AcDbEntity
  8
Cut
 62
7
100
AcDbSpline
 70
8
 71
3
 72
8
 73
4
 74
0
 40
0
 40
0
 40
0
 40
0
 40
1
 40
1
 40
1
 40
1
 10
63.493819
 20
129.996297
 30
0.0
 10
63.493819
 20
130.824732
 30
0.0
 10
64.164698
 20
131.495602
 30
0.0
 10
64.993125
 20
131.495602
 30
0.0
  0
LWPOLYLINE
  5
25a
100
AcDbEntity
  8
Cut
 62
7
100
AcDbPolyline
 90
2
 70
0
 10
64.993125
 20
151.498102
 30
0.0
 10
64.993125
 20
151.498102
 30
0.0
  0
SPLINE
  5
25b
100
AcDbEntity
  8
Cut
 62
7
100
AcDbSpline
 70
8
 71
3
 72
8
 73
4
 74
0
 40
0
 40
0
 40
0
 40
0
 40
1
 40
1
 40
1
 40
1
 10
54.991875
 20
126.494992
 30
0.0
 10
55.820302
 20
126.494992
 30
0.0
 10
56.500000
 20
125.824093
 30
0.0
 10
56.500000
 20
124.995658
 30
0.0
  0
SPLINE
  5
25c
100
AcDbEntity
  8
Cut
 62
7
100
AcDbSpline
 70
8
 71
3
 72
8
 73
4
 74
0
 40
0
 40
0
 40
0
 40
0
 40
1
 40
1
 40
1
 40
1
 10
56.500000
 20
124.995658
 30
0.0
 10
56.500000
 20
124.167251
 30
0.0
 10
55.820302
 20
123.496380
 30
0.0
 10
54.991875
 20
123.496380
 30
0.0
  0
SPLINE
  5
25d
100
AcDbEntity
  8
Cut
 62
7
100
AcDbSpline
 70
8
 71
3
 72
8
 73
4
 74
0
 40
0
 40
0
 40
0
 40
0
 40
1
 40
1
 40
1
 40
1
 10
54.991875
 20
123.496380
 30
0.0
 10
54.163448
 20
123.496380
 30
0.0
 10
53.492569
 20
124.167251
 30
0.0
 10
53.492569
 20
124.995658
 30
0.0
  0
SPLINE
  5
25e
100
AcDbEntity
  8
Cut
 62
7
100
AcDbSpline
 70
8
 71
3
 72
8
 73
4
 74
0
 40
0
 40
0
 40
0
 40
0
 40
1
 40
1
 40
1
 40
1
 10
53.492569
 20
124.995658
 30
0.0
 10
53.492569
 20
125.824093
 30
0.0
 10
54.163448
 20
126.494992
 30
0.0
 10
54.991875
 20
126.494992
 30
0.0
  0
LWPOLYLINE
  5
25f
100
AcDbEntity
  8
Cut
 62
7
100
AcDbPolyline
 90
2
 70
0
 10
64.993125
 20
131.495602
 30
0.0
 10
64.993125
 20
131.495602
 30
0.0
  0
SPLINE
  5
260
100
AcDbEntity
  8
Cut
 62
7
100
AcDbSpline
 70
8
 71
3
 72
8
 73
4
 74
0
 40
0
 40
0
 40
0
 40
0
 40
1
 40
1
 40
1
 40
1
 10
74.994375
 20
126.494992
 30
0.0
 10
75.822802
 20
126.494992
 30
0.0
 10
76.493680
 20
125.824093
 30
0.0
 10
76.493680
 20
124.995658
 30
0.0
  0
SPLINE
  5
261
100
AcDbEntity
  8
Cut
 62
7
100
AcDbSpline
 70
8
 71
3
 72
8
 73
4
 74
0
 40
0
 40
0
 40
0
 40
0
 40
1
 40
1
 40
1
 40
1
 10
76.493680
 20
124.995658
 30
0.0
 10
76.493680
 20
124.167251
 30
0.0
 10
75.822802
 20
123.496380
 30
0.0
 10
74.994375
 20
123.496380
 30
0.0
  0
SPLINE
  5
262
100
AcDbEntity
  8
Cut
 62
7
100
AcDbSpline
 70
8
 71
3
 72
8
 73
4
 74
0
 40
0
 40
0
 40
0
 40
0
 40
1
 40
1
 40
1
 40
1
 10
74.994375
 20
123.496380
 30
0.0
 10
74.165948
 20
123.496380
 30
0.0
 10
73.495069
 20
124.167251
 30
0.0
 10
73.495069
 20
124.995658
 30
0.0
  0
SPLINE
  5
263
100
AcDbEntity
  8
Cut
 62
7
100
AcDbSpline
 70
8
 71
3
 72
8
 73
4
 74
0
 40
0
 40
0
 40
0
 40
0
 40
1
 40
1
 40
1
 40
1
 10
73.495069
 20
124.995658
 30
0.0
 10
73.495069
 20
125.824093
 30
0.0
 10
74.165948
 20
126.494992
 30
0.0
 10
74.994375
 20
126.494992
 30
0.0
  0
LWPOLYLINE
  5
264
100
AcDbEntity
  8
Cut
 62
7
100
AcDbPolyline
 90
2
 70
0
 10
54.991875
 20
126.494992
 30
0.0
 10
54.991875
 20
126.494992
 30
0.0
  0
SPLINE
  5
265
100
AcDbEntity
  8
Cut
 62
7
100
AcDbSpline
 70
8
 71
3
 72
8
 73
4
 74
0
 40
0
 40
0
 40
0
 40
0
 40
1
 40
1
 40
1
 40
1
 10
202.003194
 20
199.996242
 30
0.0
 10
190.799666
 20
199.996242
 30
0.0
 10
151.000347
 20
188.500540
 30
0.0
 10
151.000347
 20
178.000547
 30
0.0
  0
SPLINE
  5
266
100
AcDbEntity
  8
Cut
 62
7
100
AcDbSpline
 70
8
 71
3
 72
8
 73
4
 74
0
 40
0
 40
0
 40
0
 40
0
 40
1
 40
1
 40
1
 40
1
 10
151.000347
 20
178.000547
 30
0.0
 10
151.000347
 20
167.500526
 30
0.0
 10
190.799666
 20
155.996019
 30
0.0
 10
202.003194
 20
155.996019
 30
0.0
  0
SPLINE
  5
267
100
AcDbEntity
  8
Cut
 62
7
100
AcDbSpline
 70
8
 71
3
 72
8
 73
4
 74
0
 40
0
 40
0
 40
0
 40
0
 40
1
 40
1
 40
1
 40
1
 10
202.003194
 20
155.996019
 30
0.0
 10
213.206720
 20
155.996019
 30
0.0
 10
223.002292
 20
166.401524
 30
0.0
 10
223.002292
 20
178.000547
 30
0.0
  0
SPLINE
  5
268
100
AcDbEntity
  8
Cut
 62
7
100
AcDbSpline
 70
8
 71
3
 72
8
 73
4
 74
0
 40
0
 40
0
 40
0
 40
0
 40
1
 40
1
 40
1
 40
1
 10
223.002292
 20
178.000547
 30
0.0
 10
223.002292
 20
189.598131
 30
0.0
 10
213.206720
 20
199.996242
 30
0.0
 10
202.003194
 20
199.996242
 30
0.0
  0
LWPOLYLINE
  5
269
100
AcDbEntity
  8
Cut
 62
7
100
AcDbPolyline
 90
2
 70
0
 10
74.994375
 20
126.494992
 30
0.0
 10
74.994375
 20
126.494992
 30
0.0
  0
SPLINE
  5
26a
100
AcDbEntity
  8
Cut
 62
7
100
AcDbSpline
 70
8
 71
3
 72
8
 73
4
 74
0
 40
0
 40
0
 40
0
 40
0
 40
1
 40
1
 40
1
 40
1
 10
201.006597
 20
197.738464
 30
0.0
 10
201.696258
 20
197.738464
 30
0.0
 10
202.250139
 20
197.184631
 30
0.0
 10
202.250139
 20
196.494908
 30
0.0
  0
SPLINE
  5
26b
100
AcDbEntity
  8
Cut
 62
7
100
AcDbSpline
 70
8
 71
3
 72
8
 73
4
 74
0
 40
0
 40
0
 40
0
 40
0
 40
1
 40
1
 40
1
 40
1
 10
202.250139
 20
196.494908
 30
0.0
 10
202.250139
 20
195.805242
 30
0.0
 10
201.696258
 20
195.251380
 30
0.0
 10
201.006597
 20
195.251380
 30
0.0
  0
SPLINE
  5
26c
100
AcDbEntity
  8
Cut
 62
7
100
AcDbSpline
 70
8
 71
3
 72
8
 73
4
 74
0
 40
0
 40
0
 40
0
 40
0
 40
1
 40
1
 40
1
 40
1
 10
201.006597
 20
195.251380
 30
0.0
 10
200.316936
 20
195.251380
 30
0.0
 10
199.745417
 20
195.805242
 30
0.0
 10
199.745417
 20
196.494908
 30
0.0
  0
SPLINE
  5
26d
100
AcDbEntity
  8
Cut
 62
7
100
AcDbSpline
 70
8
 71
3
 72
8
 73
4
 74
0
 40
0
 40
0
 40
0
 40
0
 40
1
 40
1
 40
1
 40
1
 10
199.745417
 20
196.494908
 30
0.0
 10
199.745417
 20
197.184631
 30
0.0
 10
200.316936
 20
197.738464
 30
0.0
 10
201.006597
 20
197.738464
 30
0.0
  0
LWPOLYLINE
  5
26e
100
AcDbEntity
  8
Cut
 62
7
100
AcDbPolyline
 90
2
 70
0
 10
202.003194
 20
199.996242
 30
0.0
 10
202.003194
 20
199.996242
 30
0.0
  0
SPLINE
  5
26f
100
AcDbEntity
  8
Cut
 62
7
100
AcDbSpline
 70
8
 71
3
 72
8
 73
4
 74
0
 40
0
 40
0
 40
0
 40
0
 40
1
 40
1
 40
1
 40
1
 10
200.997792
 20
187.499075
 30
0.0
 10
201.826219
 20
187.499075
 30
0.0
 10
202.497097
 20
186.828204
 30
0.0
 10
202.497097
 20
185.999797
 30
0.0
  0
SPLINE
  5
270
100
AcDbEntity
  8
Cut
 62
7
100
AcDbSpline
 70
8
 71
3
 72
8
 73
4
 74
0
 40
0
 40
0
 40
0
 40
0
 40
1
 40
1
 40
1
 40
1
 10
202.497097
 20
185.999797
 30
0.0
 10
202.497097
 20
185.171334
 30
0.0
 10
201.826219
 20
184.500464
 30
0.0
 10
200.997792
 20
184.500464
 30
0.0
  0
SPLINE
  5
271
100
AcDbEntity
  8
Cut
 62
7
100
AcDbSpline
 70
8
 71
3
 72
8
 73
4
 74
0
 40
0
 40
0
 40
0
 40
0
 40
1
 40
1
 40
1
 40
1
 10
200.997792
 20
184.500464
 30
0.0
 10
200.169365
 20
184.500464
 30
0.0
 10
199.498486
 20
185.171334
 30
0.0
 10
199.498486
 20
185.999797
 30
0.0
  0
SPLINE
  5
272
100
AcDbEntity
  8
Cut
 62
7
100
AcDbSpline
 70
8
 71
3
 72
8
 73
4
 74
0
 40
0
 40
0
 40
0
 40
0
 40
1
 40
1
 40
1
 40
1
 10
199.498486
 20
185.999797
 30
0.0
 10
199.498486
 20
186.828204
 30
0.0
 10
200.169365
 20
187.499075
 30
0.0
 10
200.997792
 20
187.499075
 30
0.0
  0
LWPOLYLINE
  5
273
100
AcDbEntity
  8
Cut
 62
7
100
AcDbPolyline
 90
2
 70
0
 10
201.006597
 20
197.738464
 30
0.0
 10
201.006597
 20
197.738464
 30
0.0
  0
SPLINE
  5
274
100
AcDbEntity
  8
Cut
 62
7
100
AcDbSpline
 70
8
 71
3
 72
8
 73
4
 74
0
 40
0
 40
0
 40
0
 40
0
 40
1
 40
1
 40
1
 40
1
 10
200.997792
 20
182.004575
 30
0.0
 10
203.206931
 20
182.004575
 30
0.0
 10
204.993000
 20
180.209670
 30
0.0
 10
204.993000
 20
178.000547
 30
0.0
  0
SPLINE
  5
275
100
AcDbEntity
  8
Cut
 62
7
100
AcDbSpline
 70
8
 71
3
 72
8
 73
4
 74
0
 40
0
 40
0
 40
0
 40
0
 40
1
 40
1
 40
1
 40
1
 10
204.993000
 20
178.000547
 30
0.0
 10
204.993000
 20
175.791340
 30
0.0
 10
203.206931
 20
173.996519
 30
0.0
 10
200.997792
 20
173.996519
 30
0.0
  0
SPLINE
  5
276
100
AcDbEntity
  8
Cut
 62
7
100
AcDbSpline
 70
8
 71
3
 72
8
 73
4
 74
0
 40
0
 40
0
 40
0
 40
0
 40
1
 40
1
 40
1
 40
1
 10
200.997792
 20
173.996519
 30
0.0
 10
198.788652
 20
173.996519
 30
0.0
 10
196.993764
 20
175.791340
 30
0.0
 10
196.993764
 20
178.000547
 30
0.0
  0
SPLINE
  5
277
100
AcDbEntity
  8
Cut
 62
7
100
AcDbSpline
 70
8
 71
3
 72
8
 73
4
 74
0
 40
0
 40
0
 40
0
 40
0
 40
1
 40
1
 40
1
 40
1
 10
196.993764
 20
178.000547
 30
0.0
 10
196.993764
 20
180.209670
 30
0.0
 10
198.788652
 20
182.004575
 30
0.0
 10
200.997792
 20
182.004575
 30
0.0
  0
LWPOLYLINE
  5
278
100
AcDbEntity
  8
Cut
 62
7
100
AcDbPolyline
 90
2
 70
0
 10
200.997792
 20
187.499075
 30
0.0
 10
200.997792
 20
187.499075
 30
0.0
  0
SPLINE
  5
279
100
AcDbEntity
  8
Cut
 62
7
100
AcDbSpline
 70
8
 71
3
 72
8
 73
4
 74
0
 40
0
 40
0
 40
0
 40
0
 40
1
 40
1
 40
1
 40
1
 10
160.498903
 20
179.499853
 30
0.0
 10
161.327330
 20
179.499853
 30
0.0
 10
161.998209
 20
178.828954
 30
0.0
 10
161.998209
 20
178.000547
 30
0.0
  0
SPLINE
  5
27a
100
AcDbEntity
  8
Cut
 62
7
100
AcDbSpline
 70
8
 71
3
 72
8
 73
4
 74
0
 40
0
 40
0
 40
0
 40
0
 40
1
 40
1
 40
1
 40
1
 10
161.998209
 20
178.000547
 30
0.0
 10
161.998209
 20
177.172112
 30
0.0
 10
161.327330
 20
176.501242
 30
0.0
 10
160.498903
 20
176.501242
 30
0.0
  0
SPLINE
  5
27b
100
AcDbEntity
  8
Cut
 62
7
100
AcDbSpline
 70
8
 71
3
 72
8
 73
4
 74
0
 40
0
 40
0
 40
0
 40
0
 40
1
 40
1
 40
1
 40
1
 10
160.498903
 20
176.501242
 30
0.0
 10
159.670474
 20
176.501242
 30
0.0
 10
158.999597
 20
177.172112
 30
0.0
 10
158.999597
 20
178.000547
 30
0.0
  0
SPLINE
  5
27c
100
AcDbEntity
  8
Cut
 62
7
100
AcDbSpline
 70
8
 71
3
 72
8
 73
4
 74
0
 40
0
 40
0
 40
0
 40
0
 40
1
 40
1
 40
1
 40
1
 10
158.999597
 20
178.000547
 30
0.0
 10
158.999597
 20
178.828954
 30
0.0
 10
159.670474
 20
179.499853
 30
0.0
 10
160.498903
 20
179.499853
 30
0.0
  0
LWPOLYLINE
  5
27d
100
AcDbEntity
  8
Cut
 62
7
100
AcDbPolyline
 90
2
 70
0
 10
200.997792
 20
182.004575
 30
0.0
 10
200.997792
 20
182.004575
 30
0.0
  0
SPLINE
  5
27e
100
AcDbEntity
  8
Cut
 62
7
100
AcDbSpline
 70
8
 71
3
 72
8
 73
4
 74
0
 40
0
 40
0
 40
0
 40
0
 40
1
 40
1
 40
1
 40
1
 10
173.498764
 20
179.499853
 30
0.0
 10
174.327191
 20
179.499853
 30
0.0
 10
174.998070
 20
178.828954
 30
0.0
 10
174.998070
 20
178.000547
 30
0.0
  0
SPLINE
  5
27f
100
AcDbEntity
  8
Cut
 62
7
100
AcDbSpline
 70
8
 71
3
 72
8
 73
4
 74
0
 40
0
 40
0
 40
0
 40
0
 40
1
 40
1
 40
1
 40
1
 10
174.998070
 20
178.000547
 30
0.0
 10
174.998070
 20
177.172112
 30
0.0
 10
174.327191
 20
176.501242
 30
0.0
 10
173.498764
 20
176.501242
 30
0.0
  0
SPLINE
  5
280
100
AcDbEntity
  8
Cut
 62
7
100
AcDbSpline
 70
8
 71
3
 72
8
 73
4
 74
0
 40
0
 40
0
 40
0
 40
0
 40
1
 40
1
 40
1
 40
1
 10
173.498764
 20
176.501242
 30
0.0
 10
172.670335
 20
176.501242
 30
0.0
 10
171.999459
 20
177.172112
 30
0.0
 10
171.999459
 20
178.000547
 30
0.0
  0
SPLINE
  5
281
100
AcDbEntity
  8
Cut
 62
7
100
AcDbSpline
 70
8
 71
3
 72
8
 73
4
 74
0
 40
0
 40
0
 40
0
 40
0
 40
1
 40
1
 40
1
 40
1
 10
171.999459
 20
178.000547
 30
0.0
 10
171.999459
 20
178.828954
 30
0.0
 10
172.670335
 20
179.499853
 30
0.0
 10
173.498764
 20
179.499853
 30
0.0
  0
LWPOLYLINE
  5
282
100
AcDbEntity
  8
Cut
 62
7
100
AcDbPolyline
 90
2
 70
0
 10
160.498903
 20
179.499853
 30
0.0
 10
160.498903
 20
179.499853
 30
0.0
  0
SPLINE
  5
283
100
AcDbEntity
  8
Cut
 62
7
100
AcDbSpline
 70
8
 71
3
 72
8
 73
4
 74
0
 40
0
 40
0
 40
0
 40
0
 40
1
 40
1
 40
1
 40
1
 10
191.499250
 20
179.499853
 30
0.0
 10
192.327677
 20
179.499853
 30
0.0
 10
192.998556
 20
178.828954
 30
0.0
 10
192.998556
 20
178.000547
 30
0.0
  0
SPLINE
  5
284
100
AcDbEntity
  8
Cut
 62
7
100
AcDbSpline
 70
8
 71
3
 72
8
 73
4
 74
0
 40
0
 40
0
 40
0
 40
0
 40
1
 40
1
 40
1
 40
1
 10
192.998556
 20
178.000547
 30
0.0
 10
192.998556
 20
177.172112
 30
0.0
 10
192.327677
 20
176.501242
 30
0.0
 10
191.499250
 20
176.501242
 30
0.0
  0
SPLINE
  5
285
100
AcDbEntity
  8
Cut
 62
7
100
AcDbSpline
 70
8
 71
3
 72
8
 73
4
 74
0
 40
0
 40
0
 40
0
 40
0
 40
1
 40
1
 40
1
 40
1
 10
191.499250
 20
176.501242
 30
0.0
 10
190.670824
 20
176.501242
 30
0.0
 10
189.999945
 20
177.172112
 30
0.0
 10
189.999945
 20
178.000547
 30
0.0
  0
SPLINE
  5
286
100
AcDbEntity
  8
Cut
 62
7
100
AcDbSpline
 70
8
 71
3
 72
8
 73
4
 74
0
 40
0
 40
0
 40
0
 40
0
 40
1
 40
1
 40
1
 40
1
 10
189.999945
 20
178.000547
 30
0.0
 10
189.999945
 20
178.828954
 30
0.0
 10
190.670824
 20
179.499853
 30
0.0
 10
191.499250
 20
179.499853
 30
0.0
  0
LWPOLYLINE
  5
287
100
AcDbEntity
  8
Cut
 62
7
100
AcDbPolyline
 90
2
 70
0
 10
173.498764
 20
179.499853
 30
0.0
 10
173.498764
 20
179.499853
 30
0.0
  0
SPLINE
  5
288
100
AcDbEntity
  8
Cut
 62
7
100
AcDbSpline
 70
8
 71
3
 72
8
 73
4
 74
0
 40
0
 40
0
 40
0
 40
0
 40
1
 40
1
 40
1
 40
1
 10
210.496334
 20
179.499853
 30
0.0
 10
211.324760
 20
179.499853
 30
0.0
 10
211.995639
 20
178.828954
 30
0.0
 10
211.995639
 20
178.000547
 30
0.0
  0
SPLINE
  5
289
100
AcDbEntity
  8
Cut
 62
7
100
AcDbSpline
 70
8
 71
3
 72
8
 73
4
 74
0
 40
0
 40
0
 40
0
 40
0
 40
1
 40
1
 40
1
 40
1
 10
211.995639
 20
178.000547
 30
0.0
 10
211.995639
 20
177.172112
 30
0.0
 10
211.324760
 20
176.501242
 30
0.0
 10
210.496334
 20
176.501242
 30
0.0
  0
SPLINE
  5
28a
100
AcDbEntity
  8
Cut
 62
7
100
AcDbSpline
 70
8
 71
3
 72
8
 73
4
 74
0
 40
0
 40
0
 40
0
 40
0
 40
1
 40
1
 40
1
 40
1
 10
210.496334
 20
176.501242
 30
0.0
 10
209.667907
 20
176.501242
 30
0.0
 10
208.997028
 20
177.172112
 30
0.0
 10
208.997028
 20
178.000547
 30
0.0
  0
SPLINE
  5
28b
100
AcDbEntity
  8
Cut
 62
7
100
AcDbSpline
 70
8
 71
3
 72
8
 73
4
 74
0
 40
0
 40
0
 40
0
 40
0
 40
1
 40
1
 40
1
 40
1
 10
208.997028
 20
178.000547
 30
0.0
 10
208.997028
 20
178.828954
 30
0.0
 10
209.667907
 20
179.499853
 30
0.0
 10
210.496334
 20
179.499853
 30
0.0
  0
LWPOLYLINE
  5
28c
100
AcDbEntity
  8
Cut
 62
7
100
AcDbPolyline
 90
2
 70
0
 10
191.499250
 20
179.499853
 30
0.0
 10
191.499250
 20
179.499853
 30
0.0
  0
SPLINE
  5
28d
100
AcDbEntity
  8
Cut
 62
7
100
AcDbSpline
 70
8
 71
3
 72
8
 73
4
 74
0
 40
0
 40
0
 40
0
 40
0
 40
1
 40
1
 40
1
 40
1
 10
219.509806
 20
179.235269
 30
0.0
 10
220.199467
 20
179.235269
 30
0.0
 10
220.753347
 20
178.681380
 30
0.0
 10
220.753347
 20
177.991742
 30
0.0
  0
SPLINE
  5
28e
100
AcDbEntity
  8
Cut
 62
7
100
AcDbSpline
 70
8
 71
3
 72
8
 73
4
 74
0
 40
0
 40
0
 40
0
 40
0
 40
1
 40
1
 40
1
 40
1
 10
220.753347
 20
177.991742
 30
0.0
 10
220.753347
 20
177.302019
 30
0.0
 10
220.199467
 20
176.748186
 30
0.0
 10
219.509806
 20
176.748186
 30
0.0
  0
SPLINE
  5
28f
100
AcDbEntity
  8
Cut
 62
7
100
AcDbSpline
 70
8
 71
3
 72
8
 73
4
 74
0
 40
0
 40
0
 40
0
 40
0
 40
1
 40
1
 40
1
 40
1
 10
219.509806
 20
176.748186
 30
0.0
 10
218.820145
 20
176.748186
 30
0.0
 10
218.248625
 20
177.302019
 30
0.0
 10
218.248625
 20
177.991742
 30
0.0
  0
SPLINE
  5
290
100
AcDbEntity
  8
Cut
 62
7
100
AcDbSpline
 70
8
 71
3
 72
8
 73
4
 74
0
 40
0
 40
0
 40
0
 40
0
 40
1
 40
1
 40
1
 40
1
 10
218.248625
 20
177.991742
 30
0.0
 10
218.248625
 20
178.681380
 30
0.0
 10
218.820145
 20
179.235269
 30
0.0
 10
219.509806
 20
179.235269
 30
0.0
  0
LWPOLYLINE
  5
291
100
AcDbEntity
  8
Cut
 62
7
100
AcDbPolyline
 90
2
 70
0
 10
210.496334
 20
179.499853
 30
0.0
 10
210.496334
 20
179.499853
 30
0.0
  0
SPLINE
  5
292
100
AcDbEntity
  8
Cut
 62
7
100
AcDbSpline
 70
8
 71
3
 72
8
 73
4
 74
0
 40
0
 40
0
 40
0
 40
0
 40
1
 40
1
 40
1
 40
1
 10
200.997792
 20
171.500631
 30
0.0
 10
201.826219
 20
171.500631
 30
0.0
 10
202.497097
 20
170.829760
 30
0.0
 10
202.497097
 20
170.001297
 30
0.0
  0
SPLINE
  5
293
100
AcDbEntity
  8
Cut
 62
7
100
AcDbSpline
 70
8
 71
3
 72
8
 73
4
 74
0
 40
0
 40
0
 40
0
 40
0
 40
1
 40
1
 40
1
 40
1
 10
202.497097
 20
170.001297
 30
0.0
 10
202.497097
 20
169.172890
 30
0.0
 10
201.826219
 20
168.502020
 30
0.0
 10
200.997792
 20
168.502020
 30
0.0
  0
SPLINE
  5
294
100
AcDbEntity
  8
Cut
 62
7
100
AcDbSpline
 70
8
 71
3
 72
8
 73
4
 74
0
 40
0
 40
0
 40
0
 40
0
 40
1
 40
1
 40
1
 40
1
 10
200.997792
 20
168.502020
 30
0.0
 10
200.169365
 20
168.502020
 30
0.0
 10
199.498486
 20
169.172890
 30
0.0
 10
199.498486
 20
170.001297
 30
0.0
  0
SPLINE
  5
295
100
AcDbEntity
  8
Cut
 62
7
100
AcDbSpline
 70
8
 71
3
 72
8
 73
4
 74
0
 40
0
 40
0
 40
0
 40
0
 40
1
 40
1
 40
1
 40
1
 10
199.498486
 20
170.001297
 30
0.0
 10
199.498486
 20
170.829760
 30
0.0
 10
200.169365
 20
171.500631
 30
0.0
 10
200.997792
 20
171.500631
 30
0.0
  0
LWPOLYLINE
  5
296
100
AcDbEntity
  8
Cut
 62
7
100
AcDbPolyline
 90
2
 70
0
 10
219.509806
 20
179.235269
 30
0.0
 10
219.509806
 20
179.235269
 30
0.0
  0
SPLINE
  5
297
100
AcDbEntity
  8
Cut
 62
7
100
AcDbSpline
 70
8
 71
3
 72
8
 73
4
 74
0
 40
0
 40
0
 40
0
 40
0
 40
1
 40
1
 40
1
 40
1
 10
201.006597
 20
160.732075
 30
0.0
 10
201.696258
 20
160.732075
 30
0.0
 10
202.250139
 20
160.178242
 30
0.0
 10
202.250139
 20
159.488519
 30
0.0
  0
SPLINE
  5
298
100
AcDbEntity
  8
Cut
 62
7
100
AcDbSpline
 70
8
 71
3
 72
8
 73
4
 74
0
 40
0
 40
0
 40
0
 40
0
 40
1
 40
1
 40
1
 40
1
 10
202.250139
 20
159.488519
 30
0.0
 10
202.250139
 20
158.798881
 30
0.0
 10
201.696258
 20
158.244992
 30
0.0
 10
201.006597
 20
158.244992
 30
0.0
  0
SPLINE
  5
299
100
AcDbEntity
  8
Cut
 62
7
100
AcDbSpline
 70
8
 71
3
 72
8
 73
4
 74
0
 40
0
 40
0
 40
0
 40
0
 40
1
 40
1
 40
1
 40
1
 10
201.006597
 20
158.244992
 30
0.0
 10
200.316936
 20
158.244992
 30
0.0
 10
199.745417
 20
158.798881
 30
0.0
 10
199.745417
 20
159.488519
 30
0.0
  0
SPLINE
  5
29a
100
AcDbEntity
  8
Cut
 62
7
100
AcDbSpline
 70
8
 71
3
 72
8
 73
4
 74
0
 40
0
 40
0
 40
0
 40
0
 40
1
 40
1
 40
1
 40
1
 10
199.745417
 20
159.488519
 30
0.0
 10
199.745417
 20
160.178242
 30
0.0
 10
200.316936
 20
160.732075
 30
0.0
 10
201.006597
 20
160.732075
 30
0.0
  0
LWPOLYLINE
  5
29b
100
AcDbEntity
  8
Cut
 62
7
100
AcDbPolyline
 90
2
 70
0
 10
200.997792
 20
171.500631
 30
0.0
 10
200.997792
 20
171.500631
 30
0.0
  0
SPLINE
  5
29c
100
AcDbEntity
  8
Cut
 62
7
100
AcDbSpline
 70
8
 71
3
 72
8
 73
4
 74
0
 40
0
 40
0
 40
0
 40
0
 40
1
 40
1
 40
1
 40
1
 10
140.999097
 20
229.999992
 30
0.0
 10
129.795572
 20
229.999992
 30
0.0
 10
120.000000
 20
219.593075
 30
0.0
 10
120.000000
 20
207.995464
 30
0.0
  0
SPLINE
  5
29d
100
AcDbEntity
  8
Cut
 62
7
100
AcDbSpline
 70
8
 71
3
 72
8
 73
4
 74
0
 40
0
 40
0
 40
0
 40
0
 40
1
 40
1
 40
1
 40
1
 10
120.000000
 20
207.995464
 30
0.0
 10
120.000000
 20
196.396469
 30
0.0
 10
129.795572
 20
185.999797
 30
0.0
 10
140.999097
 20
185.999797
 30
0.0
  0
SPLINE
  5
29e
100
AcDbEntity
  8
Cut
 62
7
100
AcDbSpline
 70
8
 71
3
 72
8
 73
4
 74
0
 40
0
 40
0
 40
0
 40
0
 40
1
 40
1
 40
1
 40
1
 10
140.999097
 20
185.999797
 30
0.0
 10
152.202625
 20
185.999797
 30
0.0
 10
192.001944
 20
197.495470
 30
0.0
 10
192.001944
 20
207.995464
 30
0.0
  0
SPLINE
  5
29f
100
AcDbEntity
  8
Cut
 62
7
100
AcDbSpline
 70
8
 71
3
 72
8
 73
4
 74
0
 40
0
 40
0
 40
0
 40
0
 40
1
 40
1
 40
1
 40
1
 10
192.001944
 20
207.995464
 30
0.0
 10
192.001944
 20
218.495485
 30
0.0
 10
152.202625
 20
229.999992
 30
0.0
 10
140.999097
 20
229.999992
 30
0.0
  0
LWPOLYLINE
  5
2a0
100
AcDbEntity
  8
Cut
 62
7
100
AcDbPolyline
 90
2
 70
0
 10
201.006597
 20
160.732075
 30
0.0
 10
201.006597
 20
160.732075
 30
0.0
  0
SPLINE
  5
2a1
100
AcDbEntity
  8
Cut
 62
7
100
AcDbSpline
 70
8
 71
3
 72
8
 73
4
 74
0
 40
0
 40
0
 40
0
 40
0
 40
1
 40
1
 40
1
 40
1
 10
141.845764
 20
227.997964
 30
0.0
 10
141.896189
 20
228.003044
 30
0.0
 10
141.943918
 20
227.997964
 30
0.0
 10
141.995694
 20
227.997964
 30
0.0
  0
SPLINE
  5
2a2
100
AcDbEntity
  8
Cut
 62
7
100
AcDbSpline
 70
8
 71
3
 72
8
 73
4
 74
0
 40
0
 40
0
 40
0
 40
0
 40
1
 40
1
 40
1
 40
1
 10
141.995694
 20
227.997964
 30
0.0
 10
142.824118
 20
227.997964
 30
0.0
 10
143.495000
 20
227.327121
 30
0.0
 10
143.495000
 20
226.498686
 30
0.0
  0
SPLINE
  5
2a3
100
AcDbEntity
  8
Cut
 62
7
100
AcDbSpline
 70
8
 71
3
 72
8
 73
4
 74
0
 40
0
 40
0
 40
0
 40
0
 40
1
 40
1
 40
1
 40
1
 10
143.495000
 20
226.498686
 30
0.0
 10
143.495000
 20
225.670251
 30
0.0
 10
142.824118
 20
224.999352
 30
0.0
 10
141.995694
 20
224.999352
 30
0.0
  0
SPLINE
  5
2a4
100
AcDbEntity
  8
Cut
 62
7
100
AcDbSpline
 70
8
 71
3
 72
8
 73
4
 74
0
 40
0
 40
0
 40
0
 40
0
 40
1
 40
1
 40
1
 40
1
 10
141.995694
 20
224.999352
 30
0.0
 10
141.167265
 20
224.999352
 30
0.0
 10
140.496389
 20
225.670251
 30
0.0
 10
140.496389
 20
226.498686
 30
0.0
  0
SPLINE
  5
2a5
100
AcDbEntity
  8
Cut
 62
7
100
AcDbSpline
 70
8
 71
3
 72
8
 73
4
 74
0
 40
0
 40
0
 40
0
 40
0
 40
1
 40
1
 40
1
 40
1
 10
140.496389
 20
226.498686
 30
0.0
 10
140.496389
 20
227.275334
 30
0.0
 10
141.089377
 20
227.921171
 30
0.0
 10
141.845764
 20
227.997964
 30
0.0
  0
LWPOLYLINE
  5
2a6
100
AcDbEntity
  8
Cut
 62
7
100
AcDbPolyline
 90
2
 70
0
 10
140.999097
 20
229.999992
 30
0.0
 10
140.999097
 20
229.999992
 30
0.0
  0
SPLINE
  5
2a7
100
AcDbEntity
  8
Cut
 62
7
100
AcDbSpline
 70
8
 71
3
 72
8
 73
4
 74
0
 40
0
 40
0
 40
0
 40
0
 40
1
 40
1
 40
1
 40
1
 10
141.995694
 20
222.997353
 30
0.0
 10
150.279967
 20
222.997353
 30
0.0
 10
156.997569
 20
216.279674
 30
0.0
 10
156.997569
 20
207.995464
 30
0.0
  0
SPLINE
  5
2a8
100
AcDbEntity
  8
Cut
 62
7
100
AcDbSpline
 70
8
 71
3
 72
8
 73
4
 74
0
 40
0
 40
0
 40
0
 40
0
 40
1
 40
1
 40
1
 40
1
 10
156.997569
 20
207.995464
 30
0.0
 10
156.997569
 20
199.711169
 30
0.0
 10
150.279967
 20
193.002408
 30
0.0
 10
141.995694
 20
193.002408
 30
0.0
  0
SPLINE
  5
2a9
100
AcDbEntity
  8
Cut
 62
7
100
AcDbSpline
 70
8
 71
3
 72
8
 73
4
 74
0
 40
0
 40
0
 40
0
 40
0
 40
1
 40
1
 40
1
 40
1
 10
141.995694
 20
193.002408
 30
0.0
 10
133.711422
 20
193.002408
 30
0.0
 10
126.993819
 20
199.711169
 30
0.0
 10
126.993819
 20
207.995464
 30
0.0
  0
SPLINE
  5
2aa
100
AcDbEntity
  8
Cut
 62
7
100
AcDbSpline
 70
8
 71
3
 72
8
 73
4
 74
0
 40
0
 40
0
 40
0
 40
0
 40
1
 40
1
 40
1
 40
1
 10
126.993819
 20
207.995464
 30
0.0
 10
126.993819
 20
216.279674
 30
0.0
 10
133.711422
 20
222.997353
 30
0.0
 10
141.995694
 20
222.997353
 30
0.0
  0
LWPOLYLINE
  5
2ab
100
AcDbEntity
  8
Cut
 62
7
100
AcDbPolyline
 90
2
 70
0
 10
141.845764
 20
227.997964
 30
0.0
 10
141.845764
 20
227.997964
 30
0.0
  0
SPLINE
  5
2ac
100
AcDbEntity
  8
Cut
 62
7
100
AcDbSpline
 70
8
 71
3
 72
8
 73
4
 74
0
 40
0
 40
0
 40
0
 40
0
 40
1
 40
1
 40
1
 40
1
 10
123.351389
 20
209.494797
 30
0.0
 10
123.401814
 20
209.499877
 30
0.0
 10
123.449543
 20
209.494797
 30
0.0
 10
123.501319
 20
209.494797
 30
0.0
  0
SPLINE
  5
2ad
100
AcDbEntity
  8
Cut
 62
7
100
AcDbSpline
 70
8
 71
3
 72
8
 73
4
 74
0
 40
0
 40
0
 40
0
 40
0
 40
1
 40
1
 40
1
 40
1
 10
123.501319
 20
209.494797
 30
0.0
 10
124.329743
 20
209.494797
 30
0.0
 10
125.000625
 20
208.823927
 30
0.0
 10
125.000625
 20
207.995464
 30
0.0
  0
SPLINE
  5
2ae
100
AcDbEntity
  8
Cut
 62
7
100
AcDbSpline
 70
8
 71
3
 72
8
 73
4
 74
0
 40
0
 40
0
 40
0
 40
0
 40
1
 40
1
 40
1
 40
1
 10
125.000625
 20
207.995464
 30
0.0
 10
125.000625
 20
207.167057
 30
0.0
 10
124.329743
 20
206.496186
 30
0.0
 10
123.501319
 20
206.496186
 30
0.0
  0
SPLINE
  5
2af
100
AcDbEntity
  8
Cut
 62
7
100
AcDbSpline
 70
8
 71
3
 72
8
 73
4
 74
0
 40
0
 40
0
 40
0
 40
0
 40
1
 40
1
 40
1
 40
1
 10
123.501319
 20
206.496186
 30
0.0
 10
122.672890
 20
206.496186
 30
0.0
 10
122.002014
 20
207.167057
 30
0.0
 10
122.002014
 20
207.995464
 30
0.0
  0
SPLINE
  5
2b0
100
AcDbEntity
  8
Cut
 62
7
100
AcDbSpline
 70
8
 71
3
 72
8
 73
4
 74
0
 40
0
 40
0
 40
0
 40
0
 40
1
 40
1
 40
1
 40
1
 10
122.002014
 20
207.995464
 30
0.0
 10
122.002014
 20
208.772139
 30
0.0
 10
122.595002
 20
209.417976
 30
0.0
 10
123.351389
 20
209.494797
 30
0.0
  0
LWPOLYLINE
  5
2b1
100
AcDbEntity
  8
Cut
 62
7
100
AcDbPolyline
 90
2
 70
0
 10
141.995694
 20
222.997353
 30
0.0
 10
141.995694
 20
222.997353
 30
0.0
  0
SPLINE
  5
2b2
100
AcDbEntity
  8
Cut
 62
7
100
AcDbSpline
 70
8
 71
3
 72
8
 73
4
 74
0
 40
0
 40
0
 40
0
 40
0
 40
1
 40
1
 40
1
 40
1
 10
169.344792
 20
209.494797
 30
0.0
 10
169.395216
 20
209.499877
 30
0.0
 10
169.442946
 20
209.494797
 30
0.0
 10
169.494722
 20
209.494797
 30
0.0
  0
SPLINE
  5
2b3
100
AcDbEntity
  8
Cut
 62
7
100
AcDbSpline
 70
8
 71
3
 72
8
 73
4
 74
0
 40
0
 40
0
 40
0
 40
0
 40
1
 40
1
 40
1
 40
1
 10
169.494722
 20
209.494797
 30
0.0
 10
170.323152
 20
209.494797
 30
0.0
 10
170.994028
 20
208.823899
 30
0.0
 10
170.994028
 20
207.995464
 30
0.0
  0
SPLINE
  5
2b4
100
AcDbEntity
  8
Cut
 62
7
100
AcDbSpline
 70
8
 71
3
 72
8
 73
4
 74
0
 40
0
 40
0
 40
0
 40
0
 40
1
 40
1
 40
1
 40
1
 10
170.994028
 20
207.995464
 30
0.0
 10
170.994028
 20
207.167057
 30
0.0
 10
170.323152
 20
206.496186
 30
0.0
 10
169.494722
 20
206.496186
 30
0.0
  0
SPLINE
  5
2b5
100
AcDbEntity
  8
Cut
 62
7
100
AcDbSpline
 70
8
 71
3
 72
8
 73
4
 74
0
 40
0
 40
0
 40
0
 40
0
 40
1
 40
1
 40
1
 40
1
 10
169.494722
 20
206.496186
 30
0.0
 10
168.666296
 20
206.496186
 30
0.0
 10
167.995417
 20
207.167057
 30
0.0
 10
167.995417
 20
207.995464
 30
0.0
  0
SPLINE
  5
2b6
100
AcDbEntity
  8
Cut
 62
7
100
AcDbSpline
 70
8
 71
3
 72
8
 73
4
 74
0
 40
0
 40
0
 40
0
 40
0
 40
1
 40
1
 40
1
 40
1
 10
167.995417
 20
207.995464
 30
0.0
 10
167.995417
 20
208.772111
 30
0.0
 10
168.588408
 20
209.417976
 30
0.0
 10
169.344792
 20
209.494797
 30
0.0
  0
LWPOLYLINE
  5
2b7
100
AcDbEntity
  8
Cut
 62
7
100
AcDbPolyline
 90
2
 70
0
 10
123.351389
 20
209.494797
 30
0.0
 10
123.351389
 20
209.494797
 30
0.0
  0
SPLINE
  5
2b8
100
AcDbEntity
  8
Cut
 62
7
100
AcDbSpline
 70
8
 71
3
 72
8
 73
4
 74
0
 40
0
 40
0
 40
0
 40
0
 40
1
 40
1
 40
1
 40
1
 10
182.344653
 20
209.494797
 30
0.0
 10
182.395077
 20
209.499877
 30
0.0
 10
182.442807
 20
209.494797
 30
0.0
 10
182.494583
 20
209.494797
 30
0.0
  0
SPLINE
  5
2b9
100
AcDbEntity
  8
Cut
 62
7
100
AcDbSpline
 70
8
 71
3
 72
8
 73
4
 74
0
 40
0
 40
0
 40
0
 40
0
 40
1
 40
1
 40
1
 40
1
 10
182.494583
 20
209.494797
 30
0.0
 10
183.323013
 20
209.494797
 30
0.0
 10
183.993889
 20
208.823899
 30
0.0
 10
183.993889
 20
207.995464
 30
0.0
  0
SPLINE
  5
2ba
100
AcDbEntity
  8
Cut
 62
7
100
AcDbSpline
 70
8
 71
3
 72
8
 73
4
 74
0
 40
0
 40
0
 40
0
 40
0
 40
1
 40
1
 40
1
 40
1
 10
183.993889
 20
207.995464
 30
0.0
 10
183.993889
 20
207.167057
 30
0.0
 10
183.323013
 20
206.496186
 30
0.0
 10
182.494583
 20
206.496186
 30
0.0
  0
SPLINE
  5
2bb
100
AcDbEntity
  8
Cut
 62
7
100
AcDbSpline
 70
8
 71
3
 72
8
 73
4
 74
0
 40
0
 40
0
 40
0
 40
0
 40
1
 40
1
 40
1
 40
1
 10
182.494583
 20
206.496186
 30
0.0
 10
181.666157
 20
206.496186
 30
0.0
 10
180.995278
 20
207.167057
 30
0.0
 10
180.995278
 20
207.995464
 30
0.0
  0
SPLINE
  5
2bc
100
AcDbEntity
  8
Cut
 62
7
100
AcDbSpline
 70
8
 71
3
 72
8
 73
4
 74
0
 40
0
 40
0
 40
0
 40
0
 40
1
 40
1
 40
1
 40
1
 10
180.995278
 20
207.995464
 30
0.0
 10
180.995278
 20
208.772111
 30
0.0
 10
181.588269
 20
209.417976
 30
0.0
 10
182.344653
 20
209.494797
 30
0.0
  0
LWPOLYLINE
  5
2bd
100
AcDbEntity
  8
Cut
 62
7
100
AcDbPolyline
 90
2
 70
0
 10
169.344792
 20
209.494797
 30
0.0
 10
169.344792
 20
209.494797
 30
0.0
  0
SPLINE
  5
2be
100
AcDbEntity
  8
Cut
 62
7
100
AcDbSpline
 70
8
 71
3
 72
8
 73
4
 74
0
 40
0
 40
0
 40
0
 40
0
 40
1
 40
1
 40
1
 40
1
 10
141.845764
 20
191.000408
 30
0.0
 10
141.896189
 20
191.005488
 30
0.0
 10
141.943918
 20
191.000408
 30
0.0
 10
141.995694
 20
191.000408
 30
0.0
  0
SPLINE
  5
2bf
100
AcDbEntity
  8
Cut
 62
7
100
AcDbSpline
 70
8
 71
3
 72
8
 73
4
 74
0
 40
0
 40
0
 40
0
 40
0
 40
1
 40
1
 40
1
 40
1
 10
141.995694
 20
191.000408
 30
0.0
 10
142.824118
 20
191.000408
 30
0.0
 10
143.495000
 20
190.329566
 30
0.0
 10
143.495000
 20
189.501103
 30
0.0
  0
SPLINE
  5
2c0
100
AcDbEntity
  8
Cut
 62
7
100
AcDbSpline
 70
8
 71
3
 72
8
 73
4
 74
0
 40
0
 40
0
 40
0
 40
0
 40
1
 40
1
 40
1
 40
1
 10
143.495000
 20
189.501103
 30
0.0
 10
143.495000
 20
188.672696
 30
0.0
 10
142.824118
 20
188.001797
 30
0.0
 10
141.995694
 20
188.001797
 30
0.0
  0
SPLINE
  5
2c1
100
AcDbEntity
  8
Cut
 62
7
100
AcDbSpline
 70
8
 71
3
 72
8
 73
4
 74
0
 40
0
 40
0
 40
0
 40
0
 40
1
 40
1
 40
1
 40
1
 10
141.995694
 20
188.001797
 30
0.0
 10
141.167265
 20
188.001797
 30
0.0
 10
140.496389
 20
188.672696
 30
0.0
 10
140.496389
 20
189.501103
 30
0.0
  0
SPLINE
  5
2c2
100
AcDbEntity
  8
Cut
 62
7
100
AcDbSpline
 70
8
 71
3
 72
8
 73
4
 74
0
 40
0
 40
0
 40
0
 40
0
 40
1
 40
1
 40
1
 40
1
 10
140.496389
 20
189.501103
 30
0.0
 10
140.496389
 20
190.277778
 30
0.0
 10
141.089377
 20
190.923587
 30
0.0
 10
141.845764
 20
191.000408
 30
0.0
  0
LWPOLYLINE
  5
2c3
100
AcDbEntity
  8
Cut
 62
7
100
AcDbPolyline
 90
2
 70
0
 10
182.344653
 20
209.494797
 30
0.0
 10
182.344653
 20
209.494797
 30
0.0
  0
SPLINE
  5
2c4
100
AcDbEntity
  8
Cut
 62
7
100
AcDbSpline
 70
8
 71
3
 72
8
 73
4
 74
0
 40
0
 40
0
 40
0
 40
0
 40
1
 40
1
 40
1
 40
1
 10
202.003194
 20
139.996240
 30
0.0
 10
190.799666
 20
139.996240
 30
0.0
 10
151.000347
 20
128.500539
 30
0.0
 10
151.000347
 20
118.000546
 30
0.0
  0
SPLINE
  5
2c5
100
AcDbEntity
  8
Cut
 62
7
100
AcDbSpline
 70
8
 71
3
 72
8
 73
4
 74
0
 40
0
 40
0
 40
0
 40
0
 40
1
 40
1
 40
1
 40
1
 10
151.000347
 20
118.000546
 30
0.0
 10
151.000347
 20
107.500524
 30
0.0
 10
190.799666
 20
95.996018
 30
0.0
 10
202.003194
 20
95.996018
 30
0.0
  0
SPLINE
  5
2c6
100
AcDbEntity
  8
Cut
 62
7
100
AcDbSpline
 70
8
 71
3
 72
8
 73
4
 74
0
 40
0
 40
0
 40
0
 40
0
 40
1
 40
1
 40
1
 40
1
 10
202.003194
 20
95.996018
 30
0.0
 10
213.206720
 20
95.996018
 30
0.0
 10
223.002292
 20
106.401523
 30
0.0
 10
223.002292
 20
118.000546
 30
0.0
  0
SPLINE
  5
2c7
100
AcDbEntity
  8
Cut
 62
7
100
AcDbSpline
 70
8
 71
3
 72
8
 73
4
 74
0
 40
0
 40
0
 40
0
 40
0
 40
1
 40
1
 40
1
 40
1
 10
223.002292
 20
118.000546
 30
0.0
 10
223.002292
 20
129.598129
 30
0.0
 10
213.206720
 20
139.996240
 30
0.0
 10
202.003194
 20
139.996240
 30
0.0
  0
LWPOLYLINE
  5
2c8
100
AcDbEntity
  8
Cut
 62
7
100
AcDbPolyline
 90
2
 70
0
 10
141.845764
 20
191.000408
 30
0.0
 10
141.845764
 20
191.000408
 30
0.0
  0
SPLINE
  5
2c9
100
AcDbEntity
  8
Cut
 62
7
100
AcDbSpline
 70
8
 71
3
 72
8
 73
4
 74
0
 40
0
 40
0
 40
0
 40
0
 40
1
 40
1
 40
1
 40
1
 10
201.006597
 20
137.738462
 30
0.0
 10
201.696258
 20
137.738462
 30
0.0
 10
202.250139
 20
137.184630
 30
0.0
 10
202.250139
 20
136.494907
 30
0.0
  0
SPLINE
  5
2ca
100
AcDbEntity
  8
Cut
 62
7
100
AcDbSpline
 70
8
 71
3
 72
8
 73
4
 74
0
 40
0
 40
0
 40
0
 40
0
 40
1
 40
1
 40
1
 40
1
 10
202.250139
 20
136.494907
 30
0.0
 10
202.250139
 20
135.805240
 30
0.0
 10
201.696258
 20
135.251379
 30
0.0
 10
201.006597
 20
135.251379
 30
0.0
  0
SPLINE
  5
2cb
100
AcDbEntity
  8
Cut
 62
7
100
AcDbSpline
 70
8
 71
3
 72
8
 73
4
 74
0
 40
0
 40
0
 40
0
 40
0
 40
1
 40
1
 40
1
 40
1
 10
201.006597
 20
135.251379
 30
0.0
 10
200.316936
 20
135.251379
 30
0.0
 10
199.745417
 20
135.805240
 30
0.0
 10
199.745417
 20
136.494907
 30
0.0
  0
SPLINE
  5
2cc
100
AcDbEntity
  8
Cut
 62
7
100
AcDbSpline
 70
8
 71
3
 72
8
 73
4
 74
0
 40
0
 40
0
 40
0
 40
0
 40
1
 40
1
 40
1
 40
1
 10
199.745417
 20
136.494907
 30
0.0
 10
199.745417
 20
137.184630
 30
0.0
 10
200.316936
 20
137.738462
 30
0.0
 10
201.006597
 20
137.738462
 30
0.0
  0
LWPOLYLINE
  5
2cd
100
AcDbEntity
  8
Cut
 62
7
100
AcDbPolyline
 90
2
 70
0
 10
202.003194
 20
139.996240
 30
0.0
 10
202.003194
 20
139.996240
 30
0.0
  0
SPLINE
  5
2ce
100
AcDbEntity
  8
Cut
 62
7
100
AcDbSpline
 70
8
 71
3
 72
8
 73
4
 74
0
 40
0
 40
0
 40
0
 40
0
 40
1
 40
1
 40
1
 40
1
 10
200.997792
 20
127.499073
 30
0.0
 10
201.826219
 20
127.499073
 30
0.0
 10
202.497097
 20
126.828203
 30
0.0
 10
202.497097
 20
125.999796
 30
0.0
  0
SPLINE
  5
2cf
100
AcDbEntity
  8
Cut
 62
7
100
AcDbSpline
 70
8
 71
3
 72
8
 73
4
 74
0
 40
0
 40
0
 40
0
 40
0
 40
1
 40
1
 40
1
 40
1
 10
202.497097
 20
125.999796
 30
0.0
 10
202.497097
 20
125.171333
 30
0.0
 10
201.826219
 20
124.500462
 30
0.0
 10
200.997792
 20
124.500462
 30
0.0
  0
SPLINE
  5
2d0
100
AcDbEntity
  8
Cut
 62
7
100
AcDbSpline
 70
8
 71
3
 72
8
 73
4
 74
0
 40
0
 40
0
 40
0
 40
0
 40
1
 40
1
 40
1
 40
1
 10
200.997792
 20
124.500462
 30
0.0
 10
200.169365
 20
124.500462
 30
0.0
 10
199.498486
 20
125.171333
 30
0.0
 10
199.498486
 20
125.999796
 30
0.0
  0
SPLINE
  5
2d1
100
AcDbEntity
  8
Cut
 62
7
100
AcDbSpline
 70
8
 71
3
 72
8
 73
4
 74
0
 40
0
 40
0
 40
0
 40
0
 40
1
 40
1
 40
1
 40
1
 10
199.498486
 20
125.999796
 30
0.0
 10
199.498486
 20
126.828203
 30
0.0
 10
200.169365
 20
127.499073
 30
0.0
 10
200.997792
 20
127.499073
 30
0.0
  0
LWPOLYLINE
  5
2d2
100
AcDbEntity
  8
Cut
 62
7
100
AcDbPolyline
 90
2
 70
0
 10
201.006597
 20
137.738462
 30
0.0
 10
201.006597
 20
137.738462
 30
0.0
  0
SPLINE
  5
2d3
100
AcDbEntity
  8
Cut
 62
7
100
AcDbSpline
 70
8
 71
3
 72
8
 73
4
 74
0
 40
0
 40
0
 40
0
 40
0
 40
1
 40
1
 40
1
 40
1
 10
200.997792
 20
122.004574
 30
0.0
 10
203.206931
 20
122.004574
 30
0.0
 10
204.993000
 20
120.209668
 30
0.0
 10
204.993000
 20
118.000546
 30
0.0
  0
SPLINE
  5
2d4
100
AcDbEntity
  8
Cut
 62
7
100
AcDbSpline
 70
8
 71
3
 72
8
 73
4
 74
0
 40
0
 40
0
 40
0
 40
0
 40
1
 40
1
 40
1
 40
1
 10
204.993000
 20
118.000546
 30
0.0
 10
204.993000
 20
115.791338
 30
0.0
 10
203.206931
 20
113.996518
 30
0.0
 10
200.997792
 20
113.996518
 30
0.0
  0
SPLINE
  5
2d5
100
AcDbEntity
  8
Cut
 62
7
100
AcDbSpline
 70
8
 71
3
 72
8
 73
4
 74
0
 40
0
 40
0
 40
0
 40
0
 40
1
 40
1
 40
1
 40
1
 10
200.997792
 20
113.996518
 30
0.0
 10
198.788652
 20
113.996518
 30
0.0
 10
196.993764
 20
115.791338
 30
0.0
 10
196.993764
 20
118.000546
 30
0.0
  0
SPLINE
  5
2d6
100
AcDbEntity
  8
Cut
 62
7
100
AcDbSpline
 70
8
 71
3
 72
8
 73
4
 74
0
 40
0
 40
0
 40
0
 40
0
 40
1
 40
1
 40
1
 40
1
 10
196.993764
 20
118.000546
 30
0.0
 10
196.993764
 20
120.209668
 30
0.0
 10
198.788652
 20
122.004574
 30
0.0
 10
200.997792
 20
122.004574
 30
0.0
  0
LWPOLYLINE
  5
2d7
100
AcDbEntity
  8
Cut
 62
7
100
AcDbPolyline
 90
2
 70
0
 10
200.997792
 20
127.499073
 30
0.0
 10
200.997792
 20
127.499073
 30
0.0
  0
SPLINE
  5
2d8
100
AcDbEntity
  8
Cut
 62
7
100
AcDbSpline
 70
8
 71
3
 72
8
 73
4
 74
0
 40
0
 40
0
 40
0
 40
0
 40
1
 40
1
 40
1
 40
1
 10
160.498903
 20
119.499851
 30
0.0
 10
161.327330
 20
119.499851
 30
0.0
 10
161.998209
 20
118.828953
 30
0.0
 10
161.998209
 20
118.000546
 30
0.0
  0
SPLINE
  5
2d9
100
AcDbEntity
  8
Cut
 62
7
100
AcDbSpline
 70
8
 71
3
 72
8
 73
4
 74
0
 40
0
 40
0
 40
0
 40
0
 40
1
 40
1
 40
1
 40
1
 10
161.998209
 20
118.000546
 30
0.0
 10
161.998209
 20
117.172111
 30
0.0
 10
161.327330
 20
116.501240
 30
0.0
 10
160.498903
 20
116.501240
 30
0.0
  0
SPLINE
  5
2da
100
AcDbEntity
  8
Cut
 62
7
100
AcDbSpline
 70
8
 71
3
 72
8
 73
4
 74
0
 40
0
 40
0
 40
0
 40
0
 40
1
 40
1
 40
1
 40
1
 10
160.498903
 20
116.501240
 30
0.0
 10
159.670474
 20
116.501240
 30
0.0
 10
158.999597
 20
117.172111
 30
0.0
 10
158.999597
 20
118.000546
 30
0.0
  0
SPLINE
  5
2db
100
AcDbEntity
  8
Cut
 62
7
100
AcDbSpline
 70
8
 71
3
 72
8
 73
4
 74
0
 40
0
 40
0
 40
0
 40
0
 40
1
 40
1
 40
1
 40
1
 10
158.999597
 20
118.000546
 30
0.0
 10
158.999597
 20
118.828953
 30
0.0
 10
159.670474
 20
119.499851
 30
0.0
 10
160.498903
 20
119.499851
 30
0.0
  0
LWPOLYLINE
  5
2dc
100
AcDbEntity
  8
Cut
 62
7
100
AcDbPolyline
 90
2
 70
0
 10
200.997792
 20
122.004574
 30
0.0
 10
200.997792
 20
122.004574
 30
0.0
  0
SPLINE
  5
2dd
100
AcDbEntity
  8
Cut
 62
7
100
AcDbSpline
 70
8
 71
3
 72
8
 73
4
 74
0
 40
0
 40
0
 40
0
 40
0
 40
1
 40
1
 40
1
 40
1
 10
173.498764
 20
119.499851
 30
0.0
 10
174.327191
 20
119.499851
 30
0.0
 10
174.998070
 20
118.828953
 30
0.0
 10
174.998070
 20
118.000546
 30
0.0
  0
SPLINE
  5
2de
100
AcDbEntity
  8
Cut
 62
7
100
AcDbSpline
 70
8
 71
3
 72
8
 73
4
 74
0
 40
0
 40
0
 40
0
 40
0
 40
1
 40
1
 40
1
 40
1
 10
174.998070
 20
118.000546
 30
0.0
 10
174.998070
 20
117.172111
 30
0.0
 10
174.327191
 20
116.501240
 30
0.0
 10
173.498764
 20
116.501240
 30
0.0
  0
SPLINE
  5
2df
100
AcDbEntity
  8
Cut
 62
7
100
AcDbSpline
 70
8
 71
3
 72
8
 73
4
 74
0
 40
0
 40
0
 40
0
 40
0
 40
1
 40
1
 40
1
 40
1
 10
173.498764
 20
116.501240
 30
0.0
 10
172.670335
 20
116.501240
 30
0.0
 10
171.999459
 20
117.172111
 30
0.0
 10
171.999459
 20
118.000546
 30
0.0
  0
SPLINE
  5
2e0
100
AcDbEntity
  8
Cut
 62
7
100
AcDbSpline
 70
8
 71
3
 72
8
 73
4
 74
0
 40
0
 40
0
 40
0
 40
0
 40
1
 40
1
 40
1
 40
1
 10
171.999459
 20
118.000546
 30
0.0
 10
171.999459
 20
118.828953
 30
0.0
 10
172.670335
 20
119.499851
 30
0.0
 10
173.498764
 20
119.499851
 30
0.0
  0
LWPOLYLINE
  5
2e1
100
AcDbEntity
  8
Cut
 62
7
100
AcDbPolyline
 90
2
 70
0
 10
160.498903
 20
119.499851
 30
0.0
 10
160.498903
 20
119.499851
 30
0.0
  0
SPLINE
  5
2e2
100
AcDbEntity
  8
Cut
 62
7
100
AcDbSpline
 70
8
 71
3
 72
8
 73
4
 74
0
 40
0
 40
0
 40
0
 40
0
 40
1
 40
1
 40
1
 40
1
 10
191.499250
 20
119.499851
 30
0.0
 10
192.327677
 20
119.499851
 30
0.0
 10
192.998556
 20
118.828953
 30
0.0
 10
192.998556
 20
118.000546
 30
0.0
  0
SPLINE
  5
2e3
100
AcDbEntity
  8
Cut
 62
7
100
AcDbSpline
 70
8
 71
3
 72
8
 73
4
 74
0
 40
0
 40
0
 40
0
 40
0
 40
1
 40
1
 40
1
 40
1
 10
192.998556
 20
118.000546
 30
0.0
 10
192.998556
 20
117.172111
 30
0.0
 10
192.327677
 20
116.501240
 30
0.0
 10
191.499250
 20
116.501240
 30
0.0
  0
SPLINE
  5
2e4
100
AcDbEntity
  8
Cut
 62
7
100
AcDbSpline
 70
8
 71
3
 72
8
 73
4
 74
0
 40
0
 40
0
 40
0
 40
0
 40
1
 40
1
 40
1
 40
1
 10
191.499250
 20
116.501240
 30
0.0
 10
190.670824
 20
116.501240
 30
0.0
 10
189.999945
 20
117.172111
 30
0.0
 10
189.999945
 20
118.000546
 30
0.0
  0
SPLINE
  5
2e5
100
AcDbEntity
  8
Cut
 62
7
100
AcDbSpline
 70
8
 71
3
 72
8
 73
4
 74
0
 40
0
 40
0
 40
0
 40
0
 40
1
 40
1
 40
1
 40
1
 10
189.999945
 20
118.000546
 30
0.0
 10
189.999945
 20
118.828953
 30
0.0
 10
190.670824
 20
119.499851
 30
0.0
 10
191.499250
 20
119.499851
 30
0.0
  0
LWPOLYLINE
  5
2e6
100
AcDbEntity
  8
Cut
 62
7
100
AcDbPolyline
 90
2
 70
0
 10
173.498764
 20
119.499851
 30
0.0
 10
173.498764
 20
119.499851
 30
0.0
  0
SPLINE
  5
2e7
100
AcDbEntity
  8
Cut
 62
7
100
AcDbSpline
 70
8
 71
3
 72
8
 73
4
 74
0
 40
0
 40
0
 40
0
 40
0
 40
1
 40
1
 40
1
 40
1
 10
210.496334
 20
119.499851
 30
0.0
 10
211.324760
 20
119.499851
 30
0.0
 10
211.995639
 20
118.828953
 30
0.0
 10
211.995639
 20
118.000546
 30
0.0
  0
SPLINE
  5
2e8
100
AcDbEntity
  8
Cut
 62
7
100
AcDbSpline
 70
8
 71
3
 72
8
 73
4
 74
0
 40
0
 40
0
 40
0
 40
0
 40
1
 40
1
 40
1
 40
1
 10
211.995639
 20
118.000546
 30
0.0
 10
211.995639
 20
117.172111
 30
0.0
 10
211.324760
 20
116.501240
 30
0.0
 10
210.496334
 20
116.501240
 30
0.0
  0
SPLINE
  5
2e9
100
AcDbEntity
  8
Cut
 62
7
100
AcDbSpline
 70
8
 71
3
 72
8
 73
4
 74
0
 40
0
 40
0
 40
0
 40
0
 40
1
 40
1
 40
1
 40
1
 10
210.496334
 20
116.501240
 30
0.0
 10
209.667907
 20
116.501240
 30
0.0
 10
208.997028
 20
117.172111
 30
0.0
 10
208.997028
 20
118.000546
 30
0.0
  0
SPLINE
  5
2ea
100
AcDbEntity
  8
Cut
 62
7
100
AcDbSpline
 70
8
 71
3
 72
8
 73
4
 74
0
 40
0
 40
0
 40
0
 40
0
 40
1
 40
1
 40
1
 40
1
 10
208.997028
 20
118.000546
 30
0.0
 10
208.997028
 20
118.828953
 30
0.0
 10
209.667907
 20
119.499851
 30
0.0
 10
210.496334
 20
119.499851
 30
0.0
  0
LWPOLYLINE
  5
2eb
100
AcDbEntity
  8
Cut
 62
7
100
AcDbPolyline
 90
2
 70
0
 10
191.499250
 20
119.499851
 30
0.0
 10
191.499250
 20
119.499851
 30
0.0
  0
SPLINE
  5
2ec
100
AcDbEntity
  8
Cut
 62
7
100
AcDbSpline
 70
8
 71
3
 72
8
 73
4
 74
0
 40
0
 40
0
 40
0
 40
0
 40
1
 40
1
 40
1
 40
1
 10
219.509806
 20
119.235268
 30
0.0
 10
220.199467
 20
119.235268
 30
0.0
 10
220.753347
 20
118.681379
 30
0.0
 10
220.753347
 20
117.991740
 30
0.0
  0
SPLINE
  5
2ed
100
AcDbEntity
  8
Cut
 62
7
100
AcDbSpline
 70
8
 71
3
 72
8
 73
4
 74
0
 40
0
 40
0
 40
0
 40
0
 40
1
 40
1
 40
1
 40
1
 10
220.753347
 20
117.991740
 30
0.0
 10
220.753347
 20
117.302018
 30
0.0
 10
220.199467
 20
116.748185
 30
0.0
 10
219.509806
 20
116.748185
 30
0.0
  0
SPLINE
  5
2ee
100
AcDbEntity
  8
Cut
 62
7
100
AcDbSpline
 70
8
 71
3
 72
8
 73
4
 74
0
 40
0
 40
0
 40
0
 40
0
 40
1
 40
1
 40
1
 40
1
 10
219.509806
 20
116.748185
 30
0.0
 10
218.820145
 20
116.748185
 30
0.0
 10
218.248625
 20
117.302018
 30
0.0
 10
218.248625
 20
117.991740
 30
0.0
  0
SPLINE
  5
2ef
100
AcDbEntity
  8
Cut
 62
7
100
AcDbSpline
 70
8
 71
3
 72
8
 73
4
 74
0
 40
0
 40
0
 40
0
 40
0
 40
1
 40
1
 40
1
 40
1
 10
218.248625
 20
117.991740
 30
0.0
 10
218.248625
 20
118.681379
 30
0.0
 10
218.820145
 20
119.235268
 30
0.0
 10
219.509806
 20
119.235268
 30
0.0
  0
LWPOLYLINE
  5
2f0
100
AcDbEntity
  8
Cut
 62
7
100
AcDbPolyline
 90
2
 70
0
 10
210.496334
 20
119.499851
 30
0.0
 10
210.496334
 20
119.499851
 30
0.0
  0
SPLINE
  5
2f1
100
AcDbEntity
  8
Cut
 62
7
100
AcDbSpline
 70
8
 71
3
 72
8
 73
4
 74
0
 40
0
 40
0
 40
0
 40
0
 40
1
 40
1
 40
1
 40
1
 10
200.997792
 20
111.500629
 30
0.0
 10
201.826219
 20
111.500629
 30
0.0
 10
202.497097
 20
110.829759
 30
0.0
 10
202.497097
 20
110.001296
 30
0.0
  0
SPLINE
  5
2f2
100
AcDbEntity
  8
Cut
 62
7
100
AcDbSpline
 70
8
 71
3
 72
8
 73
4
 74
0
 40
0
 40
0
 40
0
 40
0
 40
1
 40
1
 40
1
 40
1
 10
202.497097
 20
110.001296
 30
0.0
 10
202.497097
 20
109.172889
 30
0.0
 10
201.826219
 20
108.502018
 30
0.0
 10
200.997792
 20
108.502018
 30
0.0
  0
SPLINE
  5
2f3
100
AcDbEntity
  8
Cut
 62
7
100
AcDbSpline
 70
8
 71
3
 72
8
 73
4
 74
0
 40
0
 40
0
 40
0
 40
0
 40
1
 40
1
 40
1
 40
1
 10
200.997792
 20
108.502018
 30
0.0
 10
200.169365
 20
108.502018
 30
0.0
 10
199.498486
 20
109.172889
 30
0.0
 10
199.498486
 20
110.001296
 30
0.0
  0
SPLINE
  5
2f4
100
AcDbEntity
  8
Cut
 62
7
100
AcDbSpline
 70
8
 71
3
 72
8
 73
4
 74
0
 40
0
 40
0
 40
0
 40
0
 40
1
 40
1
 40
1
 40
1
 10
199.498486
 20
110.001296
 30
0.0
 10
199.498486
 20
110.829759
 30
0.0
 10
200.169365
 20
111.500629
 30
0.0
 10
200.997792
 20
111.500629
 30
0.0
  0
LWPOLYLINE
  5
2f5
100
AcDbEntity
  8
Cut
 62
7
100
AcDbPolyline
 90
2
 70
0
 10
219.509806
 20
119.235268
 30
0.0
 10
219.509806
 20
119.235268
 30
0.0
  0
SPLINE
  5
2f6
100
AcDbEntity
  8
Cut
 62
7
100
AcDbSpline
 70
8
 71
3
 72
8
 73
4
 74
0
 40
0
 40
0
 40
0
 40
0
 40
1
 40
1
 40
1
 40
1
 10
201.006597
 20
100.732074
 30
0.0
 10
201.696258
 20
100.732074
 30
0.0
 10
202.250139
 20
100.178241
 30
0.0
 10
202.250139
 20
99.488518
 30
0.0
  0
SPLINE
  5
2f7
100
AcDbEntity
  8
Cut
 62
7
100
AcDbSpline
 70
8
 71
3
 72
8
 73
4
 74
0
 40
0
 40
0
 40
0
 40
0
 40
1
 40
1
 40
1
 40
1
 10
202.250139
 20
99.488518
 30
0.0
 10
202.250139
 20
98.798880
 30
0.0
 10
201.696258
 20
98.244990
 30
0.0
 10
201.006597
 20
98.244990
 30
0.0
  0
SPLINE
  5
2f8
100
AcDbEntity
  8
Cut
 62
7
100
AcDbSpline
 70
8
 71
3
 72
8
 73
4
 74
0
 40
0
 40
0
 40
0
 40
0
 40
1
 40
1
 40
1
 40
1
 10
201.006597
 20
98.244990
 30
0.0
 10
200.316936
 20
98.244990
 30
0.0
 10
199.745417
 20
98.798880
 30
0.0
 10
199.745417
 20
99.488518
 30
0.0
  0
SPLINE
  5
2f9
100
AcDbEntity
  8
Cut
 62
7
100
AcDbSpline
 70
8
 71
3
 72
8
 73
4
 74
0
 40
0
 40
0
 40
0
 40
0
 40
1
 40
1
 40
1
 40
1
 10
199.745417
 20
99.488518
 30
0.0
 10
199.745417
 20
100.178241
 30
0.0
 10
200.316936
 20
100.732074
 30
0.0
 10
201.006597
 20
100.732074
 30
0.0
  0
LWPOLYLINE
  5
2fa
100
AcDbEntity
  8
Cut
 62
7
100
AcDbPolyline
 90
2
 70
0
 10
200.997792
 20
111.500629
 30
0.0
 10
200.997792
 20
111.500629
 30
0.0
  0
SPLINE
  5
2fb
100
AcDbEntity
  8
Cut
 62
7
100
AcDbSpline
 70
8
 71
3
 72
8
 73
4
 74
0
 40
0
 40
0
 40
0
 40
0
 40
1
 40
1
 40
1
 40
1
 10
140.999097
 20
169.999990
 30
0.0
 10
129.795572
 20
169.999990
 30
0.0
 10
120.000000
 20
159.593074
 30
0.0
 10
120.000000
 20
147.995462
 30
0.0
  0
SPLINE
  5
2fc
100
AcDbEntity
  8
Cut
 62
7
100
AcDbSpline
 70
8
 71
3
 72
8
 73
4
 74
0
 40
0
 40
0
 40
0
 40
0
 40
1
 40
1
 40
1
 40
1
 10
120.000000
 20
147.995462
 30
0.0
 10
120.000000
 20
136.396468
 30
0.0
 10
129.795572
 20
125.999796
 30
0.0
 10
140.999097
 20
125.999796
 30
0.0
  0
SPLINE
  5
2fd
100
AcDbEntity
  8
Cut
 62
7
100
AcDbSpline
 70
8
 71
3
 72
8
 73
4
 74
0
 40
0
 40
0
 40
0
 40
0
 40
1
 40
1
 40
1
 40
1
 10
140.999097
 20
125.999796
 30
0.0
 10
152.202625
 20
125.999796
 30
0.0
 10
192.001944
 20
137.495469
 30
0.0
 10
192.001944
 20
147.995462
 30
0.0
  0
SPLINE
  5
2fe
100
AcDbEntity
  8
Cut
 62
7
100
AcDbSpline
 70
8
 71
3
 72
8
 73
4
 74
0
 40
0
 40
0
 40
0
 40
0
 40
1
 40
1
 40
1
 40
1
 10
192.001944
 20
147.995462
 30
0.0
 10
192.001944
 20
158.495484
 30
0.0
 10
152.202625
 20
169.999990
 30
0.0
 10
140.999097
 20
169.999990
 30
0.0
  0
LWPOLYLINE
  5
2ff
100
AcDbEntity
  8
Cut
 62
7
100
AcDbPolyline
 90
2
 70
0
 10
201.006597
 20
100.732074
 30
0.0
 10
201.006597
 20
100.732074
 30
0.0
  0
SPLINE
  5
300
100
AcDbEntity
  8
Cut
 62
7
100
AcDbSpline
 70
8
 71
3
 72
8
 73
4
 74
0
 40
0
 40
0
 40
0
 40
0
 40
1
 40
1
 40
1
 40
1
 10
141.845764
 20
167.997962
 30
0.0
 10
141.896189
 20
168.003042
 30
0.0
 10
141.943918
 20
167.997962
 30
0.0
 10
141.995694
 20
167.997962
 30
0.0
  0
SPLINE
  5
301
100
AcDbEntity
  8
Cut
 62
7
100
AcDbSpline
 70
8
 71
3
 72
8
 73
4
 74
0
 40
0
 40
0
 40
0
 40
0
 40
1
 40
1
 40
1
 40
1
 10
141.995694
 20
167.997962
 30
0.0
 10
142.824118
 20
167.997962
 30
0.0
 10
143.495000
 20
167.327120
 30
0.0
 10
143.495000
 20
166.498685
 30
0.0
  0
SPLINE
  5
302
100
AcDbEntity
  8
Cut
 62
7
100
AcDbSpline
 70
8
 71
3
 72
8
 73
4
 74
0
 40
0
 40
0
 40
0
 40
0
 40
1
 40
1
 40
1
 40
1
 10
143.495000
 20
166.498685
 30
0.0
 10
143.495000
 20
165.670250
 30
0.0
 10
142.824118
 20
164.999351
 30
0.0
 10
141.995694
 20
164.999351
 30
0.0
  0
SPLINE
  5
303
100
AcDbEntity
  8
Cut
 62
7
100
AcDbSpline
 70
8
 71
3
 72
8
 73
4
 74
0
 40
0
 40
0
 40
0
 40
0
 40
1
 40
1
 40
1
 40
1
 10
141.995694
 20
164.999351
 30
0.0
 10
141.167265
 20
164.999351
 30
0.0
 10
140.496389
 20
165.670250
 30
0.0
 10
140.496389
 20
166.498685
 30
0.0
  0
SPLINE
  5
304
100
AcDbEntity
  8
Cut
 62
7
100
AcDbSpline
 70
8
 71
3
 72
8
 73
4
 74
0
 40
0
 40
0
 40
0
 40
0
 40
1
 40
1
 40
1
 40
1
 10
140.496389
 20
166.498685
 30
0.0
 10
140.496389
 20
167.275332
 30
0.0
 10
141.089377
 20
167.921170
 30
0.0
 10
141.845764
 20
167.997962
 30
0.0
  0
LWPOLYLINE
  5
305
100
AcDbEntity
  8
Cut
 62
7
100
AcDbPolyline
 90
2
 70
0
 10
140.999097
 20
169.999990
 30
0.0
 10
140.999097
 20
169.999990
 30
0.0
  0
SPLINE
  5
306
100
AcDbEntity
  8
Cut
 62
7
100
AcDbSpline
 70
8
 71
3
 72
8
 73
4
 74
0
 40
0
 40
0
 40
0
 40
0
 40
1
 40
1
 40
1
 40
1
 10
141.995694
 20
162.997351
 30
0.0
 10
150.279967
 20
162.997351
 30
0.0
 10
156.997569
 20
156.279672
 30
0.0
 10
156.997569
 20
147.995462
 30
0.0
  0
SPLINE
  5
307
100
AcDbEntity
  8
Cut
 62
7
100
AcDbSpline
 70
8
 71
3
 72
8
 73
4
 74
0
 40
0
 40
0
 40
0
 40
0
 40
1
 40
1
 40
1
 40
1
 10
156.997569
 20
147.995462
 30
0.0
 10
156.997569
 20
139.711168
 30
0.0
 10
150.279967
 20
133.002407
 30
0.0
 10
141.995694
 20
133.002407
 30
0.0
  0
SPLINE
  5
308
100
AcDbEntity
  8
Cut
 62
7
100
AcDbSpline
 70
8
 71
3
 72
8
 73
4
 74
0
 40
0
 40
0
 40
0
 40
0
 40
1
 40
1
 40
1
 40
1
 10
141.995694
 20
133.002407
 30
0.0
 10
133.711422
 20
133.002407
 30
0.0
 10
126.993819
 20
139.711168
 30
0.0
 10
126.993819
 20
147.995462
 30
0.0
  0
SPLINE
  5
309
100
AcDbEntity
  8
Cut
 62
7
100
AcDbSpline
 70
8
 71
3
 72
8
 73
4
 74
0
 40
0
 40
0
 40
0
 40
0
 40
1
 40
1
 40
1
 40
1
 10
126.993819
 20
147.995462
 30
0.0
 10
126.993819
 20
156.279672
 30
0.0
 10
133.711422
 20
162.997351
 30
0.0
 10
141.995694
 20
162.997351
 30
0.0
  0
LWPOLYLINE
  5
30a
100
AcDbEntity
  8
Cut
 62
7
100
AcDbPolyline
 90
2
 70
0
 10
141.845764
 20
167.997962
 30
0.0
 10
141.845764
 20
167.997962
 30
0.0
  0
SPLINE
  5
30b
100
AcDbEntity
  8
Cut
 62
7
100
AcDbSpline
 70
8
 71
3
 72
8
 73
4
 74
0
 40
0
 40
0
 40
0
 40
0
 40
1
 40
1
 40
1
 40
1
 10
123.351389
 20
149.494796
 30
0.0
 10
123.401814
 20
149.499876
 30
0.0
 10
123.449543
 20
149.494796
 30
0.0
 10
123.501319
 20
149.494796
 30
0.0
  0
SPLINE
  5
30c
100
AcDbEntity
  8
Cut
 62
7
100
AcDbSpline
 70
8
 71
3
 72
8
 73
4
 74
0
 40
0
 40
0
 40
0
 40
0
 40
1
 40
1
 40
1
 40
1
 10
123.501319
 20
149.494796
 30
0.0
 10
124.329743
 20
149.494796
 30
0.0
 10
125.000625
 20
148.823926
 30
0.0
 10
125.000625
 20
147.995462
 30
0.0
  0
SPLINE
  5
30d
100
AcDbEntity
  8
Cut
 62
7
100
AcDbSpline
 70
8
 71
3
 72
8
 73
4
 74
0
 40
0
 40
0
 40
0
 40
0
 40
1
 40
1
 40
1
 40
1
 10
125.000625
 20
147.995462
 30
0.0
 10
125.000625
 20
147.167055
 30
0.0
 10
124.329743
 20
146.496185
 30
0.0
 10
123.501319
 20
146.496185
 30
0.0
  0
SPLINE
  5
30e
100
AcDbEntity
  8
Cut
 62
7
100
AcDbSpline
 70
8
 71
3
 72
8
 73
4
 74
0
 40
0
 40
0
 40
0
 40
0
 40
1
 40
1
 40
1
 40
1
 10
123.501319
 20
146.496185
 30
0.0
 10
122.672890
 20
146.496185
 30
0.0
 10
122.002014
 20
147.167055
 30
0.0
 10
122.002014
 20
147.995462
 30
0.0
  0
SPLINE
  5
30f
100
AcDbEntity
  8
Cut
 62
7
100
AcDbSpline
 70
8
 71
3
 72
8
 73
4
 74
0
 40
0
 40
0
 40
0
 40
0
 40
1
 40
1
 40
1
 40
1
 10
122.002014
 20
147.995462
 30
0.0
 10
122.002014
 20
148.772138
 30
0.0
 10
122.595002
 20
149.417975
 30
0.0
 10
123.351389
 20
149.494796
 30
0.0
  0
LWPOLYLINE
  5
310
100
AcDbEntity
  8
Cut
 62
7
100
AcDbPolyline
 90
2
 70
0
 10
141.995694
 20
162.997351
 30
0.0
 10
141.995694
 20
162.997351
 30
0.0
  0
SPLINE
  5
311
100
AcDbEntity
  8
Cut
 62
7
100
AcDbSpline
 70
8
 71
3
 72
8
 73
4
 74
0
 40
0
 40
0
 40
0
 40
0
 40
1
 40
1
 40
1
 40
1
 10
169.344792
 20
149.494796
 30
0.0
 10
169.395216
 20
149.499876
 30
0.0
 10
169.442946
 20
149.494796
 30
0.0
 10
169.494722
 20
149.494796
 30
0.0
  0
SPLINE
  5
312
100
AcDbEntity
  8
Cut
 62
7
100
AcDbSpline
 70
8
 71
3
 72
8
 73
4
 74
0
 40
0
 40
0
 40
0
 40
0
 40
1
 40
1
 40
1
 40
1
 10
169.494722
 20
149.494796
 30
0.0
 10
170.323152
 20
149.494796
 30
0.0
 10
170.994028
 20
148.823897
 30
0.0
 10
170.994028
 20
147.995462
 30
0.0
  0
SPLINE
  5
313
100
AcDbEntity
  8
Cut
 62
7
100
AcDbSpline
 70
8
 71
3
 72
8
 73
4
 74
0
 40
0
 40
0
 40
0
 40
0
 40
1
 40
1
 40
1
 40
1
 10
170.994028
 20
147.995462
 30
0.0
 10
170.994028
 20
147.167055
 30
0.0
 10
170.323152
 20
146.496185
 30
0.0
 10
169.494722
 20
146.496185
 30
0.0
  0
SPLINE
  5
314
100
AcDbEntity
  8
Cut
 62
7
100
AcDbSpline
 70
8
 71
3
 72
8
 73
4
 74
0
 40
0
 40
0
 40
0
 40
0
 40
1
 40
1
 40
1
 40
1
 10
169.494722
 20
146.496185
 30
0.0
 10
168.666296
 20
146.496185
 30
0.0
 10
167.995417
 20
147.167055
 30
0.0
 10
167.995417
 20
147.995462
 30
0.0
  0
SPLINE
  5
315
100
AcDbEntity
  8
Cut
 62
7
100
AcDbSpline
 70
8
 71
3
 72
8
 73
4
 74
0
 40
0
 40
0
 40
0
 40
0
 40
1
 40
1
 40
1
 40
1
 10
167.995417
 20
147.995462
 30
0.0
 10
167.995417
 20
148.772110
 30
0.0
 10
168.588408
 20
149.417975
 30
0.0
 10
169.344792
 20
149.494796
 30
0.0
  0
LWPOLYLINE
  5
316
100
AcDbEntity
  8
Cut
 62
7
100
AcDbPolyline
 90
2
 70
0
 10
123.351389
 20
149.494796
 30
0.0
 10
123.351389
 20
149.494796
 30
0.0
  0
SPLINE
  5
317
100
AcDbEntity
  8
Cut
 62
7
100
AcDbSpline
 70
8
 71
3
 72
8
 73
4
 74
0
 40
0
 40
0
 40
0
 40
0
 40
1
 40
1
 40
1
 40
1
 10
182.344653
 20
149.494796
 30
0.0
 10
182.395077
 20
149.499876
 30
0.0
 10
182.442807
 20
149.494796
 30
0.0
 10
182.494583
 20
149.494796
 30
0.0
  0
SPLINE
  5
318
100
AcDbEntity
  8
Cut
 62
7
100
AcDbSpline
 70
8
 71
3
 72
8
 73
4
 74
0
 40
0
 40
0
 40
0
 40
0
 40
1
 40
1
 40
1
 40
1
 10
182.494583
 20
149.494796
 30
0.0
 10
183.323013
 20
149.494796
 30
0.0
 10
183.993889
 20
148.823897
 30
0.0
 10
183.993889
 20
147.995462
 30
0.0
  0
SPLINE
  5
319
100
AcDbEntity
  8
Cut
 62
7
100
AcDbSpline
 70
8
 71
3
 72
8
 73
4
 74
0
 40
0
 40
0
 40
0
 40
0
 40
1
 40
1
 40
1
 40
1
 10
183.993889
 20
147.995462
 30
0.0
 10
183.993889
 20
147.167055
 30
0.0
 10
183.323013
 20
146.496185
 30
0.0
 10
182.494583
 20
146.496185
 30
0.0
  0
SPLINE
  5
31a
100
AcDbEntity
  8
Cut
 62
7
100
AcDbSpline
 70
8
 71
3
 72
8
 73
4
 74
0
 40
0
 40
0
 40
0
 40
0
 40
1
 40
1
 40
1
 40
1
 10
182.494583
 20
146.496185
 30
0.0
 10
181.666157
 20
146.496185
 30
0.0
 10
180.995278
 20
147.167055
 30
0.0
 10
180.995278
 20
147.995462
 30
0.0
  0
SPLINE
  5
31b
100
AcDbEntity
  8
Cut
 62
7
100
AcDbSpline
 70
8
 71
3
 72
8
 73
4
 74
0
 40
0
 40
0
 40
0
 40
0
 40
1
 40
1
 40
1
 40
1
 10
180.995278
 20
147.995462
 30
0.0
 10
180.995278
 20
148.772110
 30
0.0
 10
181.588269
 20
149.417975
 30
0.0
 10
182.344653
 20
149.494796
 30
0.0
  0
LWPOLYLINE
  5
31c
100
AcDbEntity
  8
Cut
 62
7
100
AcDbPolyline
 90
2
 70
0
 10
169.344792
 20
149.494796
 30
0.0
 10
169.344792
 20
149.494796
 30
0.0
  0
SPLINE
  5
31d
100
AcDbEntity
  8
Cut
 62
7
100
AcDbSpline
 70
8
 71
3
 72
8
 73
4
 74
0
 40
0
 40
0
 40
0
 40
0
 40
1
 40
1
 40
1
 40
1
 10
141.845764
 20
131.000407
 30
0.0
 10
141.896189
 20
131.005487
 30
0.0
 10
141.943918
 20
131.000407
 30
0.0
 10
141.995694
 20
131.000407
 30
0.0
  0
SPLINE
  5
31e
100
AcDbEntity
  8
Cut
 62
7
100
AcDbSpline
 70
8
 71
3
 72
8
 73
4
 74
0
 40
0
 40
0
 40
0
 40
0
 40
1
 40
1
 40
1
 40
1
 10
141.995694
 20
131.000407
 30
0.0
 10
142.824118
 20
131.000407
 30
0.0
 10
143.495000
 20
130.329565
 30
0.0
 10
143.495000
 20
129.501101
 30
0.0
  0
SPLINE
  5
31f
100
AcDbEntity
  8
Cut
 62
7
100
AcDbSpline
 70
8
 71
3
 72
8
 73
4
 74
0
 40
0
 40
0
 40
0
 40
0
 40
1
 40
1
 40
1
 40
1
 10
143.495000
 20
129.501101
 30
0.0
 10
143.495000
 20
128.672694
 30
0.0
 10
142.824118
 20
128.001796
 30
0.0
 10
141.995694
 20
128.001796
 30
0.0
  0
SPLINE
  5
320
100
AcDbEntity
  8
Cut
 62
7
100
AcDbSpline
 70
8
 71
3
 72
8
 73
4
 74
0
 40
0
 40
0
 40
0
 40
0
 40
1
 40
1
 40
1
 40
1
 10
141.995694
 20
128.001796
 30
0.0
 10
141.167265
 20
128.001796
 30
0.0
 10
140.496389
 20
128.672694
 30
0.0
 10
140.496389
 20
129.501101
 30
0.0
  0
SPLINE
  5
321
100
AcDbEntity
  8
Cut
 62
7
100
AcDbSpline
 70
8
 71
3
 72
8
 73
4
 74
0
 40
0
 40
0
 40
0
 40
0
 40
1
 40
1
 40
1
 40
1
 10
140.496389
 20
129.501101
 30
0.0
 10
140.496389
 20
130.277777
 30
0.0
 10
141.089377
 20
130.923586
 30
0.0
 10
141.845764
 20
131.000407
 30
0.0
  0
LWPOLYLINE
  5
322
100
AcDbEntity
  8
Cut
 62
7
100
AcDbPolyline
 90
2
 70
0
 10
182.344653
 20
149.494796
 30
0.0
 10
182.344653
 20
149.494796
 30
0.0
  0
SPLINE
  5
323
100
AcDbEntity
  8
Cut
 62
7
100
AcDbSpline
 70
8
 71
3
 72
8
 73
4
 74
0
 40
0
 40
0
 40
0
 40
0
 40
1
 40
1
 40
1
 40
1
 10
202.003194
 20
319.996241
 30
0.0
 10
190.799666
 20
319.996241
 30
0.0
 10
151.000347
 20
308.500540
 30
0.0
 10
151.000347
 20
298.000547
 30
0.0
  0
SPLINE
  5
324
100
AcDbEntity
  8
Cut
 62
7
100
AcDbSpline
 70
8
 71
3
 72
8
 73
4
 74
0
 40
0
 40
0
 40
0
 40
0
 40
1
 40
1
 40
1
 40
1
 10
151.000347
 20
298.000547
 30
0.0
 10
151.000347
 20
287.500526
 30
0.0
 10
190.799666
 20
275.996019
 30
0.0
 10
202.003194
 20
275.996019
 30
0.0
  0
SPLINE
  5
325
100
AcDbEntity
  8
Cut
 62
7
100
AcDbSpline
 70
8
 71
3
 72
8
 73
4
 74
0
 40
0
 40
0
 40
0
 40
0
 40
1
 40
1
 40
1
 40
1
 10
202.003194
 20
275.996019
 30
0.0
 10
213.206720
 20
275.996019
 30
0.0
 10
223.002292
 20
286.401524
 30
0.0
 10
223.002292
 20
298.000547
 30
0.0
  0
SPLINE
  5
326
100
AcDbEntity
  8
Cut
 62
7
100
AcDbSpline
 70
8
 71
3
 72
8
 73
4
 74
0
 40
0
 40
0
 40
0
 40
0
 40
1
 40
1
 40
1
 40
1
 10
223.002292
 20
298.000547
 30
0.0
 10
223.002292
 20
309.598131
 30
0.0
 10
213.206720
 20
319.996241
 30
0.0
 10
202.003194
 20
319.996241
 30
0.0
  0
LWPOLYLINE
  5
327
100
AcDbEntity
  8
Cut
 62
7
100
AcDbPolyline
 90
2
 70
0
 10
141.845764
 20
131.000407
 30
0.0
 10
141.845764
 20
131.000407
 30
0.0
  0
SPLINE
  5
328
100
AcDbEntity
  8
Cut
 62
7
100
AcDbSpline
 70
8
 71
3
 72
8
 73
4
 74
0
 40
0
 40
0
 40
0
 40
0
 40
1
 40
1
 40
1
 40
1
 10
201.006597
 20
317.738464
 30
0.0
 10
201.696258
 20
317.738464
 30
0.0
 10
202.250139
 20
317.184631
 30
0.0
 10
202.250139
 20
316.494908
 30
0.0
  0
SPLINE
  5
329
100
AcDbEntity
  8
Cut
 62
7
100
AcDbSpline
 70
8
 71
3
 72
8
 73
4
 74
0
 40
0
 40
0
 40
0
 40
0
 40
1
 40
1
 40
1
 40
1
 10
202.250139
 20
316.494908
 30
0.0
 10
202.250139
 20
315.805241
 30
0.0
 10
201.696258
 20
315.251380
 30
0.0
 10
201.006597
 20
315.251380
 30
0.0
  0
SPLINE
  5
32a
100
AcDbEntity
  8
Cut
 62
7
100
AcDbSpline
 70
8
 71
3
 72
8
 73
4
 74
0
 40
0
 40
0
 40
0
 40
0
 40
1
 40
1
 40
1
 40
1
 10
201.006597
 20
315.251380
 30
0.0
 10
200.316936
 20
315.251380
 30
0.0
 10
199.745417
 20
315.805241
 30
0.0
 10
199.745417
 20
316.494908
 30
0.0
  0
SPLINE
  5
32b
100
AcDbEntity
  8
Cut
 62
7
100
AcDbSpline
 70
8
 71
3
 72
8
 73
4
 74
0
 40
0
 40
0
 40
0
 40
0
 40
1
 40
1
 40
1
 40
1
 10
199.745417
 20
316.494908
 30
0.0
 10
199.745417
 20
317.184631
 30
0.0
 10
200.316936
 20
317.738464
 30
0.0
 10
201.006597
 20
317.738464
 30
0.0
  0
LWPOLYLINE
  5
32c
100
AcDbEntity
  8
Cut
 62
7
100
AcDbPolyline
 90
2
 70
0
 10
202.003194
 20
319.996241
 30
0.0
 10
202.003194
 20
319.996241
 30
0.0
  0
SPLINE
  5
32d
100
AcDbEntity
  8
Cut
 62
7
100
AcDbSpline
 70
8
 71
3
 72
8
 73
4
 74
0
 40
0
 40
0
 40
0
 40
0
 40
1
 40
1
 40
1
 40
1
 10
200.997792
 20
307.499075
 30
0.0
 10
201.826219
 20
307.499075
 30
0.0
 10
202.497097
 20
306.828204
 30
0.0
 10
202.497097
 20
305.999797
 30
0.0
  0
SPLINE
  5
32e
100
AcDbEntity
  8
Cut
 62
7
100
AcDbSpline
 70
8
 71
3
 72
8
 73
4
 74
0
 40
0
 40
0
 40
0
 40
0
 40
1
 40
1
 40
1
 40
1
 10
202.497097
 20
305.999797
 30
0.0
 10
202.497097
 20
305.171334
 30
0.0
 10
201.826219
 20
304.500463
 30
0.0
 10
200.997792
 20
304.500463
 30
0.0
  0
SPLINE
  5
32f
100
AcDbEntity
  8
Cut
 62
7
100
AcDbSpline
 70
8
 71
3
 72
8
 73
4
 74
0
 40
0
 40
0
 40
0
 40
0
 40
1
 40
1
 40
1
 40
1
 10
200.997792
 20
304.500463
 30
0.0
 10
200.169365
 20
304.500463
 30
0.0
 10
199.498486
 20
305.171334
 30
0.0
 10
199.498486
 20
305.999797
 30
0.0
  0
SPLINE
  5
330
100
AcDbEntity
  8
Cut
 62
7
100
AcDbSpline
 70
8
 71
3
 72
8
 73
4
 74
0
 40
0
 40
0
 40
0
 40
0
 40
1
 40
1
 40
1
 40
1
 10
199.498486
 20
305.999797
 30
0.0
 10
199.498486
 20
306.828204
 30
0.0
 10
200.169365
 20
307.499075
 30
0.0
 10
200.997792
 20
307.499075
 30
0.0
  0
LWPOLYLINE
  5
331
100
AcDbEntity
  8
Cut
 62
7
100
AcDbPolyline
 90
2
 70
0
 10
201.006597
 20
317.738464
 30
0.0
 10
201.006597
 20
317.738464
 30
0.0
  0
SPLINE
  5
332
100
AcDbEntity
  8
Cut
 62
7
100
AcDbSpline
 70
8
 71
3
 72
8
 73
4
 74
0
 40
0
 40
0
 40
0
 40
0
 40
1
 40
1
 40
1
 40
1
 10
200.997792
 20
302.004575
 30
0.0
 10
203.206931
 20
302.004575
 30
0.0
 10
204.993000
 20
300.209670
 30
0.0
 10
204.993000
 20
298.000547
 30
0.0
  0
SPLINE
  5
333
100
AcDbEntity
  8
Cut
 62
7
100
AcDbSpline
 70
8
 71
3
 72
8
 73
4
 74
0
 40
0
 40
0
 40
0
 40
0
 40
1
 40
1
 40
1
 40
1
 10
204.993000
 20
298.000547
 30
0.0
 10
204.993000
 20
295.791340
 30
0.0
 10
203.206931
 20
293.996519
 30
0.0
 10
200.997792
 20
293.996519
 30
0.0
  0
SPLINE
  5
334
100
AcDbEntity
  8
Cut
 62
7
100
AcDbSpline
 70
8
 71
3
 72
8
 73
4
 74
0
 40
0
 40
0
 40
0
 40
0
 40
1
 40
1
 40
1
 40
1
 10
200.997792
 20
293.996519
 30
0.0
 10
198.788652
 20
293.996519
 30
0.0
 10
196.993764
 20
295.791340
 30
0.0
 10
196.993764
 20
298.000547
 30
0.0
  0
SPLINE
  5
335
100
AcDbEntity
  8
Cut
 62
7
100
AcDbSpline
 70
8
 71
3
 72
8
 73
4
 74
0
 40
0
 40
0
 40
0
 40
0
 40
1
 40
1
 40
1
 40
1
 10
196.993764
 20
298.000547
 30
0.0
 10
196.993764
 20
300.209670
 30
0.0
 10
198.788652
 20
302.004575
 30
0.0
 10
200.997792
 20
302.004575
 30
0.0
  0
LWPOLYLINE
  5
336
100
AcDbEntity
  8
Cut
 62
7
100
AcDbPolyline
 90
2
 70
0
 10
200.997792
 20
307.499075
 30
0.0
 10
200.997792
 20
307.499075
 30
0.0
  0
SPLINE
  5
337
100
AcDbEntity
  8
Cut
 62
7
100
AcDbSpline
 70
8
 71
3
 72
8
 73
4
 74
0
 40
0
 40
0
 40
0
 40
0
 40
1
 40
1
 40
1
 40
1
 10
160.498903
 20
299.499853
 30
0.0
 10
161.327330
 20
299.499853
 30
0.0
 10
161.998209
 20
298.828954
 30
0.0
 10
161.998209
 20
298.000547
 30
0.0
  0
SPLINE
  5
338
100
AcDbEntity
  8
Cut
 62
7
100
AcDbSpline
 70
8
 71
3
 72
8
 73
4
 74
0
 40
0
 40
0
 40
0
 40
0
 40
1
 40
1
 40
1
 40
1
 10
161.998209
 20
298.000547
 30
0.0
 10
161.998209
 20
297.172112
 30
0.0
 10
161.327330
 20
296.501241
 30
0.0
 10
160.498903
 20
296.501241
 30
0.0
  0
SPLINE
  5
339
100
AcDbEntity
  8
Cut
 62
7
100
AcDbSpline
 70
8
 71
3
 72
8
 73
4
 74
0
 40
0
 40
0
 40
0
 40
0
 40
1
 40
1
 40
1
 40
1
 10
160.498903
 20
296.501241
 30
0.0
 10
159.670474
 20
296.501241
 30
0.0
 10
158.999597
 20
297.172112
 30
0.0
 10
158.999597
 20
298.000547
 30
0.0
  0
SPLINE
  5
33a
100
AcDbEntity
  8
Cut
 62
7
100
AcDbSpline
 70
8
 71
3
 72
8
 73
4
 74
0
 40
0
 40
0
 40
0
 40
0
 40
1
 40
1
 40
1
 40
1
 10
158.999597
 20
298.000547
 30
0.0
 10
158.999597
 20
298.828954
 30
0.0
 10
159.670474
 20
299.499853
 30
0.0
 10
160.498903
 20
299.499853
 30
0.0
  0
LWPOLYLINE
  5
33b
100
AcDbEntity
  8
Cut
 62
7
100
AcDbPolyline
 90
2
 70
0
 10
200.997792
 20
302.004575
 30
0.0
 10
200.997792
 20
302.004575
 30
0.0
  0
SPLINE
  5
33c
100
AcDbEntity
  8
Cut
 62
7
100
AcDbSpline
 70
8
 71
3
 72
8
 73
4
 74
0
 40
0
 40
0
 40
0
 40
0
 40
1
 40
1
 40
1
 40
1
 10
173.498764
 20
299.499853
 30
0.0
 10
174.327191
 20
299.499853
 30
0.0
 10
174.998070
 20
298.828954
 30
0.0
 10
174.998070
 20
298.000547
 30
0.0
  0
SPLINE
  5
33d
100
AcDbEntity
  8
Cut
 62
7
100
AcDbSpline
 70
8
 71
3
 72
8
 73
4
 74
0
 40
0
 40
0
 40
0
 40
0
 40
1
 40
1
 40
1
 40
1
 10
174.998070
 20
298.000547
 30
0.0
 10
174.998070
 20
297.172112
 30
0.0
 10
174.327191
 20
296.501241
 30
0.0
 10
173.498764
 20
296.501241
 30
0.0
  0
SPLINE
  5
33e
100
AcDbEntity
  8
Cut
 62
7
100
AcDbSpline
 70
8
 71
3
 72
8
 73
4
 74
0
 40
0
 40
0
 40
0
 40
0
 40
1
 40
1
 40
1
 40
1
 10
173.498764
 20
296.501241
 30
0.0
 10
172.670335
 20
296.501241
 30
0.0
 10
171.999459
 20
297.172112
 30
0.0
 10
171.999459
 20
298.000547
 30
0.0
  0
SPLINE
  5
33f
100
AcDbEntity
  8
Cut
 62
7
100
AcDbSpline
 70
8
 71
3
 72
8
 73
4
 74
0
 40
0
 40
0
 40
0
 40
0
 40
1
 40
1
 40
1
 40
1
 10
171.999459
 20
298.000547
 30
0.0
 10
171.999459
 20
298.828954
 30
0.0
 10
172.670335
 20
299.499853
 30
0.0
 10
173.498764
 20
299.499853
 30
0.0
  0
LWPOLYLINE
  5
340
100
AcDbEntity
  8
Cut
 62
7
100
AcDbPolyline
 90
2
 70
0
 10
160.498903
 20
299.499853
 30
0.0
 10
160.498903
 20
299.499853
 30
0.0
  0
SPLINE
  5
341
100
AcDbEntity
  8
Cut
 62
7
100
AcDbSpline
 70
8
 71
3
 72
8
 73
4
 74
0
 40
0
 40
0
 40
0
 40
0
 40
1
 40
1
 40
1
 40
1
 10
191.499250
 20
299.499853
 30
0.0
 10
192.327677
 20
299.499853
 30
0.0
 10
192.998556
 20
298.828954
 30
0.0
 10
192.998556
 20
298.000547
 30
0.0
  0
SPLINE
  5
342
100
AcDbEntity
  8
Cut
 62
7
100
AcDbSpline
 70
8
 71
3
 72
8
 73
4
 74
0
 40
0
 40
0
 40
0
 40
0
 40
1
 40
1
 40
1
 40
1
 10
192.998556
 20
298.000547
 30
0.0
 10
192.998556
 20
297.172112
 30
0.0
 10
192.327677
 20
296.501241
 30
0.0
 10
191.499250
 20
296.501241
 30
0.0
  0
SPLINE
  5
343
100
AcDbEntity
  8
Cut
 62
7
100
AcDbSpline
 70
8
 71
3
 72
8
 73
4
 74
0
 40
0
 40
0
 40
0
 40
0
 40
1
 40
1
 40
1
 40
1
 10
191.499250
 20
296.501241
 30
0.0
 10
190.670824
 20
296.501241
 30
0.0
 10
189.999945
 20
297.172112
 30
0.0
 10
189.999945
 20
298.000547
 30
0.0
  0
SPLINE
  5
344
100
AcDbEntity
  8
Cut
 62
7
100
AcDbSpline
 70
8
 71
3
 72
8
 73
4
 74
0
 40
0
 40
0
 40
0
 40
0
 40
1
 40
1
 40
1
 40
1
 10
189.999945
 20
298.000547
 30
0.0
 10
189.999945
 20
298.828954
 30
0.0
 10
190.670824
 20
299.499853
 30
0.0
 10
191.499250
 20
299.499853
 30
0.0
  0
LWPOLYLINE
  5
345
100
AcDbEntity
  8
Cut
 62
7
100
AcDbPolyline
 90
2
 70
0
 10
173.498764
 20
299.499853
 30
0.0
 10
173.498764
 20
299.499853
 30
0.0
  0
SPLINE
  5
346
100
AcDbEntity
  8
Cut
 62
7
100
AcDbSpline
 70
8
 71
3
 72
8
 73
4
 74
0
 40
0
 40
0
 40
0
 40
0
 40
1
 40
1
 40
1
 40
1
 10
210.496334
 20
299.499853
 30
0.0
 10
211.324760
 20
299.499853
 30
0.0
 10
211.995639
 20
298.828954
 30
0.0
 10
211.995639
 20
298.000547
 30
0.0
  0
SPLINE
  5
347
100
AcDbEntity
  8
Cut
 62
7
100
AcDbSpline
 70
8
 71
3
 72
8
 73
4
 74
0
 40
0
 40
0
 40
0
 40
0
 40
1
 40
1
 40
1
 40
1
 10
211.995639
 20
298.000547
 30
0.0
 10
211.995639
 20
297.172112
 30
0.0
 10
211.324760
 20
296.501241
 30
0.0
 10
210.496334
 20
296.501241
 30
0.0
  0
SPLINE
  5
348
100
AcDbEntity
  8
Cut
 62
7
100
AcDbSpline
 70
8
 71
3
 72
8
 73
4
 74
0
 40
0
 40
0
 40
0
 40
0
 40
1
 40
1
 40
1
 40
1
 10
210.496334
 20
296.501241
 30
0.0
 10
209.667907
 20
296.501241
 30
0.0
 10
208.997028
 20
297.172112
 30
0.0
 10
208.997028
 20
298.000547
 30
0.0
  0
SPLINE
  5
349
100
AcDbEntity
  8
Cut
 62
7
100
AcDbSpline
 70
8
 71
3
 72
8
 73
4
 74
0
 40
0
 40
0
 40
0
 40
0
 40
1
 40
1
 40
1
 40
1
 10
208.997028
 20
298.000547
 30
0.0
 10
208.997028
 20
298.828954
 30
0.0
 10
209.667907
 20
299.499853
 30
0.0
 10
210.496334
 20
299.499853
 30
0.0
  0
LWPOLYLINE
  5
34a
100
AcDbEntity
  8
Cut
 62
7
100
AcDbPolyline
 90
2
 70
0
 10
191.499250
 20
299.499853
 30
0.0
 10
191.499250
 20
299.499853
 30
0.0
  0
SPLINE
  5
34b
100
AcDbEntity
  8
Cut
 62
7
100
AcDbSpline
 70
8
 71
3
 72
8
 73
4
 74
0
 40
0
 40
0
 40
0
 40
0
 40
1
 40
1
 40
1
 40
1
 10
219.509806
 20
299.235269
 30
0.0
 10
220.199467
 20
299.235269
 30
0.0
 10
220.753347
 20
298.681380
 30
0.0
 10
220.753347
 20
297.991742
 30
0.0
  0
SPLINE
  5
34c
100
AcDbEntity
  8
Cut
 62
7
100
AcDbSpline
 70
8
 71
3
 72
8
 73
4
 74
0
 40
0
 40
0
 40
0
 40
0
 40
1
 40
1
 40
1
 40
1
 10
220.753347
 20
297.991742
 30
0.0
 10
220.753347
 20
297.302019
 30
0.0
 10
220.199467
 20
296.748186
 30
0.0
 10
219.509806
 20
296.748186
 30
0.0
  0
SPLINE
  5
34d
100
AcDbEntity
  8
Cut
 62
7
100
AcDbSpline
 70
8
 71
3
 72
8
 73
4
 74
0
 40
0
 40
0
 40
0
 40
0
 40
1
 40
1
 40
1
 40
1
 10
219.509806
 20
296.748186
 30
0.0
 10
218.820145
 20
296.748186
 30
0.0
 10
218.248625
 20
297.302019
 30
0.0
 10
218.248625
 20
297.991742
 30
0.0
  0
SPLINE
  5
34e
100
AcDbEntity
  8
Cut
 62
7
100
AcDbSpline
 70
8
 71
3
 72
8
 73
4
 74
0
 40
0
 40
0
 40
0
 40
0
 40
1
 40
1
 40
1
 40
1
 10
218.248625
 20
297.991742
 30
0.0
 10
218.248625
 20
298.681380
 30
0.0
 10
218.820145
 20
299.235269
 30
0.0
 10
219.509806
 20
299.235269
 30
0.0
  0
LWPOLYLINE
  5
34f
100
AcDbEntity
  8
Cut
 62
7
100
AcDbPolyline
 90
2
 70
0
 10
210.496334
 20
299.499853
 30
0.0
 10
210.496334
 20
299.499853
 30
0.0
  0
SPLINE
  5
350
100
AcDbEntity
  8
Cut
 62
7
100
AcDbSpline
 70
8
 71
3
 72
8
 73
4
 74
0
 40
0
 40
0
 40
0
 40
0
 40
1
 40
1
 40
1
 40
1
 10
200.997792
 20
291.500631
 30
0.0
 10
201.826219
 20
291.500631
 30
0.0
 10
202.497097
 20
290.829760
 30
0.0
 10
202.497097
 20
290.001297
 30
0.0
  0
SPLINE
  5
351
100
AcDbEntity
  8
Cut
 62
7
100
AcDbSpline
 70
8
 71
3
 72
8
 73
4
 74
0
 40
0
 40
0
 40
0
 40
0
 40
1
 40
1
 40
1
 40
1
 10
202.497097
 20
290.001297
 30
0.0
 10
202.497097
 20
289.172890
 30
0.0
 10
201.826219
 20
288.502019
 30
0.0
 10
200.997792
 20
288.502019
 30
0.0
  0
SPLINE
  5
352
100
AcDbEntity
  8
Cut
 62
7
100
AcDbSpline
 70
8
 71
3
 72
8
 73
4
 74
0
 40
0
 40
0
 40
0
 40
0
 40
1
 40
1
 40
1
 40
1
 10
200.997792
 20
288.502019
 30
0.0
 10
200.169365
 20
288.502019
 30
0.0
 10
199.498486
 20
289.172890
 30
0.0
 10
199.498486
 20
290.001297
 30
0.0
  0
SPLINE
  5
353
100
AcDbEntity
  8
Cut
 62
7
100
AcDbSpline
 70
8
 71
3
 72
8
 73
4
 74
0
 40
0
 40
0
 40
0
 40
0
 40
1
 40
1
 40
1
 40
1
 10
199.498486
 20
290.001297
 30
0.0
 10
199.498486
 20
290.829760
 30
0.0
 10
200.169365
 20
291.500631
 30
0.0
 10
200.997792
 20
291.500631
 30
0.0
  0
LWPOLYLINE
  5
354
100
AcDbEntity
  8
Cut
 62
7
100
AcDbPolyline
 90
2
 70
0
 10
219.509806
 20
299.235269
 30
0.0
 10
219.509806
 20
299.235269
 30
0.0
  0
SPLINE
  5
355
100
AcDbEntity
  8
Cut
 62
7
100
AcDbSpline
 70
8
 71
3
 72
8
 73
4
 74
0
 40
0
 40
0
 40
0
 40
0
 40
1
 40
1
 40
1
 40
1
 10
201.006597
 20
280.732075
 30
0.0
 10
201.696258
 20
280.732075
 30
0.0
 10
202.250139
 20
280.178242
 30
0.0
 10
202.250139
 20
279.488519
 30
0.0
  0
SPLINE
  5
356
100
AcDbEntity
  8
Cut
 62
7
100
AcDbSpline
 70
8
 71
3
 72
8
 73
4
 74
0
 40
0
 40
0
 40
0
 40
0
 40
1
 40
1
 40
1
 40
1
 10
202.250139
 20
279.488519
 30
0.0
 10
202.250139
 20
278.798881
 30
0.0
 10
201.696258
 20
278.244991
 30
0.0
 10
201.006597
 20
278.244991
 30
0.0
  0
SPLINE
  5
357
100
AcDbEntity
  8
Cut
 62
7
100
AcDbSpline
 70
8
 71
3
 72
8
 73
4
 74
0
 40
0
 40
0
 40
0
 40
0
 40
1
 40
1
 40
1
 40
1
 10
201.006597
 20
278.244991
 30
0.0
 10
200.316936
 20
278.244991
 30
0.0
 10
199.745417
 20
278.798881
 30
0.0
 10
199.745417
 20
279.488519
 30
0.0
  0
SPLINE
  5
358
100
AcDbEntity
  8
Cut
 62
7
100
AcDbSpline
 70
8
 71
3
 72
8
 73
4
 74
0
 40
0
 40
0
 40
0
 40
0
 40
1
 40
1
 40
1
 40
1
 10
199.745417
 20
279.488519
 30
0.0
 10
199.745417
 20
280.178242
 30
0.0
 10
200.316936
 20
280.732075
 30
0.0
 10
201.006597
 20
280.732075
 30
0.0
  0
LWPOLYLINE
  5
359
100
AcDbEntity
  8
Cut
 62
7
100
AcDbPolyline
 90
2
 70
0
 10
200.997792
 20
291.500631
 30
0.0
 10
200.997792
 20
291.500631
 30
0.0
  0
SPLINE
  5
35a
100
AcDbEntity
  8
Cut
 62
7
100
AcDbSpline
 70
8
 71
3
 72
8
 73
4
 74
0
 40
0
 40
0
 40
0
 40
0
 40
1
 40
1
 40
1
 40
1
 10
140.999097
 20
349.999991
 30
0.0
 10
129.795572
 20
349.999991
 30
0.0
 10
120.000000
 20
339.593075
 30
0.0
 10
120.000000
 20
327.995463
 30
0.0
  0
SPLINE
  5
35b
100
AcDbEntity
  8
Cut
 62
7
100
AcDbSpline
 70
8
 71
3
 72
8
 73
4
 74
0
 40
0
 40
0
 40
0
 40
0
 40
1
 40
1
 40
1
 40
1
 10
120.000000
 20
327.995463
 30
0.0
 10
120.000000
 20
316.396469
 30
0.0
 10
129.795572
 20
305.999797
 30
0.0
 10
140.999097
 20
305.999797
 30
0.0
  0
SPLINE
  5
35c
100
AcDbEntity
  8
Cut
 62
7
100
AcDbSpline
 70
8
 71
3
 72
8
 73
4
 74
0
 40
0
 40
0
 40
0
 40
0
 40
1
 40
1
 40
1
 40
1
 10
140.999097
 20
305.999797
 30
0.0
 10
152.202625
 20
305.999797
 30
0.0
 10
192.001944
 20
317.495470
 30
0.0
 10
192.001944
 20
327.995463
 30
0.0
  0
SPLINE
  5
35d
100
AcDbEntity
  8
Cut
 62
7
100
AcDbSpline
 70
8
 71
3
 72
8
 73
4
 74
0
 40
0
 40
0
 40
0
 40
0
 40
1
 40
1
 40
1
 40
1
 10
192.001944
 20
327.995463
 30
0.0
 10
192.001944
 20
338.495485
 30
0.0
 10
152.202625
 20
349.999991
 30
0.0
 10
140.999097
 20
349.999991
 30
0.0
  0
LWPOLYLINE
  5
35e
100
AcDbEntity
  8
Cut
 62
7
100
AcDbPolyline
 90
2
 70
0
 10
201.006597
 20
280.732075
 30
0.0
 10
201.006597
 20
280.732075
 30
0.0
  0
SPLINE
  5
35f
100
AcDbEntity
  8
Cut
 62
7
100
AcDbSpline
 70
8
 71
3
 72
8
 73
4
 74
0
 40
0
 40
0
 40
0
 40
0
 40
1
 40
1
 40
1
 40
1
 10
141.845764
 20
347.997963
 30
0.0
 10
141.896189
 20
348.003043
 30
0.0
 10
141.943918
 20
347.997963
 30
0.0
 10
141.995694
 20
347.997963
 30
0.0
  0
SPLINE
  5
360
100
AcDbEntity
  8
Cut
 62
7
100
AcDbSpline
 70
8
 71
3
 72
8
 73
4
 74
0
 40
0
 40
0
 40
0
 40
0
 40
1
 40
1
 40
1
 40
1
 10
141.995694
 20
347.997963
 30
0.0
 10
142.824118
 20
347.997963
 30
0.0
 10
143.495000
 20
347.327121
 30
0.0
 10
143.495000
 20
346.498686
 30
0.0
  0
SPLINE
  5
361
100
AcDbEntity
  8
Cut
 62
7
100
AcDbSpline
 70
8
 71
3
 72
8
 73
4
 74
0
 40
0
 40
0
 40
0
 40
0
 40
1
 40
1
 40
1
 40
1
 10
143.495000
 20
346.498686
 30
0.0
 10
143.495000
 20
345.670251
 30
0.0
 10
142.824118
 20
344.999352
 30
0.0
 10
141.995694
 20
344.999352
 30
0.0
  0
SPLINE
  5
362
100
AcDbEntity
  8
Cut
 62
7
100
AcDbSpline
 70
8
 71
3
 72
8
 73
4
 74
0
 40
0
 40
0
 40
0
 40
0
 40
1
 40
1
 40
1
 40
1
 10
141.995694
 20
344.999352
 30
0.0
 10
141.167265
 20
344.999352
 30
0.0
 10
140.496389
 20
345.670251
 30
0.0
 10
140.496389
 20
346.498686
 30
0.0
  0
SPLINE
  5
363
100
AcDbEntity
  8
Cut
 62
7
100
AcDbSpline
 70
8
 71
3
 72
8
 73
4
 74
0
 40
0
 40
0
 40
0
 40
0
 40
1
 40
1
 40
1
 40
1
 10
140.496389
 20
346.498686
 30
0.0
 10
140.496389
 20
347.275333
 30
0.0
 10
141.089377
 20
347.921171
 30
0.0
 10
141.845764
 20
347.997963
 30
0.0
  0
LWPOLYLINE
  5
364
100
AcDbEntity
  8
Cut
 62
7
100
AcDbPolyline
 90
2
 70
0
 10
140.999097
 20
349.999991
 30
0.0
 10
140.999097
 20
349.999991
 30
0.0
  0
SPLINE
  5
365
100
AcDbEntity
  8
Cut
 62
7
100
AcDbSpline
 70
8
 71
3
 72
8
 73
4
 74
0
 40
0
 40
0
 40
0
 40
0
 40
1
 40
1
 40
1
 40
1
 10
141.995694
 20
342.997353
 30
0.0
 10
150.279967
 20
342.997353
 30
0.0
 10
156.997569
 20
336.279673
 30
0.0
 10
156.997569
 20
327.995463
 30
0.0
  0
SPLINE
  5
366
100
AcDbEntity
  8
Cut
 62
7
100
AcDbSpline
 70
8
 71
3
 72
8
 73
4
 74
0
 40
0
 40
0
 40
0
 40
0
 40
1
 40
1
 40
1
 40
1
 10
156.997569
 20
327.995463
 30
0.0
 10
156.997569
 20
319.711169
 30
0.0
 10
150.279967
 20
313.002408
 30
0.0
 10
141.995694
 20
313.002408
 30
0.0
  0
SPLINE
  5
367
100
AcDbEntity
  8
Cut
 62
7
100
AcDbSpline
 70
8
 71
3
 72
8
 73
4
 74
0
 40
0
 40
0
 40
0
 40
0
 40
1
 40
1
 40
1
 40
1
 10
141.995694
 20
313.002408
 30
0.0
 10
133.711422
 20
313.002408
 30
0.0
 10
126.993819
 20
319.711169
 30
0.0
 10
126.993819
 20
327.995463
 30
0.0
  0
SPLINE
  5
368
100
AcDbEntity
  8
Cut
 62
7
100
AcDbSpline
 70
8
 71
3
 72
8
 73
4
 74
0
 40
0
 40
0
 40
0
 40
0
 40
1
 40
1
 40
1
 40
1
 10
126.993819
 20
327.995463
 30
0.0
 10
126.993819
 20
336.279673
 30
0.0
 10
133.711422
 20
342.997353
 30
0.0
 10
141.995694
 20
342.997353
 30
0.0
  0
LWPOLYLINE
  5
369
100
AcDbEntity
  8
Cut
 62
7
100
AcDbPolyline
 90
2
 70
0
 10
141.845764
 20
347.997963
 30
0.0
 10
141.845764
 20
347.997963
 30
0.0
  0
SPLINE
  5
36a
100
AcDbEntity
  8
Cut
 62
7
100
AcDbSpline
 70
8
 71
3
 72
8
 73
4
 74
0
 40
0
 40
0
 40
0
 40
0
 40
1
 40
1
 40
1
 40
1
 10
123.351389
 20
329.494797
 30
0.0
 10
123.401814
 20
329.499877
 30
0.0
 10
123.449543
 20
329.494797
 30
0.0
 10
123.501319
 20
329.494797
 30
0.0
  0
SPLINE
  5
36b
100
AcDbEntity
  8
Cut
 62
7
100
AcDbSpline
 70
8
 71
3
 72
8
 73
4
 74
0
 40
0
 40
0
 40
0
 40
0
 40
1
 40
1
 40
1
 40
1
 10
123.501319
 20
329.494797
 30
0.0
 10
124.329743
 20
329.494797
 30
0.0
 10
125.000625
 20
328.823927
 30
0.0
 10
125.000625
 20
327.995463
 30
0.0
  0
SPLINE
  5
36c
100
AcDbEntity
  8
Cut
 62
7
100
AcDbSpline
 70
8
 71
3
 72
8
 73
4
 74
0
 40
0
 40
0
 40
0
 40
0
 40
1
 40
1
 40
1
 40
1
 10
125.000625
 20
327.995463
 30
0.0
 10
125.000625
 20
327.167057
 30
0.0
 10
124.329743
 20
326.496186
 30
0.0
 10
123.501319
 20
326.496186
 30
0.0
  0
SPLINE
  5
36d
100
AcDbEntity
  8
Cut
 62
7
100
AcDbSpline
 70
8
 71
3
 72
8
 73
4
 74
0
 40
0
 40
0
 40
0
 40
0
 40
1
 40
1
 40
1
 40
1
 10
123.501319
 20
326.496186
 30
0.0
 10
122.672890
 20
326.496186
 30
0.0
 10
122.002014
 20
327.167057
 30
0.0
 10
122.002014
 20
327.995463
 30
0.0
  0
SPLINE
  5
36e
100
AcDbEntity
  8
Cut
 62
7
100
AcDbSpline
 70
8
 71
3
 72
8
 73
4
 74
0
 40
0
 40
0
 40
0
 40
0
 40
1
 40
1
 40
1
 40
1
 10
122.002014
 20
327.995463
 30
0.0
 10
122.002014
 20
328.772139
 30
0.0
 10
122.595002
 20
329.417976
 30
0.0
 10
123.351389
 20
329.494797
 30
0.0
  0
LWPOLYLINE
  5
36f
100
AcDbEntity
  8
Cut
 62
7
100
AcDbPolyline
 90
2
 70
0
 10
141.995694
 20
342.997353
 30
0.0
 10
141.995694
 20
342.997353
 30
0.0
  0
SPLINE
  5
370
100
AcDbEntity
  8
Cut
 62
7
100
AcDbSpline
 70
8
 71
3
 72
8
 73
4
 74
0
 40
0
 40
0
 40
0
 40
0
 40
1
 40
1
 40
1
 40
1
 10
169.344792
 20
329.494797
 30
0.0
 10
169.395216
 20
329.499877
 30
0.0
 10
169.442946
 20
329.494797
 30
0.0
 10
169.494722
 20
329.494797
 30
0.0
  0
SPLINE
  5
371
100
AcDbEntity
  8
Cut
 62
7
100
AcDbSpline
 70
8
 71
3
 72
8
 73
4
 74
0
 40
0
 40
0
 40
0
 40
0
 40
1
 40
1
 40
1
 40
1
 10
169.494722
 20
329.494797
 30
0.0
 10
170.323152
 20
329.494797
 30
0.0
 10
170.994028
 20
328.823899
 30
0.0
 10
170.994028
 20
327.995463
 30
0.0
  0
SPLINE
  5
372
100
AcDbEntity
  8
Cut
 62
7
100
AcDbSpline
 70
8
 71
3
 72
8
 73
4
 74
0
 40
0
 40
0
 40
0
 40
0
 40
1
 40
1
 40
1
 40
1
 10
170.994028
 20
327.995463
 30
0.0
 10
170.994028
 20
327.167057
 30
0.0
 10
170.323152
 20
326.496186
 30
0.0
 10
169.494722
 20
326.496186
 30
0.0
  0
SPLINE
  5
373
100
AcDbEntity
  8
Cut
 62
7
100
AcDbSpline
 70
8
 71
3
 72
8
 73
4
 74
0
 40
0
 40
0
 40
0
 40
0
 40
1
 40
1
 40
1
 40
1
 10
169.494722
 20
326.496186
 30
0.0
 10
168.666296
 20
326.496186
 30
0.0
 10
167.995417
 20
327.167057
 30
0.0
 10
167.995417
 20
327.995463
 30
0.0
  0
SPLINE
  5
374
100
AcDbEntity
  8
Cut
 62
7
100
AcDbSpline
 70
8
 71
3
 72
8
 73
4
 74
0
 40
0
 40
0
 40
0
 40
0
 40
1
 40
1
 40
1
 40
1
 10
167.995417
 20
327.995463
 30
0.0
 10
167.995417
 20
328.772111
 30
0.0
 10
168.588408
 20
329.417976
 30
0.0
 10
169.344792
 20
329.494797
 30
0.0
  0
LWPOLYLINE
  5
375
100
AcDbEntity
  8
Cut
 62
7
100
AcDbPolyline
 90
2
 70
0
 10
123.351389
 20
329.494797
 30
0.0
 10
123.351389
 20
329.494797
 30
0.0
  0
SPLINE
  5
376
100
AcDbEntity
  8
Cut
 62
7
100
AcDbSpline
 70
8
 71
3
 72
8
 73
4
 74
0
 40
0
 40
0
 40
0
 40
0
 40
1
 40
1
 40
1
 40
1
 10
182.344653
 20
329.494797
 30
0.0
 10
182.395077
 20
329.499877
 30
0.0
 10
182.442807
 20
329.494797
 30
0.0
 10
182.494583
 20
329.494797
 30
0.0
  0
SPLINE
  5
377
100
AcDbEntity
  8
Cut
 62
7
100
AcDbSpline
 70
8
 71
3
 72
8
 73
4
 74
0
 40
0
 40
0
 40
0
 40
0
 40
1
 40
1
 40
1
 40
1
 10
182.494583
 20
329.494797
 30
0.0
 10
183.323013
 20
329.494797
 30
0.0
 10
183.993889
 20
328.823899
 30
0.0
 10
183.993889
 20
327.995463
 30
0.0
  0
SPLINE
  5
378
100
AcDbEntity
  8
Cut
 62
7
100
AcDbSpline
 70
8
 71
3
 72
8
 73
4
 74
0
 40
0
 40
0
 40
0
 40
0
 40
1
 40
1
 40
1
 40
1
 10
183.993889
 20
327.995463
 30
0.0
 10
183.993889
 20
327.167057
 30
0.0
 10
183.323013
 20
326.496186
 30
0.0
 10
182.494583
 20
326.496186
 30
0.0
  0
SPLINE
  5
379
100
AcDbEntity
  8
Cut
 62
7
100
AcDbSpline
 70
8
 71
3
 72
8
 73
4
 74
0
 40
0
 40
0
 40
0
 40
0
 40
1
 40
1
 40
1
 40
1
 10
182.494583
 20
326.496186
 30
0.0
 10
181.666157
 20
326.496186
 30
0.0
 10
180.995278
 20
327.167057
 30
0.0
 10
180.995278
 20
327.995463
 30
0.0
  0
SPLINE
  5
37a
100
AcDbEntity
  8
Cut
 62
7
100
AcDbSpline
 70
8
 71
3
 72
8
 73
4
 74
0
 40
0
 40
0
 40
0
 40
0
 40
1
 40
1
 40
1
 40
1
 10
180.995278
 20
327.995463
 30
0.0
 10
180.995278
 20
328.772111
 30
0.0
 10
181.588269
 20
329.417976
 30
0.0
 10
182.344653
 20
329.494797
 30
0.0
  0
LWPOLYLINE
  5
37b
100
AcDbEntity
  8
Cut
 62
7
100
AcDbPolyline
 90
2
 70
0
 10
169.344792
 20
329.494797
 30
0.0
 10
169.344792
 20
329.494797
 30
0.0
  0
SPLINE
  5
37c
100
AcDbEntity
  8
Cut
 62
7
100
AcDbSpline
 70
8
 71
3
 72
8
 73
4
 74
0
 40
0
 40
0
 40
0
 40
0
 40
1
 40
1
 40
1
 40
1
 10
141.845764
 20
311.000408
 30
0.0
 10
141.896189
 20
311.005488
 30
0.0
 10
141.943918
 20
311.000408
 30
0.0
 10
141.995694
 20
311.000408
 30
0.0
  0
SPLINE
  5
37d
100
AcDbEntity
  8
Cut
 62
7
100
AcDbSpline
 70
8
 71
3
 72
8
 73
4
 74
0
 40
0
 40
0
 40
0
 40
0
 40
1
 40
1
 40
1
 40
1
 10
141.995694
 20
311.000408
 30
0.0
 10
142.824118
 20
311.000408
 30
0.0
 10
143.495000
 20
310.329566
 30
0.0
 10
143.495000
 20
309.501103
 30
0.0
  0
SPLINE
  5
37e
100
AcDbEntity
  8
Cut
 62
7
100
AcDbSpline
 70
8
 71
3
 72
8
 73
4
 74
0
 40
0
 40
0
 40
0
 40
0
 40
1
 40
1
 40
1
 40
1
 10
143.495000
 20
309.501103
 30
0.0
 10
143.495000
 20
308.672696
 30
0.0
 10
142.824118
 20
308.001797
 30
0.0
 10
141.995694
 20
308.001797
 30
0.0
  0
SPLINE
  5
37f
100
AcDbEntity
  8
Cut
 62
7
100
AcDbSpline
 70
8
 71
3
 72
8
 73
4
 74
0
 40
0
 40
0
 40
0
 40
0
 40
1
 40
1
 40
1
 40
1
 10
141.995694
 20
308.001797
 30
0.0
 10
141.167265
 20
308.001797
 30
0.0
 10
140.496389
 20
308.672696
 30
0.0
 10
140.496389
 20
309.501103
 30
0.0
  0
SPLINE
  5
380
100
AcDbEntity
  8
Cut
 62
7
100
AcDbSpline
 70
8
 71
3
 72
8
 73
4
 74
0
 40
0
 40
0
 40
0
 40
0
 40
1
 40
1
 40
1
 40
1
 10
140.496389
 20
309.501103
 30
0.0
 10
140.496389
 20
310.277778
 30
0.0
 10
141.089377
 20
310.923587
 30
0.0
 10
141.845764
 20
311.000408
 30
0.0
  0
LWPOLYLINE
  5
381
100
AcDbEntity
  8
Cut
 62
7
100
AcDbPolyline
 90
2
 70
0
 10
182.344653
 20
329.494797
 30
0.0
 10
182.344653
 20
329.494797
 30
0.0
  0
LWPOLYLINE
  5
382
100
AcDbEntity
  8
Cut
 62
7
100
AcDbPolyline
 90
2
 70
0
 10
141.845764
 20
311.000408
 30
0.0
 10
141.845764
 20
311.000408
 30
0.0
  0
ENDSEC
  0
SECTION
  2
OBJECTS
  0
DICTIONARY
  5
C
330
0
100
AcDbDictionary
  3
ACAD_GROUP
350
D
  3
ACAD_MLINESTYLE
350
17
  0
DICTIONARY
  5
D
330
C
100
AcDbDictionary
  0
DICTIONARY
  5
1A
330
C
100
AcDbDictionary
  0
DICTIONARY
  5
17
330
C
100
AcDbDictionary
  3
STANDARD
350
18
  0
DICTIONARY
  5
19
330
C
100
AcDbDictionary
  0
ENDSEC
  0
EOF
