  0
SECTION
  2
HEADER
  9
$ACADVER
  1
AC1014
  9
$HANDSEED
  5
FFFF
  9
$MEASUREMENT
 70
     1
  0
ENDSEC
  0
SECTION
  2
TABLES
  0
TABLE
  2
VPORT
  5
8
330
0
100
AcDbSymbolTable
 70
     4
  0
VPORT
  5
2E
330
8
100
AcDbSymbolTableRecord
100
AcDbViewportTableRecord
  2
*ACTIVE
 70
     0
 10
0.0
 20
0.0
 11
1.0
 21
1.0
 12
210.0
 22
148.5
 13
0.0
 23
0.0
 14
10.0
 24
10.0
 15
10.0
 25
10.0
 16
0.0
 26
0.0
 36
1.0
 17
0.0
 27
0.0
 37
0.0
 40
341.0
 41
1.24
 42
50.0
 43
0.0
 44
0.0
 50
0.0
 51
0.0
 71
     0
 72
   100
 73
     1
 74
     3
 75
     0
 76
     0
 77
     0
 78
     0
  0
ENDTAB
  0
TABLE
  2
LTYPE
  5
5
330
0
100
AcDbSymbolTable
 70
     1
  0
LTYPE
  5
14
330
5
100
AcDbSymbolTableRecord
100
AcDbLinetypeTableRecord
  2
BYBLOCK
 70
     0
  3

 72
    65
 73
     0
 40
0.0
  0
LTYPE
  5
15
330
5
100
AcDbSymbolTableRecord
100
AcDbLinetypeTableRecord
  2
BYLAYER
 70
     0
  3

 72
    65
 73
     0
 40
0.0
  0
LTYPE
  5
16
330
5
100
AcDbSymbolTableRecord
100
AcDbLinetypeTableRecord
  2
CONTINUOUS
 70
     0
  3
Solid line
 72
    65
 73
     0
 40
0.0
  0
ENDTAB
  0
TABLE
  2
LAYER
  5
2
100
AcDbSymbolTable
 70
2
  0
LAYER
  5
50
100
AcDbSymbolTableRecord
100
AcDbLayerTableRecord
  2
0
 70
0
  6
CONTINUOUS
  0
LAYER
  5
51
100
AcDbSymbolTableRecord
100
AcDbLayerTableRecord
  2
Layer
 70
0
  6
CONTINUOUS
  0
ENDTAB
  0
TABLE
  2
STYLE
  5
3
330
0
100
AcDbSymbolTable
 70
     1
  0
STYLE
  5
11
330
3
100
AcDbSymbolTableRecord
100
AcDbTextStyleTableRecord
  2
STANDARD
 70
     0
 40
0.0
 41
1.0
 50
0.0
 71
     0
 42
2.5
  3
txt
  4

  0
ENDTAB
  0
TABLE
  2
VIEW
  5
6
330
0
100
AcDbSymbolTable
 70
     0
  0
ENDTAB
  0
TABLE
  2
UCS
  5
7
330
0
100
AcDbSymbolTable
 70
     0
  0
ENDTAB
  0
TABLE
  2
APPID
  5
9
330
0
100
AcDbSymbolTable
 70
     2
  0
APPID
  5
12
330
9
100
AcDbSymbolTableRecord
100
AcDbRegAppTableRecord
  2
ACAD
 70
     0
  0
ENDTAB
  0
TABLE
  2
DIMSTYLE
  5
A
330
0
100
AcDbSymbolTable
 70
     1
  0
DIMSTYLE
105
27
330
A
100
AcDbSymbolTableRecord
100
AcDbDimStyleTableRecord
  2
ISO-25
 70
     0
  3

  4

  5

  6

  7

 40
1.0
 41
2.5
 42
0.625
 43
3.75
 44
1.25
 45
0.0
 46
0.0
 47
0.0
 48
0.0
140
2.5
141
2.5
142
0.0
143
0.03937007874016
144
1.0
145
0.0
146
1.0
147
0.625
 71
     0
 72
     0
 73
     0
 74
     0
 75
     0
 76
     0
 77
     1
 78
     8
170
     0
171
     3
172
     1
173
     0
174
     0
175
     0
176
     0
177
     0
178
     0
270
     2
271
     2
272
     2
273
     2
274
     3
340
11
275
     0
280
     0
281
     0
282
     0
283
     0
284
     8
285
     0
286
     0
287
     3
288
     0
  0
ENDTAB
  0
TABLE
  2
BLOCK_RECORD
  5
1
330
0
100
AcDbSymbolTable
 70
     1
  0
BLOCK_RECORD
  5
1F
330
1
100
AcDbSymbolTableRecord
100
AcDbBlockTableRecord
  2
*MODEL_SPACE
  0
BLOCK_RECORD
  5
1B
330
1
100
AcDbSymbolTableRecord
100
AcDbBlockTableRecord
  2
*PAPER_SPACE
  0
ENDTAB
  0
ENDSEC
  0
SECTION
  2
BLOCKS
  0
BLOCK
  5
20
330
1F
100
AcDbEntity
  8
0
100
AcDbBlockBegin
  2
*MODEL_SPACE
 70
     0
 10
0.0
 20
0.0
 30
0.0
  3
*MODEL_SPACE
  1

  0
ENDBLK
  5
21
330
1F
100
AcDbEntity
  8
0
100
AcDbBlockEnd
  0
BLOCK
  5
1C
330
1B
100
AcDbEntity
 67
     1
  8
0
100
AcDbBlockBegin
  2
*PAPER_SPACE
  1

  0
ENDBLK
  5
1D
330
1B
100
AcDbEntity
 67
     1
  8
0
100
AcDbBlockEnd
  0
ENDSEC
  0
SECTION
  2
ENTITIES
  0
LWPOLYLINE
  5
100
100
AcDbEntity
  8
Layer
 62
7
100
AcDbPolyline
 90
114
 70
0
 10
20.001318
 20
91.995075
 30
0.0
 10
20.001318
 20
74.999991
 30
0.0
 10
30.002570
 20
74.999991
 30
0.0
 10
30.002570
 20
71.992575
 30
0.0
 10
39.995001
 20
71.992575
 30
0.0
 10
39.995001
 20
74.999991
 30
0.0
 10
49.996251
 20
74.999991
 30
0.0
 10
49.996251
 20
71.992575
 30
0.0
 10
59.997501
 20
71.992575
 30
0.0
 10
59.997501
 20
74.999991
 30
0.0
 10
69.998751
 20
74.999991
 30
0.0
 10
69.998751
 20
71.992575
 30
0.0
 10
80.000001
 20
71.992575
 30
0.0
 10
80.000001
 20
74.999991
 30
0.0
 10
90.001251
 20
74.999991
 30
0.0
 10
90.001251
 20
71.992575
 30
0.0
 10
100.002501
 20
71.992575
 30
0.0
 10
100.002501
 20
74.999991
 30
0.0
 10
109.994931
 20
74.999991
 30
0.0
 10
109.994931
 20
71.992575
 30
0.0
 10
119.996181
 20
71.992575
 30
0.0
 10
119.996181
 20
74.999991
 30
0.0
 10
129.997431
 20
74.999991
 30
0.0
 10
129.997431
 20
71.992575
 30
0.0
 10
139.998681
 20
71.992575
 30
0.0
 10
139.998681
 20
74.999991
 30
0.0
 10
149.999931
 20
74.999991
 30
0.0
 10
149.999931
 20
71.992575
 30
0.0
 10
160.001181
 20
71.992575
 30
0.0
 10
160.001181
 20
74.999991
 30
0.0
 10
170.002431
 20
74.999991
 30
0.0
 10
170.002431
 20
71.992575
 30
0.0
 10
179.994862
 20
71.992575
 30
0.0
 10
179.994862
 20
74.999991
 30
0.0
 10
189.996112
 20
74.999991
 30
0.0
 10
189.996112
 20
71.992575
 30
0.0
 10
199.997362
 20
71.992575
 30
0.0
 10
199.997362
 20
74.999991
 30
0.0
 10
209.998612
 20
74.999991
 30
0.0
 10
209.998612
 20
71.992575
 30
0.0
 10
219.999862
 20
71.992575
 30
0.0
 10
219.999862
 20
74.999991
 30
0.0
 10
230.001112
 20
74.999991
 30
0.0
 10
230.001112
 20
71.992575
 30
0.0
 10
240.002362
 20
71.992575
 30
0.0
 10
240.002362
 20
74.999991
 30
0.0
 10
249.994793
 20
74.999991
 30
0.0
 10
249.994793
 20
71.992575
 30
0.0
 10
259.996043
 20
71.992575
 30
0.0
 10
259.996043
 20
74.999991
 30
0.0
 10
269.997293
 20
74.999991
 30
0.0
 10
269.997293
 20
71.992575
 30
0.0
 10
279.998543
 20
71.992575
 30
0.0
 10
279.998543
 20
74.999991
 30
0.0
 10
289.999787
 20
74.999991
 30
0.0
 10
289.999787
 20
71.992575
 30
0.0
 10
300.001037
 20
71.992575
 30
0.0
 10
300.001037
 20
74.999991
 30
0.0
 10
310.002287
 20
74.999991
 30
0.0
 10
310.002287
 20
71.992575
 30
0.0
 10
319.994732
 20
71.992575
 30
0.0
 10
319.994732
 20
74.999991
 30
0.0
 10
329.995953
 20
74.999991
 30
0.0
 10
329.995953
 20
71.992575
 30
0.0
 10
339.997232
 20
71.992575
 30
0.0
 10
339.997232
 20
74.999991
 30
0.0
 10
349.998453
 20
74.999991
 30
0.0
 10
349.998453
 20
71.992575
 30
0.0
 10
359.999732
 20
71.992575
 30
0.0
 10
359.999732
 20
74.999991
 30
0.0
 10
370.000953
 20
74.999991
 30
0.0
 10
370.000953
 20
71.992575
 30
0.0
 10
380.002232
 20
71.992575
 30
0.0
 10
380.002232
 20
74.999991
 30
0.0
 10
389.994648
 20
74.999991
 30
0.0
 10
389.994648
 20
71.992575
 30
0.0
 10
399.995898
 20
71.992575
 30
0.0
 10
399.995898
 20
74.999991
 30
0.0
 10
409.997148
 20
74.999991
 30
0.0
 10
409.997148
 20
71.992575
 30
0.0
 10
419.998398
 20
71.992575
 30
0.0
 10
419.998398
 20
74.999991
 30
0.0
 10
429.999648
 20
74.999991
 30
0.0
 10
429.999648
 20
71.992575
 30
0.0
 10
440.000898
 20
71.992575
 30
0.0
 10
440.000898
 20
74.999991
 30
0.0
 10
450.002148
 20
74.999991
 30
0.0
 10
450.002148
 20
71.992575
 30
0.0
 10
459.994564
 20
71.992575
 30
0.0
 10
459.994564
 20
74.999991
 30
0.0
 10
469.995843
 20
74.999991
 30
0.0
 10
469.995843
 20
71.992575
 30
0.0
 10
479.997064
 20
71.992575
 30
0.0
 10
479.997064
 20
74.991186
 30
0.0
 10
489.998343
 20
74.991186
 30
0.0
 10
489.998343
 20
71.992575
 30
0.0
 10
499.999564
 20
71.992575
 30
0.0
 10
499.999564
 20
74.999991
 30
0.0
 10
510.000843
 20
74.999991
 30
0.0
 10
510.000843
 20
71.992575
 30
0.0
 10
520.002064
 20
71.992575
 30
0.0
 10
520.002064
 20
74.999991
 30
0.0
 10
529.994509
 20
74.999991
 30
0.0
 10
529.994509
 20
71.992575
 30
0.0
 10
539.995759
 20
71.992575
 30
0.0
 10
539.995759
 20
74.999991
 30
0.0
 10
549.997009
 20
74.999991
 30
0.0
 10
549.997009
 20
71.992575
 30
0.0
 10
559.998259
 20
71.992575
 30
0.0
 10
559.998259
 20
74.991186
 30
0.0
 10
569.999509
 20
74.991186
 30
0.0
 10
569.999509
 20
91.995075
 30
0.0
 10
20.001318
 20
91.995075
 30
0.0
 10
20.001318
 20
91.995075
 30
0.0
  0
LWPOLYLINE
  5
101
100
AcDbEntity
  8
Layer
 62
7
100
AcDbPolyline
 90
6
 70
0
 10
36.211459
 20
83.969352
 30
0.0
 10
100.902084
 20
83.969352
 30
0.0
 10
100.902084
 20
80.997213
 30
0.0
 10
36.211459
 20
80.997213
 30
0.0
 10
36.211459
 20
83.969352
 30
0.0
 10
36.211459
 20
83.969352
 30
0.0
  0
LWPOLYLINE
  5
102
100
AcDbEntity
  8
Layer
 62
7
100
AcDbPolyline
 90
6
 70
0
 10
262.633056
 20
83.969352
 30
0.0
 10
327.323676
 20
83.969352
 30
0.0
 10
327.323676
 20
80.997213
 30
0.0
 10
262.633056
 20
80.997213
 30
0.0
 10
262.633056
 20
83.969352
 30
0.0
 10
262.633056
 20
83.969352
 30
0.0
  0
LWPOLYLINE
  5
103
100
AcDbEntity
  8
Layer
 62
7
100
AcDbPolyline
 90
6
 70
0
 10
489.054648
 20
83.969352
 30
0.0
 10
553.754092
 20
83.969352
 30
0.0
 10
553.754092
 20
80.997213
 30
0.0
 10
489.054648
 20
80.997213
 30
0.0
 10
489.054648
 20
83.969352
 30
0.0
 10
489.054648
 20
83.969352
 30
0.0
  0
LWPOLYLINE
  5
104
100
AcDbEntity
  8
Layer
 62
7
100
AcDbPolyline
 90
222
 70
0
 10
20.000000
 20
70.000001
 30
0.0
 10
20.000000
 20
49.000890
 30
0.0
 10
30.001250
 20
49.000890
 30
0.0
 10
30.001250
 20
46.002279
 30
0.0
 10
39.993680
 20
46.002279
 30
0.0
 10
39.993680
 20
49.000890
 30
0.0
 10
49.994930
 20
49.000890
 30
0.0
 10
49.994930
 20
46.002279
 30
0.0
 10
59.996180
 20
46.002279
 30
0.0
 10
59.996180
 20
49.000890
 30
0.0
 10
69.997430
 20
49.000890
 30
0.0
 10
69.997430
 20
46.002279
 30
0.0
 10
79.998680
 20
46.002279
 30
0.0
 10
79.998680
 20
49.000890
 30
0.0
 10
89.999930
 20
49.000890
 30
0.0
 10
89.999930
 20
46.002279
 30
0.0
 10
100.001180
 20
46.002279
 30
0.0
 10
100.001180
 20
49.000890
 30
0.0
 10
109.993611
 20
49.000890
 30
0.0
 10
109.993611
 20
46.002279
 30
0.0
 10
119.994861
 20
46.002279
 30
0.0
 10
119.994861
 20
49.000890
 30
0.0
 10
129.996111
 20
49.000890
 30
0.0
 10
129.996111
 20
46.002279
 30
0.0
 10
139.997361
 20
46.002279
 30
0.0
 10
139.997361
 20
49.000890
 30
0.0
 10
149.998611
 20
49.000890
 30
0.0
 10
149.998611
 20
46.002279
 30
0.0
 10
159.999861
 20
46.002279
 30
0.0
 10
159.999861
 20
49.000890
 30
0.0
 10
170.001111
 20
49.000890
 30
0.0
 10
170.001111
 20
46.002279
 30
0.0
 10
179.993541
 20
46.002279
 30
0.0
 10
179.993541
 20
49.000890
 30
0.0
 10
189.994791
 20
49.000890
 30
0.0
 10
189.994791
 20
46.002279
 30
0.0
 10
199.996041
 20
46.002279
 30
0.0
 10
199.996041
 20
49.000890
 30
0.0
 10
209.997291
 20
49.000890
 30
0.0
 10
209.997291
 20
46.002279
 30
0.0
 10
219.998541
 20
46.002279
 30
0.0
 10
219.998541
 20
49.000890
 30
0.0
 10
229.999791
 20
49.000890
 30
0.0
 10
229.999791
 20
46.002279
 30
0.0
 10
240.001041
 20
46.002279
 30
0.0
 10
240.001041
 20
49.000890
 30
0.0
 10
249.993472
 20
49.000890
 30
0.0
 10
249.993472
 20
46.002279
 30
0.0
 10
259.994722
 20
46.002279
 30
0.0
 10
259.994722
 20
49.000890
 30
0.0
 10
269.995972
 20
49.000890
 30
0.0
 10
269.995972
 20
46.002279
 30
0.0
 10
279.997222
 20
46.002279
 30
0.0
 10
279.997222
 20
49.000890
 30
0.0
 10
289.998460
 20
49.000890
 30
0.0
 10
289.998460
 20
46.002279
 30
0.0
 10
299.999710
 20
46.002279
 30
0.0
 10
299.999710
 20
49.000890
 30
0.0
 10
310.000960
 20
49.000890
 30
0.0
 10
310.000960
 20
46.002279
 30
0.0
 10
319.993405
 20
46.002279
 30
0.0
 10
319.993405
 20
49.000890
 30
0.0
 10
329.994627
 20
49.000890
 30
0.0
 10
329.994627
 20
46.002279
 30
0.0
 10
339.995905
 20
46.002279
 30
0.0
 10
339.995905
 20
49.000890
 30
0.0
 10
349.997127
 20
49.000890
 30
0.0
 10
349.997127
 20
46.002279
 30
0.0
 10
359.998405
 20
46.002279
 30
0.0
 10
359.998405
 20
49.000890
 30
0.0
 10
369.999627
 20
49.000890
 30
0.0
 10
369.999627
 20
46.002279
 30
0.0
 10
380.000905
 20
46.002279
 30
0.0
 10
380.000905
 20
49.000890
 30
0.0
 10
389.993322
 20
49.000890
 30
0.0
 10
389.993322
 20
46.002279
 30
0.0
 10
399.994572
 20
46.002279
 30
0.0
 10
399.994572
 20
49.000890
 30
0.0
 10
409.995822
 20
49.000890
 30
0.0
 10
409.995822
 20
46.002279
 30
0.0
 10
419.997072
 20
46.002279
 30
0.0
 10
419.997072
 20
49.000890
 30
0.0
 10
429.998322
 20
49.000890
 30
0.0
 10
429.998322
 20
46.002279
 30
0.0
 10
439.999572
 20
46.002279
 30
0.0
 10
439.999572
 20
49.000890
 30
0.0
 10
450.000822
 20
49.000890
 30
0.0
 10
450.000822
 20
46.002279
 30
0.0
 10
459.993238
 20
46.002279
 30
0.0
 10
459.993238
 20
49.000890
 30
0.0
 10
469.994516
 20
49.000890
 30
0.0
 10
469.994516
 20
46.002279
 30
0.0
 10
479.995738
 20
46.002279
 30
0.0
 10
479.995738
 20
49.000890
 30
0.0
 10
489.997016
 20
49.000890
 30
0.0
 10
489.997016
 20
46.002279
 30
0.0
 10
499.998238
 20
46.002279
 30
0.0
 10
499.998238
 20
49.000890
 30
0.0
 10
509.999516
 20
49.000890
 30
0.0
 10
509.999516
 20
46.002279
 30
0.0
 10
520.000738
 20
46.002279
 30
0.0
 10
520.000738
 20
49.000890
 30
0.0
 10
529.993183
 20
49.000890
 30
0.0
 10
529.993183
 20
46.002279
 30
0.0
 10
539.994433
 20
46.002279
 30
0.0
 10
539.994433
 20
49.000890
 30
0.0
 10
549.995683
 20
49.000890
 30
0.0
 10
549.995683
 20
46.002279
 30
0.0
 10
559.996933
 20
46.002279
 30
0.0
 10
559.996933
 20
49.000890
 30
0.0
 10
569.998183
 20
49.000890
 30
0.0
 10
569.998183
 20
70.000001
 30
0.0
 10
559.996933
 20
70.000001
 30
0.0
 10
559.996933
 20
67.001390
 30
0.0
 10
549.995683
 20
67.001390
 30
0.0
 10
549.995683
 20
70.000001
 30
0.0
 10
539.994433
 20
70.000001
 30
0.0
 10
539.994433
 20
67.001390
 30
0.0
 10
529.993183
 20
67.001390
 30
0.0
 10
529.993183
 20
70.000001
 30
0.0
 10
520.000738
 20
70.000001
 30
0.0
 10
520.000738
 20
67.001390
 30
0.0
 10
509.999516
 20
67.001390
 30
0.0
 10
509.999516
 20
70.000001
 30
0.0
 10
499.998238
 20
70.000001
 30
0.0
 10
499.998238
 20
67.001390
 30
0.0
 10
489.997016
 20
67.001390
 30
0.0
 10
489.997016
 20
70.000001
 30
0.0
 10
479.995738
 20
70.000001
 30
0.0
 10
479.995738
 20
67.001390
 30
0.0
 10
469.994516
 20
67.001390
 30
0.0
 10
469.994516
 20
70.000001
 30
0.0
 10
459.993238
 20
70.000001
 30
0.0
 10
459.993238
 20
67.001390
 30
0.0
 10
450.000822
 20
67.001390
 30
0.0
 10
450.000822
 20
70.000001
 30
0.0
 10
439.999572
 20
70.000001
 30
0.0
 10
439.999572
 20
67.001390
 30
0.0
 10
429.998322
 20
67.001390
 30
0.0
 10
429.998322
 20
70.000001
 30
0.0
 10
419.997072
 20
70.000001
 30
0.0
 10
419.997072
 20
67.001390
 30
0.0
 10
409.995822
 20
67.001390
 30
0.0
 10
409.995822
 20
70.000001
 30
0.0
 10
399.994572
 20
70.000001
 30
0.0
 10
399.994572
 20
67.001390
 30
0.0
 10
389.993322
 20
67.001390
 30
0.0
 10
389.993322
 20
70.000001
 30
0.0
 10
380.000905
 20
70.000001
 30
0.0
 10
380.000905
 20
67.001390
 30
0.0
 10
369.999627
 20
67.001390
 30
0.0
 10
369.999627
 20
70.000001
 30
0.0
 10
359.998405
 20
70.000001
 30
0.0
 10
359.998405
 20
67.001390
 30
0.0
 10
349.997127
 20
67.001390
 30
0.0
 10
349.997127
 20
70.000001
 30
0.0
 10
339.995905
 20
70.000001
 30
0.0
 10
339.995905
 20
67.001390
 30
0.0
 10
329.994627
 20
67.001390
 30
0.0
 10
329.994627
 20
70.000001
 30
0.0
 10
319.993405
 20
70.000001
 30
0.0
 10
319.993405
 20
67.001390
 30
0.0
 10
310.000960
 20
67.001390
 30
0.0
 10
310.000960
 20
70.000001
 30
0.0
 10
299.999710
 20
70.000001
 30
0.0
 10
299.999710
 20
67.001390
 30
0.0
 10
289.998460
 20
67.001390
 30
0.0
 10
289.998460
 20
70.000001
 30
0.0
 10
279.997222
 20
70.000001
 30
0.0
 10
279.997222
 20
67.001390
 30
0.0
 10
269.995972
 20
67.001390
 30
0.0
 10
269.995972
 20
70.000001
 30
0.0
 10
259.994722
 20
70.000001
 30
0.0
 10
259.994722
 20
67.001390
 30
0.0
 10
249.993472
 20
67.001390
 30
0.0
 10
249.993472
 20
70.000001
 30
0.0
 10
240.001041
 20
70.000001
 30
0.0
 10
240.001041
 20
67.001390
 30
0.0
 10
229.999791
 20
67.001390
 30
0.0
 10
229.999791
 20
70.000001
 30
0.0
 10
219.998541
 20
70.000001
 30
0.0
 10
219.998541
 20
67.001390
 30
0.0
 10
209.997291
 20
67.001390
 30
0.0
 10
209.997291
 20
70.000001
 30
0.0
 10
199.996041
 20
70.000001
 30
0.0
 10
199.996041
 20
67.001390
 30
0.0
 10
189.994791
 20
67.001390
 30
0.0
 10
189.994791
 20
70.000001
 30
0.0
 10
179.993541
 20
70.000001
 30
0.0
 10
179.993541
 20
67.001390
 30
0.0
 10
170.001111
 20
67.001390
 30
0.0
 10
170.001111
 20
70.000001
 30
0.0
 10
159.999861
 20
70.000001
 30
0.0
 10
159.999861
 20
67.001390
 30
0.0
 10
149.998611
 20
67.001390
 30
0.0
 10
149.998611
 20
70.000001
 30
0.0
 10
139.997361
 20
70.000001
 30
0.0
 10
139.997361
 20
67.001390
 30
0.0
 10
129.996111
 20
67.001390
 30
0.0
 10
129.996111
 20
70.000001
 30
0.0
 10
119.994861
 20
70.000001
 30
0.0
 10
119.994861
 20
67.001390
 30
0.0
 10
109.993611
 20
67.001390
 30
0.0
 10
109.993611
 20
70.000001
 30
0.0
 10
100.001180
 20
70.000001
 30
0.0
 10
100.001180
 20
67.001390
 30
0.0
 10
89.999930
 20
67.001390
 30
0.0
 10
89.999930
 20
70.000001
 30
0.0
 10
79.998680
 20
70.000001
 30
0.0
 10
79.998680
 20
67.001390
 30
0.0
 10
69.997430
 20
67.001390
 30
0.0
 10
69.997430
 20
70.000001
 30
0.0
 10
59.996180
 20
70.000001
 30
0.0
 10
59.996180
 20
67.001390
 30
0.0
 10
49.994930
 20
67.001390
 30
0.0
 10
49.994930
 20
70.000001
 30
0.0
 10
39.993680
 20
70.000001
 30
0.0
 10
39.993680
 20
67.001390
 30
0.0
 10
30.001250
 20
67.001390
 30
0.0
 10
30.001250
 20
70.000001
 30
0.0
 10
20.000000
 20
70.000001
 30
0.0
 10
20.000000
 20
70.000001
 30
0.0
  0
LWPOLYLINE
  5
105
100
AcDbEntity
  8
Layer
 62
7
100
AcDbPolyline
 90
24
 70
0
 10
96.999947
 20
107.997837
 30
0.0
 10
94.001336
 20
107.997837
 30
0.0
 10
94.001336
 20
117.999087
 30
0.0
 10
37.001278
 20
117.999087
 30
0.0
 10
37.001278
 20
115.000476
 30
0.0
 10
19.997391
 20
115.000476
 30
0.0
 10
19.997391
 20
97.000004
 30
0.0
 10
27.000000
 20
97.000004
 30
0.0
 10
27.000000
 20
94.001392
 30
0.0
 10
37.001278
 20
94.001392
 30
0.0
 10
37.001278
 20
97.000004
 30
0.0
 10
46.993694
 20
97.000004
 30
0.0
 10
46.993694
 20
94.001392
 30
0.0
 10
56.994947
 20
94.001392
 30
0.0
 10
56.994947
 20
97.000004
 30
0.0
 10
66.996197
 20
97.000004
 30
0.0
 10
66.996197
 20
94.001392
 30
0.0
 10
76.997447
 20
94.001392
 30
0.0
 10
76.997447
 20
97.000004
 30
0.0
 10
86.998697
 20
97.000004
 30
0.0
 10
86.998697
 20
94.001392
 30
0.0
 10
96.999947
 20
94.001392
 30
0.0
 10
96.999947
 20
107.997837
 30
0.0
 10
96.999947
 20
107.997837
 30
0.0
  0
LWPOLYLINE
  5
106
100
AcDbEntity
  8
Layer
 62
7
100
AcDbPolyline
 90
24
 70
0
 10
176.998667
 20
117.999087
 30
0.0
 10
166.997417
 20
117.999087
 30
0.0
 10
166.997417
 20
115.000476
 30
0.0
 10
156.996167
 20
115.000476
 30
0.0
 10
156.996167
 20
117.999087
 30
0.0
 10
146.994917
 20
117.999087
 30
0.0
 10
146.994917
 20
115.000476
 30
0.0
 10
136.993667
 20
115.000476
 30
0.0
 10
136.993667
 20
117.999087
 30
0.0
 10
126.992417
 20
117.999087
 30
0.0
 10
126.992417
 20
115.000476
 30
0.0
 10
117.000000
 20
115.000476
 30
0.0
 10
117.000000
 20
117.999087
 30
0.0
 10
106.998722
 20
117.999087
 30
0.0
 10
106.998722
 20
115.000476
 30
0.0
 10
99.996111
 20
115.000476
 30
0.0
 10
99.996111
 20
97.000004
 30
0.0
 10
117.000000
 20
97.000004
 30
0.0
 10
117.000000
 20
94.001392
 30
0.0
 10
174.000056
 20
94.001392
 30
0.0
 10
174.000056
 20
104.002614
 30
0.0
 10
176.998667
 20
104.002614
 30
0.0
 10
176.998667
 20
117.999087
 30
0.0
 10
176.998667
 20
117.999087
 30
0.0
  0
LWPOLYLINE
  5
107
100
AcDbEntity
  8
Layer
 62
7
100
AcDbPolyline
 90
118
 70
0
 10
20.006319
 20
225.999068
 30
0.0
 10
20.006319
 20
215.997846
 30
0.0
 10
23.004930
 20
215.997846
 30
0.0
 10
23.004930
 20
204.999985
 30
0.0
 10
30.007568
 20
204.999985
 30
0.0
 10
30.007568
 20
202.001374
 30
0.0
 10
39.999999
 20
202.001374
 30
0.0
 10
39.999999
 20
204.999985
 30
0.0
 10
50.001249
 20
204.999985
 30
0.0
 10
50.001249
 20
202.001374
 30
0.0
 10
60.002499
 20
202.001374
 30
0.0
 10
60.002499
 20
204.999985
 30
0.0
 10
70.003749
 20
204.999985
 30
0.0
 10
70.003749
 20
202.001374
 30
0.0
 10
80.004999
 20
202.001374
 30
0.0
 10
80.004999
 20
204.999985
 30
0.0
 10
90.006249
 20
204.999985
 30
0.0
 10
90.006249
 20
202.001374
 30
0.0
 10
100.007499
 20
202.001374
 30
0.0
 10
100.007499
 20
204.999985
 30
0.0
 10
109.999930
 20
204.999985
 30
0.0
 10
109.999930
 20
202.001374
 30
0.0
 10
120.001180
 20
202.001374
 30
0.0
 10
120.001180
 20
204.999985
 30
0.0
 10
130.002430
 20
204.999985
 30
0.0
 10
130.002430
 20
202.001374
 30
0.0
 10
140.003680
 20
202.001374
 30
0.0
 10
140.003680
 20
204.999985
 30
0.0
 10
150.004930
 20
204.999985
 30
0.0
 10
150.004930
 20
202.001374
 30
0.0
 10
160.006180
 20
202.001374
 30
0.0
 10
160.006180
 20
204.999985
 30
0.0
 10
170.007430
 20
204.999985
 30
0.0
 10
170.007430
 20
202.001374
 30
0.0
 10
179.999860
 20
202.001374
 30
0.0
 10
179.999860
 20
204.999985
 30
0.0
 10
190.001110
 20
204.999985
 30
0.0
 10
190.001110
 20
202.001374
 30
0.0
 10
200.002360
 20
202.001374
 30
0.0
 10
200.002360
 20
204.999985
 30
0.0
 10
210.003610
 20
204.999985
 30
0.0
 10
210.003610
 20
202.001374
 30
0.0
 10
220.004860
 20
202.001374
 30
0.0
 10
220.004860
 20
204.999985
 30
0.0
 10
230.006110
 20
204.999985
 30
0.0
 10
230.006110
 20
202.001374
 30
0.0
 10
240.007360
 20
202.001374
 30
0.0
 10
240.007360
 20
204.999985
 30
0.0
 10
249.999791
 20
204.999985
 30
0.0
 10
249.999791
 20
202.001374
 30
0.0
 10
260.001041
 20
202.001374
 30
0.0
 10
260.001041
 20
204.999985
 30
0.0
 10
270.002291
 20
204.999985
 30
0.0
 10
270.002291
 20
202.001374
 30
0.0
 10
280.003541
 20
202.001374
 30
0.0
 10
280.003541
 20
204.999985
 30
0.0
 10
290.004782
 20
204.999985
 30
0.0
 10
290.004782
 20
202.001374
 30
0.0
 10
300.006032
 20
202.001374
 30
0.0
 10
300.006032
 20
204.999985
 30
0.0
 10
310.007282
 20
204.999985
 30
0.0
 10
310.007282
 20
202.001374
 30
0.0
 10
319.999727
 20
202.001374
 30
0.0
 10
319.999727
 20
204.999985
 30
0.0
 10
330.000949
 20
204.999985
 30
0.0
 10
330.000949
 20
202.001374
 30
0.0
 10
340.002227
 20
202.001374
 30
0.0
 10
340.002227
 20
204.999985
 30
0.0
 10
350.003449
 20
204.999985
 30
0.0
 10
350.003449
 20
202.001374
 30
0.0
 10
360.004727
 20
202.001374
 30
0.0
 10
360.004727
 20
204.999985
 30
0.0
 10
370.005949
 20
204.999985
 30
0.0
 10
370.005949
 20
202.001374
 30
0.0
 10
380.007227
 20
202.001374
 30
0.0
 10
380.007227
 20
204.999985
 30
0.0
 10
389.999643
 20
204.999985
 30
0.0
 10
389.999643
 20
202.001374
 30
0.0
 10
400.000893
 20
202.001374
 30
0.0
 10
400.000893
 20
204.999985
 30
0.0
 10
410.002143
 20
204.999985
 30
0.0
 10
410.002143
 20
202.001374
 30
0.0
 10
420.003393
 20
202.001374
 30
0.0
 10
420.003393
 20
204.999985
 30
0.0
 10
430.004643
 20
204.999985
 30
0.0
 10
430.004643
 20
202.001374
 30
0.0
 10
440.005893
 20
202.001374
 30
0.0
 10
440.005893
 20
204.999985
 30
0.0
 10
450.007143
 20
204.999985
 30
0.0
 10
450.007143
 20
202.001374
 30
0.0
 10
459.999560
 20
202.001374
 30
0.0
 10
459.999560
 20
204.999985
 30
0.0
 10
470.000838
 20
204.999985
 30
0.0
 10
470.000838
 20
202.001374
 30
0.0
 10
480.002060
 20
202.001374
 30
0.0
 10
480.002060
 20
204.999985
 30
0.0
 10
490.003338
 20
204.999985
 30
0.0
 10
490.003338
 20
202.001374
 30
0.0
 10
500.004560
 20
202.001374
 30
0.0
 10
500.004560
 20
204.999985
 30
0.0
 10
510.005838
 20
204.999985
 30
0.0
 10
510.005838
 20
202.001374
 30
0.0
 10
520.007060
 20
202.001374
 30
0.0
 10
520.007060
 20
204.999985
 30
0.0
 10
529.999504
 20
204.999985
 30
0.0
 10
529.999504
 20
202.001374
 30
0.0
 10
540.000754
 20
202.001374
 30
0.0
 10
540.000754
 20
204.999985
 30
0.0
 10
550.002004
 20
204.999985
 30
0.0
 10
550.002004
 20
202.001374
 30
0.0
 10
560.003254
 20
202.001374
 30
0.0
 10
560.003254
 20
204.999985
 30
0.0
 10
567.005893
 20
204.999985
 30
0.0
 10
567.005893
 20
215.997846
 30
0.0
 10
570.004504
 20
215.997846
 30
0.0
 10
570.004504
 20
225.999068
 30
0.0
 10
20.006319
 20
225.999068
 30
0.0
 10
20.006319
 20
225.999068
 30
0.0
  0
LWPOLYLINE
  5
108
100
AcDbEntity
  8
Layer
 62
7
100
AcDbPolyline
 90
411
 70
0
 10
23.001111
 20
200.002874
 30
0.0
 10
23.001111
 20
190.001624
 30
0.0
 10
20.002500
 20
190.001624
 30
0.0
 10
20.002500
 20
180.000374
 30
0.0
 10
23.001111
 20
180.000374
 30
0.0
 10
23.001111
 20
169.999124
 30
0.0
 10
20.002500
 20
169.999124
 30
0.0
 10
20.002500
 20
159.997874
 30
0.0
 10
23.001111
 20
159.997874
 30
0.0
 10
23.001111
 20
149.996624
 30
0.0
 10
20.002500
 20
149.996624
 30
0.0
 10
20.002500
 20
140.004207
 30
0.0
 10
23.001111
 20
140.004207
 30
0.0
 10
23.001111
 20
130.002929
 30
0.0
 10
20.002500
 20
130.002929
 30
0.0
 10
20.002500
 20
140.004207
 30
0.0
 10
19.993681
 20
140.004207
 30
0.0
 10
19.993681
 20
123.009124
 30
0.0
 10
20.002500
 20
123.009124
 30
0.0
 10
20.002500
 20
120.001707
 30
0.0
 10
29.994931
 20
120.001707
 30
0.0
 10
29.994931
 20
123.009124
 30
0.0
 10
30.003736
 20
123.009124
 30
0.0
 10
30.003736
 20
123.000375
 30
0.0
 10
39.987347
 20
123.000375
 30
0.0
 10
39.987347
 20
123.009124
 30
0.0
 10
39.996152
 20
123.009124
 30
0.0
 10
39.996152
 20
123.000375
 30
0.0
 10
39.987347
 20
123.000375
 30
0.0
 10
39.987347
 20
120.001764
 30
0.0
 10
49.988597
 20
120.001764
 30
0.0
 10
49.988597
 20
123.009180
 30
0.0
 10
49.997402
 20
123.009180
 30
0.0
 10
49.997402
 20
123.000431
 30
0.0
 10
59.989833
 20
123.000431
 30
0.0
 10
59.989833
 20
123.009180
 30
0.0
 10
59.998638
 20
123.009180
 30
0.0
 10
59.998638
 20
123.000431
 30
0.0
 10
59.989833
 20
123.000431
 30
0.0
 10
59.989833
 20
120.001820
 30
0.0
 10
69.991083
 20
120.001820
 30
0.0
 10
69.991083
 20
123.009237
 30
0.0
 10
69.999888
 20
123.009237
 30
0.0
 10
69.999888
 20
123.000488
 30
0.0
 10
79.992319
 20
123.000488
 30
0.0
 10
79.992319
 20
123.009237
 30
0.0
 10
80.001124
 20
123.009237
 30
0.0
 10
80.001124
 20
123.000488
 30
0.0
 10
79.992319
 20
123.000488
 30
0.0
 10
79.992319
 20
120.001877
 30
0.0
 10
89.993569
 20
120.001877
 30
0.0
 10
89.993569
 20
123.009293
 30
0.0
 10
90.002374
 20
123.009293
 30
0.0
 10
90.002374
 20
123.000544
 30
0.0
 10
99.994805
 20
123.000544
 30
0.0
 10
99.994805
 20
123.009293
 30
0.0
 10
100.003610
 20
123.009293
 30
0.0
 10
100.003610
 20
123.000544
 30
0.0
 10
99.994805
 20
123.000544
 30
0.0
 10
99.994805
 20
120.001933
 30
0.0
 10
109.987235
 20
120.001933
 30
0.0
 10
109.987235
 20
123.009350
 30
0.0
 10
109.996041
 20
123.009350
 30
0.0
 10
109.996041
 20
123.000601
 30
0.0
 10
119.988471
 20
123.000601
 30
0.0
 10
119.988471
 20
123.009350
 30
0.0
 10
119.997276
 20
123.009350
 30
0.0
 10
119.997276
 20
123.000601
 30
0.0
 10
119.988471
 20
123.000601
 30
0.0
 10
119.988471
 20
120.001990
 30
0.0
 10
129.989721
 20
120.001990
 30
0.0
 10
129.989721
 20
123.009406
 30
0.0
 10
129.998526
 20
123.009406
 30
0.0
 10
129.998526
 20
123.000657
 30
0.0
 10
139.990957
 20
123.000657
 30
0.0
 10
139.990957
 20
123.009406
 30
0.0
 10
139.999762
 20
123.009406
 30
0.0
 10
139.999762
 20
123.000657
 30
0.0
 10
139.990957
 20
123.000657
 30
0.0
 10
139.990957
 20
120.002046
 30
0.0
 10
149.992207
 20
120.002046
 30
0.0
 10
149.992207
 20
123.009462
 30
0.0
 10
150.001012
 20
123.009462
 30
0.0
 10
150.001012
 20
123.000714
 30
0.0
 10
159.993443
 20
123.000714
 30
0.0
 10
159.993443
 20
123.009462
 30
0.0
 10
160.002248
 20
123.009462
 30
0.0
 10
160.002248
 20
123.000714
 30
0.0
 10
159.993443
 20
123.000714
 30
0.0
 10
159.993443
 20
120.002102
 30
0.0
 10
169.994693
 20
120.002102
 30
0.0
 10
169.994693
 20
123.009519
 30
0.0
 10
170.003498
 20
123.009519
 30
0.0
 10
170.003498
 20
123.000770
 30
0.0
 10
179.987109
 20
123.000770
 30
0.0
 10
179.987109
 20
123.009519
 30
0.0
 10
179.995915
 20
123.009519
 30
0.0
 10
179.995915
 20
123.000770
 30
0.0
 10
179.987109
 20
123.000770
 30
0.0
 10
179.987109
 20
120.002159
 30
0.0
 10
189.988359
 20
120.002159
 30
0.0
 10
189.988359
 20
123.009575
 30
0.0
 10
189.997165
 20
123.009575
 30
0.0
 10
189.997165
 20
123.000826
 30
0.0
 10
199.989595
 20
123.000826
 30
0.0
 10
199.989595
 20
123.009575
 30
0.0
 10
199.998401
 20
123.009575
 30
0.0
 10
199.998401
 20
123.000826
 30
0.0
 10
199.989595
 20
123.000826
 30
0.0
 10
199.989595
 20
120.002215
 30
0.0
 10
209.990845
 20
120.002215
 30
0.0
 10
209.990845
 20
123.009632
 30
0.0
 10
209.999651
 20
123.009632
 30
0.0
 10
209.999651
 20
123.000883
 30
0.0
 10
219.992081
 20
123.000883
 30
0.0
 10
219.992081
 20
123.009632
 30
0.0
 10
220.000886
 20
123.009632
 30
0.0
 10
220.000886
 20
123.000883
 30
0.0
 10
219.992081
 20
123.000883
 30
0.0
 10
219.992081
 20
120.002272
 30
0.0
 10
229.993331
 20
120.002272
 30
0.0
 10
229.993331
 20
123.009688
 30
0.0
 10
230.002136
 20
123.009688
 30
0.0
 10
230.002136
 20
123.000939
 30
0.0
 10
239.994567
 20
123.000939
 30
0.0
 10
239.994567
 20
123.009688
 30
0.0
 10
240.003372
 20
123.009688
 30
0.0
 10
240.003372
 20
123.000939
 30
0.0
 10
239.994567
 20
123.000939
 30
0.0
 10
239.994567
 20
120.002328
 30
0.0
 10
249.986998
 20
120.002328
 30
0.0
 10
249.986998
 20
123.009745
 30
0.0
 10
249.995803
 20
123.009745
 30
0.0
 10
249.995803
 20
123.000996
 30
0.0
 10
259.988233
 20
123.000996
 30
0.0
 10
259.988233
 20
123.009745
 30
0.0
 10
259.997039
 20
123.009745
 30
0.0
 10
259.997039
 20
123.000996
 30
0.0
 10
259.988233
 20
123.000996
 30
0.0
 10
259.988233
 20
120.002385
 30
0.0
 10
269.989483
 20
120.002385
 30
0.0
 10
269.989483
 20
123.009801
 30
0.0
 10
269.998289
 20
123.009801
 30
0.0
 10
269.998289
 20
123.001052
 30
0.0
 10
279.990719
 20
123.001052
 30
0.0
 10
279.990719
 20
123.009801
 30
0.0
 10
279.999525
 20
123.009801
 30
0.0
 10
279.999525
 20
123.001052
 30
0.0
 10
279.990719
 20
123.001052
 30
0.0
 10
279.990719
 20
120.002441
 30
0.0
 10
289.991969
 20
120.002441
 30
0.0
 10
289.991969
 20
123.009858
 30
0.0
 10
290.000718
 20
123.009858
 30
0.0
 10
290.000718
 20
123.001109
 30
0.0
 10
299.993163
 20
123.001109
 30
0.0
 10
299.993163
 20
123.009858
 30
0.0
 10
300.001912
 20
123.009858
 30
0.0
 10
300.001912
 20
123.001109
 30
0.0
 10
299.993163
 20
123.001109
 30
0.0
 10
299.993163
 20
120.002498
 30
0.0
 10
309.994385
 20
120.002498
 30
0.0
 10
309.994385
 20
123.009914
 30
0.0
 10
310.003134
 20
123.009914
 30
0.0
 10
310.003134
 20
123.001165
 30
0.0
 10
319.986745
 20
123.001165
 30
0.0
 10
319.986745
 20
123.009914
 30
0.0
 10
319.995494
 20
123.009914
 30
0.0
 10
319.995494
 20
123.001165
 30
0.0
 10
319.986745
 20
123.001165
 30
0.0
 10
319.986745
 20
120.002554
 30
0.0
 10
329.987995
 20
120.002554
 30
0.0
 10
329.987995
 20
123.009970
 30
0.0
 10
329.996744
 20
123.009970
 30
0.0
 10
329.996744
 20
123.001222
 30
0.0
 10
339.989188
 20
123.001222
 30
0.0
 10
339.989188
 20
123.009970
 30
0.0
 10
339.997937
 20
123.009970
 30
0.0
 10
339.997937
 20
123.001222
 30
0.0
 10
339.989188
 20
123.001222
 30
0.0
 10
339.989188
 20
120.002610
 30
0.0
 10
349.990438
 20
120.002610
 30
0.0
 10
349.990438
 20
123.010027
 30
0.0
 10
349.999187
 20
123.010027
 30
0.0
 10
349.999187
 20
123.001278
 30
0.0
 10
359.991632
 20
123.001278
 30
0.0
 10
359.991632
 20
123.010027
 30
0.0
 10
360.000381
 20
123.010027
 30
0.0
 10
360.000381
 20
123.001278
 30
0.0
 10
359.991632
 20
123.001278
 30
0.0
 10
359.991632
 20
120.002667
 30
0.0
 10
369.992882
 20
120.002667
 30
0.0
 10
369.992882
 20
123.010083
 30
0.0
 10
370.001631
 20
123.010083
 30
0.0
 10
370.001631
 20
123.001334
 30
0.0
 10
379.994075
 20
123.001334
 30
0.0
 10
379.994075
 20
123.010083
 30
0.0
 10
380.002824
 20
123.010083
 30
0.0
 10
380.002824
 20
123.001334
 30
0.0
 10
379.994075
 20
123.001334
 30
0.0
 10
379.994075
 20
120.002723
 30
0.0
 10
389.986520
 20
120.002723
 30
0.0
 10
389.986520
 20
123.010140
 30
0.0
 10
389.995269
 20
123.010140
 30
0.0
 10
389.995269
 20
123.001391
 30
0.0
 10
399.987685
 20
123.001391
 30
0.0
 10
399.987685
 20
123.010140
 30
0.0
 10
399.996434
 20
123.010140
 30
0.0
 10
399.996434
 20
123.001391
 30
0.0
 10
399.987685
 20
123.001391
 30
0.0
 10
399.987685
 20
120.002780
 30
0.0
 10
409.988964
 20
120.002780
 30
0.0
 10
409.988964
 20
123.010196
 30
0.0
 10
409.997712
 20
123.010196
 30
0.0
 10
409.997712
 20
123.001447
 30
0.0
 10
419.990129
 20
123.001447
 30
0.0
 10
419.990129
 20
123.010196
 30
0.0
 10
419.998878
 20
123.010196
 30
0.0
 10
419.998878
 20
123.001447
 30
0.0
 10
419.990129
 20
123.001447
 30
0.0
 10
419.990129
 20
120.002836
 30
0.0
 10
429.991407
 20
120.002836
 30
0.0
 10
429.991407
 20
123.010253
 30
0.0
 10
430.000156
 20
123.010253
 30
0.0
 10
430.000156
 20
123.001504
 30
0.0
 10
439.992572
 20
123.001504
 30
0.0
 10
439.992572
 20
123.010253
 30
0.0
 10
440.001321
 20
123.010253
 30
0.0
 10
440.001321
 20
123.001504
 30
0.0
 10
439.992572
 20
123.001504
 30
0.0
 10
439.992572
 20
120.002893
 30
0.0
 10
449.993851
 20
120.002893
 30
0.0
 10
449.993851
 20
123.010309
 30
0.0
 10
450.002600
 20
123.010309
 30
0.0
 10
450.002600
 20
123.001560
 30
0.0
 10
459.986211
 20
123.001560
 30
0.0
 10
459.986211
 20
123.010309
 30
0.0
 10
459.994960
 20
123.010309
 30
0.0
 10
459.994960
 20
123.001560
 30
0.0
 10
459.986211
 20
123.001560
 30
0.0
 10
459.986211
 20
120.002949
 30
0.0
 10
469.987461
 20
120.002949
 30
0.0
 10
469.987461
 20
123.010366
 30
0.0
 10
469.996210
 20
123.010366
 30
0.0
 10
469.996210
 20
123.001617
 30
0.0
 10
479.988626
 20
123.001617
 30
0.0
 10
479.988626
 20
120.003006
 30
0.0
 10
489.989876
 20
120.003006
 30
0.0
 10
489.989876
 20
123.001617
 30
0.0
 10
489.998625
 20
123.001617
 30
0.0
 10
499.991041
 20
123.001617
 30
0.0
 10
499.991041
 20
123.010366
 30
0.0
 10
499.999790
 20
123.010366
 30
0.0
 10
499.999790
 20
123.001617
 30
0.0
 10
499.991041
 20
123.001617
 30
0.0
 10
499.991041
 20
120.003006
 30
0.0
 10
509.992291
 20
120.003006
 30
0.0
 10
509.992291
 20
123.010422
 30
0.0
 10
510.001040
 20
123.010422
 30
0.0
 10
510.001040
 20
123.001673
 30
0.0
 10
519.993457
 20
123.001673
 30
0.0
 10
519.993457
 20
123.010422
 30
0.0
 10
520.002206
 20
123.010422
 30
0.0
 10
520.002206
 20
123.001673
 30
0.0
 10
519.993457
 20
123.001673
 30
0.0
 10
519.993457
 20
120.003062
 30
0.0
 10
529.985873
 20
120.003062
 30
0.0
 10
529.985873
 20
123.010478
 30
0.0
 10
529.994622
 20
123.010478
 30
0.0
 10
529.994622
 20
123.001730
 30
0.0
 10
539.987067
 20
123.001730
 30
0.0
 10
539.987067
 20
123.010478
 30
0.0
 10
539.995816
 20
123.010478
 30
0.0
 10
539.995816
 20
123.001730
 30
0.0
 10
539.987067
 20
123.001730
 30
0.0
 10
539.987067
 20
120.003118
 30
0.0
 10
549.988288
 20
120.003118
 30
0.0
 10
549.988288
 20
123.010535
 30
0.0
 10
549.997037
 20
123.010535
 30
0.0
 10
549.997037
 20
123.001786
 30
0.0
 10
559.989482
 20
123.001786
 30
0.0
 10
559.989482
 20
120.003175
 30
0.0
 10
569.999537
 20
120.003175
 30
0.0
 10
569.999537
 20
123.001786
 30
0.0
 10
569.990788
 20
123.001786
 30
0.0
 10
569.990788
 20
130.004397
 30
0.0
 10
567.001011
 20
130.004397
 30
0.0
 10
567.001011
 20
140.005675
 30
0.0
 10
569.990788
 20
140.005675
 30
0.0
 10
569.990788
 20
130.004397
 30
0.0
 10
569.999537
 20
130.004397
 30
0.0
 10
569.999537
 20
149.998091
 30
0.0
 10
567.000926
 20
149.998091
 30
0.0
 10
567.000926
 20
159.999341
 30
0.0
 10
569.999537
 20
159.999341
 30
0.0
 10
569.999537
 20
170.000591
 30
0.0
 10
567.000926
 20
170.000591
 30
0.0
 10
567.000926
 20
180.001841
 30
0.0
 10
569.999537
 20
180.001841
 30
0.0
 10
569.999537
 20
190.003091
 30
0.0
 10
567.000926
 20
190.003091
 30
0.0
 10
567.000926
 20
200.004341
 30
0.0
 10
559.998287
 20
200.004341
 30
0.0
 10
559.998287
 20
197.005730
 30
0.0
 10
549.997037
 20
197.005730
 30
0.0
 10
549.997037
 20
200.004341
 30
0.0
 10
539.995787
 20
200.004341
 30
0.0
 10
539.995787
 20
197.005730
 30
0.0
 10
529.994537
 20
197.005730
 30
0.0
 10
529.994537
 20
200.004341
 30
0.0
 10
520.002093
 20
200.004341
 30
0.0
 10
520.002093
 20
197.005730
 30
0.0
 10
510.000871
 20
197.005730
 30
0.0
 10
510.000871
 20
200.004341
 30
0.0
 10
499.999593
 20
200.004341
 30
0.0
 10
499.999593
 20
197.005730
 30
0.0
 10
489.998371
 20
197.005730
 30
0.0
 10
489.998371
 20
200.004341
 30
0.0
 10
479.997093
 20
200.004341
 30
0.0
 10
479.997093
 20
197.005730
 30
0.0
 10
469.995871
 20
197.005730
 30
0.0
 10
469.995871
 20
200.004341
 30
0.0
 10
459.994593
 20
200.004341
 30
0.0
 10
459.994593
 20
197.005730
 30
0.0
 10
450.002176
 20
197.005730
 30
0.0
 10
450.002176
 20
200.004341
 30
0.0
 10
440.000926
 20
200.004341
 30
0.0
 10
440.000926
 20
197.005730
 30
0.0
 10
429.999676
 20
197.005730
 30
0.0
 10
429.999676
 20
200.004341
 30
0.0
 10
419.998426
 20
200.004341
 30
0.0
 10
419.998426
 20
197.005730
 30
0.0
 10
409.997176
 20
197.005730
 30
0.0
 10
409.997176
 20
200.004341
 30
0.0
 10
399.995926
 20
200.004341
 30
0.0
 10
399.995926
 20
197.005730
 30
0.0
 10
389.994676
 20
197.005730
 30
0.0
 10
389.994676
 20
200.004341
 30
0.0
 10
380.002260
 20
200.004341
 30
0.0
 10
380.002260
 20
197.005730
 30
0.0
 10
370.000982
 20
197.005730
 30
0.0
 10
370.000982
 20
200.004341
 30
0.0
 10
359.999760
 20
200.004341
 30
0.0
 10
359.999760
 20
197.005730
 30
0.0
 10
349.998482
 20
197.005730
 30
0.0
 10
349.998482
 20
200.004341
 30
0.0
 10
339.997260
 20
200.004341
 30
0.0
 10
339.997260
 20
197.005730
 30
0.0
 10
329.995982
 20
197.005730
 30
0.0
 10
329.995982
 20
200.004341
 30
0.0
 10
319.994760
 20
200.004341
 30
0.0
 10
319.994760
 20
197.005730
 30
0.0
 10
310.002315
 20
197.005730
 30
0.0
 10
310.002315
 20
200.004341
 30
0.0
 10
300.001065
 20
200.004341
 30
0.0
 10
300.001065
 20
197.005730
 30
0.0
 10
289.999815
 20
197.005730
 30
0.0
 10
289.999815
 20
200.004341
 30
0.0
 10
279.998579
 20
200.004341
 30
0.0
 10
279.998579
 20
197.005730
 30
0.0
 10
269.997329
 20
197.005730
 30
0.0
 10
269.997329
 20
200.004341
 30
0.0
 10
259.996079
 20
200.004341
 30
0.0
 10
259.996079
 20
197.005730
 30
0.0
 10
249.994829
 20
197.005730
 30
0.0
 10
249.994829
 20
200.004341
 30
0.0
 10
240.002399
 20
200.004341
 30
0.0
 10
240.002399
 20
197.005730
 30
0.0
 10
230.001149
 20
197.005730
 30
0.0
 10
230.001149
 20
200.004341
 30
0.0
 10
219.999899
 20
200.004341
 30
0.0
 10
219.999899
 20
197.005730
 30
0.0
 10
209.998649
 20
197.005730
 30
0.0
 10
209.998649
 20
200.004341
 30
0.0
 10
199.997399
 20
200.004341
 30
0.0
 10
199.997399
 20
197.005730
 30
0.0
 10
189.996149
 20
197.005730
 30
0.0
 10
189.996149
 20
200.004341
 30
0.0
 10
179.994899
 20
200.004341
 30
0.0
 10
179.994899
 20
197.005730
 30
0.0
 10
170.002468
 20
197.005730
 30
0.0
 10
170.002468
 20
200.004341
 30
0.0
 10
160.001218
 20
200.004341
 30
0.0
 10
160.001218
 20
197.005730
 30
0.0
 10
149.999968
 20
197.005730
 30
0.0
 10
149.999968
 20
200.004341
 30
0.0
 10
139.998718
 20
200.004341
 30
0.0
 10
139.998718
 20
197.005730
 30
0.0
 10
129.997468
 20
197.005730
 30
0.0
 10
129.997468
 20
200.004341
 30
0.0
 10
119.996218
 20
200.004341
 30
0.0
 10
119.996218
 20
197.005730
 30
0.0
 10
109.994968
 20
197.005730
 30
0.0
 10
109.994968
 20
200.004341
 30
0.0
 10
100.002538
 20
200.004341
 30
0.0
 10
100.002538
 20
197.005730
 30
0.0
 10
90.001288
 20
197.005730
 30
0.0
 10
90.001288
 20
200.004341
 30
0.0
 10
80.000038
 20
200.004341
 30
0.0
 10
80.000038
 20
197.005730
 30
0.0
 10
69.998788
 20
197.005730
 30
0.0
 10
69.998788
 20
200.004341
 30
0.0
 10
59.997538
 20
200.004341
 30
0.0
 10
59.997538
 20
197.005730
 30
0.0
 10
49.996288
 20
197.005730
 30
0.0
 10
49.996288
 20
200.004341
 30
0.0
 10
39.995038
 20
200.004341
 30
0.0
 10
39.995038
 20
197.005730
 30
0.0
 10
30.002607
 20
197.005730
 30
0.0
 10
30.002607
 20
200.004341
 30
0.0
 10
22.999968
 20
200.004341
 30
0.0
 10
23.001111
 20
200.002874
 30
0.0
  0
LWPOLYLINE
  5
109
100
AcDbEntity
  8
Layer
 62
7
100
AcDbPolyline
 90
6
 70
0
 10
36.203819
 20
131.978485
 30
0.0
 10
100.894444
 20
131.978485
 30
0.0
 10
100.894444
 20
129.006346
 30
0.0
 10
36.203819
 20
129.006346
 30
0.0
 10
36.203819
 20
131.978485
 30
0.0
 10
36.203819
 20
131.978485
 30
0.0
  0
LWPOLYLINE
  5
10a
100
AcDbEntity
  8
Layer
 62
7
100
AcDbPolyline
 90
6
 70
0
 10
262.625417
 20
131.978485
 30
0.0
 10
327.316028
 20
131.978485
 30
0.0
 10
327.316028
 20
129.006346
 30
0.0
 10
262.625417
 20
129.006346
 30
0.0
 10
262.625417
 20
131.978485
 30
0.0
 10
262.625417
 20
131.978485
 30
0.0
  0
LWPOLYLINE
  5
10b
100
AcDbEntity
  8
Layer
 62
7
100
AcDbPolyline
 90
6
 70
0
 10
489.047028
 20
131.978485
 30
0.0
 10
553.746472
 20
131.978485
 30
0.0
 10
553.746472
 20
129.006346
 30
0.0
 10
489.047028
 20
129.006346
 30
0.0
 10
489.047028
 20
131.978485
 30
0.0
 10
489.047028
 20
131.978485
 30
0.0
  0
ENDSEC
  0
SECTION
  2
OBJECTS
  0
DICTIONARY
  5
C
330
0
100
AcDbDictionary
  3
ACAD_GROUP
350
D
  3
ACAD_MLINESTYLE
350
17
  0
DICTIONARY
  5
D
330
C
100
AcDbDictionary
  0
DICTIONARY
  5
1A
330
C
100
AcDbDictionary
  0
DICTIONARY
  5
17
330
C
100
AcDbDictionary
  3
STANDARD
350
18
  0
DICTIONARY
  5
19
330
C
100
AcDbDictionary
  0
ENDSEC
  0
EOF
