<?xml version="1.0" encoding="UTF-8" standalone="no"?>
<!-- Created with Inkscape (http://www.inkscape.org/) -->

<svg
   xmlns:dc="http://purl.org/dc/elements/1.1/"
   xmlns:cc="http://creativecommons.org/ns#"
   xmlns:rdf="http://www.w3.org/1999/02/22-rdf-syntax-ns#"
   xmlns:svg="http://www.w3.org/2000/svg"
   xmlns="http://www.w3.org/2000/svg"
   xmlns:sodipodi="http://sodipodi.sourceforge.net/DTD/sodipodi-0.dtd"
   xmlns:inkscape="http://www.inkscape.org/namespaces/inkscape"
   sodipodi:docname="box.svg"
   inkscape:version="0.48.4 r9939"
   version="1.1"
   id="svg2"
   height="2125.9841"
   width="3188.9763">
  <title
     id="title2989">Makespace plaque mount</title>
  <defs
     id="defs4" />
  <sodipodi:namedview
     id="base"
     pagecolor="#ffffff"
     bordercolor="#666666"
     borderopacity="1.0"
     inkscape:pageopacity="0.0"
     inkscape:pageshadow="2"
     inkscape:zoom="1.3450743"
     inkscape:cx="829.92102"
     inkscape:cy="663.95364"
     inkscape:document-units="px"
     inkscape:current-layer="layer2"
     showgrid="true"
     width="900px"
     units="mm"
     inkscape:snap-bbox="true"
     inkscape:object-paths="true"
     inkscape:object-nodes="true"
     inkscape:snap-nodes="true"
     inkscape:snap-intersection-paths="true"
     inkscape:snap-smooth-nodes="true"
     inkscape:window-width="1920"
     inkscape:window-height="1018"
     inkscape:window-x="-8"
     inkscape:window-y="-8"
     inkscape:window-maximized="1"
     inkscape:snap-global="true">
    <inkscape:grid
       type="xygrid"
       id="grid2985"
       empspacing="10"
       visible="true"
       enabled="true"
       snapvisiblegridlinesonly="true"
       units="mm"
       spacingx="1mm"
       spacingy="1mm"
       dotted="false"
       color="#00ff6f"
       opacity="0.1254902" />
  </sodipodi:namedview>
  <metadata
     id="metadata7">
    <rdf:RDF>
      <cc:Work
         rdf:about="">
        <dc:format>image/svg+xml</dc:format>
        <dc:type
           rdf:resource="http://purl.org/dc/dcmitype/StillImage" />
        <dc:title>Makespace plaque mount</dc:title>
        <cc:license
           rdf:resource="http://creativecommons.org/licenses/by/3.0/" />
        <dc:date>7 April 2013</dc:date>
        <dc:creator>
          <cc:Agent>
            <dc:title>Tom Oinn</dc:title>
          </cc:Agent>
        </dc:creator>
        <dc:rights>
          <cc:Agent>
            <dc:title>CC-BY</dc:title>
          </cc:Agent>
        </dc:rights>
        <dc:description>Cut all shapes out of 3mm material, assemble into box and mount plaque through slots. </dc:description>
      </cc:Work>
      <cc:License
         rdf:about="http://creativecommons.org/licenses/by/3.0/">
        <cc:permits
           rdf:resource="http://creativecommons.org/ns#Reproduction" />
        <cc:permits
           rdf:resource="http://creativecommons.org/ns#Distribution" />
        <cc:requires
           rdf:resource="http://creativecommons.org/ns#Notice" />
        <cc:requires
           rdf:resource="http://creativecommons.org/ns#Attribution" />
        <cc:permits
           rdf:resource="http://creativecommons.org/ns#DerivativeWorks" />
      </cc:License>
    </rdf:RDF>
  </metadata>
  <g
     inkscape:groupmode="layer"
     id="layer2"
     inkscape:label="Layer"
     style="display:inline">
    <path
       style="fill:none;fill-opacity:1;stroke:#000000;display:inline;stroke-opacity:1;stroke-width:0.10000000000000001;stroke-miterlimit:4;stroke-dasharray:none"
       d="m 70.870813,1800.0173 0,60.2188 35.437507,0 0,10.6562 35.40625,0 0,-10.6562 35.4375,0 0,10.6562 35.4375,0 0,-10.6562 35.4375,0 0,10.6562 35.4375,0 0,-10.6562 35.4375,0 0,10.6562 35.4375,0 0,-10.6562 35.40625,0 0,10.6562 35.4375,0 0,-10.6562 35.4375,0 0,10.6562 35.4375,0 0,-10.6562 35.4375,0 0,10.6562 35.4375,0 0,-10.6562 35.4375,0 0,10.6562 35.40625,0 0,-10.6562 35.4375,0 0,10.6562 35.4375,0 0,-10.6562 35.4375,0 0,10.6562 35.4375,0 0,-10.6562 35.4375,0 0,10.6562 35.4375,0 0,-10.6562 35.40625,0 0,10.6562 35.4375,0 0,-10.6562 35.4375,0 0,10.6562 35.4375,0 0,-10.6562 35.43748,0 0,10.6562 35.4375,0 0,-10.6562 35.4375,0 0,10.6562 35.4063,0 0,-10.6562 35.4374,0 0,10.6562 35.4376,0 0,-10.6562 35.4374,0 0,10.6562 35.4376,0 0,-10.6562 35.4374,0 0,10.6562 35.4376,0 0,-10.6562 35.4062,0 0,10.6562 35.4375,0 0,-10.6562 35.4375,0 0,10.6562 35.4375,0 0,-10.6562 35.4375,0 0,10.6562 35.4375,0 0,-10.6562 35.4375,0 0,10.6562 35.4062,0 0,-10.6562 35.4376,0 0,10.6562 35.4374,0 0,-10.625 35.4376,0 0,10.625 35.4374,0 0,-10.6562 35.4376,0 0,10.6562 35.4374,0 0,-10.6562 35.4063,0 0,10.6562 35.4375,0 0,-10.6562 35.4375,0 0,10.6562 35.4375,0 0,-10.625 35.4375,0 0,-60.25 -1948.812487,0 z m 57.437507,28.4376 229.21875,0 0,10.5312 -229.21875,0 0,-10.5312 z m 802.28125,0 229.21873,0 0,10.5312 -229.21873,0 0,-10.5312 z m 802.28123,0 229.25,0 0,10.5312 -229.25,0 0,-10.5312 z"
       id="rect5341"
       inkscape:connector-curvature="0" />
    <path
       style="fill:none;fill-opacity:1;stroke:#000000;display:inline;stroke-opacity:1;stroke-width:0.10000000000000001;stroke-miterlimit:4;stroke-dasharray:none"
       d="m 70.866142,1877.9526 0,74.4063 35.437498,0 0,10.625 35.40625,0 0,-10.625 35.4375,0 0,10.625 35.4375,0 0,-10.625 35.4375,0 0,10.625 35.4375,0 0,-10.625 35.4375,0 0,10.625 35.4375,0 0,-10.625 35.40625,0 0,10.625 35.4375,0 0,-10.625 35.4375,0 0,10.625 35.4375,0 0,-10.625 35.4375,0 0,10.625 35.4375,0 0,-10.625 35.4375,0 0,10.625 35.40625,0 0,-10.625 35.4375,0 0,10.625 35.4375,0 0,-10.625 35.4375,0 0,10.625 35.4375,0 0,-10.625 35.4375,0 0,10.625 35.4375,0 0,-10.625 35.40625,0 0,10.625 35.4375,0 0,-10.625 35.4375,0 0,10.625 35.4375,0 0,-10.625 35.43746,0 0,10.625 35.4375,0 0,-10.625 35.4375,0 0,10.625 35.4063,0 0,-10.625 35.4374,0 0,10.625 35.4376,0 0,-10.625 35.4374,0 0,10.625 35.4376,0 0,-10.625 35.4374,0 0,10.625 35.4376,0 0,-10.625 35.4062,0 0,10.625 35.4375,0 0,-10.625 35.4375,0 0,10.625 35.4375,0 0,-10.625 35.4375,0 0,10.625 35.4375,0 0,-10.625 35.4375,0 0,10.625 35.4062,0 0,-10.625 35.4376,0 0,10.625 35.4374,0 0,-10.625 35.4376,0 0,10.625 35.4374,0 0,-10.625 35.4376,0 0,10.625 35.4374,0 0,-10.625 35.4063,0 0,10.625 35.4375,0 0,-10.625 35.4375,0 0,10.625 35.4375,0 0,-10.625 35.4375,0 0,-74.4063 -35.4375,0 0,10.625 -35.4375,0 0,-10.625 -35.4375,0 0,10.625 -35.4375,0 0,-10.625 -35.4063,0 0,10.625 -35.4374,0 0,-10.625 -35.4376,0 0,10.625 -35.4374,0 0,-10.625 -35.4376,0 0,10.625 -35.4374,0 0,-10.625 -35.4376,0 0,10.625 -35.4062,0 0,-10.625 -35.4375,0 0,10.625 -35.4375,0 0,-10.625 -35.4375,0 0,10.625 -35.4375,0 0,-10.625 -35.4375,0 0,10.625 -35.4375,0 0,-10.625 -35.4062,0 0,10.625 -35.4376,0 0,-10.625 -35.4374,0 0,10.625 -35.4376,0 0,-10.625 -35.4374,0 0,10.625 -35.4376,0 0,-10.625 -35.4374,0 0,10.625 -35.4063,0 0,-10.625 -35.4375,0 0,10.625 -35.4375,0 0,-10.625 -35.43746,0 0,10.625 -35.4375,0 0,-10.625 -35.4375,0 0,10.625 -35.4375,0 0,-10.625 -35.40625,0 0,10.625 -35.4375,0 0,-10.625 -35.4375,0 0,10.625 -35.4375,0 0,-10.625 -35.4375,0 0,10.625 -35.4375,0 0,-10.625 -35.4375,0 0,10.625 -35.40625,0 0,-10.625 -35.4375,0 0,10.625 -35.4375,0 0,-10.625 -35.4375,0 0,10.625 -35.4375,0 0,-10.625 -35.4375,0 0,10.625 -35.4375,0 0,-10.625 -35.40625,0 0,10.625 -35.4375,0 0,-10.625 -35.4375,0 0,10.625 -35.4375,0 0,-10.625 -35.4375,0 0,10.625 -35.4375,0 0,-10.625 -35.4375,0 0,10.625 -35.40625,0 0,-10.625 -35.437498,0 z"
       id="rect5417"
       inkscape:connector-curvature="0" />
    <path
       style="fill:none;fill-opacity:1;stroke:#000000;display:inline;stroke-opacity:1;stroke-width:0.10000000000000001;stroke-miterlimit:4;stroke-dasharray:none"
       d="m 343.7006,1743.3146 -10.625,0 0,-35.4375 -201.96871,0 0,10.625 -60.249994,0 0,63.7812 24.812395,0 0,10.625 35.437599,0 0,-10.625 35.4062,0 0,10.625 35.43751,0 0,-10.625 35.4375,0 0,10.625 35.4375,0 0,-10.625 35.4375,0 0,10.625 35.4375,0 0,-49.5937 z"
       id="rect5667"
       inkscape:connector-curvature="0" />
    <path
       style="fill:none;fill-opacity:1;stroke:#000000;display:inline;stroke-opacity:1;stroke-width:0.10000000000000001;stroke-miterlimit:4;stroke-dasharray:none"
       d="m 627.16063,1707.8771 -35.4375,0 0,10.625 -35.4375,0 0,-10.625 -35.4375,0 0,10.625 -35.4375,0 0,-10.625 -35.4375,0 0,10.625 -35.4062,0 0,-10.625 -35.4376,0 0,10.625 -24.8124,0 0,63.7812 60.25,0 0,10.625 201.9687,0 0,-35.4374 10.625,0 0,-49.5938 z"
       id="rect5667-2"
       inkscape:connector-curvature="0" />
    <path
       style="fill:none;fill-opacity:1;stroke:#000000;display:inline;stroke-opacity:1;stroke-width:0.10000000000000001;stroke-miterlimit:4;stroke-dasharray:none"
       d="m 70.888533,1325.2 0,35.4374 10.625,0 0,38.9688 24.812497,0 0,10.625 35.40625,0 0,-10.625 35.4375,0 0,10.625 35.4375,0 0,-10.625 35.4375,0 0,10.625 35.4375,0 0,-10.625 35.4375,0 0,10.625 35.4375,0 0,-10.625 35.40625,0 0,10.625 35.4375,0 0,-10.625 35.4375,0 0,10.625 35.4375,0 0,-10.625 35.4375,0 0,10.625 35.4375,0 0,-10.625 35.4375,0 0,10.625 35.40625,0 0,-10.625 35.4375,0 0,10.625 35.4375,0 0,-10.625 35.4375,0 0,10.625 35.4375,0 0,-10.625 35.4375,0 0,10.625 35.4375,0 0,-10.625 35.40625,0 0,10.625 35.4375,0 0,-10.625 35.4375,0 0,10.625 35.4375,0 0,-10.625 35.43747,0 0,10.625 35.4375,0 0,-10.625 35.4375,0 0,10.625 35.4063,0 0,-10.625 35.4374,0 0,10.625 35.4376,0 0,-10.625 35.4374,0 0,10.625 35.4376,0 0,-10.625 35.4374,0 0,10.625 35.4376,0 0,-10.625 35.4062,0 0,10.625 35.4375,0 0,-10.625 35.4375,0 0,10.625 35.4375,0 0,-10.625 35.4375,0 0,10.625 35.4375,0 0,-10.625 35.4375,0 0,10.625 35.4062,0 0,-10.625 35.4376,0 0,10.625 35.4374,0 0,-10.625 35.4376,0 0,10.625 35.4374,0 0,-10.625 35.4376,0 0,10.625 35.4374,0 0,-10.625 35.4063,0 0,10.625 35.4375,0 0,-10.625 35.4375,0 0,10.625 35.4375,0 0,-10.625 24.8125,0 0,-38.9688 10.625,0 0,-35.4374 -1948.812467,0 z"
       id="rect6098"
       inkscape:connector-curvature="0" />
    <path
       style="fill:none;fill-opacity:1;stroke:#000000;display:inline;stroke-opacity:1;stroke-width:0.10000000000000001;stroke-miterlimit:4;stroke-dasharray:none"
       d="m 81.5,1417.3125 0,35.4375 -10.625,0 0,35.4375 10.625,0 0,35.4375 -10.625,0 0,35.4375 10.625,0 0,35.4375 -10.625,0 0,35.4062 10.625,0 0,35.4376 -10.625,0 0,-35.4376 -0.03125,0 0,60.2188 0.03125,0 0,10.6562 35.40625,0 0,-10.6562 0.0312,0 0,0.031 35.375,0 0,-0.031 0.0312,0 0,0.031 -0.0312,0 0,10.625 35.4375,0 0,-10.6562 0.0312,0 0,0.031 35.40625,0 0,-0.031 0.0312,0 0,0.031 -0.0312,0 0,10.625 35.4375,0 0,-10.6562 0.0312,0 0,0.031 35.40625,0 0,-0.031 0.0312,0 0,0.031 -0.0312,0 0,10.625 35.4375,0 0,-10.6562 0.0312,0 0,0.031 35.40625,0 0,-0.031 0.0312,0 0,0.031 -0.0312,0 0,10.625 35.40625,0 0,-10.6562 0.0312,0 0,0.031 35.40625,0 0,-0.031 0.0312,0 0,0.031 -0.0312,0 0,10.625 35.4375,0 0,-10.6562 0.0312,0 0,0.031 35.40625,0 0,-0.031 0.0312,0 0,0.031 -0.0312,0 0,10.625 35.4375,0 0,-10.6562 0.0312,0 0,0.031 35.40625,0 0,-0.031 0.0312,0 0,0.031 -0.0312,0 0,10.625 35.4375,0 0,-10.6562 0.0312,0 0,0.031 35.375,0 0,-0.031 0.0312,0 0,0.031 -0.0312,0 0,10.625 35.4375,0 0,-10.6562 0.0312,0 0,0.031 35.40625,0 0,-0.031 0.0312,0 0,0.031 -0.0312,0 0,10.625 35.4375,0 0,-10.6562 0.0312,0 0,0.031 35.40625,0 0,-0.031 0.0312,0 0,0.031 -0.0312,0 0,10.625 35.4375,0 0,-10.6562 0.0312,0 0,0.031 35.40625,0 0,-0.031 0.0312,0 0,0.031 -0.0312,0 0,10.625 35.40625,0 0,-10.6562 0.0312,0 0,0.031 35.40625,0 0,-0.031 0.0312,0 0,0.031 -0.0312,0 0,10.625 35.4375,0 0,-10.6562 0.0312,0 0,0.031 35.40625,0 0,-0.031 0.0312,0 0,0.031 -0.0312,0 0,10.625 35.4375,0 0,-10.6562 0.031,0 0,0.031 35.4063,0 0,-0.031 0.031,0 0,0.031 -0.031,0 0,10.625 35.4374,0 0,-10.6562 0.031,0 0,0.031 35.375,0 0,-0.031 0.031,0 0,0.031 -0.031,0 0,10.625 35.4375,0 0,-10.6562 0.031,0 0,0.031 35.4063,0 0,-0.031 0.031,0 0,0.031 -0.031,0 0,10.625 35.4375,0 0,-10.6562 0.031,0 0,0.031 35.4063,0 0,-0.031 0.031,0 0,0.031 -0.031,0 0,10.625 35.4375,0 0,-10.6562 0.031,0 0,0.031 35.4063,0 0,-0.031 0.031,0 0,0.031 -0.031,0 0,10.625 35.4063,0 0,-10.6562 0.031,0 0,0.031 35.4062,0 0,-0.031 0.031,0 0,0.031 -0.031,0 0,10.625 35.4376,0 0,-10.6562 0.031,0 0,0.031 35.4062,0 0,-0.031 0.031,0 0,0.031 -0.031,0 0,10.625 35.4376,0 0,-10.6562 0.031,0 0,0.031 35.4062,0 0,-0.031 0.031,0 0,0.031 -0.031,0 0,10.625 35.4376,0 0,-10.6562 0.031,0 0,0.031 35.375,0 0,-0.031 0.031,0 0,0.031 -0.031,0 0,10.625 35.4375,0 0,-10.6562 0.031,0 0,0.031 35.4062,0 0,10.625 35.4375,0 0,-10.625 0.031,0 35.4062,0 0,-0.031 0.031,0 0,0.031 -0.031,0 0,10.625 35.4375,0 0,-10.6562 0.031,0 0,0.031 35.4062,0 0,-0.031 0.031,0 0,0.031 -0.031,0 0,10.625 35.4062,0 0,-10.6562 0.031,0 0,0.031 35.4063,0 0,-0.031 0.031,0 0,0.031 -0.031,0 0,10.625 35.4374,0 0,-10.6562 0.031,0 0,0.031 35.4063,0 0,10.625 35.4687,0 0,-10.625 -0.031,0 0,-24.8124 -10.5937,0 0,-35.4376 10.5937,0 0,35.4376 0.031,0 0,-70.8438 -10.625,0 0,-35.4375 10.625,0 0,-35.4375 -10.625,0 0,-35.4375 10.625,0 0,-35.4375 -10.625,0 0,-35.4375 -24.8125,0 0,10.625 -35.4375,0 0,-10.625 -35.4375,0 0,10.625 -35.4375,0 0,-10.625 -35.4063,0 0,10.625 -35.4374,0 0,-10.625 -35.4376,0 0,10.625 -35.4374,0 0,-10.625 -35.4376,0 0,10.625 -35.4374,0 0,-10.625 -35.4376,0 0,10.625 -35.4062,0 0,-10.625 -35.4375,0 0,10.625 -35.4375,0 0,-10.625 -35.4375,0 0,10.625 -35.4375,0 0,-10.625 -35.4375,0 0,10.625 -35.4375,0 0,-10.625 -35.4062,0 0,10.625 -35.4376,0 0,-10.625 -35.4374,0 0,10.625 -35.4376,0 0,-10.625 -35.4374,0 0,10.625 -35.4376,0 0,-10.625 -35.4374,0 0,10.625 -35.4063,0 0,-10.625 -35.4375,0 0,10.625 -35.4375,0 0,-10.625 -35.43745,0 0,10.625 -35.4375,0 0,-10.625 -35.4375,0 0,10.625 -35.4375,0 0,-10.625 -35.40625,0 0,10.625 -35.4375,0 0,-10.625 -35.4375,0 0,10.625 -35.4375,0 0,-10.625 -35.4375,0 0,10.625 -35.4375,0 0,-10.625 -35.4375,0 0,10.625 -35.40625,0 0,-10.625 -35.4375,0 0,10.625 -35.4375,0 0,-10.625 -35.4375,0 0,10.625 -35.4375,0 0,-10.625 -35.4375,0 0,10.625 -35.4375,0 0,-10.625 -35.40625,0 0,10.625 -35.4375,0 0,-10.625 -35.4375,0 0,10.625 -35.4375,0 0,-10.625 -35.4375,0 0,10.625 -35.4375,0 0,-10.625 -35.4375,0 0,10.625 -35.40625,0 0,-10.625 -24.8125,0 z m 46.78125,241.0313 229.21875,0 0,10.5312 -229.21875,0 0,-10.5312 z m 802.28125,0 229.2187,0 0,10.5312 -229.2187,0 0,-10.5312 z m 802.2813,0 229.25,0 0,10.5312 -229.25,0 0,-10.5312 z"
       id="rect5541"
       inkscape:connector-curvature="0" />
  </g>
</svg>
