<?xml version="1.0" encoding="UTF-8" standalone="no"?>
<svg
   xmlns:dc="http://purl.org/dc/elements/1.1/"
   xmlns:cc="http://creativecommons.org/ns#"
   xmlns:rdf="http://www.w3.org/1999/02/22-rdf-syntax-ns#"
   xmlns:svg="http://www.w3.org/2000/svg"
   xmlns="http://www.w3.org/2000/svg"
   id="svg8"
   version="1.1"
   viewBox="0 0 210 297"
   height="297mm"
   width="210mm">
  <defs
     id="defs2" />
  <metadata
     id="metadata5">
    <rdf:RDF>
      <cc:Work
         rdf:about="">
        <dc:format>image/svg+xml</dc:format>
        <dc:type
           rdf:resource="http://purl.org/dc/dcmitype/StillImage" />
        <dc:title></dc:title>
      </cc:Work>
    </rdf:RDF>
  </metadata>
  <g
     id="layer1">
    <path
       d="m 81.354423,128.62019 h 40.189637 c 5.54,0 10.00001,4.46001 10.00001,10.00001 v 19.99999 c 0,5.54 -4.46002,10.24379 -10.00001,10.23624 l -50.162499,-0.0684 m 0,-4e-5 h -40 c -5.54,0 -10,-4.46 -10,-10 V 94.787994 c 0,-5.54 4.46,-10 10,-10 h 40 c 5.54,0 10,4.46 10,10 v 33.798536"
       style="fill:none;stroke:#000000;stroke-width:0.2;stroke-miterlimit:4;stroke-dasharray:none;stroke-opacity:1"
       id="rect872" />
    <path
       d="M 135.15763,125.21862 H 94.967987 c -5.54,0 -10.00001,-4.46001 -10.00001,-10.00001 V 95.218607 c 0,-5.53999 4.46002,-10.24378 10.00001,-10.23624 l 50.162503,0.0684 m 0,4e-5 h 40 c 5.54,0 10,4.46001 10,10.00001 v 63.999993 c 0,5.54 -4.46,10 -10,10 h -40 c -5.54,0 -10,-4.46 -10,-10 v -33.79853"
       style="fill:none;stroke:#000000;stroke-width:0.2;stroke-miterlimit:4;stroke-dasharray:none;stroke-opacity:1"
       id="rect872-6" />
  </g>
</svg>
